<svg width="208" height="66" viewBox="0 0 208 66" fill="none" xmlns="http://www.w3.org/2000/svg">
<mask id="mask0_3_176" style="mask-type:luminance" maskUnits="userSpaceOnUse" x="0" y="0" width="197" height="66">
<path d="M197 0.166656H0V65.8333H197V0.166656Z" fill="white"/>
</mask>
<g mask="url(#mask0_3_176)">
<path d="M0 15.773V50.2283L30.1147 33L0 15.773Z" fill="#0E0D0C"/>
<path d="M45.0209 31.9533C45.5607 31.382 46.1451 30.7581 46.7729 30.0844L49.0357 27.6666C49.8119 26.8378 50.5723 26.0157 51.3196 25.1975C52.0617 24.3832 52.759 23.6346 53.3947 22.9622C53.4831 22.8795 53.5485 22.7752 53.5846 22.6597C53.6207 22.5442 53.6264 22.4212 53.6009 22.3029C53.5484 22.0363 53.308 21.7684 52.8983 21.7684H51.5573C51.429 21.7684 51.3026 21.7982 51.1876 21.8554C51.0729 21.9126 50.9728 21.9957 50.8954 22.098C50.2965 22.7284 49.6543 23.4205 48.9688 24.1705L44.8252 28.687C44.162 29.4133 43.5552 30.0686 43.0154 30.6439C42.9169 30.7411 42.8631 30.7778 42.8644 30.7805C42.765 30.7958 42.6642 30.802 42.5636 30.7989H41.7756V22.5222C41.7756 22.0849 41.4683 21.7684 41.0441 21.7684H39.912C39.8155 21.7646 39.7192 21.7806 39.6291 21.8157C39.5392 21.8506 39.4572 21.9038 39.3887 21.9718C39.32 22.0397 39.2661 22.1211 39.2303 22.2108C39.1945 22.3007 39.1776 22.3968 39.1805 22.4933V41.7652C39.1805 42.2196 39.5009 42.5492 39.9422 42.5492H41.0454C41.4683 42.5492 41.7756 42.2314 41.7756 41.7941V33.2522H42.5032C42.6372 33.2522 42.7107 33.2627 42.7265 33.2548C42.7514 33.2745 42.804 33.3165 42.8907 33.4006L51.4496 42.1723C51.6007 42.3706 51.7714 42.4862 51.9592 42.523C52.0472 42.5401 52.1391 42.5492 52.2429 42.5492H53.7309C53.8881 42.5544 54.042 42.5038 54.1655 42.4065C54.2891 42.3092 54.3742 42.1714 54.406 42.0173C54.4317 41.9009 54.4271 41.7798 54.393 41.6655C54.3587 41.5514 54.2958 41.4478 54.2103 41.3646L45.0209 31.9533Z" fill="#0E0D0C"/>
<path d="M67.206 23.6294C66.5362 23.0292 65.6957 22.5525 64.7133 22.2136C63.7414 21.8787 62.6133 21.7093 61.3643 21.7093C59.9345 21.7096 58.5049 21.7388 57.0763 21.7973C56.6507 21.7973 56.3447 22.1151 56.3447 22.5511V41.8256C56.3447 42.2459 56.6507 42.5506 57.0763 42.5506H58.2083C58.3047 42.5543 58.4009 42.538 58.4908 42.5029C58.5807 42.4678 58.6624 42.4146 58.7309 42.3467C58.7993 42.2787 58.8532 42.1974 58.8889 42.1077C58.9246 42.0182 58.9415 41.922 58.9386 41.8256V35.3312C59.0515 35.3351 59.1697 35.3417 59.2932 35.3483C59.6675 35.3693 60.2374 35.3785 61.0071 35.3785C62.0577 35.3832 63.1039 35.2417 64.1157 34.9582C65.0688 34.697 65.964 34.2581 66.7542 33.6646C67.5196 33.0765 68.1412 32.3219 68.5719 31.4582C69.0184 30.5743 69.2443 29.5341 69.2443 28.3666C69.2443 27.4472 69.0736 26.5739 68.7373 25.7714C68.3943 24.9518 67.8709 24.2188 67.206 23.6294ZM66.6505 28.427C66.6505 29.2518 66.502 29.9518 66.2092 30.506C65.9285 31.0492 65.5197 31.5158 65.018 31.8653C64.5058 32.2238 63.9082 32.4878 63.2397 32.6467C62.5423 32.8122 61.7911 32.8963 61.0071 32.8963C60.3174 32.8976 59.6279 32.8889 58.9386 32.87V24.1915C59.1316 24.181 59.3457 24.1718 59.5847 24.1626C60.6328 24.1232 62.235 24.0575 63.4958 24.42C64.1328 24.6052 64.6949 24.8797 65.1624 25.2369C65.6169 25.5863 65.982 26.0315 66.2499 26.5594C66.5165 27.0861 66.6505 27.7152 66.6505 28.427Z" fill="#0E0D0C"/>
<path d="M86.6259 21.7684H85.4045C85.0866 21.7684 84.8135 21.9325 84.7123 22.1414L76.8468 33.7709C76.4489 34.3632 76.0509 34.9595 75.6556 35.561C75.2563 36.1625 74.8781 36.7391 74.5196 37.292L74.0336 38.0511C74.0389 37.6663 74.0428 37.2631 74.0428 36.8376V22.4933C74.0457 22.3968 74.0288 22.3007 73.9929 22.2108C73.9572 22.1211 73.9033 22.0397 73.8347 21.9718C73.7661 21.9038 73.6842 21.8506 73.5941 21.8157C73.5041 21.7806 73.4078 21.7646 73.3113 21.7684H72.1805C72.086 21.7676 71.9924 21.786 71.9052 21.8223C71.8182 21.8589 71.7392 21.9126 71.6734 21.9803C71.6076 22.0481 71.5563 22.1285 71.5224 22.2166C71.4885 22.3049 71.473 22.3989 71.4766 22.4933V41.7941C71.4766 42.2301 71.7852 42.5492 72.2081 42.5492H73.5201C73.7828 42.5492 74.0218 42.4258 74.2122 42.1763L81.9609 30.7765L84.3118 27.2069C84.4851 26.9455 84.648 26.6934 84.8017 26.4491C84.7735 27.6143 84.7604 28.7797 84.7623 29.9452V41.823C84.7623 42.2432 85.0683 42.5479 85.4938 42.5479H86.6246C86.7189 42.5487 86.8125 42.5303 86.8996 42.494C86.9866 42.4574 87.0654 42.4037 87.1311 42.336C87.1968 42.2682 87.248 42.1877 87.2817 42.0996C87.3154 42.0114 87.3309 41.9173 87.3272 41.823V22.4933C87.3272 22.0823 87.0251 21.771 86.6246 21.771" fill="#0E0D0C"/>
<path d="M105.347 21.7684H91.4055C91.3091 21.7647 91.2131 21.781 91.1233 21.8161C91.0335 21.8511 90.9518 21.9043 90.8834 21.9724C90.8151 22.0404 90.7614 22.1217 90.7259 22.2114C90.6903 22.301 90.6735 22.397 90.6766 22.4934V41.7941C90.6766 42.2301 90.9827 42.5493 91.4055 42.5493H92.5389C92.9632 42.5493 93.2718 42.2314 93.2718 41.7941V24.248H103.483V41.823C103.483 42.2433 103.789 42.548 104.214 42.548H105.347C105.443 42.5516 105.539 42.5353 105.629 42.5003C105.719 42.4652 105.801 42.412 105.869 42.3441C105.938 42.2761 105.991 42.1948 106.027 42.1051C106.063 42.0155 106.08 41.9194 106.077 41.823V22.5222C106.077 22.0862 105.771 21.7684 105.347 21.7684ZM123.553 24.2138L123.728 24.0116C123.797 23.9297 123.847 23.8335 123.874 23.7299C123.901 23.6261 123.904 23.5178 123.883 23.4127L123.725 22.3778C123.694 22.2034 123.602 22.0459 123.464 21.9341C123.327 21.8222 123.154 21.7634 122.977 21.7684H108.622C108.302 21.7684 108.026 21.9667 107.877 22.3607L107.63 23.4048C107.608 23.5109 107.611 23.6206 107.637 23.7257C107.663 23.8309 107.713 23.9286 107.783 24.0116L108.055 24.2506H114.473V41.7941C114.473 42.2301 114.793 42.5493 115.235 42.5493H116.306C116.748 42.5493 117.068 42.2314 117.068 41.7941V24.2506H123.186L123.553 24.2138ZM141.029 27.92C140.599 26.633 139.971 25.5061 139.16 24.5671C138.345 23.6235 137.342 22.8608 136.215 22.3279C134.026 21.2811 131.033 21.2115 128.654 22.2451C127.524 22.7362 126.512 23.4639 125.686 24.3793C124.854 25.2973 124.194 26.4242 123.724 27.7296C123.257 29.0272 123.019 30.5007 123.019 32.1135C123.019 33.6212 123.229 35.0396 123.643 36.3319C124.03 37.5795 124.658 38.7388 125.492 39.744C126.309 40.7115 127.328 41.4888 128.477 42.0213C129.642 42.569 130.979 42.8435 132.447 42.8435C133.73 42.8435 134.953 42.6071 136.085 42.1343C137.22 41.6629 138.232 40.941 139.048 40.0224C139.871 39.1044 140.519 37.9605 140.981 36.6248C141.436 35.2984 141.668 33.7618 141.668 32.0544C141.679 30.6509 141.462 29.2549 141.029 27.92ZM139.043 32.0833C139.043 33.3441 138.89 34.5064 138.59 35.54C138.294 36.5565 137.857 37.4325 137.291 38.1483C136.742 38.8457 136.038 39.4055 135.234 39.7834C134.424 40.1669 133.487 40.3613 132.447 40.3613C131.337 40.3613 130.35 40.1393 129.517 39.7046C128.69 39.2789 127.968 38.6747 127.403 37.9355C126.81 37.1446 126.367 36.2517 126.096 35.301C125.791 34.2562 125.638 33.173 125.643 32.0846C125.643 30.7227 125.827 29.5184 126.192 28.5005C126.552 27.4945 127.039 26.6448 127.64 25.9763C128.237 25.3157 128.941 24.8074 129.73 24.4699C130.543 24.1256 131.418 23.9508 132.3 23.9564C133.296 23.9564 134.216 24.16 135.034 24.5605C135.851 24.9602 136.572 25.5324 137.148 26.2377C137.764 27.0057 138.234 27.8792 138.537 28.8157C138.872 29.8139 139.043 30.9118 139.043 32.0846" fill="#0E0D0C"/>
<path d="M159.127 21.7684H145.189C145.092 21.7646 144.996 21.7806 144.906 21.8157C144.816 21.8506 144.734 21.9038 144.665 21.9718C144.597 22.0397 144.543 22.1211 144.507 22.211C144.472 22.3007 144.455 22.3968 144.457 22.4933V41.7941C144.457 42.2301 144.765 42.5493 145.189 42.5493H146.321C146.745 42.5493 147.052 42.2314 147.052 41.7941V24.248H157.265V41.823C157.265 42.2432 157.572 42.5479 157.996 42.5479H159.126C159.223 42.552 159.319 42.536 159.41 42.5011C159.499 42.4663 159.582 42.4131 159.65 42.345C159.718 42.277 159.773 42.1956 159.809 42.1057C159.844 42.0159 159.861 41.9196 159.859 41.823V22.5222C159.859 22.0862 159.551 21.7684 159.127 21.7684ZM174.827 23.6294C174.158 23.0292 173.319 22.5524 172.334 22.2136C171.362 21.8787 170.235 21.7093 168.988 21.7093C168.068 21.7093 167.215 21.7198 166.427 21.7395C165.635 21.7592 165.048 21.7789 164.698 21.7973C164.273 21.7973 163.966 22.1151 163.966 22.5511V41.8256C163.966 42.2459 164.273 42.5506 164.698 42.5506H165.829C165.925 42.5544 166.022 42.5384 166.112 42.5033C166.202 42.4684 166.284 42.4152 166.352 42.3471C166.42 42.2791 166.474 42.1977 166.509 42.108C166.546 42.0183 166.562 41.9221 166.559 41.8256V35.3312C166.672 35.3351 166.791 35.3417 166.914 35.3482C167.288 35.3693 167.86 35.3785 168.631 35.3785C169.681 35.3827 170.727 35.2412 171.738 34.9582C172.691 34.697 173.587 34.2581 174.378 33.6646C175.142 33.0766 175.763 32.3219 176.193 31.4582C176.639 30.5743 176.865 29.5341 176.865 28.3666C176.865 27.4512 176.696 26.5765 176.361 25.7701C176.017 24.951 175.493 24.2184 174.827 23.6294ZM174.271 28.427C174.271 29.2504 174.124 29.9504 173.831 30.506C173.541 31.0589 173.141 31.5173 172.641 31.8666C172.129 32.2238 171.532 32.4878 170.862 32.6467C170.166 32.8122 169.415 32.8963 168.629 32.8963C167.94 32.8976 167.249 32.8888 166.559 32.87V24.1915C166.752 24.1823 166.967 24.1718 167.207 24.1626C168.254 24.1232 169.86 24.0575 171.115 24.42C171.756 24.6052 172.317 24.8797 172.785 25.2395C173.24 25.5849 173.604 26.0302 173.871 26.5594C174.136 27.0861 174.271 27.7152 174.271 28.427ZM196.358 27.92C195.931 26.6356 195.302 25.5074 194.491 24.5671C193.676 23.6236 192.672 22.8608 191.544 22.3279C190.399 21.7802 189.092 21.5031 187.659 21.5031C186.396 21.4943 185.146 21.747 183.985 22.2451C182.854 22.7362 181.841 23.4639 181.017 24.3793C180.183 25.2999 179.522 26.4281 179.056 27.7296C178.587 29.0245 178.352 30.4981 178.352 32.1135C178.352 33.6238 178.561 35.0422 178.974 36.3332C179.392 37.64 180.017 38.7892 180.825 39.744C181.64 40.7114 182.658 41.4886 183.806 42.0213C184.974 42.569 186.309 42.8434 187.779 42.8434C189.061 42.8434 190.283 42.607 191.417 42.1342C192.55 41.6622 193.564 40.9404 194.38 40.0224C195.202 39.1031 195.851 37.9605 196.312 36.6248C196.769 35.2983 196.998 33.7617 196.998 32.0544C197.009 30.6507 196.792 29.2546 196.358 27.92ZM194.373 32.0833C194.373 33.3415 194.221 34.5038 193.921 35.54C193.625 36.5578 193.186 37.4351 192.621 38.1483C192.072 38.845 191.37 39.4047 190.567 39.7834C189.755 40.1669 188.818 40.3612 187.779 40.3612C186.668 40.3612 185.682 40.1393 184.85 39.7046C184.023 39.2785 183.299 38.6744 182.733 37.9355C182.141 37.1445 181.698 36.2516 181.429 35.301C181.123 34.2559 180.969 33.1722 180.975 32.0833C180.975 30.7201 181.158 29.5144 181.522 28.4992C181.881 27.4958 182.368 26.6461 182.971 25.9763C183.55 25.3276 184.263 24.8131 185.062 24.4686C185.873 24.1244 186.747 23.9497 187.629 23.9551C188.627 23.9551 189.547 24.1587 190.365 24.5592C191.182 24.9586 191.904 25.5303 192.479 26.235C193.069 26.9561 193.535 27.8242 193.866 28.8157C194.204 29.8099 194.373 30.9092 194.373 32.0846" fill="#0E0D0C"/>
<path d="M65.9294 46.9923L65.6339 47.6437C60.395 56.4062 50.8129 61.8434 40.582 61.8434C29.2677 61.8434 18.8884 55.2255 14.1407 44.9868L10.5435 46.8386C15.9781 58.3775 27.7692 65.8333 40.582 65.8333C51.9043 65.8333 62.2691 60.207 68.4221 50.7563L197 50.7536V46.9896L65.9294 46.9923ZM64.9444 17.2991H69.654C66.7853 12.1026 62.5743 7.77139 57.4605 4.75782C52.3468 1.74423 46.5177 0.158658 40.582 0.166656C27.7692 0.166656 15.9781 7.62246 10.5461 19.1627L14.1407 21.0145C18.8871 10.7718 29.2664 4.15526 40.582 4.15526C50.3874 4.15526 59.5873 9.16169 64.947 17.2978" fill="#0E0D0C"/>
</g>
</svg>
