<svg width="208" height="66" viewBox="0 0 208 66" fill="none" xmlns="http://www.w3.org/2000/svg">
<path d="M63.7332 51.0084V50.2223H60.5095V51.0263C60.5095 51.0263 60.5095 51.464 60.5095 51.607C60.5005 51.8214 60.3845 52.6522 60.3398 52.8399C60.2415 53.1972 60.1255 53.6081 60.0629 53.8315C60.0094 53.9655 59.9558 54.0995 59.8933 54.2246C59.3128 55.3502 58.0448 55.8773 56.8035 55.6629C54.9818 55.3413 53.6602 53.626 53.9102 51.7767C54.0353 50.8476 54.2496 49.9275 54.6783 49.0966C55.4819 47.5243 56.4732 46.0413 57.4644 44.594C57.6608 44.3171 58.3574 43.2807 59.1879 41.6726C60.0362 42.0568 60.7774 42.2712 61.2775 42.3873C62.1883 42.6017 62.742 42.6554 63.1706 42.5481C63.2242 42.5392 63.626 42.4767 63.7242 42.3159C63.76 42.2622 63.6617 42.1461 63.5546 42.1194C62.1973 41.762 60.8846 41.3153 59.8576 40.279C60.7328 38.3582 61.6257 35.9014 62.1436 33.0962C62.5187 31.0325 62.9741 28.9778 63.0635 26.8427C63.1706 25.0826 63.0992 23.1083 62.8581 21.4555C62.3401 17.9535 60.8132 15.4699 58.4467 12.9238C55.3658 9.60046 51.0437 8.07279 46.5966 7.64396C41.8817 7.18834 39.1401 8.5016 37.0505 10.2348C34.5591 12.2895 34.0679 14.2103 33.8893 16.953C33.7464 19.1507 34.1662 20.4014 35.2735 22.6705C36.0771 24.3143 39.4259 27.1553 40.3635 28.7276C41.2565 30.2374 41.0154 30.4251 41.6673 32.0689C41.9888 32.8818 43.623 34.2576 45.1321 34.0432C46.6234 33.8378 47.8111 32.7746 48.6238 30.6752C48.9273 29.9158 48.9452 29.1832 49.0255 28.5311C49.2578 26.7801 49.2041 25.3507 49.3739 23.1797C49.3917 22.9475 49.4185 22.6527 49.3113 22.5276C49.0167 22.1702 48.6238 22.3132 48.454 22.6527C48.3379 22.876 48.3112 23.1351 48.2397 23.3763C47.561 25.6723 46.159 29.0135 46.0965 29.21C45.8822 29.7551 45.3643 30.836 45.0071 30.8003C44.8196 30.7734 44.6767 30.7734 44.5784 30.4251C44.4713 30.0499 43.9891 28.272 42.3728 26.2708C39.5152 22.7241 37.9435 21.0178 37.4166 18.6772C36.8362 16.1042 38.0061 13.3705 40.2117 12.1377C41.3547 11.4944 43.7658 10.5206 46.3466 10.7976C49.5168 11.1371 53.0351 12.2627 55.2229 14.6749C57.8305 17.5426 59.5004 19.1685 59.5897 24.3859C59.6433 27.4501 58.9735 31.0147 58.2234 33.9806C58.1341 34.2666 58.0359 34.5703 57.9287 34.883C57.6608 35.7049 57.4107 36.4107 57.1697 37.045C57.0982 36.9467 56.9733 36.768 56.9375 36.7144C56.5357 36.1605 56.1874 35.6423 55.7856 35.1688C55.3033 34.5882 54.8211 33.9806 54.2139 33.5519C53.4638 33.007 52.6511 32.8729 51.9904 33.6054C51.6599 33.9718 51.4367 34.4988 51.6689 35.0884C52.3833 36.8663 53.7496 38.1706 55.2676 39.3945C55.348 39.4571 55.6248 39.6357 55.9374 39.8501C55.4015 40.9043 54.8032 41.9228 53.9996 43.2718C52.8654 45.1836 51.5617 47.4349 51.1419 48.4802C50.3383 50.4724 50.2579 52.5271 50.749 54.6177C50.9633 55.5289 51.4188 56.2883 52.0528 56.9762C54.0799 59.1381 57.5358 59.6563 60.1612 58.62C60.7595 58.3787 61.3578 57.9321 61.7686 57.4228C62.8581 56.0828 63.4832 54.5908 63.6707 52.956C63.6885 52.7862 63.7064 52.3127 63.7154 51.9018C63.7242 51.8214 63.7242 51.7588 63.7242 51.7141C63.7332 51.5356 63.7332 51.0084 63.7332 51.0084ZM58.4288 28.4328C58.4288 29.353 57.6787 30.1034 56.7589 30.1034C55.8391 30.1034 55.0979 29.353 55.0979 28.4328C55.0979 27.5127 55.8391 26.7711 56.7589 26.7711C57.6787 26.7711 58.4288 27.5127 58.4288 28.4328Z" fill="#0E0D0C"/>
<path fill-rule="evenodd" clip-rule="evenodd" d="M0 30.2642L10.5641 30.2285C12.4662 30.2285 13.9843 30.8181 15.0738 31.9795C16.1454 33.132 16.6901 34.7132 16.6901 36.6876C16.6901 38.6709 16.0739 40.2611 14.8683 41.4135C13.6806 42.557 12.0465 43.1378 10.0194 43.1378H3.53626L3.55412 51.473L0 51.5087V30.2642ZM9.59076 39.9841C12.0287 39.9841 13.1091 38.9836 13.1091 36.7322C13.1091 34.4184 12.1358 33.3821 9.95689 33.3821H3.55412V39.9841H9.59076ZM19.2887 38.8496C20.646 37.3398 22.5749 36.5714 25.0217 36.5714C27.5935 36.5714 29.5849 37.3219 30.9333 38.7871C32.1745 40.1092 32.7997 41.9496 32.7997 44.2634C32.7997 46.5505 32.1745 48.3908 30.9511 49.713C29.576 51.1961 27.5845 51.9465 25.0217 51.9465C23.8161 51.9465 22.7357 51.7678 21.8248 51.4283C20.8871 51.071 20.0477 50.5081 19.3422 49.7488C18.0742 48.3283 17.4401 46.4879 17.4401 44.2634C17.4401 42.0121 18.0563 40.1896 19.2887 38.8496ZM21.03 42.2086C20.8336 42.7983 20.7264 43.4862 20.7264 44.2634C20.7264 45.7553 21.0925 46.8988 21.8427 47.7565C22.5749 48.5873 23.6107 48.9804 25.0217 48.9804C26.6113 48.9804 27.7364 48.5695 28.4687 47.7208C28.8259 47.3277 29.0759 46.881 29.2455 46.3271C29.4241 45.7465 29.5135 45.0496 29.5135 44.2634C29.5135 41.0473 28.0846 39.5464 25.0217 39.5464C23.6554 39.5464 22.6195 39.9484 21.8605 40.7614C21.5033 41.1544 21.2265 41.6369 21.03 42.2086ZM46.3822 43.5666C45.6499 43.1913 44.4087 42.9055 42.6048 42.709C40.3098 42.423 39.4436 42.2265 39.1311 42.1194C38.381 41.8334 38.2828 41.4761 38.2828 41.1634C38.2828 40.5917 38.4792 40.2165 38.9078 39.9574C39.2829 39.734 40.0419 39.4659 41.551 39.4659C44.4175 39.4659 44.7837 40.6541 44.7837 41.6995V42.1997H48.1146V41.6995C48.1146 39.3767 46.9805 36.6072 41.6047 36.6072C40.6045 36.6072 39.7115 36.6876 38.9346 36.8484C38.1309 37.0092 37.4433 37.2504 36.845 37.5899C35.6394 38.385 35.0232 39.6 35.0232 41.1991C35.0232 42.8519 35.7466 44.0668 37.1218 44.719C37.4968 44.8888 38.3185 45.1657 41.185 45.5857C43.8103 45.9697 44.2926 46.0859 44.373 46.1127C44.998 46.3628 45.266 46.738 45.266 47.3723C45.266 47.8369 45.266 49.0698 41.8904 49.0698C39.9347 49.0698 39.0864 48.6946 38.6757 48.3461C38.3095 48.0692 38.113 47.6314 38.0505 47.0508H34.6393C34.7286 47.7922 34.8893 48.4444 35.1304 48.9715C35.4161 49.6147 35.818 50.1419 36.3003 50.526C36.9165 51.0263 37.7023 51.3926 38.6488 51.607C39.5329 51.8035 40.6223 51.9107 41.8904 51.9107C47.4538 51.9107 48.6236 49.3199 48.6236 47.149C48.6236 45.4874 47.8378 44.2455 46.3822 43.5666ZM118.724 42.709C120.536 42.9055 121.778 43.1913 122.501 43.5666C123.966 44.2455 124.751 45.4874 124.751 47.149C124.751 49.3199 123.581 51.9107 118.009 51.9107C116.751 51.9107 115.661 51.8035 114.776 51.607C113.83 51.3926 113.035 51.0263 112.428 50.526C111.937 50.1419 111.544 49.6147 111.249 48.9715C111.017 48.4444 110.856 47.7922 110.767 47.0508H114.178C114.241 47.6314 114.437 48.0692 114.804 48.3461C115.205 48.6946 116.063 49.0698 118.009 49.0698C121.385 49.0698 121.385 47.8369 121.385 47.3723C121.385 46.738 121.117 46.3628 120.491 46.1127C120.411 46.0859 119.938 45.9697 117.304 45.5857C114.447 45.1657 113.615 44.8888 113.25 44.719C111.874 44.0668 111.151 42.8519 111.151 41.1991C111.151 39.6 111.758 38.385 112.964 37.5899C113.571 37.2504 114.25 37.0092 115.053 36.8484C115.831 36.6876 116.732 36.6072 117.723 36.6072C123.108 36.6072 124.233 39.3767 124.233 41.6995V42.1997H120.912V41.6995C120.912 40.6541 120.545 39.4659 117.67 39.4659C116.16 39.4659 115.402 39.734 115.027 39.9574C114.598 40.2165 114.402 40.5917 114.402 41.1634C114.402 41.4761 114.509 41.8334 115.25 42.1194C115.562 42.2265 116.429 42.423 118.724 42.709ZM77.8066 37.9919C77.646 37.8311 77.5209 37.7329 77.4227 37.6613C76.3242 36.9377 74.9134 36.5714 73.2256 36.5714C70.761 36.5714 68.841 37.2772 67.5104 38.653C66.2335 39.9305 65.5905 41.7709 65.5905 44.1026C65.5905 45.255 65.7512 46.2914 66.0638 47.2026C66.3763 48.1317 66.8585 48.9447 67.4926 49.6237C68.832 50.9548 70.7163 51.6337 73.0917 51.6337C75.0295 51.6337 76.61 51.1871 77.8156 50.3027V50.6242C77.7977 53.2865 77.4941 53.7421 76.8512 54.4211C76.226 55.0733 75.1098 55.4038 73.5381 55.4038C71.654 55.4038 70.7877 55.0376 70.3948 54.7248C70.0197 54.43 69.734 53.8136 69.5643 52.947L69.4392 52.277L66.1798 52.3127L66.1977 53.224C66.2424 53.5724 66.3049 53.9118 66.3853 54.2335C66.6978 55.4216 67.2604 56.3507 68.0731 56.9762C69.2161 57.8784 71.0199 58.3162 73.5918 58.3162C79.8427 58.3162 81.1465 54.5908 81.1465 51.464V36.9913H77.8156L77.8066 37.9919ZM75.3688 48.3283C74.8687 48.5338 74.2615 48.632 73.5918 48.632C70.4038 48.632 68.9838 47.2383 68.9838 44.1026C68.9838 42.6553 69.359 41.5744 70.1358 40.7882C70.9038 40.011 71.9932 39.6268 73.4577 39.6268C74.9312 39.6268 75.9939 40.011 76.7172 40.7882C77.4495 41.5922 77.8156 42.6464 77.8156 44.0311C77.8156 45.532 77.4405 46.6844 76.7083 47.4438C76.3154 47.8279 75.8688 48.1317 75.3688 48.3283ZM87.1117 37.4302L87.1385 37.4112C87.9779 36.8395 89.103 36.5714 90.6034 36.5714H92.5143V39.7429C92.5143 39.7429 90.7016 39.725 90.3176 39.725C88.8799 39.725 86.9778 40.2075 86.9778 44.3796V51.464H83.7184L83.7005 37.0003H86.9778V37.5363C87.0158 37.4981 87.0605 37.4665 87.1117 37.4302ZM105.07 47.0508C104.436 48.3729 103.275 48.9983 101.48 48.9983C99.953 48.9983 98.8188 48.5606 98.033 47.6493C97.4882 47.0329 97.1668 46.2824 97.0596 45.3712H108.99V44.5761C108.99 42.2086 108.392 40.2969 107.195 38.9121C106.525 38.117 105.686 37.5185 104.695 37.1343C103.731 36.7591 102.614 36.5714 101.355 36.5714C98.9706 36.5714 97.0775 37.2594 95.729 38.6173C94.3807 39.9752 93.702 41.8156 93.702 44.1026C93.702 46.3808 94.3539 48.239 95.6398 49.5968C97.0328 51.1335 99.0064 51.9107 101.498 51.9107C102.48 51.9107 103.409 51.7678 104.257 51.4909C105.115 51.2139 105.874 50.8119 106.544 50.2758C107.58 49.3914 108.266 48.3104 108.624 47.0508H105.07ZM98.2026 40.5648C98.6045 40.1718 99.0599 39.877 99.5689 39.6893C100.087 39.4928 100.685 39.3945 101.355 39.3945C102.641 39.3945 103.65 39.7966 104.445 40.6274C105.043 41.2438 105.418 41.9049 105.57 42.6196H97.1757C97.399 41.753 97.7472 41.0652 98.2026 40.5648ZM128.591 30.2642L139.155 30.2285C141.057 30.2285 142.575 30.8181 143.665 31.9795C144.737 33.132 145.281 34.7132 145.281 36.6876C145.281 38.6709 144.666 40.2611 143.46 41.4135C142.272 42.557 140.638 43.1378 138.611 43.1378H132.127L132.146 51.473L128.591 51.5087V30.2642ZM138.182 39.9841C140.619 39.9841 141.7 38.9836 141.7 36.7322C141.7 34.4184 140.727 33.3821 138.549 33.3821H132.146V39.9841H138.182ZM165.222 36.5714C162.775 36.5714 160.846 37.3398 159.489 38.8496C158.256 40.1896 157.641 42.0121 157.641 44.2634C157.641 46.4879 158.275 48.3283 159.543 49.7488C160.248 50.5081 161.087 51.071 162.025 51.4283C162.935 51.7678 164.016 51.9465 165.222 51.9465C167.785 51.9465 169.776 51.1961 171.151 49.713C172.375 48.3908 173 46.5505 173 44.2634C173 41.9496 172.375 40.1092 171.134 38.7871C169.785 37.3219 167.794 36.5714 165.222 36.5714ZM160.927 44.2634C160.927 43.4862 161.033 42.7983 161.23 42.2086C161.426 41.6369 161.703 41.1544 162.06 40.7614C162.819 39.9484 163.855 39.5464 165.222 39.5464C168.285 39.5464 169.714 41.0473 169.714 44.2634C169.714 45.0496 169.624 45.7465 169.445 46.3271C169.276 46.881 169.026 47.3277 168.669 47.7208C167.936 48.5695 166.812 48.9804 165.222 48.9804C163.811 48.9804 162.775 48.5873 162.043 47.7565C161.293 46.8988 160.927 45.7553 160.927 44.2634ZM151.068 37.4738C151.095 37.4536 151.122 37.4336 151.148 37.4112C151.988 36.8395 153.113 36.5714 154.613 36.5714H156.524V39.7429C156.524 39.7429 154.712 39.725 154.327 39.725C152.889 39.725 150.987 40.2075 150.987 44.3796V51.464H147.728L147.71 37.0003H150.987V37.5363C151.015 37.514 151.041 37.4938 151.068 37.4738Z" fill="#0E0D0C"/>
</svg>
