<svg width="208" height="66" viewBox="0 0 208 66" fill="none" xmlns="http://www.w3.org/2000/svg">
<g clip-path="url(#clip0_12_729)">
<path d="M90.0605 33.495C90.0605 28.5394 93.4148 24.8328 98.3202 24.8328C101.191 24.8328 103.588 26.1522 105.33 28.3984L103.467 30.0301C102.248 28.3077 100.335 27.3509 98.3202 27.3509C94.9659 27.3509 92.6997 29.9596 92.6997 33.5051C92.6997 37.0505 94.9462 39.6593 98.4207 39.6593C100.647 39.6593 102.631 38.6319 103.9 36.8592L105.764 38.4405C103.941 40.878 101.433 42.1773 98.4207 42.1773C93.4453 42.1773 90.0707 38.4909 90.0707 33.5151L90.0605 33.495Z" fill="#0E0D0C"/>
<path d="M106.831 35.7613C106.831 32.0044 109.491 29.3755 113.288 29.3755C117.085 29.3755 119.774 32.0044 119.774 35.7613C119.774 39.5183 117.095 42.1472 113.288 42.1472C109.48 42.1472 106.831 39.5183 106.831 35.7613ZM117.266 35.7613C117.266 33.3641 115.614 31.7224 113.298 31.7224C110.981 31.7224 109.349 33.3742 109.349 35.7613C109.349 38.1485 111.001 39.8104 113.298 39.8104C115.594 39.8104 117.266 38.1787 117.266 35.7613Z" fill="#0E0D0C"/>
<path d="M133.795 34.5627V41.8652H131.287V35.0261C131.287 32.9713 130.28 31.8432 128.416 31.8432C126.291 31.8432 124.992 33.2533 124.992 35.429V41.8652H122.484V29.6575H124.951V31.2389C126.049 30.0402 127.198 29.4963 128.879 29.4963C131.871 29.4963 133.805 31.531 133.805 34.5728L133.795 34.5627Z" fill="#0E0D0C"/>
<path d="M148.481 34.5627V41.8652H145.973V35.0261C145.973 32.9713 144.965 31.8432 143.102 31.8432C140.977 31.8432 139.677 33.2533 139.677 35.429V41.8652H137.169V29.6575H139.637V31.2389C140.735 30.0402 141.883 29.4963 143.565 29.4963C146.557 29.4963 148.491 31.531 148.491 34.5728L148.481 34.5627Z" fill="#0E0D0C"/>
<path d="M153.577 37.0103C153.98 38.6823 155.49 39.8809 157.454 39.8809C159.006 39.8809 160.305 39.2362 161.282 38.2794L162.763 39.9111C161.584 41.2709 159.771 42.1572 157.404 42.1572C153.597 42.1572 151.039 39.5283 151.039 35.7713C151.039 32.0144 153.627 29.3855 157.233 29.3855C161.322 29.3855 164.001 32.8504 163.286 37.0203H153.566L153.577 37.0103ZM160.97 34.8548C160.658 32.9914 159.247 31.6719 157.233 31.6719C155.219 31.6719 153.879 32.941 153.526 34.8548H160.97Z" fill="#0E0D0C"/>
<path d="M165.15 35.7613C165.15 32.0749 167.758 29.3755 171.415 29.3755C173.45 29.3755 175.272 30.1914 176.411 31.6015L174.88 33.203C173.973 32.2662 172.724 31.7224 171.455 31.7224C169.209 31.7224 167.648 33.3943 167.648 35.7613C167.648 38.1283 169.128 39.8104 171.475 39.8104C172.885 39.8104 174.155 39.2162 175.021 38.1385L176.693 39.6694C175.595 41.2709 173.631 42.1573 171.385 42.1573C167.769 42.1573 165.14 39.4579 165.14 35.7715L165.15 35.7613Z" fill="#0E0D0C"/>
<path d="M185.99 41.4119C185.033 41.8652 184.055 42.0364 183.29 42.0364C180.853 42.0364 179.362 40.4047 179.362 37.8967V31.8634H177.136V29.6575H179.362V26.807H181.88V29.6575H185.375V31.8634H181.88V37.7758C181.88 38.9946 182.454 39.6895 183.532 39.6895C184.036 39.6895 184.559 39.5485 185.184 39.2564L186 41.4119H185.99Z" fill="#0E0D0C"/>
<path d="M7.76942 24.9435H-0.5V41.8651H4.19372V28.8818H7.40683C9.09897 28.8818 10.1163 29.6574 10.1163 31.1079C10.1163 32.5582 9.09897 33.354 7.43699 33.354H4.19372L6.64131 37.0304H7.52765C11.7379 37.0304 14.7999 34.9252 14.7999 30.9366C14.7999 26.9479 12.0401 24.9335 7.76942 24.9335V24.9435Z" fill="#0E0D0C"/>
<path d="M30.9559 30.9466C30.9559 27.1494 28.1961 24.9536 23.9154 24.9536H15.646V41.8752H20.3397V28.8919H23.5528C25.2449 28.8919 26.2622 29.6675 26.2622 31.1179C26.2622 32.5683 25.2449 33.364 23.583 33.364H20.3498L26.0003 41.855H31.2783L27.5717 36.285C29.6566 35.3483 30.966 33.5454 30.966 30.9466H30.9559Z" fill="#0E0D0C"/>
<path d="M70.2783 41.8651H80.3207V37.9167H72.8971L70.2783 41.8651Z" fill="#0E0D0C"/>
<path d="M43.3753 24.8228H38.883C34.6124 24.8228 31.8525 27.0185 31.8525 30.8158V36.0031C31.8525 39.7903 34.6023 41.9962 38.883 41.9962H43.3753C47.646 41.9962 50.4058 39.8004 50.4058 36.0031V30.8158C50.4058 27.0286 47.6561 24.8228 43.3753 24.8228ZM45.7222 35.8822C45.692 37.2923 44.6847 38.0478 43.0228 38.0478H39.2557C37.5837 38.0478 36.5765 37.2923 36.5564 35.8822V30.9266C36.5866 29.5165 37.5938 28.7611 39.2557 28.7611H43.0228C44.6948 28.7611 45.7021 29.5165 45.7222 30.9266V35.8822Z" fill="#0E0D0C"/>
<path d="M70.2786 37.2319C70.3091 35.8419 71.2959 35.0965 72.9374 35.0965H75.2037C78.3467 35.0965 80.6429 33.3339 80.6429 29.9798C80.6429 26.6257 78.5783 24.9436 75.3851 24.9436H65.8873V28.8718H74.3779C75.3653 28.8718 75.9596 29.3251 75.9596 30.1712C75.9596 31.0173 75.3653 31.4806 74.3982 31.4806H72.2427C68.1936 31.5712 65.5952 33.7267 65.5952 37.3729V41.8651H70.2888V37.2319H70.2786Z" fill="#0E0D0C"/>
<path d="M60.6189 31.4806L63.9834 28.9121V24.9436H50.9193V28.8617H58.1512L54.7568 31.672L57.0332 35.1066C57.9196 35.1066 58.6951 35.1066 58.6951 35.1066C59.4508 35.1369 60.045 35.7412 60.045 36.5067C60.045 37.2722 59.4508 37.8664 58.6951 37.9067L50.9092 37.9168V41.8551H59.4807C62.674 41.8551 64.7284 39.7802 64.7284 36.4362C64.7284 33.5857 63.0462 31.9137 60.6088 31.4806H60.6189Z" fill="#0E0D0C"/>
</g>
<defs>
<clipPath id="clip0_12_729">
<rect width="208" height="66" fill="white"/>
</clipPath>
</defs>
</svg>
