<svg width="208" height="66" viewBox="0 0 208 66" fill="none" xmlns="http://www.w3.org/2000/svg">
<mask id="mask0_12_380" style="mask-type:luminance" maskUnits="userSpaceOnUse" x="0" y="5" width="181" height="57">
<path d="M181 5.0737H0V61.9263H181V5.0737Z" fill="white"/>
</mask>
<g mask="url(#mask0_12_380)">
<path fill-rule="evenodd" clip-rule="evenodd" d="M38.2454 27.8933H27.8139H27.3742C27.147 27.8933 27.0139 27.8259 27.0361 27.5657C27.0435 27.4685 27.0411 27.3695 27.0386 27.2701C27.0373 27.2202 27.0361 27.1699 27.0361 27.1199V5.84332C27.0361 5.76011 27.0353 5.68578 27.0346 5.61939C27.0314 5.33887 27.0299 5.20028 27.0984 5.13286C27.1653 5.06702 27.299 5.06907 27.5633 5.07312C27.6373 5.07426 27.7217 5.07556 27.8176 5.07556H48.751H49.1907C49.4272 5.06057 49.5435 5.15795 49.5288 5.40513C49.5225 5.49051 49.5247 5.57589 49.5267 5.65901C49.5277 5.69974 49.5288 5.74028 49.5288 5.77966V27.1855C49.5288 27.2699 49.53 27.3443 49.531 27.4098C49.5347 27.6412 49.5367 27.7619 49.4776 27.8236C49.414 27.8902 49.2796 27.8892 49.0002 27.8868C48.943 27.8864 48.8799 27.8859 48.81 27.8859C45.2885 27.8933 41.767 27.8959 38.2454 27.8933ZM0.000184023 5.94445V16.4554C0.000184023 20.0222 0.000799889 23.5919 0.00203162 27.1649C0.0033639 27.2622 0.00285486 27.3466 0.00241274 27.42C0.00101631 27.6517 0.000287405 27.7726 0.0603538 27.8352C0.125939 27.9036 0.264006 27.9024 0.552827 27.9001C0.612579 27.8995 0.678808 27.8989 0.752156 27.8989H21.7483C21.8529 27.8933 21.9577 27.8933 22.0624 27.8989C22.3728 27.9308 22.5465 27.8296 22.4966 27.4795C22.4891 27.3736 22.4891 27.2672 22.4966 27.1611V5.81337V5.36768C22.504 5.14484 22.3949 5.07368 22.188 5.07368H21.7483H0.554464C0.0112696 5.07368 0.00942202 5.08304 0.000184023 5.63546V5.94445ZM0.000231716 33.2921V43.9323V54.7616C0.000231716 55.3233 0.00946647 55.3234 0.543149 55.329H21.8574H22.2268C22.4023 55.3271 22.4893 55.2448 22.4893 55.0575V54.7391V33.0786C22.4865 33.0362 22.4865 32.9937 22.4893 32.9513C22.5299 32.631 22.4172 32.4644 22.0754 32.5056C21.9707 32.5113 21.8658 32.5113 21.7613 32.5056H0.698624H0.329105C0.0889164 32.4925 -0.0163967 32.6011 0.000231716 32.8464V33.2921ZM86.8855 51.9546V42.5915L86.878 33.2977C86.878 33.2721 86.8777 33.2463 86.8772 33.2206C86.8768 33.197 86.8762 33.1733 86.8756 33.1498C86.8732 33.0505 86.8706 32.9508 86.878 32.8521C86.8965 32.5955 86.7672 32.5131 86.5381 32.5224H86.1685H75.9828H75.6132C75.5721 32.5134 75.5296 32.514 75.4887 32.5239C75.4479 32.5339 75.4097 32.5531 75.3772 32.5801C75.3447 32.6071 75.3186 32.6412 75.301 32.6799C75.2832 32.7185 75.2744 32.7607 75.2751 32.8033C75.2678 32.8748 75.2556 32.9457 75.2434 33.0167C75.2342 33.0703 75.225 33.1239 75.2178 33.1779C75.0746 34.2607 74.9386 35.3444 74.8028 36.4281C74.5003 38.8394 74.1979 41.2503 73.8155 43.6495C73.5207 45.6868 73.0218 47.6884 72.3263 49.6232C71.9686 50.5988 71.4979 51.5278 70.924 52.3909C70.8572 52.5097 70.7582 52.6067 70.6386 52.67C70.5191 52.7335 70.3841 52.7608 70.2497 52.7486C69.9295 52.7348 69.6084 52.7394 69.2871 52.7439C69.1267 52.7463 68.9654 52.7486 68.8048 52.7486C68.367 52.7542 68.3541 52.7598 68.3541 53.2111V56.5256V61.3663C68.3541 61.9281 68.3835 61.9281 68.888 61.9281H70.3975C70.5287 61.9263 70.6395 61.9277 70.7332 61.9289C70.9803 61.932 71.1071 61.9335 71.1713 61.8709C71.2388 61.8049 71.2366 61.6673 71.2319 61.3844C71.2305 61.2992 71.2288 61.2008 71.2288 61.0874V55.8627C71.2288 55.3443 71.24 55.344 71.7564 55.331L72.0714 55.3309H86.0374C86.1604 55.3381 86.2839 55.3381 86.4068 55.3309C86.7192 55.2972 86.7931 55.4489 86.7931 55.741C86.7857 56.1652 86.7881 56.5902 86.7905 57.015V57.0161C86.7918 57.2285 86.7931 57.4409 86.7931 57.6529V61.4113C86.7931 61.9169 86.8004 61.9281 87.2531 61.9281C87.4766 61.9281 87.7002 61.9269 87.9238 61.9256C88.3709 61.9231 88.818 61.9207 89.2651 61.9281C89.5386 61.9281 89.6809 61.8887 89.6809 61.5535C89.6673 58.7497 89.6673 55.9464 89.6809 53.1437C89.6827 52.7804 89.5256 52.7336 89.2281 52.7336H87.2161C86.9778 52.7373 86.8687 52.6474 86.8855 52.4003C86.8916 52.3018 86.8895 52.2033 86.8875 52.1042C86.8866 52.0548 86.8855 52.0044 86.8855 51.9546ZM74.4375 52.7152C74.3637 52.7095 74.2883 52.7036 74.2091 52.7036V52.7111C74.2033 52.6388 74.209 52.5662 74.2257 52.4958C75.3416 50.4883 75.8645 48.2824 76.3116 46.0559C76.8084 43.5956 77.1261 41.1055 77.4436 38.6166L77.445 38.6058L77.4463 38.5956C77.4928 38.2309 77.5394 37.8663 77.5865 37.5018C77.6089 37.3317 77.6323 37.1607 77.6557 36.9891L77.656 36.9871C77.7212 36.5098 77.7871 36.0267 77.8359 35.5467C77.8672 35.2396 77.9652 35.1048 78.2978 35.1048C80.0358 35.1198 81.7744 35.1198 83.5135 35.1048C83.8313 35.1029 83.8942 35.2284 83.8942 35.5168C83.8855 35.9275 83.8884 36.3383 83.8913 36.749C83.8927 36.9544 83.8942 37.1597 83.8942 37.365V52.0126C83.8942 52.0886 83.8949 52.1567 83.8955 52.2175C83.8981 52.4835 83.8995 52.613 83.8355 52.675C83.7747 52.734 83.655 52.7321 83.4214 52.7284C83.3551 52.7272 83.2797 52.7261 83.194 52.7261H74.647C74.5773 52.7261 74.5082 52.7207 74.4375 52.7152ZM65.0486 44.7731C64.8146 44.8558 64.5646 44.8815 64.3188 44.8479H52.7511H52.3095C52.0747 44.8368 51.9602 44.9416 51.9695 45.1851V45.6945V52.0014V52.447C51.9565 52.7279 52.1006 52.8216 52.3556 52.8103H52.8582H65.9355C66.1796 52.7749 66.4286 52.802 66.6598 52.889V55.0294C66.6598 55.2485 66.5693 55.3365 66.3604 55.329H65.9207H49.3903C48.9246 55.3177 48.9172 55.3159 48.9172 54.8253V33.0375C48.9172 32.5243 48.9172 32.515 49.4402 32.515H65.4718C66.0076 32.515 66.0094 32.515 66.0131 33.0768C66.0131 33.2533 66.0119 33.43 66.0106 33.6068C66.0081 33.9607 66.0057 34.3151 66.0131 34.6684C66.0223 34.9493 65.9115 35.0524 65.6436 35.0317C65.5461 35.0243 65.448 35.0267 65.3501 35.0293C65.3012 35.0305 65.2525 35.0317 65.2039 35.0317H52.825H52.4554C51.9991 35.0448 51.9805 35.0505 51.9787 35.483V41.9174C51.9787 42.2376 52.06 42.408 52.4037 42.3724C52.5501 42.3639 52.697 42.3639 52.8434 42.3724H64.2856H64.7253C64.9581 42.3556 65.0689 42.4398 65.0652 42.6927C65.0426 43.2287 65.0449 43.7648 65.0472 44.2942C65.0479 44.4545 65.0486 44.6143 65.0486 44.7731ZM27.0362 33.2883V43.8593L27.0398 50.6718V54.683C27.0407 55.0097 27.0131 55.1698 27.0804 55.2482C27.1478 55.3267 27.3105 55.3234 27.6921 55.3234H29.39C29.7776 55.3207 29.9546 55.3432 30.0345 55.2657C30.1142 55.1885 30.0976 55.0119 30.0976 54.6119V47.097C30.0976 46.7488 30.0857 46.5881 30.1601 46.5144C30.2352 46.44 30.3986 46.4547 30.7517 46.4547H36.1559C36.8472 46.4601 37.5382 46.4232 38.2252 46.3442C41.3753 45.9623 44.1763 43.9099 44.4516 40.0485C44.7158 36.3295 42.9384 33.7097 39.4151 32.8352C38.4343 32.6065 37.43 32.4984 36.4238 32.5131H27.6884H27.3743C27.147 32.5037 27.0158 32.588 27.0362 32.8427V33.2883ZM30.0884 43.4436V39.4942C30.0884 38.1777 30.0865 36.8613 30.0828 35.5505C30.0846 35.0093 30.0902 35.0093 30.5873 35.0093H36.5586C37.2925 35.0115 38.0214 35.1309 38.7185 35.3632C40.167 35.8463 41.0502 36.8407 41.3051 38.3594C41.4713 39.2827 41.4251 40.2323 41.1703 41.1347C40.7878 42.4417 39.9139 43.2544 38.6557 43.6757C37.8292 43.9196 36.9702 44.0308 36.1097 44.0054H30.6426C30.0884 44.0054 30.0884 43.9941 30.0884 43.4436Z" fill="#0E0D0C"/>
<path fill-rule="evenodd" clip-rule="evenodd" d="M91.9531 43.8705C91.9883 42.0822 92.162 40.3574 92.7864 38.7077C94.0058 35.4812 96.2544 33.3969 99.5726 32.5824C102.276 31.9213 104.979 31.9906 107.612 32.9681C109.783 33.7733 111.34 35.277 112.31 37.4025C112.495 37.8145 112.495 37.8219 112.075 37.9643C111.766 38.0714 111.457 38.1757 111.147 38.28C110.742 38.4162 110.338 38.5524 109.936 38.6946C109.69 38.7808 109.566 38.7171 109.457 38.4755C108.304 36.0093 106.259 34.94 103.68 34.7416C102.571 34.6352 101.453 34.7394 100.382 35.0486C98.1648 35.7284 96.6387 37.2097 95.8368 39.3762C94.7449 42.2192 94.7449 45.3739 95.8368 48.2169C96.9934 51.288 99.5929 53.0388 102.828 53.1044C106.063 53.1699 108.341 51.6775 109.91 48.906C110.214 48.3674 110.217 48.3685 110.778 48.652L110.78 48.6532L111.105 48.8165C111.504 49.0164 111.902 49.2164 112.297 49.4209L112.31 49.4277C112.704 49.6419 112.711 49.6458 112.519 50.0165C110.995 52.9378 108.639 54.7486 105.442 55.404C103.463 55.8166 101.414 55.748 99.4656 55.2036C95.7131 54.1587 93.4423 51.6232 92.4446 47.8611C92.1225 46.5559 91.9574 45.2159 91.9531 43.8705ZM130.419 32.8745C128.988 32.3784 127.481 32.1469 125.969 32.191C124.983 32.1674 123.998 32.2611 123.034 32.47C119.338 33.2621 116.744 35.3969 115.543 39.0541C114.443 42.3228 114.504 45.8778 115.713 49.1064C116.856 52.243 119.074 54.2673 122.261 55.1699C124.328 55.7514 126.5 55.8354 128.606 55.4151C132.209 54.7148 134.808 52.7243 136.18 49.2356C137.554 45.7468 137.554 42.1814 136.294 38.6591C135.269 35.7958 133.257 33.8782 130.419 32.8745ZM118.599 48.0895C118.113 46.7224 117.888 45.2741 117.935 43.8219C117.889 42.5099 118.064 41.1996 118.453 39.9474C119.463 36.8763 121.574 35.1535 124.735 34.7789C125.882 34.6311 127.045 34.6817 128.175 34.9287C130.81 35.5374 132.552 37.1927 133.41 39.7452C134.347 42.5025 134.325 45.5021 133.347 48.245C132.321 51.2112 130.156 52.7804 127.097 53.0837C125.865 53.233 124.616 53.1382 123.42 52.8048C121.017 52.0763 119.467 50.434 118.599 48.0895ZM149.656 52.2954V53.6324C149.656 54.1358 149.656 54.6533 149.663 55.1586C149.663 55.4432 149.768 55.5145 150.033 55.5145C150.786 55.4975 151.542 55.4901 152.295 55.5145C152.632 55.5257 152.719 55.4114 152.719 55.0838C152.714 54.6496 152.714 54.2151 152.715 53.7806C152.716 53.2591 152.716 52.7377 152.708 52.2168C152.703 51.9097 152.802 51.8066 153.103 51.8197C153.753 51.8479 154.403 51.8065 155.045 51.6962C157.898 51.2186 160.004 49.7393 161.112 46.9697C161.782 45.2956 161.9 43.5504 161.635 41.7769C161.176 38.7134 159.505 36.6928 156.571 35.7564C155.443 35.4269 154.272 35.2697 153.098 35.2901C152.796 35.2883 152.706 35.1966 152.706 34.8875C152.716 34.4219 152.713 33.9546 152.709 33.4873C152.708 33.2537 152.706 33.02 152.706 32.7865C152.703 32.3427 152.694 32.3427 152.248 32.3427C152.003 32.3427 151.759 32.3448 151.516 32.3469C151.028 32.351 150.542 32.3552 150.049 32.3427C149.743 32.3352 149.657 32.4419 149.657 32.7453C149.666 33.1891 149.663 33.6363 149.66 34.0756C149.659 34.2923 149.657 34.5074 149.657 34.7191C149.657 34.763 149.658 34.8036 149.658 34.8411C149.659 35.0724 149.659 35.1839 149.605 35.238C149.554 35.2883 149.454 35.2897 149.262 35.2921C149.208 35.2929 149.145 35.2937 149.073 35.2958C148.088 35.3002 147.107 35.4222 146.148 35.6591C143.601 36.3482 141.802 37.8856 141.014 40.4886C140.581 41.9605 140.487 43.5132 140.739 45.0278C141.304 48.73 143.668 50.7898 146.293 51.4808C147.247 51.7274 148.23 51.8463 149.214 51.8347C149.646 51.8328 149.656 51.8497 149.656 52.2954ZM152.7 49.14V43.5428H152.691C152.689 41.6977 152.692 39.8531 152.7 38.0092C152.7 37.5504 152.709 37.5504 153.14 37.5504C153.852 37.5529 154.56 37.662 155.241 37.8744C157.225 38.4905 158.233 39.938 158.555 41.9379C158.767 43.1971 158.718 44.4868 158.414 45.7263C157.874 47.891 156.324 49.2561 154.132 49.5276C153.822 49.567 153.508 49.5951 153.196 49.61C152.712 49.6344 152.7 49.6251 152.7 49.14ZM149.656 38.1422V43.6158L149.657 49.0258C149.656 49.6456 149.653 49.6475 149.023 49.6007C148.501 49.5782 147.981 49.5036 147.473 49.3779C145.695 48.8816 144.517 47.7487 144.013 45.9472C143.592 44.4275 143.566 42.8236 143.933 41.2901C144.401 39.2526 145.735 38.1047 147.726 37.7021C148.157 37.6102 148.595 37.5594 149.035 37.5504L149.058 37.5502C149.411 37.5475 149.561 37.5464 149.622 37.6194C149.667 37.6731 149.664 37.7669 149.659 37.9297C149.658 37.9903 149.656 38.0609 149.656 38.1422ZM162.483 32.8464V35.0356L163.23 35.0374H169.511C169.885 35.0384 170.065 35.0078 170.152 35.0836C170.236 35.158 170.231 35.335 170.231 35.7452V52.9452V54.6642C170.233 55.0427 170.214 55.2087 170.287 55.28C170.362 55.3524 170.531 55.3272 170.914 55.3272H172.611C173.008 55.3272 173.175 55.3331 173.243 55.2542C173.311 55.1729 173.275 55.0017 173.275 54.6418V38.9119V35.5992C173.274 35.0276 173.28 35.0277 173.645 35.0352C173.693 35.0363 173.746 35.0374 173.808 35.0374H177.765H180.657C180.869 35.0393 181.007 35.0262 180.998 34.7377C180.978 34.1011 180.981 33.4644 180.998 32.8277C181.006 32.5581 180.885 32.4962 180.66 32.5131H180.344H163.183C163.145 32.5131 163.104 32.5141 163.065 32.5152C162.982 32.5172 162.898 32.5194 162.814 32.5131C162.571 32.4944 162.483 32.6011 162.483 32.8464Z" fill="#0E0D0C"/>
</g>
</svg>
