<svg width="208" height="66" viewBox="0 0 208 66" fill="none" xmlns="http://www.w3.org/2000/svg">
<path d="M6.18573 43.6116C4.77876 42.7993 3.54554 41.7177 2.55652 40.4288C1.56751 39.1399 0.842037 37.6688 0.421548 36.0995C0.00105895 34.5303 -0.106219 32.8935 0.10584 31.2828C0.317899 29.6721 0.845141 28.1189 1.65747 26.7119C2.46979 25.3049 3.55128 24.0717 4.8402 23.0826C6.12912 22.0936 7.60021 21.3682 9.1695 20.9477C10.7388 20.5272 12.3756 20.4199 13.9863 20.632C15.5971 20.844 17.1502 21.3713 18.5572 22.1836L12.3715 32.8976L6.18573 43.6116Z" fill="#464645"/>
<path d="M25.921 18.0232C27.797 19.1063 29.4413 20.5483 30.76 22.2668C32.0787 23.9854 33.046 25.9469 33.6067 28.0393C34.1673 30.1316 34.3103 32.3139 34.0276 34.4616C33.7449 36.6092 33.0418 38.6802 31.9588 40.5562C30.8756 42.4321 29.4337 44.0764 27.7151 45.3951C25.9965 46.7138 24.0351 47.6811 21.9427 48.2418C19.8503 48.8024 17.668 48.9455 15.5204 48.6627C13.3727 48.38 11.3018 47.6769 9.42578 46.5939L17.6734 32.3086L25.921 18.0232Z" fill="#0E0D0C"/>
<path d="M48.541 25.1027H54.5206C56.5422 25.1027 58.0798 25.5084 59.1334 26.3199C60.2011 27.1314 60.735 28.3415 60.735 29.9504V30.0358C60.735 32.0005 59.8167 33.3387 57.9802 34.0506L61.6319 40.3719H57.0192L53.9226 34.9048H52.8975V40.3719H48.541V25.1027ZM54.307 32.0646C55.7734 32.0646 56.5066 31.4452 56.5066 30.2066V30.1212C56.5066 29.509 56.3286 29.0676 55.9727 28.7972C55.6167 28.5267 55.0686 28.3914 54.3284 28.3914H52.8975V32.0646H54.307Z" fill="#0E0D0C"/>
<path d="M70.8024 40.6281C68.6098 40.6281 66.9299 40.0871 65.7625 39.0051C64.6093 37.9088 64.0327 36.3001 64.0327 34.1788V25.1027H68.4106V33.9866C68.4106 35.1112 68.5814 35.9299 68.9231 36.4424C69.279 36.9408 69.9055 37.1899 70.8024 37.1899C71.6993 37.1899 72.3187 36.9408 72.6603 36.4424C73.0162 35.9441 73.1942 35.1042 73.1942 33.9225V25.1027H77.6148V34.1147C77.6148 36.3071 77.0097 37.9445 75.7996 39.0265C74.6321 40.0942 72.9664 40.6281 70.8024 40.6281Z" fill="#0E0D0C"/>
<path d="M86.8932 36.9977C88.1887 36.9977 89.1355 36.656 89.7335 35.9726C90.3456 35.2892 90.6517 34.2286 90.6517 32.7906V32.6198C90.6517 31.1534 90.3528 30.0999 89.7548 29.4592C89.1569 28.8043 88.1887 28.4768 86.8505 28.4768H85.8895V36.9977H86.8932ZM81.4902 25.1027H87.0427C89.7191 25.1027 91.7479 25.7504 93.129 27.046C94.5241 28.3273 95.2218 30.1639 95.2218 32.5557V32.7266C95.2218 35.1469 94.5313 37.0119 93.1503 38.3217C91.7409 39.6885 89.6978 40.3719 87.0213 40.3719H81.4902V25.1027Z" fill="#0E0D0C"/>
<path d="M98.3818 25.1027H108.931V28.4768H102.738V31.1036H107.671V34.2215H102.738V36.9977H109.273V40.3719H98.3818V25.1027Z" fill="#0E0D0C"/>
<path d="M118.178 40.6283C113.95 40.6283 111.758 38.927 111.601 35.5243H115.765C115.836 36.165 116.029 36.6277 116.342 36.9124C116.712 37.311 117.324 37.5104 118.178 37.5104C118.805 37.5104 119.289 37.3751 119.63 37.1046C119.972 36.8342 120.143 36.464 120.143 35.9941C120.143 35.5528 119.972 35.2182 119.63 34.9904C119.346 34.8338 118.712 34.6773 117.73 34.5206C115.566 34.2644 114.071 33.7732 113.245 33.0471C112.391 32.3352 111.964 31.2034 111.964 29.6516C111.964 28.2563 112.491 27.1174 113.544 26.2347C114.627 25.3377 116.071 24.8893 117.879 24.8893C121.624 24.8893 123.631 26.4767 123.901 29.6516H119.844C119.688 28.5553 119.032 28.0072 117.879 28.0072C117.296 28.0072 116.854 28.1282 116.555 28.3702C116.256 28.598 116.107 28.9113 116.107 29.3099C116.107 29.737 116.271 30.0573 116.598 30.2709C116.939 30.5271 117.566 30.7051 118.477 30.8048C120.527 31.0468 121.987 31.4739 122.855 32.0861C123.837 32.8549 124.328 34.0081 124.328 35.5457C124.328 36.9979 123.795 38.1938 122.727 39.1334C121.589 40.13 120.072 40.6283 118.178 40.6283Z" fill="#0E0D0C"/>
<path d="M127.432 25.1027H131.831V31.1463L136.422 25.1027H140.992L135.397 32.1927L141.291 40.3719H136.23L131.831 33.9866V40.3719H127.432V25.1027Z" fill="#0E0D0C"/>
<path d="M146.79 28.4768H142.839V25.1027H155.14V28.4768H151.189V40.3719H146.79V28.4768Z" fill="#0E0D0C"/>
<path d="M162.242 36.0369C162.883 36.8057 163.745 37.1901 164.826 37.1901C165.909 37.1901 166.763 36.7985 167.389 36.0155C168.016 35.2325 168.328 34.1576 168.328 32.7908V32.62C168.328 31.2674 168.008 30.214 167.367 29.4594C166.742 28.6906 165.888 28.3062 164.805 28.3062C163.709 28.3062 162.848 28.6834 162.221 29.438C161.609 30.1926 161.302 31.2604 161.302 32.6413V32.8122C161.302 34.1931 161.616 35.2681 162.242 36.0369ZM164.741 40.6283C162.321 40.6283 160.37 39.9022 158.889 38.45C157.452 37.0406 156.732 35.1684 156.732 32.8335V32.6627C156.732 30.3705 157.509 28.4912 159.06 27.0248C160.57 25.6011 162.485 24.8893 164.805 24.8893C167.154 24.8893 169.091 25.5727 170.614 26.9394C172.137 28.3774 172.899 30.2495 172.899 32.5559V32.7268C172.899 35.1186 172.159 37.0192 170.678 38.4287C169.169 39.8951 167.19 40.6283 164.741 40.6283Z" fill="#0E0D0C"/>
<path d="M176.062 25.1027H181.871C183.936 25.1027 185.473 25.544 186.484 26.4267C187.495 27.2951 188 28.5551 188 30.2066V30.2921C188 31.9009 187.487 33.1252 186.462 33.9652C185.452 34.8052 183.985 35.2252 182.063 35.2252H180.419V40.3719H176.062V25.1027ZM181.679 32.2354C183.117 32.2354 183.835 31.5947 183.835 30.3134V30.228C183.835 29.0036 183.124 28.3914 181.7 28.3914H180.419V32.2354H181.679Z" fill="#0E0D0C"/>
</svg>
