<svg width="208" height="66" viewBox="0 0 208 66" fill="none" xmlns="http://www.w3.org/2000/svg">
<path d="M28.1072 35.8027V29.7303C28.1072 26.2752 25.2516 23.4613 21.7449 23.4613H0.149902V49.7114H4.92164V42.0717H16.2547L22.7165 49.7114H28.9277L22.434 42.0348C25.6188 41.6958 28.1072 39.0318 28.1072 35.8027ZM4.92164 28.163H21.7461C22.6231 28.163 23.3367 28.8668 23.3367 29.7303V35.8027C23.3367 36.6662 22.6231 37.37 21.7461 37.37H4.92164V28.163Z" fill="#464645"/>
<path d="M98.3665 23.2648H89.6189V27.9665H98.3665C99.2435 27.9665 99.9571 28.6703 99.9571 29.5337V43.4424C99.9571 44.3059 99.2435 45.0096 98.3665 45.0096H82.2617C81.3848 45.0096 80.6711 44.3059 80.6711 43.4424V34.2355H75.8994V43.4424C75.8994 46.8975 78.7539 49.7114 82.2617 49.7114H98.3665C101.873 49.7114 104.729 46.8987 104.729 43.4424V29.5337C104.729 26.0787 101.873 23.2648 98.3665 23.2648Z" fill="#464645"/>
<path d="M114.47 27.9665H127.99C128.866 27.9665 129.58 28.6703 129.58 29.5337H134.352C134.352 26.0787 131.497 23.2648 127.99 23.2648H114.47C110.964 23.2648 108.108 26.0775 108.108 29.5337V32.4717C108.108 35.9268 110.962 38.7407 114.47 38.7407H127.792C128.669 38.7407 129.382 39.4445 129.382 40.3079V43.4424C129.382 44.3059 128.669 45.0096 127.792 45.0096H114.47C113.593 45.0096 112.88 44.3059 112.88 43.4424H108.108C108.108 46.8975 110.962 49.7114 114.47 49.7114H127.792C131.3 49.7114 134.154 46.8987 134.154 43.4424V40.3079C134.154 36.8529 131.3 34.0389 127.792 34.0389H114.47C113.593 34.0389 112.88 33.3352 112.88 32.4717V29.5337C112.88 28.6703 113.593 27.9665 114.47 27.9665Z" fill="#464645"/>
<path d="M160 23.2648H136.738V27.9665H145.685V49.7114H150.457V27.9665H159.999V23.2648H160Z" fill="#464645"/>
<path d="M66.9532 45.0096H31.6865V49.7114H66.9532V45.0096Z" fill="#464645"/>
<path d="M52.041 41.0915H38.0488C34.5422 41.0915 31.6865 38.2788 31.6865 34.8225V15.6251H36.4583V34.8225C36.4583 35.686 37.1719 36.3898 38.0488 36.3898H52.0422C52.9192 36.3898 53.6328 35.686 53.6328 34.8225V15.6251H58.4046V34.8225C58.4033 38.2788 55.5489 41.0915 52.041 41.0915Z" fill="#0E0D0C"/>
<path d="M66.7542 41.0915H61.9824V15.6251H83.2556C86.7623 15.6251 89.618 18.4377 89.618 21.894V27.9665C89.618 31.4215 86.7623 34.2354 83.2556 34.2354H66.7542V41.0915ZM66.7542 29.5337H83.2556C84.1326 29.5337 84.8462 28.8299 84.8462 27.9665V21.894C84.8462 21.0306 84.1326 20.3268 83.2556 20.3268H66.7542V29.5337Z" fill="#0E0D0C"/>
</svg>
