<svg width="208" height="66" viewBox="0 0 208 66" fill="none" xmlns="http://www.w3.org/2000/svg">
<path d="M26.7548 38.8058C25.7934 38.8058 24.9946 39.5993 24.9969 40.5573L24.9946 42.7325C24.9969 43.7003 25.7895 44.4841 26.7559 44.4886C27.7184 44.4909 28.5161 43.6883 28.5161 42.7325V40.5607C28.5149 39.5946 27.724 38.8086 26.7548 38.8058ZM1.05371 36.5413L1.05485 47.1063L4.57907 47.1097L4.5768 36.5397L1.05371 36.5413ZM7.04008 36.5413V47.1063L10.5637 47.1097L10.5615 36.542L7.04008 36.5413ZM20.7701 34.3507C19.8082 34.3485 19.0105 35.1488 19.01 36.1006L19.0077 47.5425C19.0099 48.5104 19.8042 49.2941 20.7735 49.2975C21.7364 49.3009 22.5336 48.496 22.5336 47.5425L22.5341 36.1006C22.5308 35.1379 21.7377 34.3507 20.7701 34.3507ZM14.7877 30.3851C13.8235 30.3851 13.0276 31.174 13.0292 32.1344L13.0265 51.5139C13.0265 52.4754 13.819 53.2655 14.7865 53.27C15.7461 53.27 16.5462 52.4662 16.5462 51.5139L16.5467 32.1298C16.5478 31.1654 15.7564 30.3817 14.7877 30.3851Z" fill="#0E0D0C"/>
<path d="M69.3959 17.9068H64.3708V35.5289C64.3759 36.0915 64.3097 36.6654 64.1777 37.2594C64.0452 37.8561 63.8245 38.4307 63.525 38.9961C63.2329 39.5518 62.8337 40.0434 62.348 40.4973C61.8555 40.9381 61.2525 41.2948 60.5398 41.5503C59.8303 41.8184 58.9908 41.9499 58.0272 41.9567C57.0631 41.9499 56.2241 41.8184 55.5142 41.5503C54.803 41.2936 54.1984 40.9386 53.7132 40.4973C53.2212 40.0434 52.8221 39.5512 52.53 38.9961C52.23 38.4312 52.0182 37.8561 51.8795 37.2594C51.7464 36.666 51.6864 36.0915 51.6864 35.5289V17.9068H46.6597V35.6845C46.667 37.3868 46.9586 38.912 47.5322 40.2686C48.0954 41.6331 48.8942 42.7897 49.9235 43.7466C50.9476 44.707 52.1496 45.4393 53.5259 45.9504C54.901 46.4529 56.4058 46.7084 58.0272 46.7165C59.6475 46.7084 61.1518 46.4529 62.5286 45.9504C63.9111 45.4387 65.1079 44.7053 66.1372 43.7466C67.1619 42.7874 67.9607 41.6331 68.5319 40.2686C69.0958 38.9126 69.3891 37.3857 69.3952 35.6845L69.3959 17.9068ZM118.403 31.1883C118.262 31.1545 118.111 31.1323 117.966 31.1082C117.581 31.0339 117.203 31.0002 116.823 31.0002C115.925 31.0116 115.167 31.1419 114.557 31.3987C113.945 31.6577 113.446 31.9874 113.067 32.3916C112.679 32.8003 112.388 33.2257 112.189 33.6676C111.989 34.1118 111.85 34.5274 111.777 34.9053C111.703 35.2865 111.671 35.5855 111.678 35.8004V46.003H106.89V26.954H111.678V29.9729H111.757C112.109 29.2446 112.561 28.6158 113.129 28.0933C113.693 27.5748 114.339 27.1809 115.069 26.9025C115.793 26.623 116.576 26.4789 117.422 26.4789C117.722 26.4789 118.014 26.5046 118.293 26.5601C118.589 26.6139 118.91 26.6887 119.189 26.7756C119.281 26.4944 119.383 26.22 119.49 25.9501C120.216 24.1265 121.247 22.5567 122.582 21.2533C123.912 19.9505 125.481 18.9535 127.301 18.2521C129.116 17.5483 131.119 17.2025 133.299 17.1905C134.743 17.186 136.121 17.2996 137.441 17.5238C138.771 17.7553 140.015 18.1263 141.19 18.6431C142.358 19.1667 143.444 19.859 144.429 20.7257L140.716 24.4575C140.114 23.8744 139.422 23.3765 138.635 22.9688C137.852 22.5642 137.01 22.2531 136.11 22.0353C135.214 21.8226 134.287 21.7198 133.337 21.7198C131.876 21.726 130.552 21.9879 129.368 22.499C128.179 23.0146 127.163 23.7224 126.305 24.6405C125.453 25.5568 124.802 26.6201 124.343 27.8291C123.886 29.0416 123.651 30.3479 123.644 31.7559C123.652 33.2663 123.886 34.6497 124.343 35.9205C124.802 37.1805 125.453 38.2861 126.305 39.2281C127.163 40.1652 128.179 40.8923 129.368 41.4091C130.552 41.9225 131.876 42.186 133.337 42.194C134.621 42.194 135.825 42.0768 136.947 41.8286C138.073 41.5908 139.075 41.2222 139.959 40.7299V34.0974H134.175V29.5739H144.985V43.9375C143.273 44.8551 141.434 45.5474 139.487 46.0122C137.533 46.4809 135.472 46.7165 133.297 46.7165C131.117 46.7084 129.114 46.3591 127.299 45.6577C125.478 44.9665 123.911 43.9719 122.58 42.6833C121.243 41.3868 120.213 39.8507 119.487 38.0586C118.758 36.2641 118.391 34.277 118.379 32.0749C118.382 31.7765 118.388 31.481 118.403 31.1883ZM85.1685 29.3738C84.6426 28.6741 84.0119 28.1133 83.2737 27.6879C82.5433 27.2655 81.7501 26.9533 80.9066 26.7625C80.0637 26.5721 79.207 26.4714 78.3488 26.4777C77.3705 26.4777 76.4262 26.5967 75.5175 26.8431C74.5986 27.086 73.7795 27.4558 73.0492 27.9606C72.3217 28.4637 71.7402 29.104 71.3094 29.8763C70.8826 30.6504 70.6617 31.573 70.6504 32.6295C70.6623 33.6607 70.8509 34.5017 71.2216 35.1533C71.593 35.8165 72.0856 36.3304 72.6987 36.7208C73.3101 37.1056 73.981 37.4097 74.7187 37.6292C75.4495 37.8391 76.181 38.0265 76.9131 38.178C77.6507 38.3249 78.3228 38.4896 78.9353 38.6731C79.5456 38.8549 80.0388 39.1025 80.4113 39.4231C80.7832 39.7369 80.9757 40.1686 80.982 40.7283C80.974 41.1021 80.8749 41.4263 80.683 41.7052C80.4838 41.9756 80.2306 42.2077 79.9119 42.3849C79.592 42.5558 79.2467 42.6897 78.8821 42.7782C78.509 42.8685 78.1421 42.9092 77.7906 42.9092C77.1186 42.8999 76.5151 42.8017 75.9829 42.6056C75.4495 42.4026 74.9656 42.1265 74.5206 41.7738C74.0767 41.4211 73.6509 41.0238 73.2428 40.5704L70.0526 43.5425C70.7036 44.2651 71.4232 44.8499 72.1994 45.2787C72.9767 45.7074 73.8078 46.0179 74.6989 46.202C75.5911 46.3918 76.5269 46.4844 77.5115 46.4821C78.3018 46.4821 79.0859 46.414 79.8717 46.2791C80.6547 46.143 81.3986 45.9264 82.1046 45.6303C82.8089 45.3387 83.4418 44.9545 83.987 44.475C84.5379 43.9993 84.9698 43.4185 85.2817 42.7422C85.6005 42.0602 85.7607 41.2793 85.7664 40.3675C85.7602 39.3174 85.5676 38.4496 85.1968 37.7642C84.8232 37.0821 84.3306 36.5334 83.7204 36.1229C83.1095 35.7135 82.4358 35.3929 81.6992 35.1556C80.9667 34.9236 80.2346 34.7332 79.5054 34.5829C78.7667 34.4319 78.0957 34.2696 77.4843 34.1044C76.8711 33.9426 76.3792 33.7242 76.0067 33.4435C75.6353 33.1674 75.4416 32.7861 75.436 32.3133C75.4484 31.8365 75.595 31.4523 75.877 31.1557C76.1612 30.851 76.5139 30.6321 76.938 30.4937C77.3637 30.3536 77.7883 30.2891 78.2288 30.2891C79.0469 30.2891 79.7568 30.4559 80.3756 30.7841C80.987 31.1163 81.5243 31.597 81.9771 32.2338L85.1685 29.3738ZM105.376 38.1483V36.8363C105.368 35.1762 105.157 33.7059 104.724 32.4242C104.299 31.1346 103.688 30.057 102.896 29.1714C102.099 28.2916 101.155 27.6223 100.056 27.1666C98.9608 26.711 97.7431 26.4789 96.3996 26.4789C94.9435 26.4835 93.5882 26.7213 92.3307 27.1997C91.0751 27.6759 89.9784 28.3499 89.0267 29.2298C88.0768 30.1095 87.3391 31.1602 86.799 32.3865C86.2669 33.6082 85.9957 34.9773 85.9883 36.4796C85.9957 37.9808 86.2669 39.3431 86.799 40.5722C87.3385 41.7938 88.0762 42.8508 89.0267 43.7306C89.9802 44.6092 91.0751 45.2827 92.3307 45.7617C93.587 46.2385 94.9429 46.4763 96.3996 46.4832C97.4113 46.4832 98.3953 46.358 99.3509 46.1047C100.303 45.8481 101.214 45.4336 102.079 44.8723C102.941 44.3171 103.752 43.5768 104.496 42.6725L101.067 40.0919C100.672 40.5899 100.227 41.0243 99.7296 41.4148C99.237 41.8001 98.6795 42.1037 98.055 42.3261C97.4305 42.5519 96.7195 42.6621 95.92 42.6713C95.0228 42.6621 94.2063 42.4838 93.4658 42.1185C92.7355 41.7646 92.1304 41.249 91.6587 40.5756C91.1798 39.8964 90.8877 39.0864 90.7745 38.1472H105.374L105.376 38.1483ZM90.7767 34.572C90.8967 33.655 91.169 32.8621 91.5902 32.1847C92.0058 31.5044 92.564 30.9825 93.2637 30.6109C93.9555 30.2382 94.7799 30.0552 95.7236 30.0478C96.7274 30.0552 97.5845 30.2382 98.3086 30.6029C99.0276 30.9665 99.5859 31.4907 99.9788 32.1652C100.372 32.8415 100.578 33.639 100.59 34.5714L90.7767 34.572ZM159.505 46.0047H163.813V35.0528C163.822 34.596 163.806 34.0718 163.771 33.4743C163.746 32.8885 163.656 32.2722 163.506 31.6313C163.367 30.9899 163.128 30.3628 162.789 29.7522C162.455 29.144 161.993 28.5952 161.39 28.099C160.786 27.6103 160.022 27.2198 159.078 26.9259C158.143 26.639 156.992 26.4835 155.635 26.4783C154.618 26.4783 153.62 26.5835 152.65 26.7945C151.673 27.0089 150.75 27.3386 149.873 27.7886C148.999 28.2379 148.209 28.8182 147.498 29.5344L150.013 32.0355C150.658 31.4324 151.422 30.9499 152.293 30.5943C153.17 30.2387 154.116 30.0563 155.117 30.0484C155.975 30.0484 156.734 30.1827 157.388 30.4543C158.049 30.7224 158.56 31.1237 158.936 31.6577C159.306 32.1847 159.499 32.8421 159.505 33.6196V34.1375H158.31C157.505 34.1318 156.655 34.1501 155.757 34.1981C154.857 34.2427 153.959 34.3347 153.056 34.484C152.16 34.62 151.299 34.8406 150.49 35.1288C149.678 35.4209 148.954 35.8114 148.32 36.2967C147.684 36.7855 147.185 37.3925 146.819 38.1289C146.456 38.8623 146.268 39.7416 146.261 40.7677C146.269 41.7132 146.466 42.5399 146.853 43.2442C147.242 43.961 147.765 44.5572 148.421 45.0397C149.078 45.5131 149.824 45.8783 150.657 46.1162C151.481 46.3609 152.345 46.4815 153.24 46.4815C154.099 46.4815 154.902 46.374 155.668 46.1579C156.434 45.9321 157.124 45.5931 157.755 45.1352C158.386 44.6853 158.935 44.1011 159.386 43.3865H159.504L159.505 46.0047ZM159.226 38.5445C159.226 39.4328 159.053 40.2041 158.702 40.8557C158.348 41.5091 157.818 42.011 157.105 42.3684C156.393 42.7211 155.488 42.8988 154.399 42.9085C154.006 42.9085 153.615 42.8605 153.224 42.7623C152.83 42.6605 152.465 42.5141 152.14 42.3112C151.815 42.1048 151.555 41.851 151.353 41.5308C151.155 41.2193 151.055 40.8455 151.048 40.4075C151.055 39.8645 151.22 39.4077 151.541 39.0544C151.866 38.6891 152.285 38.4032 152.816 38.1934C153.349 37.978 153.926 37.8196 154.565 37.7144C155.196 37.6092 155.834 37.5395 156.473 37.5086C157.104 37.4823 157.696 37.464 158.228 37.4703H159.225L159.226 38.5445ZM167.722 31.0007V39.7319C167.716 40.8557 167.802 41.8372 167.988 42.6782C168.175 43.5243 168.491 44.2246 168.952 44.7893C169.412 45.3495 170.049 45.7732 170.869 46.0579C171.684 46.3414 172.728 46.4809 173.987 46.4809C174.363 46.4809 174.783 46.4597 175.241 46.4186C175.7 46.3837 176.152 46.3168 176.6 46.2208C177.043 46.1328 177.434 46.0052 177.775 45.8457V41.8372C177.569 41.9825 177.314 42.0962 177.022 42.1854C176.724 42.2746 176.419 42.3363 176.092 42.3729C175.765 42.413 175.467 42.43 175.181 42.43C174.484 42.43 173.937 42.3037 173.545 42.0562C173.162 41.8053 172.888 41.4457 172.732 40.9855C172.572 40.5253 172.501 39.9697 172.507 39.3346V31.0007H177.773V26.9528H172.507V21.4386H167.722V26.9528H164.307V31.0007H167.722ZM197 38.1483V36.8363C196.994 35.1762 196.78 33.7059 196.348 32.4242C195.924 31.1346 195.311 30.057 194.518 29.1714C193.723 28.2916 192.779 27.6223 191.681 27.1666C190.586 26.711 189.364 26.4789 188.027 26.4789C186.567 26.4835 185.213 26.7213 183.956 27.1997C182.699 27.6759 181.602 28.3499 180.654 29.2298C179.704 30.1095 178.964 31.1602 178.428 32.3865C177.897 33.6082 177.621 34.9773 177.616 36.4796C177.621 37.9808 177.896 39.3431 178.428 40.5722C178.964 41.7938 179.704 42.8508 180.654 43.7306C181.604 44.6092 182.699 45.2827 183.956 45.7617C185.212 46.2385 186.567 46.4763 188.027 46.4832C189.035 46.4832 190.02 46.358 190.979 46.1047C191.926 45.8481 192.836 45.4336 193.703 44.8723C194.567 44.3171 195.377 43.5768 196.124 42.6725L192.693 40.0919C192.3 40.5899 191.855 41.0243 191.36 41.4148C190.866 41.8001 190.306 42.1037 189.682 42.3261C189.055 42.5519 188.343 42.6621 187.547 42.6713C186.648 42.6621 185.832 42.4838 185.093 42.1185C184.361 41.7646 183.757 41.249 183.285 40.5756C182.804 39.8964 182.512 39.0864 182.402 38.1472H196.999L197 38.1483ZM182.402 34.572C182.521 33.655 182.792 32.8621 183.214 32.1847C183.628 31.5044 184.192 30.9825 184.887 30.6109C185.577 30.2382 186.404 30.0552 187.348 30.0478C188.351 30.0552 189.209 30.2382 189.935 30.6029C190.651 30.9665 191.209 31.4907 191.6 32.1652C191.993 32.8415 192.2 33.639 192.214 34.5714L182.402 34.572Z" fill="#0E0D0C"/>
<path d="M14.7899 26.1942C15.7523 26.1942 16.5505 25.399 16.5477 24.4403L16.5505 22.2658C16.5477 21.3008 15.7568 20.5164 14.7904 20.5101C13.8269 20.5085 13.0303 21.3117 13.0303 22.2658V24.4369C13.0314 25.403 13.8223 26.1885 14.7899 26.1942ZM40.4909 28.454L40.4898 17.8902L36.9656 17.8885L36.9678 28.4586L40.4909 28.454ZM34.5056 28.4574L34.5051 17.8908L30.9815 17.889L30.9843 28.454L34.5056 28.4574ZM20.7762 30.6498C21.7375 30.6498 22.5346 29.8495 22.5357 28.8988L22.538 17.4563C22.5357 16.4896 21.7432 15.7059 20.7734 15.7007C19.8092 15.7007 19.0132 16.5022 19.0132 17.4563L19.0126 28.8988C19.0139 29.8609 19.8064 30.6498 20.7762 30.6498ZM26.758 34.6148C27.7222 34.6148 28.5176 33.8254 28.517 32.8632L28.5182 13.4855C28.5188 12.5223 27.7272 11.7316 26.758 11.7305C25.7973 11.7288 25.0002 12.5325 25.0002 13.4861L24.9979 32.8667C24.9968 33.8306 25.7894 34.6148 26.758 34.6148Z" fill="#0E0D0C"/>
</svg>
