<svg width="208" height="66" viewBox="0 0 208 66" fill="none" xmlns="http://www.w3.org/2000/svg">
<mask id="mask0_12_765" style="mask-type:luminance" maskUnits="userSpaceOnUse" x="0" y="9" width="182" height="49">
<path d="M182 9.88599H0V57.1138H182V9.88599Z" fill="white"/>
</mask>
<g mask="url(#mask0_12_765)">
<path fill-rule="evenodd" clip-rule="evenodd" d="M0 20.3811C0 15.4336 0 12.9599 1.5285 11.423C3.057 9.88599 5.5171 9.88599 10.4373 9.88599H22.1792C27.0995 9.88599 29.5595 9.88599 31.088 11.423C32.6165 12.9599 32.6165 15.4336 32.6165 20.3811V21.8387L28.7026 19.3398V19.0692C28.7026 16.5955 28.7026 15.3587 27.9383 14.5901C27.174 13.8217 25.944 13.8217 23.4839 13.8217H18.5972H18.5425H15.0036H14.9106H9.13261C6.67255 13.8217 5.44248 13.8217 4.67823 14.5901C3.91398 15.3587 3.91398 16.5955 3.91398 19.0692V47.9307C3.91398 50.4044 3.91398 51.6413 4.67823 52.4097C5.44248 53.1781 6.67255 53.1781 9.13261 53.1781H23.4839C25.944 53.1781 27.174 53.1781 27.9383 52.4097C28.7026 51.6413 28.7026 50.4044 28.7026 47.9307V47.66L32.6165 45.1612V46.6188C32.6165 51.5662 32.6165 54.0399 31.088 55.5769C29.5595 57.1138 27.0995 57.1138 22.1792 57.1138H10.4373C5.5171 57.1138 3.057 57.1138 1.5285 55.5769C0 54.0399 0 51.5662 0 46.6188V20.3811ZM34.1786 29.0729L27.5903 24.8572C24.0484 22.5909 22.2773 21.4575 20.9237 22.2046C19.57 22.9519 19.57 25.0627 19.57 29.2844V37.7153C19.57 41.937 19.57 44.0478 20.9237 44.795C22.2773 45.5422 24.0482 44.409 27.59 42.1426L34.1782 37.927C37.2897 35.9359 38.8459 34.9401 38.8459 33.4998C38.8459 32.0596 37.2901 31.064 34.1786 29.0729Z" fill="#0E0D0C"/>
<path fill-rule="evenodd" clip-rule="evenodd" d="M146.485 42.9027C148.204 43.8279 150.126 44.2906 152.246 44.2906C153.966 44.2906 155.536 43.9889 156.958 43.3854C158.398 42.782 159.607 41.9069 160.588 40.7604L158.067 38.3465C156.546 40.016 154.677 40.8508 152.456 40.8508C151.016 40.8508 149.725 40.539 148.586 39.9155C147.445 39.2718 146.555 38.3867 145.914 37.2602C145.274 36.1337 144.954 34.8564 144.954 33.4282C144.954 32 145.274 30.7226 145.914 29.5962C146.555 28.4696 147.445 27.5946 148.586 26.9711C149.725 26.3273 151.016 26.0056 152.456 26.0056C154.677 26.0056 156.546 26.8302 158.067 28.4798L160.588 26.0961C159.607 24.9495 158.407 24.0744 156.988 23.471C155.566 22.8675 153.996 22.5658 152.276 22.5658C150.156 22.5658 148.234 23.0384 146.515 23.9839C144.814 24.9092 143.474 26.1966 142.493 27.8461C141.513 29.4956 141.023 31.3563 141.023 33.4282C141.023 35.5 141.504 37.3608 142.463 39.0103C143.444 40.6597 144.784 41.9572 146.485 42.9027ZM181.56 43.9888V40.6999H169.708V34.8765H179.851V31.6479H169.708V26.1564H181.141V22.8675H165.807V43.9888H181.56ZM127.515 22.8675C129.335 22.8675 130.916 23.1692 132.256 23.7726C133.616 24.3761 134.657 25.2411 135.377 26.3675C136.097 27.4941 136.457 28.8318 136.457 30.3806C136.457 31.9094 136.097 33.2471 135.377 34.3937C134.657 35.5202 133.616 36.3851 132.256 36.9886C130.916 37.5921 129.335 37.8938 127.515 37.8938H122.774V43.9888H118.872V22.8675H127.515ZM127.334 34.5747C129.035 34.5747 130.325 34.2126 131.206 33.4884C132.086 32.7644 132.526 31.7283 132.526 30.3806C132.526 29.0329 132.086 27.9969 131.206 27.2728C130.325 26.5486 129.035 26.1866 127.334 26.1866H122.774V34.5747H127.334ZM105.184 39.9155L114.306 22.8675H110.465L104.073 35.2687L97.8619 22.8675H93.6909L102.063 38.618L101.733 39.1309C100.913 40.4384 99.8724 41.0921 98.6121 41.0921C98.0719 41.0921 97.3922 40.9614 96.5716 40.6999L95.6114 43.7776C96.6316 44.2201 97.6623 44.4414 98.7021 44.4414C100.003 44.4414 101.203 44.0693 102.303 43.325C103.424 42.5606 104.384 41.4241 105.184 39.9155ZM79.2146 35.0876H75.3135V43.9888H71.4726V22.8675H75.3135V31.7083H79.3346L85.3659 22.8675H89.507L82.3353 33.0962L89.777 43.9888H85.3659L79.2146 35.0876ZM65.856 34.8765C65.1561 33.9914 64.1359 33.3678 62.7955 33.0057C63.7957 32.5833 64.5559 31.9698 65.076 31.1652C65.6159 30.3606 65.886 29.4051 65.886 28.2987C65.886 26.5688 65.2261 25.2311 63.9058 24.2856C62.5855 23.3402 60.745 22.8675 58.3844 22.8675H48.9922V43.9888H58.9546C61.5352 43.9888 63.5058 43.4759 64.866 42.45C66.2266 41.4241 66.9063 39.9858 66.9063 38.1352C66.9063 36.8277 66.5566 35.7414 65.856 34.8765ZM58.0544 31.8893H52.8332V25.8848H58.0544C59.3147 25.8848 60.2749 26.1464 60.9351 26.6693C61.5952 27.1722 61.9254 27.9165 61.9254 28.9022C61.9254 29.8878 61.5952 30.6321 60.9351 31.135C60.2749 31.6379 59.3147 31.8893 58.0544 31.8893ZM62.9755 37.8334C62.9755 39.9255 61.5952 40.9715 58.8346 40.9715H52.8332V34.7558H58.8346C61.5952 34.7558 62.9755 35.7816 62.9755 37.8334Z" fill="#0E0D0C"/>
</g>
</svg>
