<svg width="181" height="38" viewBox="0 0 181 38" fill="none" xmlns="http://www.w3.org/2000/svg">
<path d="M0 2.66106C0 3.99885 1.05761 5.08316 2.36245 5.08316H7.86338V26.8539C7.86338 28.1917 8.92098 29.276 10.2258 29.276C11.5307 29.276 12.5883 28.1917 12.5883 26.8539V0.238953H2.36245C1.05761 0.238953 0 1.32327 0 2.66106ZM87.8157 1.30918C80.3094 1.30918 74.2042 7.56863 74.2042 15.2644C74.2042 22.9603 80.3094 29.2197 87.8157 29.2197C90.9611 29.2197 94.0309 28.0932 96.4551 26.0442C97.4646 25.1923 97.6089 23.6714 96.7779 22.6364C95.9469 21.6013 94.4635 21.4535 93.454 22.3054C91.8745 23.6432 89.8691 24.3755 87.8088 24.3755C82.9054 24.3755 78.9222 20.2847 78.9222 15.2644C78.9222 10.2372 82.9123 6.15339 87.8088 6.15339C91.8126 6.15339 95.2945 8.87122 96.3658 12.7931V14.849V17.081V20.9747C96.8122 21.1859 97.2243 21.4887 97.5539 21.9041C98.7352 23.3757 98.5291 25.5584 97.0938 26.7694C96.8603 26.9666 96.6131 27.1497 96.3658 27.3257C96.3658 28.6635 97.4234 29.7478 98.7283 29.7478C100.033 29.7478 101.091 28.6705 101.091 27.3327V17.074V14.842V12.1805L101.022 11.8918C99.5181 5.66052 94.0858 1.30918 87.8157 1.30918ZM115.863 1.30918C109.593 1.30918 104.161 5.66052 102.65 11.8918L102.581 12.1805V14.842V17.074V35.5777C102.581 36.9155 103.639 37.9998 104.943 37.9998C106.248 37.9998 107.306 36.9155 107.306 35.5777V27.3186C107.059 27.1356 106.811 26.9596 106.578 26.7624C105.143 25.5514 104.937 23.3686 106.118 21.8971C106.447 21.4817 106.859 21.1789 107.306 20.9677V17.074V14.842V12.786C108.377 8.86418 111.859 6.14635 115.863 6.14635C120.766 6.14635 124.75 10.2372 124.75 15.2574C124.75 20.2847 120.759 24.3685 115.863 24.3685C113.809 24.3685 111.804 23.6362 110.218 22.2984C109.208 21.4464 107.725 21.6013 106.894 22.6293C106.063 23.6644 106.214 25.1852 107.217 26.0372C109.641 28.0861 112.711 29.2127 115.856 29.2127C123.362 29.2127 129.468 22.9532 129.468 15.2574C129.474 7.56864 123.369 1.30918 115.863 1.30918ZM59.1298 1.30918C52.8597 1.30918 47.4275 5.66052 45.9166 11.8918L45.8479 12.1805V14.842V17.074V35.5777C45.8479 36.9155 46.9055 37.9998 48.2104 37.9998C49.5152 37.9998 50.5728 36.9155 50.5728 35.5777V27.3186C50.3256 27.1356 50.0784 26.9596 49.8449 26.7624C48.4095 25.5514 48.2035 23.3686 49.3848 21.8971C49.7144 21.4817 50.1264 21.1789 50.5728 20.9677V17.074V14.842V12.786C51.6442 8.86418 55.126 6.14635 59.1298 6.14635C64.0333 6.14635 68.0165 10.2372 68.0165 15.2574C68.0165 20.2847 64.0264 24.3685 59.1298 24.3685C57.0764 24.3685 55.0711 23.6362 53.4847 22.2984C52.4752 21.4464 50.9918 21.6013 50.1608 22.6293C49.3298 23.6644 49.474 25.1852 50.4836 26.0372C52.9078 28.0861 55.9776 29.2127 59.123 29.2127C66.6292 29.2127 72.7345 22.9532 72.7345 15.2574C72.7414 7.56864 66.6361 1.30918 59.1298 1.30918ZM41.2673 12.9339H36.4531C35.1483 12.9339 34.0906 14.0182 34.0906 15.356C34.0906 16.6938 35.1483 17.7781 36.4531 17.7781H41.2673C42.5721 17.7781 43.6297 16.6938 43.6297 15.356C43.6297 14.0182 42.5721 12.9339 41.2673 12.9339ZM155.777 1.33735C154.472 1.33735 153.415 2.42166 153.415 3.75945V11.9059V14.8631C153.415 19.9608 149.37 24.1079 144.398 24.1079C139.426 24.1079 135.381 19.9608 135.381 14.8631V3.682C135.381 2.34421 134.323 1.2599 133.018 1.2599C131.713 1.2599 130.656 2.34421 130.656 3.682V14.8631C130.656 22.6293 136.823 28.9522 144.398 28.9522C147.68 28.9522 150.688 27.7622 153.051 25.7907C151.856 30.987 148.024 31.2264 146.609 31.3109C145.311 31.3883 144.315 32.536 144.391 33.8668C144.466 35.1553 145.503 36.141 146.746 36.141C146.794 36.141 146.843 36.141 146.891 36.134C154.033 35.6974 158.133 30.6279 158.133 22.221V14.8631V11.9059V3.75241C158.133 2.42166 157.075 1.33735 155.777 1.33735ZM176.744 23.7488C175.583 24.2769 174.347 24.5515 173.07 24.5515C168.098 24.5515 164.053 20.4044 164.053 15.3067C164.053 10.209 168.098 6.06186 173.07 6.06186C174.333 6.06186 175.556 6.32238 176.703 6.84341C177.898 7.38557 179.292 6.82933 179.814 5.60419C180.343 4.37906 179.8 2.94974 178.605 2.41462C176.854 1.62603 174.993 1.22469 173.063 1.22469C165.488 1.22469 159.321 7.54047 159.321 15.3137C159.321 23.08 165.488 29.4028 173.063 29.4028C175.013 29.4028 176.902 28.9944 178.667 28.1776C179.855 27.6355 180.391 26.1991 179.862 24.981C179.326 23.7489 177.932 23.2067 176.744 23.7488ZM31.8037 23.1715C30.6431 23.6996 29.407 23.9742 28.1296 23.9742C23.1575 23.9742 19.1125 19.827 19.1125 14.7293C19.1125 9.63165 23.1575 5.4845 28.1296 5.4845C29.3932 5.4845 30.6157 5.74502 31.7625 6.26605C32.9575 6.80821 34.3516 6.25197 34.8736 5.02683C35.4024 3.8017 34.8598 2.37237 33.6649 1.83726C31.9136 1.04867 30.0525 0.647331 28.1227 0.647331C20.5478 0.647331 14.3807 6.96311 14.3807 14.7364C14.3807 22.5026 20.5478 28.8254 28.1227 28.8254C30.0731 28.8254 31.9617 28.417 33.7267 27.6003C34.9148 27.0581 35.4504 25.6218 34.9216 24.4037C34.386 23.1715 32.9918 22.6223 31.8037 23.1715Z" fill="#FF751B"/>
</svg>
