<svg width="434" height="75" viewBox="0 0 434 75" fill="none" xmlns="http://www.w3.org/2000/svg">
<path d="M0 5.25216C0 7.89254 2.08637 10.0326 4.66046 10.0326H15.5123V53.0014C15.5123 55.6418 17.5987 57.7819 20.1728 57.7819C22.7469 57.7819 24.8332 55.6418 24.8332 53.0014V0.47168H4.66046C2.08637 0.47168 0 2.61178 0 5.25216ZM173.236 2.58398C158.429 2.58398 146.385 14.9382 146.385 30.1273C146.385 45.3165 158.429 57.6707 173.236 57.6707C179.441 57.6707 185.497 55.4472 190.28 51.4033C192.271 49.7218 192.556 46.7201 190.916 44.6772C189.277 42.6344 186.351 42.3426 184.359 44.0241C181.243 46.6645 177.287 48.1097 173.223 48.1097C163.55 48.1097 155.692 40.0357 155.692 30.1273C155.692 20.2051 163.563 12.1449 173.223 12.1449C181.121 12.1449 187.99 17.5091 190.104 25.2496V29.3074V33.7127V41.3976C190.984 41.8145 191.797 42.4121 192.447 43.232C194.778 46.1364 194.371 50.4444 191.54 52.8346C191.079 53.2237 190.591 53.5851 190.104 53.9325C190.104 56.5729 192.19 58.7129 194.764 58.7129C197.338 58.7129 199.424 56.5867 199.424 53.9464V33.6988V29.2935V24.0406L199.289 23.4708C196.322 11.1722 185.606 2.58398 173.236 2.58398ZM228.566 2.58398C216.197 2.58398 205.48 11.1722 202.5 23.4708L202.364 24.0406V29.2935V33.6988V70.2195C202.364 72.8598 204.451 74.9999 207.025 74.9999C209.599 74.9999 211.685 72.8598 211.685 70.2195V53.9186C211.198 53.5573 210.71 53.2098 210.249 52.8207C207.418 50.4305 207.011 46.1225 209.341 43.2181C209.992 42.3982 210.805 41.8006 211.685 41.3837V33.6988V29.2935V25.2357C213.799 17.4952 220.667 12.1311 228.566 12.1311C238.239 12.1311 246.097 20.2051 246.097 30.1134C246.097 40.0357 238.226 48.0958 228.566 48.0958C224.515 48.0958 220.559 46.6506 217.43 44.0102C215.438 42.3287 212.512 42.6344 210.872 44.6633C209.233 46.7062 209.531 49.7079 211.509 51.3894C216.292 55.4333 222.347 57.6568 228.552 57.6568C243.36 57.6568 255.404 45.3026 255.404 30.1134C255.418 14.9382 243.374 2.58398 228.566 2.58398ZM116.647 2.58398C104.278 2.58398 93.5615 11.1722 90.581 23.4708L90.4455 24.0406V29.2935V33.6988V70.2195C90.4455 72.8598 92.5319 74.9999 95.106 74.9999C97.68 74.9999 99.7664 72.8598 99.7664 70.2195V53.9186C99.2787 53.5573 98.791 53.2098 98.3303 52.8207C95.4988 50.4305 95.0924 46.1225 97.4226 43.2181C98.0729 42.3982 98.8858 41.8006 99.7664 41.3837V33.6988V29.2935V25.2357C101.88 17.4952 108.749 12.1311 116.647 12.1311C126.32 12.1311 134.178 20.2051 134.178 30.1134C134.178 40.0357 126.307 48.0958 116.647 48.0958C112.596 48.0958 108.64 46.6506 105.511 44.0102C103.519 42.3287 100.593 42.6344 98.9536 44.6633C97.3143 46.7062 97.5988 49.7079 99.5903 51.3894C104.373 55.4333 110.429 57.6568 116.633 57.6568C131.441 57.6568 143.485 45.3026 143.485 30.1134C143.499 14.9382 131.455 2.58398 116.647 2.58398ZM81.4091 25.5275H71.912C69.3379 25.5275 67.2516 27.6676 67.2516 30.308C67.2516 32.9484 69.3379 35.0885 71.912 35.0885H81.4091C83.9832 35.0885 86.0695 32.9484 86.0695 30.308C86.0695 27.6676 83.9832 25.5275 81.4091 25.5275ZM307.306 2.63957C304.732 2.63957 302.646 4.77967 302.646 7.42005V23.4986V29.3352C302.646 39.3965 294.666 47.5817 284.857 47.5817C275.049 47.5817 267.069 39.3965 267.069 29.3352V7.26719C267.069 4.62681 264.983 2.48671 262.408 2.48671C259.834 2.48671 257.748 4.62681 257.748 7.26719V29.3352C257.748 44.6633 269.914 57.1426 284.857 57.1426C291.333 57.1426 297.267 54.7941 301.928 50.903C299.57 61.1588 292.01 61.6313 289.22 61.798C286.659 61.9509 284.695 64.2161 284.844 66.8426C284.993 69.3857 287.038 71.3312 289.491 71.3312C289.585 71.3312 289.68 71.3312 289.775 71.3173C303.865 70.4557 311.953 60.45 311.953 43.8573V29.3352V23.4986V7.40616C311.953 4.77967 309.867 2.63957 307.306 2.63957ZM348.668 46.8729C346.378 47.9152 343.939 48.4571 341.42 48.4571C331.611 48.4571 323.631 40.272 323.631 30.2107C323.631 20.1495 331.611 11.9643 341.42 11.9643C343.912 11.9643 346.324 12.4785 348.586 13.5068C350.944 14.5769 353.694 13.479 354.724 11.061C355.767 8.64297 354.696 5.82193 352.339 4.76577C348.884 3.20934 345.213 2.41722 341.406 2.41722C326.463 2.41722 314.297 14.8826 314.297 30.2246C314.297 45.5527 326.463 58.032 341.406 58.032C345.254 58.032 348.979 57.226 352.461 55.614C354.805 54.5439 355.862 51.709 354.818 49.3049C353.762 46.8729 351.011 45.8029 348.668 46.8729ZM62.7401 45.7334C60.4505 46.7756 58.0119 47.3176 55.492 47.3176C45.6834 47.3176 37.7037 39.1324 37.7037 29.0712C37.7037 19.0099 45.6834 10.8248 55.492 10.8248C57.9848 10.8248 60.3963 11.3389 62.6588 12.3673C65.0162 13.4373 67.7664 12.3395 68.796 9.92147C69.8392 7.50343 68.7689 4.68239 66.4116 3.62624C62.9569 2.0698 59.2854 1.27769 55.4785 1.27769C40.5352 1.27769 28.3692 13.7431 28.3692 29.0851C28.3692 44.4132 40.5352 56.8925 55.4785 56.8925C59.3261 56.8925 63.0517 56.0865 66.5335 54.4744C68.8773 53.4044 69.934 50.5695 68.8909 48.1653C67.8341 45.7334 65.0839 44.6494 62.7401 45.7334Z" fill="#FF751B"/>
<path d="M396.567 24.8474C399.223 20.1503 405.549 11.5899 404.493 0C401.106 5.62818 382.654 7.18462 366.626 15.6338C353.146 22.7351 345.885 33.0326 345.668 42.1905C364.405 16.7039 379.551 20.1503 386.759 17.6211C384.821 23.1937 379.971 26.0842 379.023 37.1738C404.533 34.1582 421.793 24.7918 434 5.00283C424.964 14.272 415.25 23.5411 396.567 24.8474Z" fill="#FF751B"/>
</svg>
