<svg width="120" height="120" viewBox="0 0 120 120" fill="none" xmlns="http://www.w3.org/2000/svg">
<path d="M38.9682 5.04501C22.6262 11.57 11.6842 28.68 11.6842 48.11C11.6842 55.505 10.9737 58.695 8.84209 61.45C6.99473 63.915 6 67.395 6 71.89C6 77.545 6.71052 79.43 10.4052 83.055C12.821 85.52 15.2368 87.55 15.9473 87.55C16.5157 87.55 17.9368 89.725 18.9315 92.19C21.7736 99.44 32.8577 110.75 40.8156 114.52C46.6419 117.42 50.3366 118 61.1365 118H74.2101V112.2V106.4H67.1049C53.8892 106.4 45.9313 103.645 38.5419 96.685C34.8472 93.205 30.5841 87.405 29.3051 84.07C27.5999 79.865 25.4683 77.255 22.7683 76.24C18.3631 74.645 17.5105 70.15 20.921 67.25C22.1999 66.235 23.0525 63.045 23.0525 59.855C23.0525 56.085 24.0473 53.185 25.8946 51.3C28.5946 48.545 30.5841 48.4 57.1576 48.4C92.6837 48.4 91.2627 47.53 91.2627 68.7V83.2H80.1785C70.7996 83.2 68.9523 82.765 67.3891 80.3C65.3997 76.965 56.0208 76.24 53.1787 79.14C50.905 81.46 50.905 90.74 53.1787 93.06C54.3155 94.22 62.6997 94.8 81.5996 94.8C114.568 94.8 113.999 95.09 113.999 77.4C113.999 67.685 113.573 65.365 111.157 62.9C109.594 61.305 107.036 60 105.473 60C102.915 60 102.631 58.985 102.631 49.125C102.631 28.39 92.1153 11.57 74.9206 5.04501C64.4049 0.985001 49.3419 0.985001 38.9682 5.04501Z" fill="url(#paint0_radial_4_1034)"/>
<defs>
<radialGradient id="paint0_radial_4_1034" cx="0" cy="0" r="1" gradientUnits="userSpaceOnUse" gradientTransform="translate(40 7.5) rotate(65.2318) scale(117.203 206.348)">
<stop stop-color="#0D0300"/>
<stop offset="0.10936" stop-color="#340C00"/>
<stop offset="0.264132" stop-color="#541400"/>
<stop offset="0.400953" stop-color="#831F00"/>
<stop offset="0.540236" stop-color="#AB2706"/>
<stop offset="0.622515" stop-color="#C82D0B"/>
<stop offset="0.707057" stop-color="#E5320F"/>
<stop offset="0.767093" stop-color="#E74F13"/>
<stop offset="0.849185" stop-color="#E97318"/>
<stop offset="0.922197" stop-color="#EA9924"/>
<stop offset="0.970352" stop-color="#FFCD84"/>
<stop offset="1" stop-color="#FFCD84"/>
</radialGradient>
</defs>
</svg>
