<svg width="51" height="79" viewBox="0 0 51 79" fill="none" xmlns="http://www.w3.org/2000/svg">
    <path d="M35.5703 37.1508C38.5114 37.6607 41.0675 38.8262 43.2383 40.6473C45.4792 42.3956 47.1949 44.6538 48.3854 47.4219C49.5759 50.1171 50.1711 53.1766 50.1711 56.6003C50.1711 61.1166 49.0857 65.0503 46.9148 68.4011C44.814 71.752 41.8028 74.3379 37.8812 76.1591C33.9596 78.053 29.3378 79 24.0156 79C18.6935 79 14.0016 78.0166 9.94002 76.0498C5.8784 74.1558 2.62209 71.3877 0.171112 67.7455L7.20893 59.4412C8.8896 62.0636 11.0605 64.1397 13.7215 65.6694C16.3826 67.272 19.7439 68.0733 23.8056 68.0733C28.3574 68.0733 31.8938 67.0535 34.4148 65.0138C36.9358 62.9742 38.1963 59.9147 38.1963 55.8354C38.1963 51.6104 36.7958 48.296 33.9946 45.8921C31.2635 43.4882 27.1319 42.2863 21.5997 42.2863H18.7635V32.8894H21.9148C26.6067 32.8894 30.2131 31.7603 32.7341 29.5021C35.2551 27.171 36.5157 24.2573 36.5157 20.7607C36.5157 18.4297 35.9904 16.5357 34.94 15.0788C33.9596 13.5491 32.5591 12.42 30.7383 11.6916C28.9176 10.9631 26.8168 10.5989 24.4358 10.5989C20.8644 10.5989 17.7131 11.4002 14.982 13.0028C12.2509 14.6053 10.0801 16.9 8.46943 19.8866L1.22153 11.6916C2.62209 9.36053 4.54786 7.32088 6.99884 5.57261C9.44982 3.82434 12.2509 2.47672 15.4022 1.52974C18.6235 0.509912 22.0199 0 25.5913 0C30.2131 0 34.2747 0.801291 37.7762 2.40387C41.2776 4.00646 43.9736 6.26464 45.8644 9.17843C47.8252 12.0922 48.8056 15.5159 48.8056 19.4495C48.8056 22.2905 48.2804 24.9857 47.2299 27.5353C46.1795 30.012 44.6389 32.1245 42.6081 33.8728C40.5773 35.5482 38.2313 36.6409 35.5703 37.1508Z"
          fill="#FFB407"/>
</svg>
