<svg width="371" height="64" viewBox="0 0 371 64" fill="none" xmlns="http://www.w3.org/2000/svg">
<path d="M0 4.48266C0 6.73579 1.78351 8.56201 3.98394 8.56201H13.2605V45.2287C13.2605 47.4818 15.044 49.308 17.2445 49.308C19.4449 49.308 21.2284 47.4818 21.2284 45.2287V0.40332H3.98394C1.78351 0.40332 0 2.22954 0 4.48266ZM148.089 2.20582C135.431 2.20582 125.135 12.7481 125.135 25.7095C125.135 38.6709 135.431 49.2131 148.089 49.2131C153.393 49.2131 158.57 47.3158 162.658 43.8649C164.361 42.43 164.604 39.8686 163.203 38.1254C161.801 36.3822 159.3 36.1332 157.597 37.568C154.934 39.8212 151.552 41.0545 148.078 41.0545C139.809 41.0545 133.092 34.1646 133.092 25.7095C133.092 17.2425 139.82 10.3645 148.078 10.3645C154.829 10.3645 160.701 14.9419 162.508 21.5471V25.0098V28.769V35.3268C163.261 35.6825 163.956 36.1924 164.511 36.8921C166.503 39.3705 166.156 43.0467 163.735 45.0864C163.342 45.4184 162.925 45.7267 162.508 46.0232C162.508 48.2763 164.291 50.1025 166.492 50.1025C168.692 50.1025 170.476 48.2882 170.476 46.035V28.7571V24.998V20.5154L170.36 20.0292C167.824 9.53441 158.663 2.20582 148.089 2.20582ZM195.387 2.20582C184.813 2.20582 175.653 9.53441 173.105 20.0292L172.989 20.5154V24.998V28.7571V59.9214C172.989 62.1745 174.772 64.0008 176.973 64.0008C179.173 64.0008 180.957 62.1745 180.957 59.9214V46.0113C180.54 45.703 180.123 45.4066 179.729 45.0745C177.309 43.0348 176.961 39.3587 178.953 36.8802C179.509 36.1806 180.204 35.6707 180.957 35.3149V28.7571V24.998V21.5353C182.763 14.9301 188.635 10.3527 195.387 10.3527C203.656 10.3527 210.373 17.2425 210.373 25.6976C210.373 34.1646 203.644 41.0426 195.387 41.0426C191.924 41.0426 188.542 39.8093 185.867 37.5562C184.165 36.1213 181.663 36.3822 180.262 38.1135C178.861 39.8567 179.115 42.4182 180.806 43.8531C184.894 47.3039 190.071 49.2013 195.375 49.2013C208.034 49.2013 218.329 38.659 218.329 25.6976C218.341 12.7481 208.045 2.20582 195.387 2.20582ZM99.7144 2.20582C89.1407 2.20582 79.98 9.53441 77.4321 20.0292L77.3163 20.5154V24.998V28.7571V59.9214C77.3163 62.1745 79.0998 64.0008 81.3003 64.0008C83.5007 64.0008 85.2842 62.1745 85.2842 59.9214V46.0113C84.8673 45.703 84.4503 45.4066 84.0566 45.0745C81.6361 43.0348 81.2887 39.3587 83.2806 36.8802C83.8365 36.1806 84.5314 35.6707 85.2842 35.3149V28.7571V24.998V21.5353C87.0909 14.9301 92.9626 10.3527 99.7144 10.3527C107.983 10.3527 114.701 17.2425 114.701 25.6976C114.701 34.1646 107.972 41.0426 99.7144 41.0426C96.2516 41.0426 92.8699 39.8093 90.1946 37.5562C88.4922 36.1213 85.9907 36.3822 84.5893 38.1135C83.188 39.8567 83.4312 42.4182 85.1336 43.8531C89.2218 47.3039 94.3986 49.2013 99.7028 49.2013C112.361 49.2013 122.657 38.659 122.657 25.6976C122.668 12.7481 112.373 2.20582 99.7144 2.20582ZM69.5916 21.7843H61.4732C59.2727 21.7843 57.4892 23.6105 57.4892 25.8636C57.4892 28.1168 59.2727 29.943 61.4732 29.943H69.5916C71.7921 29.943 73.5756 28.1168 73.5756 25.8636C73.5756 23.6105 71.7921 21.7843 69.5916 21.7843ZM262.697 2.25325C260.497 2.25325 258.713 4.07947 258.713 6.3326V20.0529V25.0335C258.713 33.6191 251.892 40.6038 243.507 40.6038C235.122 40.6038 228.301 33.6191 228.301 25.0335V6.20215C228.301 3.94903 226.517 2.12281 224.317 2.12281C222.116 2.12281 220.333 3.94903 220.333 6.20215V25.0335C220.333 38.1135 230.733 48.7625 243.507 48.7625C249.043 48.7625 254.115 46.7584 258.099 43.438C256.084 52.1896 249.622 52.5928 247.236 52.7351C245.047 52.8656 243.368 54.7985 243.495 57.0398C243.623 59.2099 245.372 60.8701 247.468 60.8701C247.549 60.8701 247.63 60.8701 247.711 60.8582C259.755 60.123 266.669 51.5849 266.669 37.4257V25.0335V20.0529V6.32074C266.669 4.07947 264.886 2.25325 262.697 2.25325ZM298.055 39.999C296.097 40.8884 294.013 41.3509 291.859 41.3509C283.474 41.3509 276.652 34.3662 276.652 25.7806C276.652 17.195 283.474 10.2103 291.859 10.2103C293.99 10.2103 296.051 10.6491 297.985 11.5266C300 12.4398 302.351 11.5029 303.231 9.43954C304.123 7.37615 303.208 4.96886 301.193 4.06761C298.24 2.73946 295.101 2.06352 291.847 2.06352C279.073 2.06352 268.673 12.7006 268.673 25.7925C268.673 38.8725 279.073 49.5215 291.847 49.5215C295.136 49.5215 298.321 48.8337 301.297 47.4581C303.301 46.545 304.204 44.1258 303.312 42.0743C302.409 39.999 300.058 39.0859 298.055 39.999ZM53.6327 39.0266C51.6755 39.916 49.5908 40.3785 47.4367 40.3785C39.0519 40.3785 32.2306 33.3938 32.2306 24.8082C32.2306 16.2226 39.0519 9.23795 47.4367 9.23795C49.5677 9.23795 51.6291 9.67671 53.5632 10.5542C55.5783 11.4674 57.9293 10.5305 58.8095 8.46714C59.7013 6.40375 58.7863 3.99646 56.7712 3.09521C53.818 1.76705 50.6795 1.09112 47.4251 1.09112C34.6511 1.09112 24.2511 11.7282 24.2511 24.8201C24.2511 37.9001 34.6511 48.5491 47.4251 48.5491C50.7142 48.5491 53.8991 47.8613 56.8754 46.4857C58.879 45.5726 59.7823 43.1534 58.8906 41.1019C57.9872 39.0266 55.6362 38.1017 53.6327 39.0266Z" fill="#FBFBFB"/>
<path d="M339.001 21.2031C341.271 17.1949 346.679 9.89003 345.776 0C342.881 4.80271 327.107 6.13087 313.407 13.3409C301.883 19.4006 295.676 28.1878 295.49 36.0026C311.507 14.254 324.455 17.1949 330.616 15.0366C328.96 19.7919 324.814 22.2585 324.003 31.7216C345.811 29.1483 360.565 21.1557 371 4.26908C363.275 12.1787 354.972 20.0884 339.001 21.2031Z" fill="#FBFBFB"/>
</svg>
