<svg width="208" height="66" viewBox="0 0 208 66" fill="none" xmlns="http://www.w3.org/2000/svg">
<g clip-path="url(#clip0_12_1049)">
<path fill-rule="evenodd" clip-rule="evenodd" d="M16.1612 14.3498C15.6283 14.4176 14.9942 14.5164 14.7522 14.5695L14.312 14.6662L14.3521 24.2017C14.3917 33.6648 14.3943 33.7417 14.7036 34.3139C15.4234 35.6451 16.6867 36.3962 18.2112 36.399C20.4464 36.4032 22.0936 34.756 22.0979 32.5124C22.1014 30.6238 20.8199 29.0244 19.0349 28.6895L18.4994 28.589V26.9351V25.2811L19.1119 25.3758C22.7108 25.9329 25.4172 28.9962 25.4172 32.5124C25.4172 36.402 22.1008 39.7184 18.2112 39.7184C14.87 39.7184 11.7753 37.1353 11.1515 33.8259C11.0629 33.3551 11.0052 29.654 11.0052 24.4221C11.0052 19.6769 10.9702 15.7945 10.9274 15.7945C10.8846 15.7945 10.5883 15.9278 10.2689 16.0907L9.68844 16.387L9.74575 25.1342C9.79535 32.6983 9.83494 33.9879 10.0386 34.6677C10.8974 37.5346 13.0608 39.756 15.8332 40.6177C17.1295 41.0205 19.1871 41.0438 20.4451 40.6701C23.3371 39.8106 25.5094 37.6383 26.3689 34.7463C26.9676 32.7313 26.6067 30.1416 25.4578 28.2084C24.1412 25.993 21.2422 24.1621 19.0399 24.1552L18.4994 24.1534V22.4762V20.7989L19.4066 20.8919C22.5546 21.2144 25.5696 22.913 27.4977 25.4505C28.402 26.6407 28.8255 27.4461 29.3279 28.9321C30.1897 31.4815 30.044 34.7321 28.9577 37.1883C27.7781 39.8556 25.2632 42.2959 22.5638 43.393C20.2036 44.352 17.0564 44.4451 14.631 43.6276C11.4096 42.5419 9.06769 40.4549 7.61553 37.3756C6.60843 35.2403 6.62961 35.4544 6.54343 26.5315L6.46546 18.4608L5.30083 19.6203C2.70019 22.2099 0.823031 25.8281 0.182564 29.4859C-0.0608545 30.876 -0.0608545 34.1488 0.182564 35.5389C1.36665 42.3004 6.22348 47.8649 12.7346 49.9197C14.7179 50.5457 16.0068 50.7331 18.2832 50.7274C20.4915 50.7216 22.074 50.4781 23.9342 49.8573C29.41 48.0304 33.8015 43.6321 35.5751 38.1986C36.7467 34.6096 36.7467 30.4152 35.5751 26.8262C33.5383 20.5863 28.0903 15.7959 21.6392 14.5722C20.1803 14.2955 17.4596 14.185 16.1612 14.3498Z" fill="#0E0D0C"/>
<path fill-rule="evenodd" clip-rule="evenodd" d="M60.9359 25.644C58.999 26.137 57.2609 27.3233 56.1991 28.8773C55.1871 30.3583 54.7839 31.6569 54.7047 33.6891C54.5883 36.6693 55.3364 38.8149 57.1131 40.5975C58.7389 42.2289 60.6716 42.9555 63.3208 42.9306C64.922 42.9157 66.2358 42.6085 67.1761 42.0293L67.6445 41.7408V39.4144V37.0879L67.1761 37.4728C66.9183 37.6846 66.2861 38.0659 65.7708 38.32C64.9528 38.7236 64.6878 38.7821 63.6811 38.7821C62.707 38.7821 62.3992 38.7189 61.6971 38.374C60.1308 37.605 59.3383 36.0434 59.4587 33.9636C59.614 31.2828 61.2468 29.5826 63.6663 29.5826C64.9262 29.5826 65.9892 30.0152 66.985 30.9331L67.6445 31.5409V29.1478V26.7548L67.2797 26.5158C66.3227 25.8888 65.0135 25.555 63.3208 25.5063C62.2872 25.4766 61.3896 25.5285 60.9359 25.644ZM182.25 25.6753C178.37 26.7196 176.017 29.9259 176.025 34.1574C176.033 38.3229 178.102 41.3863 181.693 42.5441C183.859 43.2431 186.93 43.0118 188.524 42.0293L188.993 41.7408V39.4208V37.1006L188.429 37.5473C188.119 37.7931 187.487 38.1714 187.024 38.388C186.325 38.7152 185.988 38.7816 185.03 38.7799C183.163 38.7765 181.993 38.0464 181.222 36.4051C180.904 35.7243 180.851 35.417 180.853 34.2424C180.855 33.0735 180.91 32.7556 181.231 32.0683C181.437 31.6254 181.851 31.0172 182.152 30.7167C183.778 29.091 186.58 29.2043 188.384 30.9686L189 31.5713L188.961 29.1237L188.921 26.6761L188.003 26.224C187.498 25.9755 186.724 25.6998 186.285 25.6115C185.199 25.3936 183.178 25.4255 182.25 25.6753ZM44.8735 27.7514V29.6193L46.1345 29.661L47.3956 29.7027L47.4331 36.0799L47.4707 42.4572H49.5588H51.6471V34.1703V25.8835H48.2604H44.8735V27.7514ZM80.7593 34.1703V42.4572L85.1187 42.4551C90.5353 42.4525 91.2754 42.3193 92.8192 41.0685C93.1753 40.7807 93.589 40.2411 93.8281 39.7534C94.196 39.0047 94.2342 38.7819 94.2342 37.4036C94.2342 35.9938 94.2019 35.8178 93.7992 35.0297C93.2651 33.9843 92.3419 33.2454 91.0075 32.7956C90.2309 32.534 89.6222 32.4614 87.713 32.403L85.3714 32.3314V31.053V29.7747H89.1907H93.0091V27.8291V25.8835H86.8847H80.7593V34.1703ZM96.7563 34.174V42.4644L99.0784 42.4248L101.401 42.3852L104.52 37.5281C106.235 34.8566 107.686 32.6677 107.745 32.664C107.806 32.6603 107.854 34.8621 107.854 37.5572V42.4572H110.088H112.322V34.1668V25.8763L109.992 25.9159L107.663 25.9555L104.48 30.8862L101.296 35.8169L101.258 30.8502L101.221 25.8835H98.9886H96.7563V34.174ZM114.195 27.8291V29.7747H115.997H117.798V36.1159V42.4572H120.176H122.554V36.1159V29.7747H124.355H126.157V27.8291V25.8835H120.176H114.195V27.8291ZM128.03 34.1703V42.4572H130.408H132.786V39.7189V36.9807H134.485C137.002 36.9807 138.417 36.5386 139.56 35.3954C141.985 32.9704 141.525 28.5014 138.674 26.7898C137.363 26.0028 136.518 25.888 132.03 25.8857L128.03 25.8835V34.1703ZM143.019 34.1703V42.4572L145.361 42.4516L147.702 42.446L150.801 37.6132C152.506 34.9552 153.949 32.7489 154.008 32.7103C154.068 32.6716 154.116 34.849 154.116 37.5487V42.4572H156.35H158.584V34.1703V25.8835H156.298H154.013L150.858 30.7831C149.123 33.4779 147.654 35.6829 147.595 35.6831C147.535 35.6835 147.486 33.4785 147.486 30.7835V25.8835H145.253H143.019V34.1703ZM161.322 34.1703V42.4572H163.626H165.929L165.967 38.9001L166.006 35.3429L168.384 38.8937L170.762 42.4447L173.685 42.4509L176.607 42.4572L173.503 38.3582C171.796 36.1037 170.361 34.1614 170.316 34.0418C170.245 33.8588 173.154 29.9924 175.992 26.496L176.489 25.8835H173.754H171.018L168.512 29.3784L166.006 32.8733L165.967 29.3784L165.929 25.8835H163.626H161.322V34.1703ZM135.5 29.832C136.302 30.2502 136.594 31.3129 136.178 32.3061C135.889 32.9992 135.048 33.3704 133.759 33.3745L132.786 33.3777V31.4137V29.4494L133.903 29.5157C134.563 29.5548 135.216 29.6842 135.5 29.832ZM73.5023 31.6693C72.0193 32.0025 71.0703 33.6249 71.5348 35.0326C71.7605 35.7162 72.4832 36.5375 73.078 36.7859C74.5221 37.3894 76.3145 36.4834 76.7301 34.9402C77.2527 32.9994 75.4978 31.221 73.5023 31.6693ZM88.5565 35.8293C89.2737 36.0286 89.5806 36.4231 89.6603 37.2465C89.74 38.0761 89.5578 38.478 88.9287 38.8614C88.5497 39.0928 88.2004 39.1414 86.9203 39.1419L85.3714 39.1425V37.413V35.6836L86.7041 35.6845C87.4374 35.6849 88.2708 35.75 88.5565 35.8293Z" fill="#0E0D0C"/>
</g>
<defs>
<clipPath id="clip0_12_1049">
<rect width="208" height="66" fill="white"/>
</clipPath>
</defs>
</svg>
