<svg width="208" height="66" viewBox="0 0 208 66" fill="none" xmlns="http://www.w3.org/2000/svg">
<g clip-path="url(#clip0_12_1037)">
<path fill-rule="evenodd" clip-rule="evenodd" d="M29.1357 58.2989L38.2145 51.5402H22.3921L29.1357 58.2989Z" fill="#0E0D0C"/>
<path fill-rule="evenodd" clip-rule="evenodd" d="M0.000466633 57.4406H16.002L22.0464 51.3745L14.9611 44.2567H29.1357L38.4828 34.9336V44.2567H47.895L38.4828 51.3745V57.4406H50.1169L50.1228 7.39087L0.000466633 57.4406Z" fill="#0E0D0C"/>
<path fill-rule="evenodd" clip-rule="evenodd" d="M72.9863 44.1751L63.3997 44.2504L59.4675 48.2208C57.8658 49.8278 56.4111 52.7645 57.2143 54.5607C58.663 57.7646 62.0634 57.4216 64.4739 57.4216H84.0535V51.922H65.3118L72.9863 44.1751ZM82.2995 38.1405C80.54 36.7669 78.3322 36.6128 77.0652 36.6128L71.3049 36.5394L65.7309 42.1158L77.0656 42.1878V49.8278H84.0535V42.1878C84.0535 42.2281 84.0535 39.5164 82.2995 38.1405Z" fill="#0E0D0C"/>
<path fill-rule="evenodd" clip-rule="evenodd" d="M160.422 57.423H167.371V44.24H160.422V57.423ZM176.051 57.423H183V51.9234H176.051V57.423ZM160.439 36.6022V42.1891H176.05V49.8291H183V42.1891C183 42.2295 183 39.5177 181.245 38.1419C179.486 36.7683 177.278 36.6081 176.012 36.6081L160.439 36.6022Z" fill="#0E0D0C"/>
<path fill-rule="evenodd" clip-rule="evenodd" d="M151.745 51.8516H132.653C132.653 53.3385 133.338 54.7916 134.639 55.8979C135.631 56.7385 137.656 57.4231 139.563 57.4231H151.745C153.691 57.4231 155.673 56.6985 156.855 55.5948C158.083 54.4844 158.694 53.1091 158.694 51.8516V44.2517H151.745V51.8516ZM139.603 42.1891H158.694C158.694 40.703 158.004 39.2883 156.708 38.1834C155.752 37.3414 153.653 36.6143 151.818 36.6143H139.603C137.694 36.6143 135.67 37.3821 134.487 38.4478C133.299 39.5524 132.653 40.9679 132.653 42.1891V49.8291H139.603V42.1891Z" fill="#0E0D0C"/>
<path fill-rule="evenodd" clip-rule="evenodd" d="M117.01 42.1891H128.078L133.613 36.6143H117.01C115.634 36.6143 113.875 36.7289 111.973 38.0307C110.4 39.1329 110.061 40.8138 110.061 42.1891V49.8291H117.01V42.1891ZM111.662 55.5948C112.924 56.8144 114.911 57.4231 116.665 57.4231H130.867V51.9234H110.061C110.061 52.954 110.366 54.373 111.662 55.5948Z" fill="#0E0D0C"/>
<path fill-rule="evenodd" clip-rule="evenodd" d="M106.573 45.5212C105.199 44.2622 103.331 44.2622 101.459 44.2622H92.7224V42.2102H103.791L109.326 36.6351H92.7224C91.3471 36.6351 89.5881 36.75 87.6859 38.0516C86.1133 39.1539 85.7733 40.8348 85.7733 42.2106V49.8444H101.459L101.457 51.925L89.8965 51.922L85.7476 57.4333H101.457C103.392 57.4333 105.364 56.7168 106.538 55.6258C107.76 54.5285 108.367 53.1678 108.367 51.925L108.372 49.8394C108.372 48.422 108.334 47.0869 106.573 45.5212Z" fill="#0E0D0C"/>
</g>
<defs>
<clipPath id="clip0_12_1037">
<rect width="208" height="66" fill="white"/>
</clipPath>
</defs>
</svg>
