<svg width="208" height="66" viewBox="0 0 208 66" fill="none" xmlns="http://www.w3.org/2000/svg">
<g clip-path="url(#clip0_12_741)">
<mask id="mask0_12_741" style="mask-type:luminance" maskUnits="userSpaceOnUse" x="-1" y="13" width="183" height="41">
<path d="M182 13.1697H-0.5V53.8303H182V13.1697Z" fill="white"/>
</mask>
<g mask="url(#mask0_12_741)">
<path d="M45.6068 43.9443H46.6332C47.1889 43.9443 47.6073 44.0555 47.8753 44.2777C48.1434 44.5 48.2807 44.853 48.2807 45.3434C48.2807 45.8141 48.1369 46.1671 47.8492 46.4024C47.5549 46.6378 47.1627 46.7554 46.6659 46.7554H44.855V42.1268H47.9015V42.8199H45.6068V43.9443ZM45.6068 46.0494H46.6724C46.9535 46.0494 47.1692 45.9905 47.3131 45.8794C47.4569 45.7683 47.5288 45.5853 47.5288 45.3172C47.5288 45.0622 47.4569 44.8727 47.3197 44.7484C47.1758 44.6242 46.947 44.5653 46.6397 44.5653H45.6068V46.0494Z" fill="#0E0D0C"/>
<path d="M50.2027 42.8787V44.062H52.3143V44.8204H50.2027V45.9972H52.4974V46.7555H49.4443V42.1204H52.4974V42.8787H50.2027Z" fill="#0E0D0C"/>
<path d="M55.0994 42.0615C55.5635 42.0615 55.9166 42.1792 56.165 42.4145C56.4134 42.6499 56.5376 42.9637 56.5376 43.3625C56.5376 43.7744 56.3807 44.0816 56.0669 44.2843C56.5115 44.5066 56.7338 44.8792 56.7338 45.4087C56.7272 45.8729 56.5769 46.2259 56.2696 46.4613C55.9623 46.7032 55.557 46.8209 55.047 46.8209C54.2821 46.8209 53.733 46.5267 53.3931 45.9448L53.9814 45.5788C54.2363 45.9383 54.5894 46.1148 55.0405 46.1148C55.6682 46.1148 55.9819 45.8729 55.9819 45.3826C55.9819 44.8792 55.6812 44.6308 55.0863 44.6308H54.4391V44.0228H55.0797C55.3086 44.0228 55.4851 43.9705 55.6158 43.8659C55.7466 43.7613 55.812 43.6044 55.812 43.3952C55.812 43.1926 55.7466 43.0291 55.6093 42.918C55.472 42.8068 55.289 42.7545 55.047 42.7545C54.6679 42.7545 54.3476 42.8852 54.0925 43.1533L53.5827 42.7937C53.9291 42.3034 54.4391 42.0615 55.0994 42.0615Z" fill="#0E0D0C"/>
<path d="M57.832 45.3172V43.5586C57.832 43.0879 58.015 42.7218 58.3877 42.4538C58.7538 42.1923 59.1918 42.0615 59.7018 42.0615C60.2051 42.0615 60.6432 42.1923 61.0224 42.4538C61.3949 42.7218 61.578 43.0879 61.578 43.5586V45.3172C61.578 45.7879 61.3949 46.1541 61.0224 46.422C60.6432 46.6901 60.2051 46.8209 59.7018 46.8209C59.1983 46.8209 58.7603 46.6901 58.3877 46.422C58.015 46.1541 57.832 45.7879 57.832 45.3172ZM58.5773 43.5651V45.3172C58.5773 45.5656 58.6885 45.7552 58.9107 45.8925C59.133 46.0298 59.3944 46.1018 59.7018 46.1018C60.009 46.1018 60.2705 46.0298 60.4927 45.8925C60.7151 45.7552 60.8262 45.5656 60.8262 45.3172V43.5651C60.8262 43.3102 60.7151 43.1141 60.4927 42.9768C60.2705 42.8395 60.0025 42.7741 59.6952 42.7741C59.3879 42.7807 59.1199 42.846 58.9041 42.9833C58.6885 43.1206 58.5773 43.3102 58.5773 43.5651Z" fill="#0E0D0C"/>
<path d="M65.6513 42.8591H63.6311V46.7554H62.8794V42.1268H66.4032V46.7554H65.6513V42.8591Z" fill="#0E0D0C"/>
<path d="M69.8483 42.1268L71.5219 46.7554H70.7309L70.2798 45.5525H68.6192L68.2008 46.7554H67.3901L69.0572 42.1268H69.8483ZM69.4626 42.8917H69.4364L69.2468 43.637L68.8743 44.7942H70.0183L69.6391 43.624L69.4626 42.8917Z" fill="#0E0D0C"/>
<path d="M72.2739 45.3303V43.5521C72.2739 43.0879 72.4505 42.7218 72.8035 42.4538C73.1564 42.1923 73.5749 42.0615 74.0653 42.0615C74.4183 42.0615 74.7517 42.1531 75.0589 42.3361C75.3727 42.5192 75.6081 42.7806 75.7715 43.1206L75.0981 43.454C74.987 43.2514 74.8367 43.0945 74.6471 42.9833C74.4575 42.8722 74.2549 42.8199 74.0456 42.8199C73.771 42.8199 73.5356 42.8852 73.333 43.0095C73.1304 43.1403 73.0258 43.3232 73.0258 43.5521V45.3303C73.0258 45.5591 73.1304 45.7422 73.333 45.8664C73.5356 45.9971 73.771 46.0625 74.0456 46.0625C74.2614 46.0625 74.464 46.0102 74.6536 45.899C74.8432 45.7879 74.9936 45.6376 75.0981 45.4349L75.7715 45.7487C75.6081 46.0952 75.3727 46.3567 75.0524 46.5398C74.7386 46.7294 74.4052 46.8209 74.0456 46.8209C73.7384 46.8209 73.4572 46.7686 73.1957 46.6574C72.9342 46.5528 72.7185 46.3829 72.542 46.1541C72.3655 45.9252 72.2739 45.6506 72.2739 45.3303Z" fill="#0E0D0C"/>
<path d="M77.6412 44.8204V46.7554H76.8828V42.1268H77.6412V44.0685H79.7006V42.1268H80.4589V46.7554H79.7006V44.8204H77.6412Z" fill="#0E0D0C"/>
<path d="M81.7661 45.3172V43.5586C81.7661 43.0879 81.9492 42.7218 82.3218 42.4538C82.6879 42.1923 83.1259 42.0615 83.6358 42.0615C84.1393 42.0615 84.5773 42.1923 84.9565 42.4538C85.3291 42.7218 85.5122 43.0879 85.5122 43.5586V45.3172C85.5122 45.7879 85.3291 46.1541 84.9565 46.422C84.5773 46.6901 84.1393 46.8209 83.6358 46.8209C83.1325 46.8209 82.6944 46.6901 82.3218 46.422C81.9492 46.1541 81.7661 45.7879 81.7661 45.3172ZM82.5114 43.5651V45.3172C82.5114 45.5656 82.6225 45.7552 82.8448 45.8925C83.0671 46.0298 83.3286 46.1018 83.6358 46.1018C83.9432 46.1018 84.2046 46.0298 84.4269 45.8925C84.6491 45.7552 84.7603 45.5656 84.7603 45.3172V43.5651C84.7603 43.3102 84.6491 43.1141 84.4269 42.9768C84.2046 42.8395 83.9365 42.7741 83.6293 42.7741C83.3221 42.7807 83.054 42.846 82.8382 42.9833C82.6225 43.1206 82.5114 43.3102 82.5114 43.5651Z" fill="#0E0D0C"/>
<path d="M87.5718 42.8787V44.062H89.6835V44.8204H87.5718V45.9972H89.8665V46.7555H86.8135V42.1204H89.8665V42.8787H87.5718Z" fill="#0E0D0C"/>
<path d="M93.9653 45.2779L92.4355 42.1268H93.2985L94.1352 43.9377L94.3318 44.4412H94.3508L94.5607 43.9312L95.3777 42.1268H96.188L94.103 46.7554H93.2985L93.9653 45.2779Z" fill="#0E0D0C"/>
<path d="M100.608 47.6119H99.8496V46.7554H97.1102V47.6119H96.3452V46.0428C96.6592 46.0233 96.8747 45.8925 96.992 45.6506C97.097 45.4349 97.1754 44.9642 97.2275 44.2516C97.2341 44.1601 97.2407 44.0097 97.2606 43.807V43.7678L97.3655 42.1268H100.15V46.0428H100.608V47.6119ZM98.0974 42.8591L97.9991 44.3039C97.9471 45.1211 97.8222 45.6964 97.6265 46.0428H99.3985V42.8591H98.0974Z" fill="#0E0D0C"/>
<path d="M103.805 42.1268L105.478 46.7554H104.687L104.236 45.5525H102.575L102.157 46.7554H101.346L103.013 42.1268H103.805ZM103.419 42.8917H103.392L103.203 43.637L102.83 44.7942H103.974L103.595 43.624L103.419 42.8917Z" fill="#0E0D0C"/>
<path d="M109.323 42.8591H107.956L107.864 44.3039C107.845 44.6242 107.812 44.9054 107.779 45.1341C107.747 45.3629 107.688 45.5918 107.609 45.8075C107.525 46.0298 107.427 46.2063 107.303 46.3436C107.171 46.4809 107.014 46.5855 106.819 46.6574C106.616 46.7293 106.381 46.762 106.112 46.7554V46.0298C106.283 46.0363 106.426 46.0037 106.544 45.9382C106.655 45.8729 106.747 45.7879 106.812 45.6898C106.877 45.5918 106.929 45.4349 106.976 45.2322C107.014 45.0295 107.041 44.8334 107.061 44.6503C107.074 44.4673 107.093 44.2123 107.113 43.892C107.119 43.8332 107.119 43.7939 107.119 43.7678L107.23 42.1268H110.081V46.7554H109.323V42.8591Z" fill="#0E0D0C"/>
<path d="M112.271 42.8787V44.062H114.383V44.8204H112.271V45.9972H114.565V46.7555H111.513V42.1204H114.565V42.8787H112.271Z" fill="#0E0D0C"/>
<path d="M116.592 44.8204V46.7554H115.834V42.1268H116.592V44.0685H118.652V42.1268H119.41V46.7554H118.652V44.8204H116.592Z" fill="#0E0D0C"/>
<path d="M121.6 44.8204V46.7554H120.842V42.1268H121.6V44.0685H123.66V42.1268H124.418V46.7554H123.66V44.8204H121.6Z" fill="#0E0D0C"/>
<path d="M125.725 45.3172V43.5586C125.725 43.0879 125.908 42.7218 126.281 42.4538C126.647 42.1923 127.084 42.0615 127.595 42.0615C128.098 42.0615 128.536 42.1923 128.915 42.4538C129.288 42.7218 129.471 43.0879 129.471 43.5586V45.3172C129.471 45.7879 129.288 46.1541 128.915 46.422C128.536 46.6901 128.098 46.8209 127.595 46.8209C127.091 46.8209 126.653 46.6901 126.281 46.422C125.908 46.1541 125.725 45.7879 125.725 45.3172ZM126.47 43.5651V45.3172C126.47 45.5656 126.581 45.7552 126.804 45.8925C127.026 46.0298 127.288 46.1018 127.595 46.1018C127.902 46.1018 128.163 46.0298 128.386 45.8925C128.608 45.7552 128.719 45.5656 128.719 45.3172V43.5651C128.719 43.3102 128.608 43.1141 128.386 42.9768C128.163 42.8395 127.896 42.7741 127.588 42.7741C127.281 42.7807 127.013 42.846 126.797 42.9833C126.581 43.1206 126.47 43.3102 126.47 43.5651Z" fill="#0E0D0C"/>
<path d="M131.531 42.8787V44.062H133.642V44.8204H131.531V45.9972H133.825V46.7555H130.772V42.1204H133.825V42.8787H131.531Z" fill="#0E0D0C"/>
<path d="M137.924 45.2779L136.394 42.1268H137.257L138.094 43.9377L138.29 44.4412H138.31L138.519 43.9312L139.337 42.1268H140.147L138.061 46.7554H137.257L137.924 45.2779Z" fill="#0E0D0C"/>
<path d="M143.86 42.8591H141.841V46.7554H141.089V42.1268H144.612V46.7554H143.86V42.8591Z" fill="#0E0D0C"/>
<path d="M146.044 46.7554V42.1268H147.835C148.339 42.1268 148.731 42.2772 149.013 42.578C149.294 42.8852 149.437 43.2383 149.437 43.6501C149.437 44.062 149.3 44.415 149.019 44.7092C148.731 45.0034 148.345 45.1538 147.842 45.1538H146.79V46.7554H146.044ZM146.79 44.4608H147.835C148.104 44.4608 148.306 44.3824 148.463 44.2189C148.614 44.062 148.685 43.8789 148.685 43.6631C148.685 43.454 148.614 43.2709 148.463 43.114C148.306 42.9637 148.104 42.8852 147.835 42.8852H146.79V44.4608Z" fill="#0E0D0C"/>
<path d="M152.222 42.1268L153.896 46.7554H153.104L152.653 45.5525H150.993L150.574 46.7554H149.764L151.431 42.1268H152.222ZM151.836 42.8917H151.81L151.621 43.637L151.248 44.7942H152.391L152.013 43.624L151.836 42.8917Z" fill="#0E0D0C"/>
<path d="M158.094 43.4017C158.094 43.5717 158.06 43.7351 157.989 43.8985C157.917 44.062 157.805 44.1862 157.668 44.2777C158.094 44.4608 158.303 44.8269 158.303 45.376C158.296 45.8599 158.146 46.2128 157.852 46.4285C157.557 46.6443 157.172 46.7554 156.681 46.7554H154.883V42.1268H156.688C157.093 42.1268 157.426 42.238 157.695 42.4537C157.962 42.676 158.094 42.9898 158.094 43.4017ZM155.642 43.9705H156.688C156.891 43.9705 157.047 43.9247 157.172 43.8266C157.289 43.7286 157.348 43.5782 157.348 43.3755C157.348 43.2056 157.289 43.0748 157.165 42.9833C157.041 42.8982 156.878 42.8525 156.688 42.8525H155.642V43.9705ZM155.642 46.0298H156.688C157.257 46.0428 157.544 45.8141 157.544 45.3499C157.544 44.8727 157.257 44.6438 156.688 44.6503H155.642V46.0298Z" fill="#0E0D0C"/>
<path d="M162.382 42.8591H161.015L160.925 44.3039C160.905 44.6242 160.872 44.9054 160.839 45.1341C160.806 45.3629 160.748 45.5918 160.669 45.8075C160.584 46.0298 160.486 46.2063 160.362 46.3436C160.231 46.4809 160.074 46.5855 159.878 46.6574C159.675 46.7293 159.44 46.762 159.172 46.7554V46.0298C159.342 46.0363 159.486 46.0037 159.604 45.9382C159.714 45.8729 159.806 45.7879 159.871 45.6898C159.937 45.5918 159.989 45.4349 160.035 45.2322C160.074 45.0295 160.1 44.8334 160.12 44.6503C160.133 44.4673 160.153 44.2123 160.172 43.892C160.178 43.8332 160.178 43.7939 160.178 43.7678L160.29 42.1268H163.14V46.7554H162.382V42.8591Z" fill="#0E0D0C"/>
<path d="M165.33 42.8787V44.062H167.442V44.8204H165.33V45.9972H167.625V46.7555H164.572V42.1204H167.625V42.8787H165.33Z" fill="#0E0D0C"/>
<path d="M169.65 44.8204V46.7554H168.892V42.1268H169.65V44.0685H171.71V42.1268H172.468V46.7554H171.71V44.8204H169.65Z" fill="#0E0D0C"/>
<path d="M176.751 43.9966L176.79 43.3886H176.776L176.444 43.9966L174.718 46.7554H173.9V42.1268H174.652V44.9968L174.613 45.6179H174.633L174.972 44.9968L176.731 42.1268H177.509V46.7554H176.751V43.9966Z" fill="#0E0D0C"/>
<path d="M179.699 42.8787V44.062H181.811V44.8204H179.699V45.9972H181.994V46.7555H178.941V42.1204H181.994V42.8787H179.699Z" fill="#0E0D0C"/>
<path d="M54.7551 24.8453C54.7551 24.37 54.6419 23.9434 54.415 23.5655C54.1882 23.1871 53.8912 22.8685 53.5239 22.6097C53.1566 22.3503 52.7354 22.1556 52.2601 22.026C51.7848 21.8967 51.2988 21.8317 50.802 21.8317C50.0459 21.8317 49.2898 21.9778 48.5337 22.2694C47.7777 22.561 47.1511 23.0199 46.6543 23.6465L45.0341 22.0587C45.8118 21.1944 46.7354 20.5408 47.8046 20.0984C48.8739 19.6553 49.9379 19.4338 50.9964 19.4338C51.7957 19.4338 52.5788 19.5473 53.3456 19.7742C54.1125 20.001 54.7931 20.336 55.3871 20.7785C55.9811 21.2215 56.4564 21.783 56.8129 22.4636C57.1693 23.1443 57.3475 23.9381 57.3475 24.8453V35.7331C56.1809 36.1433 55.0144 36.4402 53.8478 36.6238C52.6814 36.8075 51.5364 36.8884 50.4132 36.8672C49.5706 36.8672 48.7821 36.7588 48.0477 36.5429C47.3132 36.3269 46.6813 36.0029 46.152 35.5711C45.6228 35.1388 45.2016 34.5988 44.8883 33.9505C44.5751 33.3027 44.4185 32.5248 44.4185 31.6176C44.4185 30.6888 44.5967 29.8896 44.9531 29.2195C45.3096 28.55 45.7795 27.9991 46.3627 27.5672C46.9459 27.1353 47.6156 26.8109 48.3717 26.595C49.1278 26.3791 49.9162 26.2711 50.7371 26.2711C52.1413 26.2711 53.4807 26.541 54.7551 27.0813V24.8453ZM54.7551 28.9607C54.2368 28.7877 53.6535 28.6364 53.0054 28.5066C52.3573 28.3775 51.6877 28.3124 50.9964 28.3124C50.4779 28.3124 49.9757 28.3717 49.4896 28.4908C49.0036 28.6093 48.5769 28.7987 48.2097 29.0576C47.8425 29.3169 47.5454 29.6572 47.3186 30.0785C47.0918 30.4998 46.9784 31.0127 46.9784 31.6176C46.9784 32.6978 47.3132 33.47 47.9829 33.9346C48.6526 34.3988 49.4842 34.6418 50.4779 34.6635C51.1908 34.6852 51.9091 34.6746 52.6328 34.6312C53.3565 34.5878 54.0639 34.4909 54.7551 34.3395V28.9607Z" fill="#0E0D0C"/>
<path d="M71.1515 23.9705C70.6114 23.1062 69.9957 22.5663 69.3045 22.3504C68.6131 22.1344 67.9003 22.0265 67.1658 22.0265C66.6689 22.0265 66.1883 22.0858 65.7239 22.2044C65.2594 22.3234 64.8489 22.5071 64.4925 22.7553C64.1361 23.004 63.8445 23.3169 63.6176 23.6952C63.3908 24.0731 63.2774 24.5214 63.2774 25.04V31.3261C63.2774 31.823 63.3854 32.266 63.6015 32.6544C63.8174 33.0434 64.1037 33.3673 64.4601 33.6267C64.8166 33.886 65.2323 34.0856 65.7077 34.2263C66.1829 34.3665 66.6798 34.437 67.1982 34.437C68.0191 34.437 68.8238 34.2422 69.6122 33.8537C70.4008 33.4647 70.9894 32.7735 71.3782 31.7796L73.4521 32.7518C73.2145 33.4431 72.8743 34.048 72.4313 34.5666C71.9885 35.0848 71.4862 35.5171 70.9246 35.8627C70.3629 36.2084 69.758 36.4619 69.11 36.6239C68.4619 36.7858 67.8139 36.8673 67.1658 36.8673C66.3665 36.8673 65.578 36.7535 64.8004 36.5269C64.0226 36.2999 63.3314 35.949 62.7265 35.4737C62.1216 34.9985 61.6302 34.4152 61.2521 33.7241C60.8741 33.0329 60.6851 32.212 60.6851 31.2614V25.04C60.6851 24.1107 60.8741 23.2956 61.2521 22.5933C61.6302 21.891 62.1216 21.3025 62.7265 20.8272C63.3314 20.3519 64.0226 20.001 64.8004 19.7742C65.578 19.5473 66.3665 19.434 67.1658 19.434C68.3539 19.434 69.4503 19.6608 70.4548 20.1143C71.4593 20.5679 72.372 21.4538 73.1928 22.7716L71.1515 23.9705Z" fill="#0E0D0C"/>
<path d="M86.2843 23.9705C85.7444 23.1062 85.1284 22.5663 84.4372 22.3504C83.7459 22.1344 83.0331 22.0265 82.2985 22.0265C81.802 22.0265 81.321 22.0858 80.8568 22.2044C80.3921 22.3234 79.9819 22.5071 79.6252 22.7553C79.269 23.004 78.9774 23.3169 78.7503 23.6952C78.5238 24.0731 78.41 24.5214 78.41 25.04V31.3261C78.41 31.823 78.518 32.266 78.7345 32.6544C78.9503 33.0434 79.2367 33.3673 79.5929 33.6267C79.9496 33.886 80.3651 34.0856 80.8404 34.2263C81.3157 34.3665 81.8126 34.437 82.3312 34.437C83.1521 34.437 83.9566 34.2422 84.7451 33.8537C85.5338 33.4647 86.1223 32.7735 86.5113 31.7796L88.5849 32.7518C88.3473 33.4431 88.007 34.048 87.5641 34.5666C87.1215 35.0848 86.6192 35.5171 86.0573 35.8627C85.4957 36.2084 84.8908 36.4619 84.2429 36.6239C83.5946 36.7858 82.9468 36.8673 82.2985 36.8673C81.4993 36.8673 80.7107 36.7535 79.9332 36.5269C79.1553 36.2999 78.464 35.949 77.8593 35.4737C77.2544 34.9985 76.763 34.4152 76.3849 33.7241C76.0069 33.0329 75.8179 32.212 75.8179 31.2614V25.04C75.8179 24.1107 76.0069 23.2956 76.3849 22.5933C76.763 21.891 77.2544 21.3025 77.8593 20.8272C78.464 20.3519 79.1553 20.001 79.9332 19.7742C80.7107 19.5473 81.4993 19.434 82.2985 19.434C83.4867 19.434 84.5833 19.6608 85.5878 20.1143C86.5923 20.5679 87.5048 21.4538 88.3256 22.7716L86.2843 23.9705Z" fill="#0E0D0C"/>
<path d="M95.1943 30.8396L101.254 19.7576H104.592V36.5428H102V25.4607L102.064 23.2569H102L100.865 25.5253L94.7092 36.5428H91.5005V19.7576H94.0927V30.7099L94.0282 33.108H94.0927L95.1943 30.8396Z" fill="#0E0D0C"/>
<path d="M118.654 23.9705C118.115 23.1062 117.499 22.5663 116.808 22.3504C116.116 22.1344 115.403 22.0265 114.669 22.0265C114.172 22.0265 113.692 22.0858 113.228 22.2044C112.762 22.3234 112.352 22.5071 111.995 22.7553C111.64 23.004 111.348 23.3169 111.121 23.6952C110.895 24.0731 110.78 24.5214 110.78 25.04V31.3261C110.78 31.823 110.888 32.266 111.105 32.6544C111.321 33.0434 111.607 33.3673 111.963 33.6267C112.32 33.886 112.736 34.0856 113.211 34.2263C113.686 34.3665 114.184 34.437 114.702 34.437C115.523 34.437 116.327 34.2422 117.116 33.8537C117.904 33.4647 118.493 32.7735 118.882 31.7796L120.955 32.7518C120.718 33.4431 120.377 34.048 119.935 34.5666C119.492 35.0848 118.99 35.5171 118.427 35.8627C117.867 36.2084 117.261 36.4619 116.614 36.6239C115.965 36.7858 115.317 36.8673 114.669 36.8673C113.87 36.8673 113.081 36.7535 112.304 36.5269C111.526 36.2999 110.834 35.949 110.23 35.4737C109.625 34.9985 109.133 34.4152 108.756 33.7241C108.378 33.0329 108.188 32.212 108.188 31.2614V25.04C108.188 24.1107 108.378 23.2956 108.756 22.5933C109.133 21.891 109.625 21.3025 110.23 20.8272C110.834 20.3519 111.526 20.001 112.304 19.7742C113.081 19.5473 113.87 19.434 114.669 19.434C115.857 19.434 116.954 19.6608 117.958 20.1143C118.963 20.5679 119.875 21.4538 120.696 22.7716L118.654 23.9705Z" fill="#0E0D0C"/>
<path d="M122.284 22.2529V19.7578H135.246V22.2529H130.061V36.5428H127.468V22.2529H122.284Z" fill="#0E0D0C"/>
<path d="M139.685 31.4879C139.685 32.0066 139.792 32.449 140.009 32.8164C140.225 33.1837 140.517 33.4916 140.884 33.7399C141.25 33.9886 141.667 34.1718 142.131 34.2909C142.596 34.4094 143.076 34.4692 143.573 34.4692C144.329 34.4692 145.07 34.2856 145.793 33.9183C146.517 33.5509 147.051 32.9784 147.397 32.2008L149.665 33.1731C149.363 33.7992 148.99 34.3395 148.548 34.7932C148.104 35.2467 147.618 35.6304 147.09 35.9432C146.56 36.2566 145.993 36.4889 145.388 36.6402C144.783 36.7916 144.178 36.8667 143.573 36.8667C142.752 36.8667 141.953 36.7535 141.175 36.5269C140.398 36.2999 139.706 35.9542 139.102 35.4896C138.497 35.0255 138.005 34.4422 137.627 33.7399C137.25 33.0381 137.061 32.2225 137.061 31.2937V25.0072C137.061 24.0784 137.25 23.2628 137.627 22.561C138.005 21.8587 138.497 21.2755 139.102 20.8108C139.706 20.3466 140.398 20.001 141.175 19.7741C141.953 19.5472 142.752 19.4338 143.573 19.4338C144.373 19.4338 145.156 19.5472 145.923 19.7741C146.69 20.001 147.375 20.3466 147.98 20.8108C148.585 21.2755 149.072 21.8587 149.438 22.561C149.806 23.2628 149.989 24.0784 149.989 25.0072V29.4466H139.685V31.4879ZM147.526 24.8775C147.526 24.3806 147.408 23.9434 147.17 23.5651C146.933 23.1871 146.63 22.8685 146.263 22.6091C145.895 22.3503 145.474 22.1503 144.999 22.01C144.524 21.8693 144.048 21.7994 143.573 21.7994C143.034 21.7994 142.525 21.8693 142.05 22.01C141.575 22.1503 141.16 22.3503 140.802 22.6091C140.447 22.8685 140.171 23.1924 139.977 23.5814C139.782 23.9704 139.685 24.4239 139.685 24.9426V27.2756H147.526V24.8775Z" fill="#0E0D0C"/>
<path d="M155.984 26.5298H163.728V19.7576H166.32V36.5424H163.728V29.0248H155.984V36.5424H153.391V19.7576H155.984V26.5298Z" fill="#0E0D0C"/>
<path d="M168.881 22.2529V19.7578H181.842V22.2529H176.657V36.5428H174.066V22.2529H168.881Z" fill="#0E0D0C"/>
<path fill-rule="evenodd" clip-rule="evenodd" d="M-0.504883 33.3672C-0.504883 22.5622 8.26733 13.79 19.0723 13.79C29.8772 13.79 38.6494 22.5622 38.6494 33.3672C38.6494 44.172 29.8772 52.9443 19.0723 52.9443C8.26733 52.9443 -0.504883 44.172 -0.504883 33.3672Z" fill="#464645"/>
<path fill-rule="evenodd" clip-rule="evenodd" d="M17.4858 23.5785C17.4858 22.0882 16.2758 20.8783 14.7855 20.8783H9.38489C7.89453 20.8783 6.68457 22.0882 6.68457 23.5785V28.9791C6.68457 30.4695 7.89453 31.6795 9.38489 31.6795H14.7855C16.2758 31.6795 17.4858 30.4695 17.4858 28.9791V23.5785Z" fill="#FBFBFB"/>
<path fill-rule="evenodd" clip-rule="evenodd" d="M28.777 20.8783L28.7944 20.8785L28.8118 20.8788L28.8293 20.8791L28.8466 20.8796L28.8639 20.8802L28.8811 20.8809L28.8984 20.8818L28.9156 20.8826L28.9328 20.8838L28.9501 20.8849L28.9672 20.8861L28.9843 20.8875L29.0014 20.889L29.0185 20.8906L29.0355 20.8922L29.0526 20.894L29.0695 20.8959L29.0864 20.8979L29.1032 20.8999L29.1202 20.9021L29.137 20.9045L29.1538 20.9069L29.1706 20.9094L29.1873 20.912L29.204 20.9147L29.2207 20.9175L29.2373 20.9205L29.2539 20.9235L29.2705 20.9266L29.2871 20.9298L29.3035 20.9331L29.32 20.9365L29.3364 20.9401L29.3528 20.9437L29.3691 20.9475L29.3854 20.9513L29.4017 20.9552L29.4179 20.9592L29.4341 20.9633L29.4503 20.9676L29.4663 20.9718L29.4824 20.9763L29.4985 20.9808L29.5145 20.9853L29.5304 20.9901L29.5463 20.9949L29.5622 20.9998L29.578 21.0047L29.5938 21.0098L29.6095 21.0149L29.6252 21.0202L29.6409 21.0256L29.6565 21.031L29.6721 21.0366L29.6876 21.0423L29.7031 21.0479L29.7185 21.0538L29.734 21.0597L29.7493 21.0657L29.7646 21.0718L29.7798 21.0779L29.795 21.0842L29.8103 21.0906L29.8253 21.097L29.8404 21.1036L29.8555 21.1103L29.8704 21.117L29.8853 21.1238L29.9003 21.1307L29.915 21.1376L29.9299 21.1447L29.9445 21.1519L29.9593 21.1591L29.9739 21.1664L29.9884 21.1739L30.003 21.1814L30.0174 21.1889L30.0319 21.1966L30.0463 21.2044L30.0606 21.2122L30.0748 21.2201L30.089 21.2282L30.1032 21.2362L30.1174 21.2444L30.1314 21.2527L30.1454 21.261L30.1594 21.2694L30.1732 21.2779L30.1871 21.2865L30.2008 21.2952L30.2146 21.3039L30.2282 21.3127L30.2418 21.3217L30.2554 21.3307L30.2689 21.3397L30.2823 21.3488L30.2957 21.3581L30.3091 21.3674L30.3223 21.3767L30.3355 21.3862L30.3487 21.3957L30.3617 21.4054L30.3748 21.415L30.3877 21.4248L30.4007 21.4346L30.4135 21.4445L30.4262 21.4545L30.439 21.4646L30.4517 21.4747L30.4642 21.4849L30.4768 21.4952L30.4893 21.5055L30.5017 21.516L30.5141 21.5265L30.5264 21.5371L30.5386 21.5477L30.5507 21.5585L30.5628 21.5692L30.5748 21.5801L30.5868 21.5911L30.5986 21.6021L30.6105 21.6131L30.6222 21.6243L30.634 21.6354L30.6455 21.6468L30.6571 21.6581L30.6686 21.6696L30.68 21.681L30.6914 21.6925L30.7026 21.7042L30.7139 21.7159L30.725 21.7276L30.7361 21.7394L30.7471 21.7514L30.758 21.7634L30.7689 21.7754L30.7797 21.7874L30.7905 21.7996L30.8011 21.8118L30.8116 21.8241L30.8221 21.8365L30.8325 21.8489L30.8429 21.8613L30.8533 21.8738L30.8736 21.8992L30.8836 21.9118L30.8936 21.9246L30.9036 21.9375L30.9134 21.9504L30.9231 21.9634L30.9328 21.9764L30.9424 21.9895L30.952 22.0026L30.9614 22.0158L30.9708 22.0291L30.9801 22.0424L30.9893 22.0558L30.9984 22.0692L31.0075 22.0827L31.0165 22.0963L31.0254 22.1099L31.0342 22.1236L31.0429 22.1373L31.0516 22.1511L31.0602 22.1649L31.0687 22.1788L31.0772 22.1928L31.0855 22.2068L31.0937 22.2209L31.1019 22.2348L31.11 22.249L31.118 22.2633L31.1259 22.2776L31.1338 22.2919L31.1416 22.3062L31.1492 22.3207L31.1568 22.3352L31.1643 22.3497L31.1717 22.3643L31.179 22.379L31.1863 22.3936L31.1935 22.4083L31.2005 22.423L31.2075 22.4379L31.2144 22.4528L31.2212 22.4677L31.2279 22.4827L31.2345 22.4977L31.241 22.5128L31.2476 22.5279L31.2539 22.5431L31.2601 22.5582L31.2664 22.5736L31.2724 22.5889L31.2784 22.6042L31.2843 22.6196L31.2902 22.635L31.2959 22.6504L31.3016 22.666L31.3071 22.6816L31.3125 22.6972L31.3179 22.7129L31.3231 22.7285L31.3283 22.7443L31.3334 22.7601L31.3383 22.7759L31.3433 22.7918L31.3481 22.8077L31.3527 22.8237L31.3574 22.8397L31.3619 22.8557L31.3663 22.8718L31.3706 22.8879L31.3747 22.904L31.3789 22.9202L31.3829 22.9365L31.3869 22.9527L31.3907 22.969L31.3944 22.9854L31.398 23.0018L31.4015 23.0182L31.4049 23.0346L31.4083 23.0512L31.4115 23.0676L31.4147 23.0842L31.4177 23.1008L31.4206 23.1175L31.4234 23.1341L31.4261 23.1508L31.4287 23.1676L31.4312 23.1843L31.4337 23.2012L31.4359 23.218L31.4382 23.2348L31.4403 23.2517L31.4423 23.2687L31.4442 23.2856L31.446 23.3026L31.4477 23.3196L31.4492 23.3368L31.4507 23.3538L31.452 23.3709L31.4532 23.3881L31.4544 23.4053L31.4554 23.4224L31.4564 23.4397L31.4571 23.4569L31.4579 23.4742L31.4585 23.4915L31.459 23.5089L31.4594 23.5262L31.4597 23.5436L31.4599 23.5611V23.5785V28.9791V28.9966L31.4597 29.014L31.4594 29.0314L31.459 29.0488L31.4585 29.0662L31.4579 29.0835L31.4571 29.1008L31.4564 29.118L31.4554 29.1352L31.4544 29.1524L31.4532 29.1697L31.452 29.1868L31.4507 29.2039L31.4492 29.221L31.4477 29.238L31.446 29.255L31.4442 29.2721L31.4423 29.2891L31.4403 29.306L31.4382 29.3228L31.4359 29.3398L31.4337 29.3566L31.4312 29.3733L31.4287 29.3902L31.4261 29.4069L31.4234 29.4236L31.4206 29.4403L31.4177 29.4569L31.4147 29.4735L31.4115 29.49L31.4083 29.5066L31.4049 29.523L31.4015 29.5395L31.398 29.5559L31.3944 29.5723L31.3907 29.5887L31.3869 29.605L31.3829 29.6213L31.3789 29.6374L31.3747 29.6536L31.3706 29.6698L31.3663 29.686L31.3619 29.702L31.3574 29.718L31.3527 29.7341L31.3481 29.75L31.3433 29.766L31.3383 29.7817L31.3334 29.7975L31.3283 29.8134L31.3231 29.8291L31.3179 29.8448L31.3125 29.8605L31.3071 29.8761L31.3016 29.8917L31.2959 29.9072L31.2902 29.9226L31.2843 29.9381L31.2784 29.9536L31.2724 29.9689L31.2664 29.9842L31.2601 29.9994L31.2539 30.0146L31.2476 30.0298L31.241 30.0449L31.2345 30.06L31.2279 30.0751L31.2212 30.09L31.2144 30.1049L31.2075 30.1198L31.2005 30.1346L31.1935 30.1494L31.1863 30.1641L31.179 30.1788L31.1717 30.1935L31.1643 30.208L31.1568 30.2226L31.1492 30.237L31.1416 30.2514L31.1338 30.2658L31.1259 30.2802L31.118 30.2944L31.11 30.3086L31.1019 30.3228L31.0937 30.3369L31.0855 30.351L31.0772 30.365L31.0687 30.3789L31.0602 30.3928L31.0516 30.4067L31.0429 30.4204L31.0342 30.4341L31.0254 30.4478L31.0165 30.4614L31.0075 30.475L30.9984 30.4885L30.9893 30.5019L30.9801 30.5153L30.9708 30.5286L30.9614 30.5419L30.952 30.555L30.9424 30.5682L30.9328 30.5813L30.9231 30.5944L30.9134 30.6073L30.9036 30.6202L30.8936 30.6331L30.8836 30.6458L30.8736 30.6586L30.8634 30.6713L30.8533 30.6838L30.8429 30.6964L30.8325 30.7088L30.8221 30.7213L30.8116 30.7336L30.8011 30.7459L30.7905 30.7581L30.7797 30.7703L30.7689 30.7824L30.758 30.7944L30.7471 30.8064L30.7361 30.8182L30.725 30.83L30.7139 30.8419L30.7026 30.8535L30.6914 30.8651L30.68 30.8766L30.6686 30.8882L30.6571 30.8996L30.6455 30.911L30.634 30.9222L30.6222 30.9335L30.6105 30.9445L30.5986 30.9557L30.5868 30.9667L30.5748 30.9776L30.5628 30.9884L30.5507 30.9993L30.5386 31.01L30.5264 31.0207L30.5141 31.0312L30.5017 31.0417L30.4893 31.0522L30.4768 31.0625L30.4642 31.0728L30.4517 31.083L30.439 31.0932L30.4262 31.1032L30.4135 31.1132L30.4007 31.1232L30.3877 31.133L30.3748 31.1427L30.3617 31.1524L30.3487 31.1619L30.3355 31.1715L30.3223 31.1809L30.3091 31.1904L30.2957 31.1997L30.2823 31.2088L30.2689 31.218L30.2554 31.2271L30.2418 31.2361L30.2282 31.245L30.2146 31.2538L30.2008 31.2625L30.1871 31.2712L30.1732 31.2798L30.1594 31.2883L30.1454 31.2967L30.1314 31.305L30.1174 31.3133L30.1032 31.3215L30.089 31.3296L30.0748 31.3375L30.0606 31.3455L30.0463 31.3533L30.0319 31.3611L30.0174 31.3687L30.003 31.3763L29.9884 31.3839L29.9739 31.3912L29.9593 31.3986L29.9445 31.4058L29.9299 31.413L29.915 31.4201L29.9003 31.4271L29.8853 31.4339L29.8704 31.4408L29.8555 31.4475L29.8404 31.4541L29.8253 31.4606L29.8103 31.4671L29.795 31.4734L29.7798 31.4797L29.7646 31.4859L29.7493 31.492L29.734 31.498L29.7185 31.504L29.7031 31.5097L29.6876 31.5155L29.6721 31.5212L29.6565 31.5266L29.6409 31.5321L29.6252 31.5374L29.6095 31.5427L29.5938 31.5479L29.578 31.553L29.5622 31.5579L29.5463 31.5629L29.5304 31.5676L29.5145 31.5723L29.4985 31.577L29.4824 31.5814L29.4663 31.5858L29.4503 31.5902L29.4341 31.5944L29.4179 31.5985L29.4017 31.6025L29.3854 31.6065L29.3691 31.6102L29.3528 31.6139L29.3364 31.6176L29.32 31.6211L29.3035 31.6245L29.2871 31.6279L29.2705 31.631L29.2539 31.6342L29.2373 31.6373L29.2207 31.6401L29.204 31.643L29.1873 31.6457L29.1706 31.6483L29.1538 31.6508L29.137 31.6533L29.1202 31.6555L29.1032 31.6577L29.0864 31.6599L29.0695 31.6619L29.0526 31.6637L29.0355 31.6655L29.0185 31.6672L29.0014 31.6687L28.9843 31.6702L28.9672 31.6715L28.9501 31.6728L28.9328 31.674L28.9156 31.675L28.8984 31.676L28.8811 31.6768L28.8639 31.6775L28.8466 31.678L28.8293 31.6785L28.8118 31.6789L28.7944 31.6793L28.777 31.6794L28.7596 31.6795H23.359L23.3415 31.6794L23.3241 31.6793L23.3067 31.6789L23.2893 31.6785L23.272 31.678L23.2547 31.6775L23.2374 31.6768L23.2201 31.676L23.2029 31.675L23.1857 31.674L23.1685 31.6728L23.1514 31.6715L23.1343 31.6702L23.1171 31.6687L23.1001 31.6672L23.083 31.6655L23.0661 31.6637L23.0491 31.6619L23.0322 31.6599L23.0153 31.6577L22.9984 31.6555L22.9815 31.6533L22.9647 31.6508L22.948 31.6483L22.9312 31.6457L22.9146 31.643L22.8979 31.6401L22.8813 31.6373L22.8647 31.6342L22.8481 31.631L22.8316 31.6279L22.8151 31.6245L22.7986 31.6211L22.7822 31.6176L22.7659 31.6139L22.7495 31.6102L22.7331 31.6065L22.7169 31.6025L22.7006 31.5985L22.6844 31.5944L22.6683 31.5902L22.6522 31.5858L22.6361 31.5814L22.6201 31.577L22.6041 31.5723L22.5882 31.5676L22.5723 31.5629L22.5564 31.5579L22.5405 31.553L22.5247 31.5479L22.509 31.5427L22.4933 31.5374L22.4776 31.5321L22.462 31.5266L22.4464 31.5212L22.4309 31.5155L22.4154 31.5097L22.4 31.504L22.3846 31.498L22.3693 31.492L22.354 31.4859L22.3387 31.4797L22.3235 31.4734L22.3084 31.4671L22.2932 31.4606L22.2781 31.4541L22.2631 31.4475L22.2481 31.4408L22.2332 31.4339L22.2184 31.4271L22.2035 31.4201L22.1888 31.413L22.174 31.4058L22.1593 31.3986L22.1447 31.3912L22.1301 31.3839L22.1156 31.3763L22.1011 31.3687L22.0866 31.3611L22.0723 31.3533L22.058 31.3455L22.0437 31.3375L22.0295 31.3296L22.0153 31.3215L22.0012 31.3133L21.9872 31.305L21.9732 31.2967L21.9593 31.2883L21.9454 31.2798L21.9315 31.2712L21.9178 31.2625L21.9039 31.2538L21.8903 31.245L21.8767 31.2361L21.8632 31.2271L21.8497 31.218L21.8362 31.2088L21.8228 31.1997L21.8095 31.1904L21.7962 31.1809L21.783 31.1715L21.7699 31.1619L21.7568 31.1524L21.7438 31.1427L21.7308 31.133L21.7179 31.1232L21.7051 31.1132L21.6923 31.1032L21.6796 31.0932L21.6669 31.083L21.6543 31.0728L21.6417 31.0625L21.6293 31.0522L21.6169 31.0417L21.6046 31.0312L21.5923 31.0207L21.58 31.01L21.5679 30.9993L21.5558 30.9884L21.5438 30.9776L21.5319 30.9667L21.5199 30.9557L21.5081 30.9445L21.4963 30.9335L21.4847 30.9222L21.473 30.911L21.4614 30.8996L21.45 30.8882L21.4385 30.8766L21.4272 30.8651L21.4159 30.8535L21.4047 30.8419L21.3935 30.83L21.3715 30.8064L21.3605 30.7944L21.3496 30.7824L21.3389 30.7703L21.3282 30.7581L21.3175 30.7459L21.3069 30.7336L21.2964 30.7213L21.286 30.7088L21.2756 30.6964L21.2654 30.6838L21.2552 30.6713L21.2451 30.6586L21.2349 30.6458L21.225 30.6331L21.2151 30.6202L21.2052 30.6073L21.1954 30.5944L21.1858 30.5813L21.1761 30.5682L21.1666 30.555L21.1571 30.5419L21.1478 30.5286L21.1385 30.5153L21.1293 30.5019L21.1201 30.4885L21.1111 30.475L21.1021 30.4614L21.0932 30.4478L21.0844 30.4341L21.0756 30.4204L21.067 30.4067L21.0584 30.3928L21.0499 30.3789L21.0414 30.365L21.0331 30.351L21.0248 30.3369L21.0167 30.3228L21.0086 30.3086L21.0006 30.2944L20.9927 30.2802L20.9848 30.2658L20.9771 30.2514L20.9694 30.237L20.9618 30.2226L20.9543 30.208L20.9469 30.1935L20.9395 30.1788L20.9323 30.1641L20.9252 30.1494L20.9181 30.1346L20.9111 30.1198L20.9042 30.1049L20.8974 30.09L20.8906 30.0751L20.884 30.06L20.8775 30.0449L20.871 30.0298L20.8646 30.0146L20.8584 29.9994L20.8523 29.9842L20.8461 29.9689L20.8402 29.9536L20.8342 29.9381L20.8284 29.9226L20.8227 29.9072L20.8171 29.8917L20.8115 29.8761L20.806 29.8605L20.8007 29.8448L20.7954 29.8291L20.7902 29.8134L20.7852 29.7975L20.7802 29.7817L20.7753 29.766L20.7706 29.75L20.7658 29.7341L20.7612 29.718L20.7567 29.702L20.7523 29.686L20.748 29.6698L20.7438 29.6536L20.7396 29.6374L20.7357 29.6213L20.7317 29.605L20.7279 29.5887L20.7241 29.5723L20.7205 29.5559L20.717 29.5395L20.7136 29.523L20.7102 29.5066L20.707 29.49L20.7039 29.4735L20.701 29.4569L20.6979 29.4403L20.6952 29.4236L20.6924 29.4069L20.6898 29.3902L20.6873 29.3733L20.6849 29.3566L20.6826 29.3398L20.6803 29.3228L20.6783 29.306L20.6764 29.2891L20.6744 29.2721L20.6726 29.255L20.671 29.238L20.6694 29.221L20.668 29.2039L20.6666 29.1868L20.6653 29.1697L20.6642 29.1524L20.6631 29.1352L20.6622 29.118L20.6614 29.1008L20.6607 29.0835L20.6601 29.0662L20.6595 29.0488L20.6592 29.0314L20.659 29.014L20.6587 28.9966V28.9791V23.5785V23.5611L20.659 23.5436L20.6592 23.5262L20.6595 23.5089L20.6601 23.4915L20.6607 23.4742L20.6614 23.4569L20.6622 23.4397L20.6631 23.4224L20.6642 23.4053L20.6653 23.3881L20.6666 23.3709L20.668 23.3538L20.6694 23.3368L20.671 23.3196L20.6726 23.3026L20.6744 23.2856L20.6764 23.2687L20.6783 23.2517L20.6803 23.2348L20.6826 23.218L20.6849 23.2012L20.6873 23.1843L20.6898 23.1676L20.6924 23.1508L20.6952 23.1341L20.6979 23.1175L20.701 23.1008L20.7039 23.0842L20.707 23.0676L20.7102 23.0512L20.7136 23.0346L20.717 23.0182L20.7205 23.0018L20.7241 22.9854L20.7279 22.969L20.7317 22.9527L20.7357 22.9365L20.7396 22.9202L20.7438 22.904L20.748 22.8879L20.7523 22.8718L20.7567 22.8557L20.7612 22.8397L20.7658 22.8237L20.7706 22.8077L20.7753 22.7918L20.7802 22.7759L20.7852 22.7601L20.7902 22.7443L20.7954 22.7285L20.8007 22.7129L20.806 22.6972L20.8115 22.6816L20.8171 22.666L20.8227 22.6504L20.8284 22.635L20.8342 22.6196L20.8402 22.6042L20.8461 22.5889L20.8523 22.5736L20.8584 22.5582L20.8646 22.5431L20.871 22.5279L20.8775 22.5128L20.884 22.4977L20.8906 22.4827L20.8974 22.4677L20.9042 22.4528L20.9111 22.4379L20.9181 22.423L20.9252 22.4083L20.9323 22.3936L20.9395 22.379L20.9469 22.3643L20.9543 22.3497L20.9618 22.3352L20.9694 22.3207L20.9771 22.3062L20.9848 22.2919L20.9927 22.2776L21.0006 22.2633L21.0086 22.249L21.0167 22.2348L21.0248 22.2209L21.0331 22.2068L21.0414 22.1928L21.0499 22.1788L21.0584 22.1649L21.067 22.1511L21.0756 22.1373L21.0844 22.1236L21.0932 22.1099L21.1021 22.0963L21.1111 22.0827L21.1201 22.0692L21.1293 22.0558L21.1385 22.0424L21.1478 22.0291L21.1571 22.0158L21.1666 22.0026L21.1761 21.9895L21.1858 21.9764L21.1954 21.9634L21.2052 21.9504L21.2151 21.9375L21.225 21.9246L21.2349 21.9118L21.2451 21.8992L21.2552 21.8865L21.2654 21.8738L21.2756 21.8613L21.286 21.8489L21.2964 21.8365L21.3069 21.8241L21.3175 21.8118L21.3282 21.7996L21.3389 21.7874L21.3496 21.7754L21.3605 21.7634L21.3715 21.7514L21.3825 21.7394L21.3935 21.7276L21.4047 21.7159L21.4159 21.7042L21.4272 21.6925L21.4385 21.681L21.45 21.6696L21.4614 21.6581L21.473 21.6468L21.4847 21.6354L21.4963 21.6243L21.5081 21.6131L21.5199 21.6021L21.5319 21.5911L21.5438 21.5801L21.5558 21.5692L21.5679 21.5585L21.58 21.5477L21.5923 21.5371L21.6046 21.5265L21.6169 21.516L21.6293 21.5055L21.6417 21.4952L21.6543 21.4849L21.6669 21.4747L21.6796 21.4646L21.6923 21.4545L21.7051 21.4445L21.7179 21.4346L21.7308 21.4248L21.7438 21.415L21.7568 21.4054L21.7699 21.3957L21.783 21.3862L21.7962 21.3767L21.8095 21.3674L21.8228 21.3581L21.8362 21.3488L21.8497 21.3397L21.8632 21.3307L21.8767 21.3217L21.8903 21.3127L21.9039 21.3039L21.9178 21.2952L21.9315 21.2865L21.9454 21.2779L21.9593 21.2694L21.9732 21.261L21.9872 21.2527L22.0012 21.2444L22.0153 21.2362L22.0295 21.2282L22.0437 21.2201L22.058 21.2122L22.0723 21.2044L22.0866 21.1966L22.1011 21.1889L22.1156 21.1814L22.1301 21.1739L22.1447 21.1664L22.1593 21.1591L22.174 21.1519L22.1888 21.1447L22.2035 21.1376L22.2184 21.1307L22.2332 21.1238L22.2481 21.117L22.2631 21.1103L22.2781 21.1036L22.2932 21.097L22.3235 21.0842L22.3387 21.0779L22.354 21.0718L22.3693 21.0657L22.3846 21.0597L22.4 21.0538L22.4154 21.0479L22.4309 21.0423L22.4464 21.0366L22.462 21.031L22.4776 21.0256L22.4933 21.0202L22.509 21.0149L22.5247 21.0098L22.5405 21.0047L22.5564 20.9998L22.5723 20.9949L22.5882 20.9901L22.6041 20.9853L22.6201 20.9808L22.6361 20.9763L22.6522 20.9718L22.6683 20.9676L22.6844 20.9633L22.7006 20.9592L22.7169 20.9552L22.7331 20.9513L22.7495 20.9475L22.7659 20.9437L22.7822 20.9401L22.7986 20.9365L22.8151 20.9331L22.8316 20.9298L22.8481 20.9266L22.8647 20.9235L22.8813 20.9205L22.8979 20.9175L22.9146 20.9147L22.9312 20.912L22.948 20.9094L22.9647 20.9069L22.9815 20.9045L22.9984 20.9021L23.0153 20.8999L23.0322 20.8979L23.0491 20.8959L23.0661 20.894L23.083 20.8922L23.1001 20.8906L23.1171 20.889L23.1343 20.8875L23.1514 20.8861L23.1685 20.8849L23.1857 20.8838L23.2029 20.8826L23.2201 20.8818L23.2374 20.8809L23.2547 20.8802L23.272 20.8796L23.2893 20.8791L23.3067 20.8788L23.3241 20.8785L23.3415 20.8783H23.359H28.7596H28.777ZM28.7707 21.8825H23.3479L23.3368 21.8826L23.3258 21.8828L23.3148 21.883L23.3038 21.8834L23.2928 21.8837L23.282 21.8841L23.271 21.8847L23.2601 21.8853L23.2492 21.8859L23.2385 21.8867L23.2277 21.8874L23.2168 21.8883L23.2061 21.8892L23.1953 21.8902L23.1847 21.8912L23.174 21.8924L23.1633 21.8936L23.1527 21.8948L23.142 21.8961L23.1315 21.8976L23.1209 21.899L23.1103 21.9005L23.0998 21.9021L23.0893 21.9037L23.0788 21.9054L23.0684 21.9072L23.058 21.909L23.0476 21.9109L23.0372 21.9129L23.0268 21.9149L23.0165 21.9169L23.0063 21.9191L22.996 21.9213L22.9858 21.9236L22.9756 21.9258L22.9654 21.9283L22.9552 21.9307L22.945 21.9332L22.9349 21.9358L22.9248 21.9384L22.9148 21.9411L22.9048 21.9439L22.8946 21.9467L22.8847 21.9496L22.8747 21.9525L22.8648 21.9555L22.8548 21.9585L22.845 21.9617L22.8351 21.9649L22.8252 21.9681L22.8155 21.9714L22.7959 21.9781L22.7862 21.9816L22.7764 21.9851L22.7667 21.9887L22.7571 21.9923L22.7475 21.9961L22.7379 21.9998L22.7283 22.0036L22.7188 22.0074L22.7092 22.0114L22.6998 22.0154L22.6903 22.0194L22.6808 22.0235L22.6715 22.0277L22.6621 22.0318L22.6528 22.0362L22.6434 22.0405L22.6341 22.0448L22.6249 22.0492L22.6156 22.0538L22.6064 22.0583L22.5973 22.0629L22.5882 22.0676L22.579 22.0723L22.5609 22.0818L22.5519 22.0867L22.5429 22.0916L22.5339 22.0965L22.525 22.1015L22.5161 22.1066L22.5072 22.1118L22.4984 22.117L22.4896 22.1222L22.4809 22.1275L22.4721 22.1329L22.4634 22.1383L22.4548 22.1437L22.4375 22.1548L22.429 22.1603L22.4204 22.166L22.412 22.1717L22.4035 22.1774L22.3951 22.1832L22.3867 22.1892L22.3784 22.195L22.37 22.201L22.3617 22.207L22.3535 22.213L22.3453 22.2192L22.3371 22.2253L22.329 22.2314L22.321 22.2377L22.3129 22.244L22.3048 22.2504L22.2968 22.2568L22.2889 22.2632L22.2811 22.2696L22.2731 22.2762L22.2654 22.2828L22.2576 22.2893L22.2498 22.296L22.2421 22.3027L22.2344 22.3096L22.2268 22.3164L22.2192 22.3232L22.2116 22.3301L22.2042 22.3371L22.1967 22.344L22.1893 22.351L22.182 22.3582L22.1746 22.3652L22.1673 22.3724L22.1601 22.3796L22.1528 22.3869L22.1456 22.3942L22.1385 22.4015L22.1315 22.4088L22.1245 22.4163L22.1175 22.4238L22.1106 22.4312L22.1037 22.4388L22.0968 22.4464L22.0899 22.454L22.0832 22.4617L22.0765 22.4694L22.0698 22.4771L22.0632 22.4849L22.0567 22.4927L22.05 22.5007L22.0436 22.5085L22.0372 22.5164L22.0308 22.5244L22.0244 22.5324L22.0182 22.5405L22.0119 22.5486L22.0057 22.5567L21.9995 22.5649L21.9934 22.5731L21.9874 22.5813L21.9814 22.5896L21.9754 22.5979L21.9696 22.6063L21.9636 22.6147L21.9578 22.623L21.9522 22.6315L21.9464 22.64L21.9407 22.6486L21.9352 22.6572L21.9297 22.6658L21.9242 22.6743L21.9187 22.683L21.9133 22.6917L21.908 22.7005L21.9027 22.7092L21.8974 22.718L21.8922 22.7267L21.8871 22.7357L21.882 22.7446L21.877 22.7535L21.872 22.7624L21.8671 22.7714L21.8622 22.7805L21.8574 22.7895L21.8527 22.7985L21.848 22.8077L21.8433 22.8169L21.8387 22.8259L21.8342 22.8352L21.8297 22.8445L21.8253 22.8537L21.8209 22.8629L21.8123 22.8816L21.8081 22.8911L21.804 22.9005L21.7998 22.9099L21.7958 22.9193L21.7919 22.9288L21.7879 22.9384L21.784 22.9479L21.7802 22.9575L21.7765 22.9671L21.7728 22.9766L21.7692 22.9863L21.7655 22.9961L21.762 23.0057L21.7585 23.0155L21.7552 23.0252L21.7518 23.035L21.7485 23.0449L21.7422 23.0645L21.7389 23.0744L21.7359 23.0844L21.733 23.0943L21.7301 23.1043L21.7271 23.1143L21.7244 23.1243L21.7215 23.1343L21.7189 23.1444L21.7162 23.1545L21.7137 23.1646L21.7111 23.1748L21.7087 23.185L21.7063 23.1952L21.704 23.2053L21.7017 23.2156L21.6995 23.2258L21.6974 23.2361L21.6953 23.2465L21.6933 23.2568L21.6913 23.2672L21.6894 23.2776L21.6876 23.288L21.6858 23.2985L21.6841 23.309L21.6825 23.3194L21.6809 23.3299L21.6794 23.3404L21.6779 23.351L21.6765 23.3616L21.6753 23.3722L21.674 23.3829L21.6728 23.3936L21.6717 23.4042L21.6707 23.415L21.6687 23.4364L21.6679 23.4472L21.6671 23.458L21.6663 23.4689L21.6657 23.4797L21.6652 23.4906L21.6646 23.5015L21.6641 23.5124L21.6638 23.5235L21.6635 23.5344L21.6632 23.5454L21.663 23.5564L21.6629 23.5675V23.5801V28.9776V28.9902L21.663 29.0012L21.6632 29.0124L21.6635 29.0234L21.6638 29.0342L21.6641 29.0452L21.6646 29.0563L21.6652 29.0672L21.6657 29.078L21.6663 29.0889L21.6671 29.0997L21.6679 29.1106L21.6687 29.1212L21.6707 29.1428L21.6717 29.1535L21.6728 29.1642L21.674 29.1749L21.6753 29.1855L21.6765 29.1961L21.6779 29.2066L21.6794 29.2172L21.6809 29.2278L21.6825 29.2383L21.6841 29.2488L21.6858 29.2593L21.6876 29.2697L21.6894 29.2801L21.6913 29.2905L21.6933 29.3009L21.6953 29.3112L21.6974 29.3215L21.6995 29.3318L21.7017 29.3421L21.704 29.3523L21.7063 29.3625L21.7087 29.3728L21.7111 29.383L21.7137 29.3931L21.7162 29.4032L21.7189 29.4133L21.7215 29.4235L21.7244 29.4335L21.7271 29.4434L21.7301 29.4534L21.733 29.4635L21.7359 29.4733L21.7389 29.4832L21.7422 29.4931L21.7453 29.503L21.7485 29.5128L21.7518 29.5226L21.7552 29.5325L21.7585 29.5422L21.762 29.552L21.7655 29.5617L21.7691 29.5713L21.7728 29.5811L21.7765 29.5906L21.7802 29.6003L21.784 29.6098L21.7879 29.6193L21.7919 29.6289L21.7958 29.6384L21.7998 29.6478L21.804 29.6573L21.8081 29.6667L21.8123 29.676L21.8166 29.6854L21.8209 29.6947L21.8253 29.704L21.8297 29.7132L21.8342 29.7225L21.8387 29.7317L21.848 29.7501L21.8527 29.7591L21.8574 29.7682L21.8622 29.7772L21.8671 29.7863L21.8721 29.7954L21.877 29.8042L21.882 29.8131L21.8871 29.822L21.8922 29.8309L21.8974 29.8397L21.9027 29.8485L21.908 29.8573L21.9133 29.866L21.9187 29.8748L21.9242 29.8834L21.9297 29.892L21.9352 29.9006L21.9407 29.9091L21.9464 29.9176L21.9522 29.9261L21.9578 29.9346L21.9636 29.943L21.9696 29.9515L21.9754 29.9598L21.9814 29.968L21.9874 29.9764L21.9934 29.9847L21.9995 29.9928L22.0057 30.001L22.0119 30.0092L22.0182 30.0172L22.0244 30.0253L22.0308 30.0333L22.0372 30.0413L22.0436 30.0492L22.05 30.0571L22.0567 30.065L22.0632 30.0728L22.0698 30.0806L22.0765 30.0883L22.0832 30.0961L22.0899 30.1037L22.0968 30.1113L22.1037 30.1189L22.1106 30.1264L22.1175 30.134L22.1245 30.1414L22.1315 30.1488L22.1456 30.1636L22.1528 30.1709L22.16 30.178L22.1673 30.1853L22.1746 30.1924L22.182 30.1996L22.1893 30.2067L22.1967 30.2137L22.2042 30.2207L22.2116 30.2276L22.2192 30.2345L22.2268 30.2414L22.2344 30.2482L22.2421 30.2549L22.2498 30.2616L22.2575 30.2683L22.2654 30.275L22.2731 30.2815L22.2811 30.2881L22.289 30.2945L22.2968 30.301L22.3048 30.3074L22.3129 30.3137L22.3209 30.32L22.329 30.3262L22.3371 30.3325L22.3453 30.3386L22.3535 30.3447L22.3617 30.3507L22.37 30.3568L22.3784 30.3627L22.3867 30.3686L22.3951 30.3744L22.4035 30.3802L22.4119 30.386L22.4204 30.3917L22.429 30.3974L22.4375 30.4029L22.4462 30.4085L22.4548 30.414L22.4634 30.4195L22.4722 30.4248L22.4809 30.4301L22.4896 30.4354L22.4984 30.4407L22.5072 30.4459L22.5161 30.451L22.525 30.4561L22.5339 30.4612L22.5429 30.4661L22.5519 30.4711L22.5609 30.4759L22.5699 30.4807L22.579 30.4855L22.5881 30.4902L22.5973 30.4948L22.6063 30.4994L22.6156 30.5039L22.6249 30.5084L22.6341 30.5129L22.6434 30.5172L22.6528 30.5216L22.6621 30.5258L22.6715 30.5301L22.6808 30.5342L22.6903 30.5383L22.6998 30.5423L22.7092 30.5463L22.7188 30.5502L22.7283 30.5541L22.738 30.5579L22.7475 30.5617L22.7571 30.5654L22.7667 30.569L22.7764 30.5726L22.7862 30.576L22.7959 30.5796L22.8057 30.5829L22.8155 30.5863L22.8253 30.5897L22.8351 30.5929L22.8449 30.596L22.8549 30.5991L22.8648 30.6022L22.8747 30.6052L22.8847 30.6081L22.9047 30.6139L22.9147 30.6166L22.9248 30.6193L22.9349 30.6219L22.945 30.6245L22.9552 30.627L22.9654 30.6295L22.9756 30.6318L22.9858 30.6342L22.996 30.6365L23.0063 30.6386L23.0165 30.6408L23.0269 30.6428L23.0373 30.6449L23.0476 30.6469L23.058 30.6488L23.0684 30.6506L23.0788 30.6523L23.0893 30.6541L23.0998 30.6557L23.1208 30.6588L23.1315 30.6602L23.142 30.6615L23.1526 30.6628L23.1633 30.6642L23.174 30.6653L23.1847 30.6664L23.2061 30.6685L23.2169 30.6694L23.2276 30.6702L23.2385 30.6711L23.2492 30.6717L23.2601 30.6724L23.271 30.6731L23.282 30.6735L23.2929 30.674L23.3039 30.6744L23.3148 30.6747L23.3257 30.675L23.3369 30.675L23.3479 30.6751L23.3605 30.6752H28.758L28.7707 30.6751L28.7816 30.675L28.7928 30.675L28.8038 30.6747L28.8147 30.6744L28.8257 30.674L28.8367 30.6735L28.8476 30.6731L28.8584 30.6724L28.8693 30.6717L28.8801 30.6711L28.891 30.6702L28.9017 30.6694L28.9124 30.6685L28.9232 30.6675L28.9339 30.6664L28.9446 30.6653L28.9553 30.6642L28.9659 30.6628L28.9765 30.6615L28.9871 30.6602L28.9977 30.6588L29.0082 30.6572L29.0187 30.6557L29.0292 30.6541L29.0397 30.6523L29.0502 30.6506L29.0605 30.6488L29.0709 30.6469L29.0813 30.6449L29.0916 30.6428L29.102 30.6408L29.1122 30.6386L29.1225 30.6365L29.1328 30.6342L29.143 30.6318L29.1532 30.6295L29.1634 30.627L29.1735 30.6245L29.1836 30.6219L29.1937 30.6193L29.2039 30.6166L29.2139 30.6139L29.2239 30.6109L29.2338 30.6081L29.2438 30.6052L29.2538 30.6022L29.2736 30.596L29.2835 30.5929L29.2932 30.5897L29.3031 30.5863L29.3129 30.5829L29.3226 30.5796L29.3325 30.576L29.3421 30.5726L29.3518 30.569L29.3615 30.5654L29.371 30.5617L29.3807 30.5579L29.3902 30.5541L29.3998 30.5502L29.4093 30.5463L29.4189 30.5423L29.4282 30.5383L29.4377 30.5342L29.4471 30.5301L29.4564 30.5258L29.4659 30.5216L29.4845 30.5129L29.4937 30.5084L29.5029 30.5039L29.5122 30.4994L29.5213 30.4948L29.5305 30.4902L29.5395 30.4855L29.5486 30.4807L29.5576 30.4759L29.5667 30.4711L29.5758 30.4661L29.5846 30.4612L29.5936 30.4561L29.6024 30.451L29.6113 30.4459L29.6201 30.4407L29.6289 30.4354L29.6377 30.4301L29.6464 30.4248L29.6552 30.4195L29.6638 30.414L29.6725 30.4085L29.681 30.4029L29.6895 30.3974L29.6981 30.3917L29.7066 30.386L29.715 30.3802L29.7235 30.3744L29.7319 30.3686L29.7402 30.3627L29.7485 30.3568L29.7568 30.3507L29.7651 30.3447L29.7732 30.3386L29.7814 30.3325L29.7896 30.3262L29.7977 30.32L29.8057 30.3137L29.8138 30.3074L29.8217 30.301L29.8296 30.2945L29.8375 30.2881L29.8454 30.2815L29.8533 30.275L29.861 30.2683L29.8688 30.2616L29.8765 30.2549L29.8841 30.2482L29.8918 30.2414L29.8993 30.2345L29.9069 30.2276L29.9144 30.2207L29.9293 30.2066L29.9366 30.1996L29.944 30.1925L29.9513 30.1853L29.9585 30.178L29.9657 30.1709L29.9729 30.1636L29.98 30.1562L29.9941 30.1414L30.0011 30.134L30.0081 30.1264L30.0149 30.1189L30.0286 30.1037L30.0353 30.0961L30.0421 30.0883L30.0487 30.0806L30.062 30.065L30.0685 30.0571L30.0749 30.0492L30.0814 30.0413L30.0878 30.0333L30.0941 30.0253L30.1005 30.0172L30.1066 30.0092L30.1129 30.001L30.119 29.9928L30.1251 29.9847L30.1311 29.9764L30.1372 29.968L30.1431 29.9597L30.149 29.9515L30.1607 29.9346L30.1664 29.9261L30.1721 29.9176L30.1778 29.9091L30.1834 29.9006L30.1889 29.892L30.1945 29.8834L30.1998 29.8748L30.2052 29.866L30.2106 29.8573L30.2159 29.8485L30.2211 29.8396L30.2263 29.8309L30.2314 29.822L30.2365 29.8131L30.2415 29.8042L30.2466 29.7953L30.2515 29.7863L30.2563 29.7772L30.2611 29.7682L30.2659 29.7591L30.2706 29.7501L30.2752 29.7409L30.2798 29.7317L30.2844 29.7225L30.2888 29.7133L30.2933 29.704L30.2976 29.6947L30.302 29.6854L30.3062 29.676L30.3105 29.6667L30.3146 29.6573L30.3187 29.6478L30.3228 29.6384L30.3267 29.6288L30.3307 29.6193L30.3345 29.6099L30.3384 29.6003L30.3421 29.5906L30.3458 29.581L30.3494 29.5713L30.353 29.5617L30.3565 29.552L30.36 29.5422L30.3634 29.5324L30.3667 29.5226L30.3701 29.5129L30.3733 29.503L30.3764 29.4931L30.3796 29.4832L30.3826 29.4733L30.3857 29.4635L30.3886 29.4534L30.3914 29.4434L30.3943 29.4335L30.397 29.4234L30.3997 29.4133L30.4023 29.4032L30.4049 29.3931L30.4074 29.383L30.4099 29.3728L30.4122 29.3625L30.4146 29.3523L30.4169 29.3421L30.419 29.3318L30.4212 29.3215L30.4233 29.3112L30.4253 29.3009L30.4292 29.2801L30.431 29.2697L30.4327 29.2593L30.4344 29.2488L30.4361 29.2383L30.4377 29.2278L30.4392 29.2172L30.4406 29.2066L30.442 29.1961L30.4433 29.1855L30.4446 29.1749L30.4457 29.1642L30.4468 29.1535L30.4479 29.1428L30.4489 29.132L30.4499 29.1212L30.4507 29.1106L30.4515 29.0997L30.4522 29.0888L30.4529 29.078L30.4535 29.0672L30.454 29.0562L30.4544 29.0453L30.4548 29.0343L30.4551 29.0233L30.4553 29.0124L30.4555 29.0012L30.4556 28.9902V28.9776V23.5801V23.5675L30.4555 23.5564L30.4553 23.5454L30.4551 23.5344L30.4548 23.5234L30.4544 23.5124L30.454 23.5016L30.4535 23.4906L30.4529 23.4797L30.4522 23.4689L30.4515 23.458L30.4507 23.4472L30.4499 23.4364L30.4489 23.4257L30.4479 23.415L30.4468 23.4042L30.4457 23.3935L30.4446 23.3829L30.4433 23.3722L30.442 23.3616L30.4406 23.351L30.4392 23.3404L30.4377 23.3299L30.4361 23.3194L30.4344 23.309L30.4327 23.2985L30.431 23.288L30.4292 23.2776L30.4273 23.2672L30.4253 23.2568L30.4233 23.2465L30.4212 23.2362L30.419 23.2258L30.4169 23.2156L30.4146 23.2054L30.4099 23.185L30.4074 23.1748L30.4049 23.1646L30.4023 23.1544L30.3997 23.1444L30.397 23.1343L30.3943 23.1243L30.3914 23.1143L30.3886 23.1043L30.3857 23.0943L30.3826 23.0844L30.3796 23.0744L30.3764 23.0645L30.3733 23.0547L30.3701 23.0448L30.3667 23.035L30.3634 23.0253L30.36 23.0154L30.3565 23.0057L30.353 22.9961L30.3494 22.9863L30.3458 22.9767L30.3421 22.9671L30.3384 22.9575L30.3345 22.9478L30.3307 22.9384L30.3267 22.9288L30.3228 22.9193L30.3187 22.9099L30.3146 22.9005L30.3105 22.8911L30.3062 22.8816L30.302 22.8723L30.2976 22.8629L30.2933 22.8537L30.2888 22.8444L30.2844 22.8352L30.2798 22.826L30.2752 22.8169L30.2706 22.8077L30.2659 22.7985L30.2611 22.7895L30.2563 22.7805L30.2515 22.7714L30.2466 22.7625L30.2415 22.7535L30.2365 22.7446L30.2314 22.7356L30.2263 22.7267L30.2211 22.718L30.2159 22.7092L30.2106 22.7005L30.2052 22.6917L30.1998 22.683L30.1945 22.6744L30.1889 22.6658L30.1834 22.6572L30.1778 22.6486L30.1721 22.64L30.1664 22.6315L30.1607 22.623L30.1548 22.6146L30.149 22.6063L30.1431 22.598L30.1372 22.5896L30.1311 22.5813L30.1251 22.5731L30.119 22.5649L30.1129 22.5567L30.1005 22.5405L30.0941 22.5324L30.0878 22.5244L30.0814 22.5164L30.0749 22.5085L30.0685 22.5007L30.062 22.4927L30.0487 22.4771L30.0421 22.4694L30.0353 22.4617L30.0286 22.454L30.0218 22.4464L30.0149 22.4388L30.0081 22.4312L30.0011 22.4238L29.9941 22.4163L29.9871 22.4088L29.98 22.4015L29.9729 22.3942L29.9657 22.3869L29.9513 22.3724L29.944 22.3652L29.9366 22.3582L29.9292 22.3511L29.9218 22.344L29.9144 22.3371L29.9069 22.3301L29.8993 22.3232L29.8918 22.3164L29.8841 22.3096L29.8765 22.3027L29.8688 22.296L29.861 22.2893L29.8533 22.2828L29.8454 22.2762L29.8375 22.2696L29.8296 22.2632L29.8217 22.2568L29.8138 22.2504L29.8057 22.244L29.7976 22.2377L29.7896 22.2314L29.7814 22.2253L29.7733 22.2192L29.7651 22.213L29.7485 22.201L29.7402 22.195L29.7319 22.1892L29.7235 22.1832L29.715 22.1774L29.7066 22.1717L29.6981 22.166L29.6895 22.1603L29.681 22.1548L29.6725 22.1493L29.6638 22.1437L29.6465 22.1329L29.6377 22.1275L29.6201 22.117L29.6025 22.1066L29.5936 22.1016L29.5846 22.0965L29.5757 22.0916L29.5667 22.0867L29.5577 22.0818L29.5486 22.0769L29.5395 22.0723L29.5305 22.0676L29.5213 22.0629L29.5121 22.0583L29.5029 22.0538L29.4937 22.0492L29.4845 22.0448L29.4659 22.0362L29.4565 22.0318L29.4472 22.0277L29.4377 22.0235L29.4282 22.0194L29.4188 22.0154L29.3998 22.0074L29.3902 22.0036L29.3807 21.9998L29.3711 21.9961L29.3615 21.9923L29.3518 21.9887L29.3421 21.9851L29.3324 21.9816L29.3227 21.9781L29.3031 21.9714L29.2933 21.9681L29.2835 21.9649L29.2736 21.9617L29.2637 21.9585L29.2538 21.9555L29.2438 21.9525L29.2338 21.9496L29.2239 21.9467L29.2139 21.9439L29.2038 21.9411L29.1937 21.9384L29.1836 21.9358L29.1735 21.9332L29.1634 21.9307L29.1532 21.9283L29.143 21.9258L29.1327 21.9236L29.1225 21.9213L29.1122 21.9191L29.102 21.9169L29.0917 21.9149L29.0813 21.9129L29.0709 21.9109L29.0605 21.909L29.0501 21.9072L29.0397 21.9054L29.0292 21.9037L29.0187 21.9021L29.0082 21.9005L28.9977 21.899L28.9871 21.8976L28.9765 21.8961L28.9659 21.8948L28.9553 21.8936L28.9446 21.8924L28.934 21.8912L28.9232 21.8902L28.9124 21.8892L28.9017 21.8883L28.8909 21.8874L28.8801 21.8867L28.8693 21.8859L28.8584 21.8853L28.8476 21.8847L28.8366 21.8841L28.8257 21.8837L28.8147 21.8834L28.8038 21.883L28.7928 21.8828L28.7707 21.8825Z" fill="#FBFBFB"/>
<path fill-rule="evenodd" clip-rule="evenodd" d="M31.4599 37.7551C31.4599 36.2647 30.2499 35.0548 28.7596 35.0548H23.359C21.8687 35.0548 20.6587 36.2647 20.6587 37.7551V43.1556C20.6587 44.646 21.8687 45.856 23.359 45.856H28.7596C30.2499 45.856 31.4599 44.646 31.4599 43.1556V37.7551Z" fill="#FBFBFB"/>
<path fill-rule="evenodd" clip-rule="evenodd" d="M14.803 35.0548L14.8204 35.055L14.8378 35.0553L14.8552 35.0557L14.8725 35.0561L14.8898 35.0568L14.9071 35.0575L14.9244 35.0583L14.9416 35.0593L14.9588 35.0602L14.976 35.0614L14.9931 35.0627L15.0102 35.064L15.0274 35.0655L15.0444 35.067L15.0614 35.0687L15.0784 35.0705L15.0953 35.0724L15.1123 35.0744L15.1292 35.0765L15.1461 35.0787L15.1629 35.081L15.1797 35.0834L15.1964 35.0859L15.2133 35.0886L15.2299 35.0912L15.2465 35.0941L15.2632 35.097L15.2798 35.1L15.2964 35.1031L15.3129 35.1063L15.3294 35.1097L15.3458 35.1132L15.3623 35.1167L15.3786 35.1202L15.395 35.1239L15.4113 35.1277L15.4276 35.1317L15.4438 35.1358L15.46 35.1398L15.4761 35.1441L15.4923 35.1483L15.5083 35.1528L15.5244 35.1572L15.5403 35.1619L15.5563 35.1666L15.5722 35.1714L15.5881 35.1762L15.6039 35.1812L15.6197 35.1863L15.6355 35.1914L15.6512 35.1967L15.6668 35.2021L15.6825 35.2075L15.698 35.2131L15.7135 35.2187L15.729 35.2245L15.7445 35.2303L15.7598 35.2362L15.7752 35.2422L15.7905 35.2483L15.8058 35.2545L15.821 35.2608L15.8361 35.2671L15.8513 35.2735L15.8663 35.2801L15.8813 35.2868L15.8963 35.2934L15.9112 35.3003L15.9261 35.3072L15.9409 35.3142L15.9557 35.3212L15.9705 35.3284L15.9851 35.3357L15.9998 35.3429L16.0144 35.3503L16.0289 35.3579L16.0434 35.3654L16.0578 35.3731L16.0721 35.3809L16.0865 35.3887L16.1008 35.3966L16.115 35.4046L16.1291 35.4127L16.1433 35.4209L16.1573 35.4292L16.1712 35.4375L16.1852 35.4459L16.1991 35.4544L16.2129 35.463L16.2267 35.4717L16.2405 35.4804L16.2542 35.4892L16.2677 35.4981L16.2813 35.5071L16.2947 35.5163L16.3083 35.5253L16.3216 35.5345L16.3349 35.5439L16.3482 35.5532L16.3614 35.5627L16.3745 35.5722L16.3877 35.5818L16.4006 35.5915L16.4136 35.6013L16.4266 35.6111L16.4394 35.621L16.4522 35.631L16.4648 35.6411L16.4775 35.6512L16.4901 35.6614L16.5027 35.6717L16.5152 35.6821L16.5275 35.6925L16.5399 35.703L16.5522 35.7135L16.5644 35.7242L16.5765 35.735L16.5886 35.7458L16.6007 35.7566L16.6126 35.7675L16.6246 35.7786L16.6364 35.7896L16.6481 35.8008L16.6598 35.8119L16.6715 35.8233L16.683 35.8345L16.6945 35.846L16.706 35.8575L16.7172 35.8691L16.7286 35.8807L16.7397 35.8924L16.7509 35.9041L16.762 35.916L16.773 35.9279L16.7839 35.9398L16.7948 35.9519L16.8055 35.964L16.8163 35.9761L16.827 35.9883L16.8375 36.0006L16.848 36.013L16.8585 36.0254L16.8688 36.0379L16.8791 36.0504L16.8893 36.063L16.8994 36.0757L16.9096 36.0883L16.9195 36.1011L16.9294 36.114L16.9393 36.1269L16.949 36.1399L16.9587 36.1528L16.9683 36.166L16.9778 36.1791L16.9873 36.1924L16.9967 36.2056L17.006 36.2189L17.0152 36.2323L17.0244 36.2458L17.0334 36.2592L17.0424 36.2728L17.0513 36.2864L17.0601 36.3001L17.0688 36.3138L17.0775 36.3276L17.0861 36.3414L17.0946 36.3553L17.103 36.3693L17.1114 36.3833L17.1196 36.3973L17.1278 36.4115L17.1359 36.4255L17.1439 36.4398L17.1518 36.4541L17.1597 36.4684L17.1674 36.4828L17.1751 36.4971L17.1827 36.5117L17.1901 36.5262L17.1976 36.5407L17.2049 36.5554L17.2122 36.57L17.2193 36.5848L17.2263 36.5996L17.2333 36.6144L17.2402 36.6293L17.247 36.6443L17.2538 36.6592L17.2605 36.6742L17.267 36.6893L17.2734 36.7044L17.2798 36.7195L17.286 36.7348L17.2922 36.7501L17.2983 36.7654L17.3043 36.7807L17.3102 36.796L17.3161 36.8115L17.3218 36.827L17.3274 36.8426L17.333 36.8581L17.3384 36.8738L17.3438 36.8894L17.3491 36.9051L17.3543 36.9208L17.3593 36.9366L17.3643 36.9524L17.3692 36.9683L17.3739 36.9842L17.3787 37.0002L17.3833 37.0162L17.3878 37.0322L17.3922 37.0482L17.3965 37.0644L17.4007 37.0806L17.4048 37.0967L17.4088 37.1129L17.4128 37.1293L17.4166 37.1455L17.4203 37.1619L17.4239 37.1782L17.4275 37.1947L17.4309 37.2111L17.4342 37.2276L17.4374 37.2441L17.4405 37.2607L17.4435 37.2773L17.4465 37.294L17.4493 37.3106L17.452 37.3274L17.4546 37.3441L17.4572 37.3608L17.4595 37.3776L17.4618 37.3945L17.4641 37.4113L17.4661 37.4283L17.4681 37.4452L17.47 37.4621L17.4718 37.4791L17.4735 37.4962L17.475 37.5132L17.4765 37.5303L17.4779 37.5474L17.4791 37.5646L17.4803 37.5817L17.4813 37.5989L17.4823 37.6161L17.4831 37.6335L17.4837 37.6508L17.4844 37.6681L17.4849 37.6854L17.4852 37.7028L17.4855 37.7202L17.4857 37.7376L17.4858 37.7551V43.1556L17.4857 43.1731L17.4855 43.1905L17.4852 43.2079L17.4849 43.2253L17.4844 43.2426L17.4837 43.2599L17.4831 43.2772L17.4823 43.2945L17.4813 43.3118L17.4803 43.329L17.4791 43.3462L17.4779 43.3633L17.4765 43.3804L17.475 43.3975L17.4735 43.4145L17.4718 43.4316L17.47 43.4486L17.4681 43.4655L17.4661 43.4824L17.4641 43.4994L17.4618 43.5163L17.4595 43.533L17.4572 43.5499L17.4546 43.5667L17.452 43.5834L17.4493 43.6001L17.4465 43.6167L17.4435 43.6334L17.4405 43.65L17.4374 43.6665L17.4342 43.6831L17.4309 43.6995L17.4275 43.716L17.4239 43.7325L17.4203 43.7488L17.4166 43.7652L17.4128 43.7814L17.4088 43.7977L17.4048 43.814L17.4007 43.8302L17.3965 43.8463L17.3922 43.8625L17.3878 43.8785L17.3833 43.8945L17.3787 43.9105L17.3739 43.9265L17.3692 43.9424L17.3643 43.9583L17.3593 43.9741L17.3543 43.9898L17.3491 44.0056L17.3438 44.0213L17.3384 44.0369L17.333 44.0526L17.3274 44.0681L17.3218 44.0837L17.3161 44.0992L17.3102 44.1147L17.3043 44.1301L17.2983 44.1454L17.2922 44.1606L17.286 44.1759L17.2798 44.1912L17.2734 44.2063L17.267 44.2214L17.2605 44.2365L17.2538 44.2515L17.247 44.2665L17.2402 44.2814L17.2333 44.2963L17.2263 44.3112L17.2193 44.3259L17.2122 44.3407L17.2049 44.3553L17.1976 44.37L17.1901 44.3845L17.1827 44.3991L17.1751 44.4136L17.1674 44.4279L17.1597 44.4423L17.1518 44.4567L17.1439 44.471L17.1359 44.4851L17.1278 44.4993L17.1196 44.5134L17.1114 44.5275L17.103 44.5414L17.0946 44.5554L17.0861 44.5693L17.0775 44.5831L17.0688 44.5969L17.0601 44.6106L17.0513 44.6243L17.0424 44.638L17.0334 44.6515L17.0244 44.665L17.0152 44.6784L17.006 44.6918L16.9967 44.7051L16.9873 44.7184L16.9778 44.7316L16.9683 44.7448L16.9587 44.7579L16.949 44.7708L16.9393 44.7838L16.9294 44.7967L16.9195 44.8096L16.9096 44.8223L16.8994 44.8351L16.8893 44.8477L16.8791 44.8604L16.8688 44.8728L16.8585 44.8853L16.848 44.8977L16.8375 44.9101L16.827 44.9224L16.8163 44.9346L16.8055 44.9468L16.7948 44.9589L16.7839 44.9709L16.773 44.9828L16.762 44.9947L16.7509 45.0065L16.7397 45.0183L16.7286 45.03L16.7172 45.0416L16.706 45.0532L16.6945 45.0647L16.683 45.0761L16.6715 45.0874L16.6598 45.0987L16.6481 45.1099L16.6364 45.1211L16.6246 45.1321L16.6126 45.1432L16.6007 45.1541L16.5886 45.165L16.5765 45.1758L16.5644 45.1865L16.5522 45.1972L16.5399 45.2078L16.5275 45.2182L16.5152 45.2287L16.5027 45.239L16.4901 45.2493L16.4775 45.2595L16.4648 45.2696L16.4522 45.2797L16.4394 45.2897L16.4266 45.2996L16.4136 45.3094L16.4006 45.3192L16.3877 45.3289L16.3745 45.3385L16.3614 45.348L16.3482 45.3575L16.3349 45.3668L16.3216 45.3762L16.3083 45.3853L16.2947 45.3945L16.2813 45.4036L16.2677 45.4126L16.2542 45.4215L16.2405 45.4303L16.2267 45.4391L16.2129 45.4477L16.1991 45.4563L16.1852 45.4648L16.1712 45.4732L16.1573 45.4815L16.1433 45.4898L16.1291 45.498L16.115 45.506L16.1008 45.514L16.0865 45.522L16.0721 45.5298L16.0578 45.5376L16.0434 45.5453L16.0289 45.5528L16.0144 45.5603L15.9998 45.5678L15.9851 45.575L15.9705 45.5823L15.9557 45.5895L15.9409 45.5966L15.9261 45.6036L15.9112 45.6105L15.8963 45.6172L15.8813 45.6239L15.8663 45.6306L15.8513 45.6372L15.8361 45.6436L15.821 45.65L15.8058 45.6563L15.7905 45.6624L15.7752 45.6685L15.7598 45.6745L15.7445 45.6805L15.729 45.6862L15.7135 45.692L15.698 45.6976L15.6825 45.7032L15.6668 45.7086L15.6512 45.7139L15.6355 45.7192L15.6197 45.7244L15.6039 45.7295L15.5881 45.7345L15.5722 45.7394L15.5563 45.7441L15.5403 45.7488L15.5244 45.7535L15.5083 45.7579L15.4923 45.7624L15.4761 45.7667L15.46 45.7709L15.4438 45.7749L15.4276 45.779L15.4113 45.7829L15.395 45.7868L15.3786 45.7905L15.3623 45.7941L15.3458 45.7976L15.3294 45.801L15.3129 45.8043L15.2964 45.8076L15.2798 45.8108L15.2632 45.8137L15.2465 45.8166L15.2299 45.8195L15.2133 45.8222L15.1964 45.8248L15.1797 45.8273L15.1629 45.8297L15.1461 45.832L15.1292 45.8342L15.1123 45.8363L15.0953 45.8383L15.0784 45.8402L15.0614 45.842L15.0444 45.8437L15.0274 45.8453L15.0102 45.8467L14.9931 45.848L14.976 45.8493L14.9588 45.8505L14.9416 45.8515L14.9244 45.8525L14.9071 45.8532L14.8898 45.854L14.8725 45.8546L14.8552 45.8551L14.8378 45.8555L14.8204 45.8557L14.803 45.8559L14.7855 45.856H9.38489L9.3674 45.8559L9.35 45.8557L9.3326 45.8555L9.3152 45.8551L9.29789 45.8546L9.28059 45.854L9.26329 45.8532L9.24598 45.8525L9.22877 45.8515L9.21156 45.8505L9.19435 45.8493L9.17724 45.848L9.16012 45.8467L9.14301 45.8453L9.12599 45.8437L9.10896 45.842L9.09194 45.8402L9.07502 45.8383L9.05809 45.8363L9.04117 45.8342L9.02424 45.832L9.0075 45.8297L8.99067 45.8273L8.97384 45.8248L8.9571 45.8222L8.94046 45.8195L8.92378 45.8166L8.90715 45.8137L8.89052 45.8108L8.87398 45.8076L8.85745 45.8043L8.84097 45.801L8.82448 45.7976L8.8081 45.7941L8.79171 45.7905L8.77537 45.7868L8.75907 45.7829L8.74278 45.779L8.72654 45.7749L8.71034 45.7709L8.6942 45.7667L8.67809 45.7624L8.66205 45.7579L8.64599 45.7535L8.62999 45.7488L8.61404 45.7441L8.59813 45.7394L8.58227 45.7345L8.56641 45.7295L8.55065 45.7244L8.53488 45.7192L8.51922 45.7139L8.50356 45.7086L8.48794 45.7032L8.47237 45.6976L8.45685 45.692L8.44133 45.6862L8.4259 45.6805L8.41053 45.6745L8.39515 45.6685L8.37987 45.6624L8.36459 45.6563L8.3494 45.65L8.33423 45.6436L8.31909 45.6372L8.30405 45.6306L8.28901 45.6239L8.27402 45.6172L8.25913 45.6105L8.24424 45.6036L8.22939 45.5966L8.21464 45.5895L8.19989 45.5823L8.18523 45.575L8.17058 45.5678L8.15602 45.5603L8.14147 45.5528L8.12701 45.5453L8.11259 45.5376L8.09818 45.5298L8.08386 45.522L8.06959 45.514L8.05538 45.506L8.04125 45.498L8.02714 45.4898L8.01306 45.4815L7.99908 45.4732L7.98511 45.4648L7.97121 45.4563L7.95738 45.4477L7.9436 45.4391L7.92991 45.4303L7.91622 45.4215L7.90263 45.4126L7.88903 45.4036L7.87554 45.3945L7.86214 45.3853L7.84874 45.3762L7.83544 45.3668L7.82213 45.3575L7.80892 45.348L7.79582 45.3385L7.7827 45.3289L7.76969 45.3192L7.75672 45.3094L7.74381 45.2996L7.73099 45.2897L7.71816 45.2797L7.70544 45.2696L7.6928 45.2595L7.68018 45.2493L7.66764 45.239L7.65516 45.2287L7.64277 45.2182L7.63043 45.2078L7.61814 45.1972L7.60595 45.1865L7.59375 45.1758L7.5817 45.165L7.56965 45.1541L7.5577 45.1432L7.54579 45.1321L7.53398 45.1211L7.52222 45.1099L7.51051 45.0987L7.49889 45.0874L7.48732 45.0761L7.47585 45.0647L7.46443 45.0532L7.4531 45.0416L7.44182 45.03L7.43059 45.0183L7.41946 45.0065L7.40837 44.9947L7.39738 44.9828L7.38644 44.9709L7.37555 44.9589L7.36475 44.9468L7.35404 44.9346L7.3434 44.9224L7.33283 44.9101L7.32233 44.8977L7.31187 44.8853L7.30151 44.8728L7.29124 44.8604L7.28102 44.8477L7.2709 44.8351L7.26083 44.8223L7.25085 44.8096L7.24091 44.7967L7.23109 44.7838L7.22135 44.7708L7.21165 44.7579L7.20202 44.7448L7.19252 44.7316L7.18307 44.7184L7.17367 44.7051L7.16437 44.6918L7.15516 44.6784L7.146 44.665L7.13694 44.6515L7.12798 44.638L7.11906 44.6243L7.11024 44.6106L7.10151 44.5969L7.09284 44.5831L7.08426 44.5693L7.07573 44.5554L7.06734 44.5414L7.059 44.5275L7.05071 44.5134L7.04256 44.4993L7.03447 44.4851L7.02647 44.471L7.01852 44.4567L7.01071 44.4423L7.00294 44.4279L6.99528 44.4136L6.98766 44.3991L6.98019 44.3845L6.97277 44.37L6.96544 44.3553L6.95822 44.3407L6.95103 44.3259L6.94395 44.3112L6.93696 44.2963L6.93007 44.2814L6.92327 44.2665L6.91656 44.2515L6.90992 44.2365L6.90336 44.2214L6.89695 44.2063L6.89059 44.1912L6.88427 44.1759L6.87811 44.1606L6.87203 44.1454L6.866 44.1301L6.86007 44.1147L6.85429 44.0992L6.84856 44.0837L6.84291 44.0681L6.83737 44.0526L6.83192 44.0369L6.82657 44.0213L6.82132 44.0056L6.81611 43.9898L6.81105 43.9741L6.80609 43.9583L6.80117 43.9424L6.7964 43.9265L6.79168 43.9105L6.7871 43.8945L6.78256 43.8785L6.77818 43.8625L6.77389 43.8463L6.76965 43.8302L6.76555 43.814L6.7615 43.7977L6.7576 43.7814L6.75379 43.7652L6.75008 43.7488L6.74641 43.7325L6.74289 43.716L6.73947 43.6995L6.73615 43.6831L6.73292 43.6665L6.72984 43.65L6.7268 43.6334L6.72386 43.6167L6.72106 43.6001L6.71831 43.5834L6.71571 43.5667L6.7132 43.5499L6.71079 43.533L6.70848 43.5163L6.70631 43.4994L6.70419 43.4824L6.70222 43.4655L6.70033 43.4486L6.69855 43.4316L6.69686 43.4145L6.69527 43.3975L6.69383 43.3804L6.69248 43.3633L6.69123 43.3462L6.69006 43.329L6.689 43.3118L6.68809 43.2945L6.68727 43.2772L6.68655 43.2599L6.68597 43.2426L6.68549 43.2253L6.6851 43.2079L6.68482 43.1905L6.68462 43.1731L6.68457 43.1556V37.7551L6.68462 37.7376L6.68482 37.7202L6.6851 37.7028L6.68549 37.6854L6.68597 37.6681L6.68655 37.6508L6.68727 37.6335L6.68809 37.6161L6.689 37.5989L6.69006 37.5817L6.69123 37.5646L6.69248 37.5474L6.69383 37.5303L6.69527 37.5132L6.69686 37.4962L6.69855 37.4791L6.70033 37.4621L6.70222 37.4452L6.70419 37.4283L6.70631 37.4113L6.70848 37.3945L6.71079 37.3776L6.7132 37.3608L6.71571 37.3441L6.71831 37.3274L6.72106 37.3106L6.72386 37.294L6.7268 37.2773L6.72984 37.2607L6.73292 37.2441L6.73615 37.2276L6.73947 37.2111L6.74289 37.1947L6.74641 37.1782L6.75008 37.1619L6.75379 37.1455L6.7576 37.1293L6.7615 37.1129L6.76555 37.0967L6.76965 37.0806L6.77389 37.0644L6.77818 37.0482L6.78256 37.0322L6.7871 37.0162L6.79168 37.0002L6.7964 36.9842L6.80117 36.9683L6.80609 36.9524L6.81105 36.9366L6.81611 36.9208L6.82132 36.9051L6.82657 36.8894L6.83192 36.8738L6.83737 36.8581L6.84291 36.8426L6.84856 36.827L6.85429 36.8115L6.86007 36.796L6.866 36.7807L6.87203 36.7654L6.87811 36.7501L6.88427 36.7348L6.89059 36.7195L6.89695 36.7044L6.90336 36.6893L6.90992 36.6742L6.91656 36.6592L6.92327 36.6443L6.93007 36.6293L6.93696 36.6144L6.94395 36.5996L6.95103 36.5848L6.95822 36.57L6.96544 36.5554L6.97277 36.5407L6.98019 36.5262L6.98766 36.5117L6.99528 36.4971L7.00294 36.4828L7.01071 36.4684L7.01852 36.4541L7.02647 36.4398L7.03447 36.4255L7.04256 36.4115L7.05071 36.3973L7.059 36.3833L7.06734 36.3693L7.07573 36.3553L7.08426 36.3414L7.09284 36.3276L7.10151 36.3138L7.11024 36.3001L7.11906 36.2864L7.12798 36.2728L7.13694 36.2592L7.146 36.2458L7.15516 36.2323L7.16437 36.2189L7.17367 36.2056L7.18307 36.1924L7.19252 36.1791L7.20202 36.166L7.21165 36.1528L7.22135 36.1399L7.23109 36.1269L7.24091 36.114L7.25085 36.1011L7.26083 36.0883L7.2709 36.0757L7.28102 36.063L7.29124 36.0504L7.30151 36.0379L7.31187 36.0254L7.32233 36.013L7.33283 36.0006L7.3434 35.9883L7.35404 35.9761L7.36475 35.964L7.37555 35.9519L7.38644 35.9398L7.39738 35.9279L7.40837 35.916L7.41946 35.9041L7.43059 35.8924L7.44182 35.8807L7.4531 35.8691L7.46443 35.8575L7.47585 35.846L7.48732 35.8345L7.49889 35.8233L7.51051 35.8119L7.52222 35.8008L7.53398 35.7896L7.54579 35.7786L7.5577 35.7675L7.56965 35.7566L7.5817 35.7458L7.59375 35.735L7.60595 35.7242L7.61814 35.7135L7.63043 35.703L7.64277 35.6925L7.65516 35.6821L7.66764 35.6717L7.68018 35.6614L7.6928 35.6512L7.70544 35.6411L7.71816 35.631L7.73099 35.621L7.74381 35.6111L7.75672 35.6013L7.76969 35.5915L7.7827 35.5818L7.79582 35.5722L7.80892 35.5627L7.82213 35.5532L7.83544 35.5439L7.84874 35.5345L7.86214 35.5253L7.87554 35.5163L7.88903 35.5071L7.90263 35.4981L7.91622 35.4892L7.92991 35.4804L7.9436 35.4717L7.95738 35.463L7.97121 35.4544L7.98511 35.4459L7.99908 35.4375L8.01306 35.4292L8.02714 35.4209L8.04125 35.4127L8.05538 35.4046L8.06959 35.3966L8.08386 35.3887L8.09818 35.3809L8.11259 35.3731L8.12701 35.3654L8.14147 35.3579L8.15602 35.3503L8.17058 35.3429L8.18523 35.3357L8.19989 35.3284L8.21464 35.3212L8.22939 35.3142L8.24424 35.3072L8.25913 35.3003L8.27402 35.2934L8.28901 35.2868L8.30405 35.2801L8.31909 35.2735L8.33423 35.2671L8.3494 35.2608L8.36459 35.2545L8.37987 35.2483L8.39515 35.2422L8.41053 35.2362L8.4259 35.2303L8.44133 35.2245L8.45685 35.2187L8.47237 35.2131L8.48794 35.2075L8.50356 35.2021L8.51922 35.1967L8.53488 35.1914L8.55065 35.1863L8.56641 35.1812L8.58227 35.1762L8.59813 35.1714L8.61404 35.1666L8.62999 35.1619L8.64599 35.1572L8.66205 35.1528L8.67809 35.1483L8.6942 35.1441L8.71034 35.1398L8.72654 35.1358L8.74278 35.1317L8.75907 35.1277L8.77537 35.1239L8.79171 35.1202L8.8081 35.1167L8.82448 35.1132L8.84097 35.1097L8.85745 35.1063L8.87398 35.1031L8.89052 35.1L8.90715 35.097L8.92378 35.0941L8.94046 35.0912L8.9571 35.0886L8.97384 35.0859L8.99067 35.0834L9.0075 35.081L9.02424 35.0787L9.04117 35.0765L9.05809 35.0744L9.07502 35.0724L9.09194 35.0705L9.10896 35.0687L9.12599 35.067L9.14301 35.0655L9.16012 35.064L9.17724 35.0627L9.19435 35.0614L9.21156 35.0602L9.22877 35.0593L9.24598 35.0583L9.26329 35.0575L9.28059 35.0568L9.29789 35.0561L9.3152 35.0557L9.3326 35.0553L9.35 35.055L9.3674 35.0548H9.38489H14.7855H14.803ZM9.3865 36.0589L9.37383 36.059L9.36267 36.0591L9.3517 36.0593L9.34073 36.0595L9.32976 36.0598L9.3187 36.0603L9.30782 36.0606L9.29695 36.0612L9.28598 36.0618L9.2752 36.0624L9.26433 36.0632L9.25355 36.0639L9.24277 36.0648L9.23199 36.0657L9.2213 36.0667L9.21052 36.0678L9.19984 36.0689L9.18915 36.0701L9.17856 36.0713L9.16788 36.0726L9.15738 36.074L9.14679 36.0755L9.13629 36.077L9.1257 36.0785L9.11521 36.0802L9.09431 36.0836L9.08391 36.0855L9.0735 36.0874L9.0631 36.0893L9.0528 36.0914L9.04258 36.0935L9.03218 36.0956L9.02188 36.0978L9.01166 36.1001L8.99124 36.1048L8.98112 36.1073L8.97091 36.1097L8.96079 36.1124L8.95073 36.1149L8.94065 36.1177L8.93058 36.1204L8.91062 36.1261L8.90059 36.129L8.89066 36.132L8.88078 36.1351L8.87085 36.1382L8.86102 36.1413L8.85114 36.1446L8.84135 36.1478L8.83157 36.1512L8.82179 36.1546L8.81205 36.1581L8.80236 36.1616L8.79267 36.1652L8.78298 36.1688L8.77339 36.1725L8.7638 36.1763L8.75416 36.1801L8.74471 36.1839L8.73517 36.1879L8.72562 36.1919L8.71622 36.196L8.70677 36.2L8.69738 36.2042L8.68798 36.2084L8.67862 36.2126L8.66002 36.2213L8.65072 36.2258L8.64151 36.2303L8.63236 36.2347L8.62315 36.2394L8.61399 36.2441L8.60488 36.2487L8.59582 36.2535L8.5868 36.2584L8.57774 36.2632L8.56877 36.2681L8.55981 36.2731L8.55089 36.2781L8.54198 36.2832L8.53311 36.2883L8.52433 36.2934L8.51551 36.2987L8.50674 36.304L8.49802 36.3093L8.48929 36.3148L8.48066 36.3202L8.47203 36.3257L8.46345 36.3313L8.45492 36.3368L8.4464 36.3425L8.43781 36.3482L8.42937 36.354L8.42094 36.3598L8.4126 36.3656L8.40426 36.3716L8.39598 36.3774L8.38764 36.3835L8.37939 36.3895L8.37119 36.3956L8.363 36.4018L8.35485 36.408L8.34681 36.4142L8.33876 36.4205L8.33076 36.4269L8.32275 36.4333L8.31484 36.4396L8.30694 36.4462L8.29899 36.4527L8.29123 36.4593L8.28347 36.4659L8.27571 36.4725L8.268 36.4793L8.26033 36.4861L8.25267 36.4929L8.2451 36.4997L8.23758 36.5066L8.23006 36.5135L8.22259 36.5206L8.21517 36.5276L8.20779 36.5347L8.20051 36.5417L8.19318 36.5489L8.18591 36.5561L8.17155 36.5707L8.15737 36.5854L8.15034 36.5928L8.14335 36.6002L8.13646 36.6078L8.12952 36.6152L8.12267 36.6229L8.11587 36.6305L8.10912 36.6381L8.10238 36.6459L8.09567 36.6536L8.08907 36.6614L8.08252 36.6692L8.07596 36.6771L8.06304 36.693L8.05668 36.7009L8.05031 36.7089L8.04401 36.717L8.03778 36.7251L8.02544 36.7414L8.01933 36.7496L8.0133 36.7578L8.00733 36.7661L8.00134 36.7745L7.99547 36.7828L7.98959 36.7911L7.97801 36.808L7.97233 36.8166L7.96669 36.8251L7.9611 36.8336L7.95556 36.8422L7.95001 36.8508L7.94457 36.8595L7.93922 36.8682L7.93382 36.877L7.92331 36.8945L7.91815 36.9034L7.91304 36.9122L7.90793 36.921L7.90287 36.93L7.89795 36.9389L7.89299 36.948L7.88811 36.957L7.8833 36.966L7.87386 36.9841L7.86922 36.9933L7.8646 37.0026L7.86007 37.0117L7.85559 37.0209L7.85115 37.0302L7.84247 37.0488L7.83818 37.0582L7.83399 37.0675L7.82985 37.077L7.82574 37.0864L7.8217 37.0959L7.8177 37.1053L7.81379 37.1148L7.80993 37.1244L7.80613 37.134L7.80237 37.1435L7.79865 37.1532L7.79504 37.1628L7.79143 37.1726L7.78791 37.1822L7.78444 37.192L7.77769 37.2115L7.77441 37.2214L7.77118 37.2312L7.768 37.241L7.76487 37.251L7.76183 37.2609L7.75884 37.2708L7.7559 37.2807L7.75301 37.2908L7.75022 37.3008L7.74747 37.3108L7.74476 37.3209L7.74211 37.331L7.73956 37.3412L7.73706 37.3513L7.7346 37.3614L7.73219 37.3716L7.72987 37.3818L7.72761 37.392L7.72539 37.4023L7.72327 37.4127L7.7212 37.423L7.71918 37.4334L7.7172 37.4437L7.71532 37.4541L7.71348 37.4646L7.7117 37.475L7.71001 37.4854L7.70838 37.4959L7.70679 37.5065L7.70529 37.517L7.70385 37.5275L7.70245 37.5381L7.70114 37.5487L7.69989 37.5594L7.69868 37.57L7.69758 37.5808L7.69652 37.5915L7.69555 37.6022L7.69464 37.6129L7.69377 37.6237L7.693 37.6345L7.69227 37.6454L7.6916 37.6562L7.69102 37.6671L7.6905 37.678L7.69006 37.6889L7.68967 37.6999L7.68933 37.7109L7.6891 37.7219L7.68895 37.7329L7.6888 37.744V43.1667L7.6891 43.1888L7.68933 43.1999L7.68967 43.2109L7.69006 43.2217L7.6905 43.2327L7.69102 43.2436L7.6916 43.2545L7.69227 43.2653L7.693 43.2761L7.69377 43.287L7.69464 43.2978L7.69555 43.3085L7.69652 43.3193L7.69758 43.33L7.69873 43.3407L7.69989 43.3514L7.70114 43.362L7.70245 43.3726L7.70385 43.3831L7.70529 43.3937L7.70679 43.4042L7.70838 43.4148L7.71001 43.4253L7.7117 43.4357L7.71348 43.4462L7.71532 43.4566L7.7172 43.467L7.71918 43.4773L7.7212 43.4877L7.72327 43.498L7.72539 43.5083L7.72761 43.5187L7.72987 43.5289L7.73219 43.5391L7.7346 43.5493L7.73706 43.5594L7.73956 43.5696L7.74211 43.5797L7.74476 43.5898L7.74747 43.5999L7.75022 43.6099L7.75301 43.62L7.7559 43.6299L7.75884 43.6399L7.76183 43.6499L7.76487 43.6598L7.768 43.6697L7.77118 43.6796L7.77441 43.6894L7.77769 43.6992L7.78444 43.7187L7.78791 43.7285L7.79143 43.7381L7.79504 43.7479L7.79865 43.7575L7.80237 43.7672L7.80613 43.7768L7.80993 43.7863L7.81379 43.7959L7.8177 43.8054L7.8217 43.8148L7.82574 43.8244L7.82985 43.8337L7.83399 43.8432L7.83818 43.8525L7.84247 43.8619L7.84681 43.8713L7.85115 43.8805L7.85559 43.8898L7.86007 43.899L7.8646 43.9082L7.87386 43.9266L7.87857 43.9357L7.8833 43.9447L7.88811 43.9538L7.89299 43.9628L7.89795 43.9718L7.90287 43.9807L7.90788 43.9897L7.91299 43.9985L7.91815 44.0074L7.92331 44.0162L7.92856 44.025L7.93386 44.0338L7.93922 44.0425L7.94457 44.0512L7.95001 44.0599L7.9611 44.0771L7.96669 44.0856L7.97233 44.0941L7.97801 44.1026L7.9838 44.1112L7.98959 44.1196L8.00134 44.1363L8.0133 44.1529L8.01933 44.1611L8.02544 44.1693L8.03162 44.1775L8.03778 44.1856L8.04401 44.1937L8.05031 44.2017L8.05668 44.2098L8.06304 44.2177L8.0695 44.2258L8.07596 44.2336L8.08252 44.2415L8.08907 44.2493L8.09567 44.2571L8.10238 44.2648L8.11587 44.2802L8.12267 44.2879L8.12952 44.2955L8.13646 44.303L8.14335 44.3105L8.15034 44.318L8.15737 44.3253L8.16446 44.3327L8.1716 44.3401L8.17872 44.3474L8.18591 44.3546L8.19318 44.3618L8.20051 44.369L8.20779 44.376L8.21517 44.3831L8.22259 44.3902L8.23006 44.3972L8.23753 44.4041L8.2451 44.411L8.25272 44.4179L8.26033 44.4246L8.268 44.4314L8.27571 44.4381L8.28342 44.4448L8.29123 44.4515L8.29903 44.458L8.30694 44.4645L8.31484 44.4711L8.32275 44.4774L8.33076 44.4838L8.33876 44.4902L8.34676 44.4965L8.35485 44.5027L8.36305 44.509L8.37119 44.5151L8.37939 44.5212L8.38764 44.5272L8.39598 44.5333L8.40421 44.5391L8.42099 44.551L8.42937 44.5567L8.43781 44.5625L8.4464 44.5682L8.45492 44.5738L8.46345 44.5795L8.47203 44.585L8.48062 44.5905L8.48929 44.5959L8.49806 44.6014L8.50674 44.6067L8.51551 44.6119L8.52428 44.6172L8.53311 44.6223L8.54202 44.6275L8.55089 44.6326L8.55981 44.6377L8.56873 44.6426L8.57774 44.6475L8.58685 44.6524L8.59582 44.6572L8.60488 44.662L8.61399 44.6667L8.6323 44.676L8.64151 44.6805L8.65077 44.6849L8.66002 44.6894L8.66932 44.6937L8.67862 44.6981L8.68798 44.7023L8.69738 44.7065L8.70677 44.7107L8.71622 44.7147L8.72562 44.7188L8.73512 44.7228L8.74471 44.7267L8.75421 44.7306L8.77339 44.7382L8.78293 44.7419L8.79267 44.7455L8.80236 44.7491L8.81205 44.7527L8.82183 44.7561L8.83152 44.7595L8.84135 44.7629L8.85119 44.7662L8.87085 44.7725L8.88078 44.7756L8.89066 44.7787L8.90059 44.7817L8.91062 44.7846L8.9206 44.7875L8.93058 44.7903L8.9406 44.793L8.95073 44.7958L8.96088 44.7984L8.97091 44.801L8.98112 44.8034L8.99124 44.8059L9.00145 44.8083L9.01166 44.8106L9.02188 44.8129L9.03218 44.8152L9.04249 44.8172L9.05289 44.8194L9.0632 44.8214L9.0735 44.8233L9.08391 44.8252L9.09431 44.8271L9.1048 44.8289L9.11521 44.8305L9.1257 44.8322L9.13629 44.8338L9.14679 44.8352L9.15738 44.8367L9.16788 44.838L9.17856 44.8394L9.18915 44.8406L9.19984 44.8418L9.21052 44.843L9.2213 44.844L9.23199 44.8449L9.24277 44.8459L9.25355 44.8467L9.26433 44.8476L9.2752 44.8483L9.28598 44.8489L9.29695 44.8495L9.30782 44.85L9.31879 44.8504L9.32976 44.8508L9.34064 44.8512L9.3517 44.8515L9.36276 44.8517L9.37383 44.8518H9.3865H14.7839H14.7965L14.8076 44.8517L14.8187 44.8515L14.8297 44.8512L14.8406 44.8508L14.8516 44.8504L14.8625 44.85L14.8734 44.8495L14.8844 44.8489L14.8952 44.8483L14.906 44.8476L14.9168 44.8467L14.9276 44.8459L14.9384 44.8449L14.9491 44.844L14.9597 44.843L14.9705 44.8418L14.9812 44.8406L14.9918 44.8394L15.0025 44.838L15.013 44.8367L15.0236 44.8352L15.0341 44.8338L15.0447 44.8322L15.0552 44.8305L15.0656 44.8289L15.0761 44.8271L15.0865 44.8252L15.0969 44.8233L15.1072 44.8214L15.1175 44.8194L15.1279 44.8172L15.1382 44.8152L15.1485 44.8129L15.1587 44.8106L15.1689 44.8083L15.1791 44.8059L15.1892 44.8034L15.1994 44.801L15.2095 44.7984L15.2196 44.7958L15.2297 44.793L15.2398 44.7903L15.2498 44.7875L15.2598 44.7846L15.2698 44.7817L15.2796 44.7787L15.2896 44.7756L15.2995 44.7725L15.3093 44.7694L15.3192 44.7662L15.329 44.7629L15.3388 44.7595L15.3486 44.7561L15.3583 44.7527L15.368 44.7491L15.3777 44.7455L15.3874 44.7419L15.3969 44.7382L15.4065 44.7344L15.4161 44.7306L15.4256 44.7267L15.4353 44.7228L15.4447 44.7188L15.4541 44.7147L15.4636 44.7107L15.473 44.7065L15.4824 44.7023L15.4917 44.6981L15.501 44.6937L15.5104 44.6894L15.5195 44.6849L15.5288 44.6805L15.5381 44.6759L15.5472 44.6713L15.5564 44.6667L15.5745 44.6572L15.5836 44.6524L15.5926 44.6475L15.6016 44.6426L15.6106 44.6377L15.6284 44.6275L15.6372 44.6224L15.6461 44.6172L15.6548 44.6119L15.6636 44.6067L15.6723 44.6014L15.681 44.5959L15.6897 44.5905L15.6983 44.585L15.7069 44.5795L15.7155 44.5738L15.724 44.5682L15.7325 44.5625L15.7409 44.5567L15.7493 44.551L15.7578 44.5451L15.7661 44.5391L15.7744 44.5333L15.7827 44.5272L15.791 44.5212L15.7991 44.5151L15.8073 44.509L15.8154 44.5027L15.8235 44.4965L15.8316 44.4902L15.8396 44.4838L15.8476 44.4774L15.8555 44.4711L15.8635 44.4645L15.8713 44.458L15.8791 44.4515L15.8869 44.4449L15.8947 44.4381L15.9024 44.4314L15.9101 44.4246L15.9176 44.4178L15.9253 44.411L15.9328 44.4041L15.9403 44.3972L15.9478 44.3902L15.9552 44.3831L15.9698 44.369L15.9772 44.3618L15.9844 44.3546L15.9917 44.3474L15.9988 44.3401L16.0059 44.3327L16.0129 44.3253L16.0199 44.318L16.027 44.3105L16.0339 44.3029L16.0408 44.2955L16.0477 44.2879L16.0545 44.2802L16.068 44.2648L16.0746 44.2571L16.0812 44.2493L16.0878 44.2415L16.0944 44.2336L16.1009 44.2257L16.1072 44.2178L16.1137 44.2098L16.1201 44.2017L16.1263 44.1937L16.1326 44.1856L16.1387 44.1775L16.145 44.1693L16.151 44.1611L16.1571 44.1529L16.1631 44.1446L16.169 44.1362L16.1749 44.128L16.1807 44.1196L16.1866 44.1112L16.1923 44.1027L16.198 44.0941L16.2037 44.0856L16.2093 44.077L16.2148 44.0685L16.2203 44.0599L16.2257 44.0512L16.2312 44.0426L16.2365 44.0338L16.2418 44.025L16.2471 44.0162L16.2522 44.0074L16.2573 43.9985L16.2624 43.9897L16.2674 43.9807L16.2773 43.9628L16.2823 43.9538L16.2918 43.9357L16.2965 43.9266L16.3012 43.9174L16.3058 43.9081L16.3102 43.899L16.3148 43.8898L16.3191 43.8805L16.3236 43.8713L16.3279 43.8619L16.3322 43.8525L16.3363 43.8432L16.3405 43.8337L16.3446 43.8243L16.3486 43.8149L16.3526 43.8054L16.3566 43.7959L16.3605 43.7863L16.3642 43.7767L16.368 43.7672L16.3717 43.7575L16.3753 43.7479L16.3789 43.7381L16.3859 43.7188L16.3893 43.709L16.3927 43.6992L16.3959 43.6894L16.3992 43.6796L16.4023 43.6698L16.4055 43.6597L16.4085 43.6499L16.4115 43.64L16.4144 43.6299L16.4201 43.6099L16.4229 43.5999L16.4256 43.5898L16.4282 43.5797L16.4308 43.5696L16.4333 43.5594L16.4357 43.5493L16.4382 43.5391L16.4405 43.5289L16.4427 43.5187L16.445 43.5083L16.4471 43.498L16.4492 43.4877L16.4512 43.4774L16.4531 43.467L16.455 43.4566L16.4569 43.4462L16.4586 43.4357L16.4603 43.4253L16.462 43.4148L16.465 43.3937L16.4666 43.3831L16.4679 43.3726L16.4692 43.362L16.4704 43.3514L16.4717 43.3408L16.4728 43.33L16.4748 43.3085L16.4757 43.2978L16.4766 43.2871L16.4773 43.2762L16.4781 43.2653L16.4787 43.2545L16.4793 43.2436L16.4799 43.2327L16.4803 43.2217L16.4806 43.2109L16.481 43.1998L16.4813 43.1888L16.4814 43.1779L16.4815 43.1667L16.4816 43.154V37.7567L16.4815 37.744L16.4814 37.7329L16.4813 37.7219L16.481 37.7109L16.4806 37.6999L16.4803 37.6889L16.4799 37.6781L16.4793 37.6671L16.4787 37.6561L16.4781 37.6454L16.4773 37.6345L16.4766 37.6237L16.4757 37.6129L16.4748 37.6022L16.4738 37.5915L16.4728 37.5808L16.4717 37.57L16.4704 37.5593L16.4692 37.5488L16.4679 37.538L16.4666 37.5275L16.465 37.517L16.4635 37.5065L16.462 37.496L16.4603 37.4854L16.4569 37.4645L16.455 37.4541L16.4531 37.4437L16.4512 37.4333L16.4492 37.423L16.4471 37.4127L16.4449 37.4023L16.4427 37.392L16.4405 37.3819L16.4382 37.3717L16.4357 37.3614L16.4333 37.3513L16.4308 37.3412L16.4282 37.331L16.4256 37.3209L16.4229 37.3109L16.4201 37.3008L16.4173 37.2908L16.4144 37.2807L16.4115 37.2708L16.4085 37.2609L16.4023 37.241L16.3992 37.2312L16.3959 37.2214L16.3927 37.2115L16.3893 37.2018L16.3859 37.192L16.3824 37.1822L16.3789 37.1726L16.3753 37.1628L16.3717 37.1532L16.368 37.1436L16.3642 37.134L16.3605 37.1243L16.3566 37.1149L16.3526 37.1053L16.3486 37.0958L16.3446 37.0864L16.3405 37.077L16.3363 37.0675L16.3322 37.0582L16.3279 37.0488L16.3192 37.0302L16.3148 37.0209L16.3102 37.0116L16.3058 37.0026L16.3012 36.9933L16.2964 36.9841L16.2918 36.9751L16.2871 36.966L16.2823 36.957L16.2773 36.948L16.2724 36.9389L16.2674 36.93L16.2624 36.921L16.2573 36.9122L16.2522 36.9034L16.2471 36.8946L16.2418 36.8858L16.2365 36.8769L16.2312 36.8682L16.2257 36.8595L16.2203 36.8508L16.2148 36.8422L16.2093 36.8336L16.2037 36.8251L16.198 36.8166L16.1923 36.808L16.1866 36.7996L16.1807 36.7911L16.1749 36.7828L16.169 36.7745L16.1631 36.7662L16.1571 36.7578L16.151 36.7496L16.145 36.7414L16.1387 36.7331L16.1326 36.7251L16.1263 36.717L16.1201 36.7089L16.1137 36.7009L16.1072 36.693L16.1009 36.685L16.0944 36.6771L16.0878 36.6692L16.0812 36.6614L16.0746 36.6536L16.068 36.6459L16.0613 36.6381L16.0545 36.6305L16.0477 36.6228L16.0408 36.6152L16.0339 36.6078L16.027 36.6002L16.0199 36.5927L16.0129 36.5854L16.0059 36.578L15.9989 36.5707L15.9917 36.5634L15.9844 36.5561L15.9772 36.5489L15.9698 36.5417L15.9625 36.5347L15.9552 36.5276L15.9478 36.5206L15.9403 36.5135L15.9328 36.5066L15.9253 36.4997L15.9177 36.4929L15.9101 36.4861L15.9024 36.4793L15.8947 36.4725L15.8868 36.4658L15.8791 36.4593L15.8714 36.4527L15.8635 36.4462L15.8555 36.4396L15.8476 36.4333L15.8396 36.4269L15.8316 36.4205L15.8235 36.4142L15.8154 36.408L15.8074 36.4018L15.7991 36.3956L15.791 36.3895L15.7827 36.3835L15.7744 36.3774L15.7661 36.3716L15.7578 36.3656L15.7409 36.354L15.7325 36.3482L15.724 36.3425L15.7155 36.3368L15.7069 36.3313L15.6983 36.3257L15.6897 36.3202L15.681 36.3148L15.6724 36.3093L15.6636 36.304L15.6548 36.2987L15.646 36.2934L15.6372 36.2883L15.6285 36.2832L15.6195 36.2781L15.6106 36.2731L15.6016 36.2681L15.5926 36.2632L15.5745 36.2534L15.5654 36.2487L15.5564 36.2441L15.5472 36.2394L15.538 36.2347L15.5288 36.2303L15.5104 36.2213L15.4917 36.2126L15.4824 36.2084L15.473 36.2042L15.4636 36.2L15.4541 36.196L15.4447 36.1919L15.4352 36.1879L15.4256 36.1839L15.4162 36.1801L15.4065 36.1763L15.3969 36.1725L15.3873 36.1688L15.3777 36.1652L15.368 36.1616L15.3583 36.1581L15.3486 36.1546L15.3387 36.1512L15.329 36.1478L15.3192 36.1446L15.3093 36.1413L15.2995 36.1382L15.2896 36.1351L15.2796 36.132L15.2698 36.129L15.2598 36.1261L15.2398 36.1204L15.2296 36.1177L15.2196 36.1149L15.2096 36.1124L15.1994 36.1097L15.1892 36.1073L15.1791 36.1048L15.1587 36.1001L15.1485 36.0978L15.1382 36.0956L15.1278 36.0935L15.1176 36.0914L15.1073 36.0893L15.0865 36.0855L15.0761 36.0836L15.0552 36.0802L15.0447 36.0785L15.0341 36.077L15.0236 36.0755L15.013 36.074L15.0025 36.0726L14.9917 36.0713L14.9812 36.0701L14.9705 36.0689L14.9597 36.0678L14.9491 36.0667L14.9384 36.0657L14.9276 36.0648L14.9168 36.0639L14.906 36.0632L14.8952 36.0624L14.8844 36.0618L14.8734 36.0612L14.8624 36.0606L14.8517 36.0603L14.8406 36.0598L14.8296 36.0595L14.8187 36.0593L14.8077 36.0591L14.7965 36.059L14.7839 36.0589H9.3865Z" fill="#FBFBFB"/>
</g>
</g>
<defs>
<clipPath id="clip0_12_741">
<rect width="208" height="66" fill="white"/>
</clipPath>
</defs>
</svg>
