<svg width="208" height="66" viewBox="0 0 208 66" fill="none" xmlns="http://www.w3.org/2000/svg">
<g clip-path="url(#clip0_12_356)">
<g clip-path="url(#clip1_12_356)">
<path d="M99.1399 24.9554L96.7507 27.3092C95.997 28.0703 95.5741 29.0981 95.5737 30.1692V36.0539C95.5706 37.1275 95.9939 38.1583 96.7507 38.9198L99.1399 41.2736C99.5145 41.65 99.9603 41.948 100.451 42.15C100.942 42.3521 101.469 42.4543 102 42.4506H114.664V37.7546H102.747C102.605 37.7551 102.464 37.7272 102.333 37.6727C102.201 37.6181 102.082 37.5379 101.982 37.4368L100.629 36.0716C100.528 35.9715 100.447 35.8524 100.393 35.721C100.338 35.5897 100.31 35.4488 100.311 35.3066V30.9283C100.311 30.7879 100.339 30.6488 100.393 30.5194C100.448 30.39 100.528 30.2729 100.629 30.1751L101.965 28.8275C102.169 28.6276 102.444 28.5156 102.73 28.5156H114.652V23.7725H102C101.468 23.7699 100.942 23.8732 100.451 24.0763C99.9598 24.2793 99.5142 24.5782 99.1399 24.9554Z" fill="#0E0D0C"/>
<path d="M160.306 24.9554C159.546 24.1995 158.517 23.7762 157.446 23.7784H141.71V42.4624H146.453V38.7373H157.416C157.947 38.7394 158.473 38.6365 158.964 38.4345C159.455 38.2325 159.901 37.9355 160.276 37.5604L161.995 35.8479C162.748 35.0868 163.171 34.0591 163.171 32.988V29.516C163.177 28.4563 162.765 27.4371 162.024 26.6796L160.306 24.9554ZM158.464 32.2524C158.461 32.5371 158.347 32.8094 158.146 33.0115L157.481 33.6824C157.276 33.8823 157.002 33.9942 156.716 33.9943H146.482V28.5097H156.716C157.002 28.5098 157.276 28.6217 157.481 28.8216L158.146 29.516C158.347 29.7181 158.461 29.9904 158.464 30.2751V32.2524Z" fill="#0E0D0C"/>
<path d="M118.854 28.5156H125.927V42.4624H130.664V28.5156H137.738V23.7725H118.854V28.5156Z" fill="#0E0D0C"/>
<path d="M82.9037 23.7961H79.008C78.3847 23.7945 77.7733 23.9672 77.243 24.2948C76.7126 24.6223 76.2845 25.0917 76.0068 25.6497L67.5034 42.4624H72.7997L74.7946 38.5196H87.0936L89.0944 42.4859H94.3906L85.9167 25.6497C85.636 25.0916 85.2055 24.6226 84.6733 24.2952C84.1412 23.9678 83.5285 23.795 82.9037 23.7961ZM77.2073 33.753L79.6318 28.9275C79.6986 28.7945 79.8011 28.6827 79.928 28.6047C80.0548 28.5267 80.2009 28.4857 80.3497 28.4862H81.5561C81.7056 28.4866 81.852 28.528 81.9796 28.6058C82.1073 28.6836 82.2111 28.7949 82.2799 28.9275L84.6985 33.7295L77.2073 33.753Z" fill="#0E0D0C"/>
<path d="M182.514 25.6497C182.237 25.0935 181.811 24.6253 181.283 24.2979C180.755 23.9704 180.146 23.7967 179.525 23.7961H175.623C175.001 23.7978 174.391 23.972 173.861 24.2992C173.331 24.6263 172.902 25.0938 172.622 25.6497L164.125 42.4624H169.421L171.439 38.4961H183.721L185.727 42.4624H191.024L182.514 25.6497ZM173.834 33.753L176.259 28.9275C176.327 28.794 176.43 28.682 176.558 28.604C176.686 28.5261 176.833 28.4853 176.983 28.4862H178.16C178.311 28.4824 178.461 28.5218 178.591 28.6C178.722 28.6781 178.827 28.7917 178.895 28.9275L181.314 33.7295L173.834 33.753Z" fill="#0E0D0C"/>
<path d="M32.4131 44.9604H25.0867C23.9041 44.9619 22.7436 45.2809 21.7265 45.8843L4.61377 56.0766L5.13751 56.9593L18.2074 53.2343C19.3773 52.9031 20.5872 52.7348 21.803 52.7341H35.6968C36.9126 52.7348 38.1225 52.9031 39.2924 53.2343L52.3741 56.9593L52.8978 56.0766L35.7733 45.8843C34.7562 45.2809 33.5957 44.9619 32.4131 44.9604Z" fill="#0E0D0C"/>
<path d="M23.427 5.8035L19.8962 21.1626C19.5871 22.5063 19.0688 23.7931 18.3603 24.9759L11.7341 35.9803C11.1904 36.8877 10.5383 37.7255 9.79216 38.4754L0 48.3264L0.523739 49.2091L17.2128 39.2757C18.1414 38.7217 18.9195 37.9476 19.4784 37.0219L23.5388 30.3368C24.1574 29.3143 24.485 28.1423 24.4863 26.9473V5.8035H23.427Z" fill="#0E0D0C"/>
<path d="M34.0723 5.8035L37.6031 21.1626C37.9122 22.5063 38.4305 23.7931 39.139 24.9759L45.7535 35.9803C46.2972 36.8877 46.9493 37.7255 47.6954 38.4754L57.4993 48.3264L56.9756 49.2091L40.2866 39.2757C39.3579 38.7217 38.5798 37.9476 38.0209 37.0219L33.9899 30.3368C33.3713 29.3143 33.0437 28.1423 33.0425 26.9473V5.8035H34.0723Z" fill="#0E0D0C"/>
</g>
</g>
<defs>
<clipPath id="clip0_12_356">
<rect width="208" height="66" fill="white"/>
</clipPath>
<clipPath id="clip1_12_356">
<rect width="191" height="51.1558" fill="white" transform="translate(0 5.8035)"/>
</clipPath>
</defs>
</svg>
