<svg width="208" height="66" viewBox="0 0 208 66" fill="none" xmlns="http://www.w3.org/2000/svg">
<mask id="mask0_12_368" style="mask-type:luminance" maskUnits="userSpaceOnUse" x="67" y="1" width="75" height="65">
<path d="M142 1.11363H67V65.8864H142V1.11363Z" fill="white"/>
</mask>
<g mask="url(#mask0_12_368)">
<path d="M107.992 18.8464C108.37 18.4297 108.736 17.9997 109.131 17.5993C109.932 16.7867 110.93 16.4027 112.042 16.2648C113.816 16.0512 115.583 15.9801 117.317 16.4991C117.672 16.5947 118.017 16.7309 118.342 16.9053C118.659 17.0862 118.755 16.972 118.899 16.6948C119.79 14.9777 120.61 13.2281 121.39 11.462C121.866 10.3773 122.594 9.425 123.513 8.68625C123.621 8.71738 123.747 8.69659 123.832 8.7975C123.1 9.42465 122.326 10.0519 121.927 10.9564C121.026 12.9952 119.992 14.9599 119.045 16.981C118.944 17.196 118.95 17.3131 119.163 17.4525C119.941 17.9641 120.679 18.5394 121.48 19.0109C122.619 19.6841 123.46 20.5634 123.844 21.8698C123.99 22.3768 124.251 22.8528 124.442 23.3525C124.934 24.6351 125.123 25.9697 124.489 27.2197C123.697 28.7795 123.236 30.4299 122.818 32.1128C122.742 32.3931 122.638 32.6644 122.506 32.9225C122.437 33.0707 122.303 33.2042 122.121 33.1211C121.939 33.0381 122.011 32.8853 122.055 32.7416C122.339 31.837 122.215 30.9622 121.908 30.0844C121.275 28.2917 120.388 26.6176 119.747 24.8383C119.758 24.7581 119.758 24.6768 119.747 24.5966C119.618 24.1769 119.702 23.7974 120.071 23.5734C120.247 23.4551 120.456 23.3997 120.666 23.4158C120.877 23.4318 121.076 23.5187 121.231 23.6624C121.379 23.7881 121.543 23.8919 121.719 23.9708C122.519 24.3164 123.111 23.9575 123.236 23.0811C123.369 22.1456 122.975 21.4501 122.304 20.8644C121.886 20.5011 121.394 20.3395 120.875 20.5411C120.396 20.728 120.275 21.1728 120.306 21.6636C120.306 21.7793 120.295 21.9053 120.168 21.9453C120.111 21.9556 120.052 21.948 120 21.9235C119.948 21.8992 119.904 21.8592 119.875 21.809C119.728 21.634 119.624 21.4278 119.469 21.2677C118.698 20.4774 117.897 19.7345 116.7 19.7211C114.32 19.7701 112.788 20.5811 111.74 22.7727C110.804 24.733 110.804 26.8208 110.851 28.91C110.873 29.9006 110.94 30.8851 110.793 31.8756C110.529 33.7194 110.01 35.5164 109.251 37.2136C109.088 37.574 108.908 37.955 108.518 38.1374C108.181 38.2857 107.916 38.305 107.785 37.8409C107.644 37.3934 107.559 36.9295 107.533 36.4603C107.51 35.3918 107.483 34.3222 107.453 33.2516C107.453 33.0841 107.491 32.8914 107.281 32.7979C107.113 32.915 107.169 33.0944 107.16 33.2427C107.107 34.168 107.141 35.0918 107.174 36.0156C107.209 37.0184 107.379 38.0117 107.68 38.9678C108.396 41.2306 109.082 43.5066 109.585 45.8301C109.81 46.8815 110.197 48.0543 108.801 48.8995H113.328C114.541 48.8995 115.217 48.0751 114.974 46.8651C114.773 45.9951 114.737 45.0944 114.868 44.2109C115.275 41.8281 115.971 39.5268 116.724 37.2418C117.284 35.5381 117.857 33.8314 118.182 32.0684C118.348 31.1609 118.475 30.2475 118.638 29.2155C118.708 29.5032 118.757 29.6692 118.785 29.8368C119.168 31.8725 119.69 33.879 120.347 35.842C120.685 36.8593 121.145 37.7845 122.16 38.3006C122.849 38.6504 123.154 39.2895 123.294 40.0132C123.368 40.395 123.411 40.7823 123.423 41.1712C123.46 42.3174 123.738 43.3747 124.428 44.3058C124.604 44.5561 124.757 44.8216 124.886 45.0991C125.143 45.6137 125.294 46.1757 125.331 46.751C125.368 47.3265 125.289 47.9034 125.1 48.4473C124.987 48.7972 125.028 48.9395 125.439 48.9114C125.965 48.8743 126.497 48.8951 127.026 48.904C127.786 48.9267 128.531 48.6873 129.139 48.2249C131.22 46.6368 132.565 44.6884 132.291 41.8711C132.157 40.5114 131.94 39.2407 130.874 38.2798C130.716 38.1209 130.569 37.951 130.434 37.7711C129.842 37.0886 129.44 36.2584 129.271 35.3661C128.978 33.6965 129.243 32.0743 129.636 30.4625C130.031 28.8751 130.59 27.3344 131.305 25.8659C131.365 25.7427 131.504 25.5975 131.324 25.4877C131.143 25.3781 131.064 25.5515 130.987 25.6701C130.839 25.8807 130.706 26.1017 130.59 26.3315C129.271 29.211 128.469 32.1944 128.845 35.4091C128.894 35.9272 128.864 36.4499 128.755 36.9586C128.632 37.6081 128.084 37.7831 127.602 37.3516C127.081 36.8914 126.66 36.3276 126.364 35.6952C125.076 32.9358 124.915 30.0473 125.498 27.1025C125.803 25.5664 126.231 24.0539 126.604 22.5325C126.815 21.6725 126.978 20.8228 126.418 20.0118C126.337 19.8528 126.292 19.6775 126.286 19.4987C126.14 18.4519 126.119 17.4228 126.367 16.3686C126.66 15.1601 126.458 13.9131 126.472 12.6824C126.483 11.9869 126.484 11.2915 126.505 10.5961C126.528 9.82056 126.812 9.6367 127.558 9.87102C128.016 10.0192 128.428 10.2842 128.755 10.6406C129.139 11.038 129.643 11.0573 130.138 10.8867C130.56 10.7384 130.884 10.4418 130.871 9.97181C130.858 9.21409 130.679 8.48909 130.124 7.93443C129.634 7.44216 129.045 7.50591 128.658 8.08272C128.543 8.25625 128.453 8.4475 128.348 8.6284C127.908 9.38465 127.286 9.57738 126.518 9.17704C126.29 9.05875 126.073 8.92079 125.869 8.76488C125.451 8.44011 124.999 8.16409 124.521 7.94193C124.998 7.57113 125.001 7.05215 124.916 6.53027C124.582 4.4677 123.634 2.76843 121.965 1.50064C121.837 1.40278 121.642 1.34198 121.68 1.11363H122.257C122.714 1.36571 123.173 1.61334 123.627 1.86986C125.092 2.69429 126.502 3.66106 128.1 4.19338C129.397 4.62488 130.083 5.52789 130.55 6.71413C131.017 7.90034 131.107 9.17409 131.294 10.4211C131.473 11.6074 131.746 12.7327 132.562 13.6625C132.927 14.0792 133.099 14.6011 133.253 15.1452C134.002 17.7461 134.483 20.4077 135.035 23.0529C135.565 25.5901 136.047 28.1331 136.146 30.7368C136.206 32.359 136.102 33.9737 136.014 35.5915C135.867 36.665 135.721 37.7385 135.574 38.812C135.365 40.3186 134.975 41.7984 134.899 43.3257C134.827 44.7892 135.212 46.0436 136.483 46.9126C137.158 47.3767 137.801 47.8793 138.461 48.3747C138.699 48.554 138.96 48.7334 138.973 49.116H138.444L129.067 49.1337C128.956 49.1337 128.845 49.116 128.732 49.116C126.29 49.116 123.852 49.116 121.418 49.116C121.124 49.116 120.903 49.079 120.726 48.7972C120.355 48.2041 120.308 48.2115 119.847 48.7483C119.749 48.864 119.656 48.9841 119.491 48.9366C119.325 48.8891 119.324 48.7142 119.311 48.5748C119.245 47.8511 119.545 47.3485 120.165 46.9749C120.871 46.5493 120.977 46.2439 120.808 45.4312C120.65 44.6632 120.253 43.9841 119.98 43.259C119.818 42.8245 119.727 42.396 119.911 41.9364C120.273 41.0392 119.935 40.4802 119.103 39.7729C118.996 39.6825 118.776 39.6958 118.777 39.5239C118.777 39.3015 119.018 39.2895 119.167 39.2199C119.944 38.8472 120.746 38.5306 121.567 38.2724C121.116 37.899 120.756 37.4256 120.515 36.8889C119.834 35.2742 119.422 33.5749 118.982 31.8845C118.877 31.4842 118.777 31.0808 118.676 30.679C118.489 31.8662 118.219 33.0385 117.869 34.1873C117.188 36.4811 116.436 38.7558 115.79 41.0585C115.245 43.001 114.716 44.9464 115.204 47.0252C115.497 48.2708 114.695 49.1131 113.42 49.1131C110.036 49.1131 106.651 49.1131 103.267 49.1131C102.99 49.1131 102.534 49.2791 102.477 48.9885C102.435 48.7883 102.949 48.7927 103.217 48.7364C104.073 48.5651 104.842 48.0924 105.387 47.4023C105.932 46.712 106.218 45.8489 106.194 44.9657C106.163 44.1383 106.077 43.3183 105.986 42.4968C105.693 39.8397 105.4 37.181 105.151 34.5194C104.883 31.5894 104.802 28.6565 105.409 25.7517C105.925 23.311 106.534 20.9162 107.992 18.8464ZM121.406 41.7687C121.318 41.7806 121.229 41.7806 121.141 41.7687C120.937 41.7139 120.546 41.8043 120.571 41.579C120.603 41.2928 120.938 41.4737 121.141 41.5034C121.715 41.5864 122.083 41.3032 122.364 40.8376C122.628 40.4001 122.79 39.948 122.5 39.469C122.21 38.99 121.741 38.9322 121.233 38.9915C120.965 39.0226 120.72 39.0731 120.6 39.3489C120.48 39.6247 120.6 39.8411 120.812 40.0265C121.025 40.2118 120.978 40.3231 120.713 40.372C120.602 40.3907 120.489 40.3962 120.377 40.3883C120.092 40.3631 120.045 40.4565 120.165 40.716C120.234 40.88 120.27 41.0566 120.27 41.235C120.27 41.4134 120.234 41.5899 120.165 41.754C120.004 42.1974 120.013 42.6854 120.19 43.1226C120.531 44.0745 121.069 44.9672 121.11 46.0199C121.123 46.0931 121.154 46.1614 121.202 46.2182C121.249 46.2749 121.31 46.3181 121.379 46.3432C121.763 46.5211 121.883 46.7984 121.79 47.2091C121.738 47.436 121.769 47.6807 121.99 47.8156C122.241 47.9639 122.464 47.826 122.642 47.6673C123.148 47.1987 123.702 47.3397 124.264 47.5027C124.398 47.5412 124.53 47.8067 124.653 47.5932C124.748 47.4301 124.506 47.3307 124.39 47.2387C124.123 47.0444 123.903 46.791 123.747 46.498C123.59 46.2049 123.502 45.8797 123.488 45.5469C123.442 44.9182 123.4 44.2124 122.959 43.7676C122.493 43.2931 122.508 42.8572 122.625 42.2848C122.717 41.8281 122.511 41.6827 122.039 41.7406C121.831 41.786 121.617 41.7956 121.406 41.7687ZM123.208 2.202C124.19 3.22068 124.934 4.32832 125.668 5.44486C125.794 5.63614 125.949 5.90304 126.237 5.68211C126.486 5.49083 126.383 5.27286 126.225 5.05044C125.603 4.16856 124.884 3.36205 124.08 2.64684C123.85 2.44814 123.653 2.15159 123.208 2.202ZM122.385 32.3412C122.927 30.9133 122.793 29.4645 122.516 28.0159C122.477 27.8068 122.336 27.6511 122.103 27.7193C121.87 27.7875 121.872 27.9833 121.913 28.1924C122.187 29.5594 122.486 30.9266 122.385 32.3412Z" fill="#0E0D0C"/>
<path d="M129.075 65.7425C129.075 65.787 129.085 65.8315 129.091 65.876H79.4209L79.5265 65.7751H128.692C128.82 65.7766 128.947 65.7544 129.075 65.7425Z" fill="#FBFBFB"/>
<path d="M141.796 65.876C141.794 65.8498 141.797 65.8233 141.805 65.7984C141.814 65.7736 141.828 65.751 141.847 65.7324C141.865 65.7137 141.887 65.6995 141.912 65.6908C141.936 65.682 141.962 65.679 141.988 65.6817C142.028 65.8493 141.963 65.9116 141.796 65.876Z" fill="#FBFBFB"/>
<path d="M67.0004 65.7782L67.0957 65.876C67.0195 65.8952 66.9872 65.8626 67.0004 65.7782Z" fill="#FBFBFB"/>
<path d="M129.075 65.7425C128.947 65.7544 128.82 65.7766 128.692 65.7766H79.5278C79.5278 63.4042 79.5239 61.0357 79.516 58.6711C79.516 54.3216 79.516 49.972 79.516 45.6226H80.5417C79.645 43.3524 80.1168 41.0185 80.0363 38.7291C79.9966 37.6184 79.9366 36.536 79.4971 35.5054L79.5103 23.0916C79.5103 21.8252 79.5278 20.559 79.4999 19.2941C79.4912 18.8967 79.6201 18.8226 79.9834 18.8226C87.7138 18.8335 95.4446 18.8359 103.176 18.83C104.779 18.83 106.382 18.834 107.986 18.8419C106.528 20.9178 105.919 23.3066 105.412 25.7398C104.805 28.6446 104.886 31.5776 105.154 34.5076C105.399 37.1692 105.695 39.8278 105.989 42.485C106.08 43.3065 106.166 44.1265 106.197 44.9538C106.221 45.8369 105.935 46.7001 105.39 47.3903C104.845 48.0806 104.076 48.5532 103.22 48.7245C102.952 48.7809 102.438 48.7765 102.48 48.9766C102.542 49.2732 102.993 49.0996 103.27 49.1011C106.654 49.1131 110.039 49.1011 113.423 49.1011C114.698 49.1011 115.503 48.259 115.207 47.0134C114.713 44.9375 115.242 42.9891 115.793 41.0467C116.439 38.7439 117.19 36.4693 117.872 34.1754C118.222 33.0267 118.492 31.8543 118.679 30.6671C118.78 31.069 118.88 31.4723 118.985 31.8726C119.425 33.5631 119.837 35.2623 120.518 36.877C120.759 37.4137 121.119 37.8871 121.57 38.2604C120.748 38.5231 119.946 38.8441 119.17 39.2214C119.023 39.291 118.783 39.3029 118.78 39.5253C118.78 39.6973 118.998 39.684 119.105 39.7744C119.938 40.4817 120.278 41.0407 119.914 41.9378C119.73 42.3975 119.82 42.8275 119.983 43.2604C120.256 43.9856 120.653 44.6646 120.811 45.4327C120.979 46.2453 120.874 46.5508 120.168 46.9764C119.548 47.35 119.248 47.8527 119.314 48.5762C119.327 48.7157 119.314 48.8861 119.494 48.9381C119.674 48.99 119.752 48.8654 119.85 48.7498C120.305 48.2129 120.352 48.207 120.729 48.7987C120.906 49.0804 121.133 49.1175 121.42 49.1175C123.862 49.1175 126.3 49.1175 128.735 49.1175C128.847 49.1175 128.959 49.1293 129.07 49.1353C129.083 50.2859 129.022 51.4351 129.101 52.5842C128.623 52.5842 128.144 52.5842 127.667 52.602C127.567 52.602 127.416 52.5383 127.381 52.6851C127.363 52.7562 127.438 52.8601 127.489 52.9342C128.021 53.6983 128.555 54.4604 129.092 55.2207C129.046 57.2966 129.046 59.37 129.092 61.441L127.013 64.5311H129.064C129.065 64.9344 129.069 65.3382 129.075 65.7425ZM121.264 62.6183C121.264 63.2292 121.278 63.6962 121.264 64.1604C121.253 64.4348 121.34 64.5221 121.614 64.5177C122.786 64.5039 123.958 64.5039 125.13 64.5177C125.423 64.5177 125.51 64.4348 125.508 64.1352C125.5 60.4212 125.5 56.7063 125.508 52.9906C125.508 52.6702 125.418 52.5724 125.101 52.5768C123.867 52.5917 122.632 52.5976 121.398 52.5768C121.026 52.5694 120.944 52.694 120.947 53.0484C120.965 54.7358 120.959 56.4232 120.947 58.1091C120.947 58.7734 120.947 59.4436 120.711 60.0783C120.585 60.4416 120.341 60.7508 120.019 60.955C119.696 61.1593 119.315 61.2465 118.937 61.2023C118.194 61.1444 117.779 60.71 117.611 59.8484C117.56 59.5278 117.54 59.2032 117.549 58.8787C117.549 56.9169 117.542 54.9537 117.549 52.9906C117.549 52.6746 117.47 52.5738 117.151 52.5783C115.901 52.5961 114.65 52.5961 113.4 52.5783C113.076 52.5783 113.004 52.6881 113.006 52.9965C113.02 54.7165 113.006 56.4366 113.016 58.1551C113.016 59.1931 112.953 60.231 113.098 61.269C113.229 62.1971 113.501 63.0483 114.181 63.7526C115.448 65.0575 118.109 65.01 119.497 64.1975C120.146 63.8119 120.647 63.2692 121.264 62.6183ZM102.112 54.4718C102.112 53.9114 102.098 53.474 102.112 53.0394C102.128 52.7192 102.049 52.5812 101.693 52.5873C100.556 52.6094 99.4163 52.6079 98.2778 52.5873C97.9555 52.5873 97.8792 52.691 97.8807 53.0009C97.8896 56.701 97.8896 60.4006 97.8807 64.0996C97.8807 64.4569 97.9935 64.5236 98.3203 64.5177C99.5393 64.5 100.758 64.497 101.983 64.5177C102.342 64.5252 102.439 64.4302 102.436 64.0625C102.42 62.1483 102.427 60.234 102.443 58.3211C102.423 57.7503 102.562 57.1851 102.843 56.6901C103.029 56.3925 103.303 56.1611 103.625 56.0283C103.947 55.8953 104.303 55.8675 104.641 55.9487C105.306 56.0821 105.657 56.5418 105.752 57.1883C105.798 57.5253 105.819 57.8653 105.815 58.2056C105.821 60.1687 105.821 62.1319 105.815 64.0951C105.815 64.3412 105.8 64.5221 106.15 64.5162C107.448 64.4956 108.748 64.5029 110.048 64.5162C110.273 64.5162 110.352 64.451 110.351 64.2196C110.332 61.4973 110.358 58.7749 110.291 56.054C110.267 55.0635 109.961 54.1026 109.201 53.385C107.771 52.0267 105.06 51.9629 103.412 53.2367C102.959 53.5659 102.593 53.99 102.112 54.4718ZM95.7621 29.1161C94.2632 29.8976 92.8449 30.639 91.4222 31.37C91.2375 31.4649 91.2303 31.6042 91.2303 31.7703C91.2303 32.2893 91.2215 32.8083 91.2303 33.3287C91.2303 33.5793 91.1541 33.6816 90.9006 33.6653C90.6471 33.649 90.3526 33.6876 90.0845 33.6565C89.6757 33.6104 89.4984 33.7291 89.5395 34.1814C89.5805 34.7462 89.5497 35.3157 89.5497 35.8836C89.5497 37.0342 89.5497 37.0594 90.6955 37.0239C91.1599 37.009 91.239 37.1721 91.2362 37.5962C91.2273 39.2346 91.2083 40.8746 91.28 42.5102C91.365 44.4511 92.2003 45.4861 93.8398 45.7516C95.2947 45.9873 96.7438 45.8227 98.1825 45.5366C98.4301 45.4876 98.3965 45.3437 98.3804 45.1866C98.291 44.3325 98.1884 43.4799 98.1093 42.6243C98.0873 42.3871 97.9848 42.3575 97.8001 42.4108C97.511 42.5057 97.213 42.5698 96.9108 42.6021C96.08 42.6569 95.7914 42.4168 95.7782 41.5642C95.7576 40.1703 95.7695 38.775 95.7518 37.3798C95.7518 37.0994 95.8383 37.0194 96.1079 37.0268C96.7013 37.0461 97.2947 37.0194 97.8881 37.0386C98.1576 37.0386 98.2543 36.9616 98.2499 36.6858C98.2373 35.7961 98.2373 34.9065 98.2499 34.0167C98.2499 33.7379 98.1547 33.6504 97.8851 33.6594C97.3255 33.6757 96.7628 33.6401 96.2031 33.6727C95.8354 33.6935 95.7474 33.5675 95.7518 33.2086C95.7753 31.8816 95.7621 30.5515 95.7621 29.1191V29.1161ZM87.4105 37.3812C87.4105 34.7864 87.4017 32.1915 87.4193 29.5981C87.4193 29.2066 87.308 29.1146 86.9388 29.122C85.7226 29.1458 84.505 29.1399 83.2875 29.122C82.9945 29.122 82.8772 29.1843 82.8772 29.5179C82.887 34.7571 82.887 39.9964 82.8772 45.2356C82.8772 45.5395 82.9651 45.6166 83.2567 45.6136C84.4757 45.5974 85.6933 45.5899 86.9109 45.6136C87.3035 45.6226 87.4222 45.5276 87.4193 45.1154C87.4017 42.5399 87.412 39.9627 87.412 37.3842L87.4105 37.3812ZM82.8875 56.2734C82.8875 58.8861 82.8875 61.4973 82.8875 64.1085C82.8875 64.4184 82.9564 64.5221 83.2801 64.5177C84.5305 64.497 85.7807 64.497 87.031 64.5177C87.352 64.5177 87.4266 64.4243 87.4266 64.1115C87.4168 58.8891 87.4168 53.6662 87.4266 48.4428C87.4266 48.0766 87.2948 48.0291 86.9871 48.032C85.7695 48.0484 84.5505 48.0558 83.3329 48.032C82.9637 48.0246 82.8933 48.1374 82.8933 48.4933C82.8948 51.0836 82.8875 53.6815 82.8875 56.2734ZM90.4904 58.5199C90.4904 60.3837 90.4976 62.2476 90.4904 64.1115C90.4904 64.4273 90.5709 64.5207 90.8874 64.5162C92.1367 64.4985 93.3865 64.4985 94.6368 64.5162C94.9563 64.5162 95.0324 64.4228 95.0324 64.11C95.0216 60.4149 95.0216 56.7187 95.0324 53.0217C95.0324 52.6895 94.9548 52.5768 94.612 52.5842C93.3782 52.607 92.1446 52.607 90.9108 52.5842C90.5635 52.5842 90.4874 52.6925 90.4904 53.0291C90.4976 54.8589 90.4904 56.6901 90.4904 58.5228V58.5199ZM92.7057 51.1549C93.3474 51.1549 93.9878 51.1444 94.6295 51.1549C94.8976 51.1623 95.0354 51.1223 95.0265 50.7931C95.0016 49.9834 95.009 49.1724 95.0265 48.3612C95.0265 48.1121 94.9621 48.0246 94.7042 48.0276C93.406 48.0395 92.1079 48.0395 90.8098 48.0276C90.5533 48.0276 90.4845 48.1092 90.4889 48.3612C90.5021 49.1709 90.5093 49.9834 90.4889 50.7931C90.4787 51.1208 90.6149 51.1623 90.8845 51.1549C91.4881 51.1474 92.0962 51.1578 92.7057 51.1578V51.1549Z" fill="#AEAEAE"/>
<path d="M123.832 8.79749C123.747 8.69658 123.621 8.71738 123.513 8.68624C123.809 8.38556 124.151 8.13522 124.527 7.94488C125.005 8.16703 125.457 8.44306 125.875 8.76783C126.079 8.92374 126.296 9.06169 126.524 9.17999C127.291 9.58033 127.92 9.3876 128.354 8.63135C128.459 8.45044 128.549 8.25919 128.664 8.08567C129.045 7.51033 129.634 7.44658 130.13 7.93737C130.685 8.49647 130.862 9.21703 130.877 9.97476C130.886 10.4493 130.562 10.7458 130.144 10.8896C129.649 11.0602 129.145 11.0379 128.761 10.6435C128.434 10.2871 128.022 10.0221 127.564 9.87397C126.818 9.63965 126.538 9.82351 126.511 10.5991C126.49 11.2944 126.488 11.9899 126.478 12.6853C126.324 12.11 126.185 11.5332 126.012 10.9608C125.675 9.8384 124.96 9.10294 123.832 8.79749Z" fill="#0E0D0C"/>
<path d="M123.832 8.79749C124.96 9.10294 125.675 9.83544 126.002 10.9624C126.169 11.5346 126.314 12.1115 126.468 12.6868C126.453 13.9175 126.648 15.1645 126.363 16.3731C126.115 17.4243 126.141 18.449 126.282 19.5032C126.288 19.682 126.333 19.8573 126.414 20.0162C126.974 20.8228 126.811 21.6725 126.6 22.537C126.225 24.0583 125.798 25.5708 125.494 27.1069C124.908 30.0518 125.072 32.9402 126.36 35.6998C126.655 36.332 127.077 36.8958 127.598 37.356C128.08 37.7875 128.623 37.6125 128.751 36.9631C128.859 36.4543 128.89 35.9316 128.84 35.4135C128.465 32.1988 129.265 29.2154 130.585 26.3359C130.702 26.1061 130.834 25.8851 130.982 25.6745C131.06 25.5559 131.151 25.3899 131.319 25.4921C131.488 25.5945 131.36 25.7473 131.3 25.8703C130.586 27.3389 130.026 28.8795 129.631 30.4669C129.239 32.0787 128.969 33.7009 129.266 35.3706C129.432 36.2645 129.831 37.0975 130.421 37.7831C130.556 37.9628 130.702 38.1328 130.861 38.2916C131.927 39.2525 132.144 40.5158 132.278 41.8829C132.551 44.7002 131.206 46.6486 129.126 48.2367C128.518 48.6991 127.773 48.9386 127.013 48.9158C126.484 48.9069 125.952 48.8861 125.426 48.9233C125.015 48.9513 124.974 48.8091 125.086 48.4591C125.278 47.914 125.358 47.3352 125.321 46.7579C125.285 46.1807 125.133 45.6168 124.875 45.1006C124.746 44.8231 124.593 44.5576 124.418 44.3073C123.728 43.3761 123.45 42.3188 123.413 41.1727C123.401 40.7837 123.358 40.3966 123.284 40.0146C123.138 39.291 122.845 38.6519 122.15 38.302C121.135 37.786 120.675 36.8608 120.336 35.8435C119.68 33.8806 119.158 31.874 118.774 29.8383C118.744 29.6707 118.695 29.5046 118.628 29.2169C118.465 30.2549 118.335 31.1624 118.172 32.0699C117.847 33.8389 117.274 35.5395 116.714 37.2433C115.961 39.5312 115.265 41.84 114.858 44.2124C114.727 45.0959 114.763 45.9966 114.963 46.8666C115.207 48.0766 114.531 48.8995 113.318 48.901H108.791C110.187 48.0573 109.8 46.8829 109.574 45.8316C109.078 43.5081 108.392 41.235 107.67 38.9693C107.369 38.0132 107.199 37.0199 107.164 36.017C107.13 35.0933 107.097 34.1694 107.15 33.2442C107.158 33.0959 107.103 32.9135 107.271 32.7994C107.481 32.8928 107.438 33.0856 107.443 33.2531C107.472 34.3217 107.499 35.3912 107.523 36.4619C107.549 36.931 107.634 37.3949 107.775 37.8424C107.901 38.3035 108.166 38.2871 108.508 38.1388C108.903 37.9565 109.084 37.5754 109.24 37.2151C110 35.5178 110.519 33.7209 110.783 31.877C110.93 30.8925 110.862 29.9079 110.84 28.9115C110.793 26.8223 110.793 24.7345 111.73 22.7742C112.777 20.5827 114.31 19.7716 116.689 19.7226C116.802 19.7775 116.912 19.8383 117.029 19.8843C118.319 20.3854 119.105 21.4663 119.117 22.841C119.122 23.5991 119.054 24.3559 118.914 25.1008C118.89 25.2312 118.845 25.421 119.04 25.4685C119.258 25.5218 119.233 25.332 119.271 25.1971C119.337 24.9702 119.375 24.6826 119.737 24.8368C120.379 26.6161 121.267 28.2902 121.894 30.0769C122.204 30.9592 122.333 31.8296 122.04 32.7341C121.996 32.8824 121.933 33.0307 122.106 33.1137C122.279 33.1968 122.423 33.0559 122.491 32.915C122.63 32.6574 122.742 32.3854 122.824 32.104C123.242 30.424 123.703 28.7736 124.494 27.2108C125.129 25.9608 124.934 24.6262 124.448 23.3436C124.257 22.8469 124.008 22.3709 123.85 21.8608C123.466 20.5545 122.625 19.6752 121.486 19.002C120.685 18.5304 119.946 17.9552 119.168 17.4436C118.956 17.3042 118.95 17.187 119.051 16.972C119.998 14.9569 121.032 12.9863 121.933 10.9475C122.326 10.0519 123.094 9.42464 123.832 8.79749Z" fill="#FBFBFB"/>
<path d="M121.405 41.7687C121.619 41.794 121.836 41.7819 122.046 41.7332C122.516 41.6753 122.723 41.8207 122.632 42.2774C122.515 42.8483 122.5 43.2842 122.966 43.7601C123.405 44.205 123.449 44.9123 123.495 45.5395C123.509 45.8716 123.598 46.1961 123.754 46.4887C123.91 46.7812 124.129 47.0341 124.396 47.2284C124.516 47.3203 124.753 47.4197 124.658 47.5828C124.535 47.7964 124.403 47.5309 124.27 47.4924C123.707 47.3292 123.153 47.1884 122.648 47.6569C122.469 47.8231 122.246 47.9668 121.996 47.8052C121.775 47.6703 121.744 47.4256 121.795 47.1987C121.889 46.7881 121.769 46.5108 121.385 46.3328C121.316 46.3076 121.255 46.2645 121.207 46.2077C121.16 46.151 121.128 46.0826 121.115 46.0095C121.071 44.9568 120.537 44.0641 120.195 43.1122C120.019 42.675 120.01 42.187 120.17 41.7435C120.24 41.5795 120.275 41.403 120.275 41.2245C120.275 41.0462 120.24 40.8697 120.17 40.7056C120.05 40.4461 120.097 40.3527 120.383 40.378C120.495 40.3858 120.607 40.3803 120.718 40.3616C120.983 40.3186 121.02 40.1881 120.818 40.0161C120.616 39.8441 120.481 39.6232 120.605 39.3385C120.73 39.0537 120.97 39.0123 121.238 38.9811C121.747 38.9218 122.217 38.9811 122.506 39.4586C122.794 39.936 122.633 40.3898 122.37 40.8272C122.088 41.2928 121.72 41.576 121.146 41.4929C120.944 41.4633 120.608 41.2824 120.576 41.5686C120.551 41.794 120.942 41.7035 121.146 41.7584C121.232 41.7731 121.319 41.7766 121.405 41.7687ZM122.008 39.7892C121.826 39.3533 121.568 39.3577 121.294 39.4141C121.228 39.4275 121.13 39.5031 121.127 39.555C121.12 39.7033 121.246 39.6691 121.334 39.6602C121.565 39.6559 121.794 39.6998 122.008 39.7892Z" fill="#FBFBFB"/>
<path d="M119.747 24.8383C119.385 24.69 119.347 24.9717 119.281 25.1986C119.243 25.3335 119.268 25.5233 119.05 25.47C118.855 25.4225 118.903 25.2327 118.924 25.1023C119.064 24.3574 119.132 23.6006 119.127 22.8425C119.116 21.468 118.329 20.3869 117.04 19.8858C116.922 19.8398 116.812 19.779 116.7 19.7241C117.897 19.7375 118.698 20.4803 119.469 21.2707C119.624 21.4308 119.733 21.6369 119.875 21.8119C119.904 21.8622 119.948 21.9022 120 21.9266C120.053 21.9509 120.111 21.9585 120.168 21.9483C120.295 21.9083 120.314 21.7823 120.306 21.6666C120.275 21.1758 120.396 20.7309 120.875 20.5441C121.394 20.3425 121.886 20.5041 122.304 20.8674C122.975 21.4486 123.369 22.1485 123.236 23.0841C123.111 23.9575 122.519 24.3164 121.719 23.9739C121.543 23.8949 121.379 23.791 121.232 23.6653C121.076 23.5217 120.877 23.4348 120.666 23.4188C120.456 23.4026 120.247 23.4581 120.071 23.5765C119.702 23.8003 119.618 24.1799 119.747 24.5995C119.758 24.6788 119.758 24.7591 119.747 24.8383Z" fill="#0E0D0C"/>
<path d="M123.208 2.202C123.648 2.14862 123.856 2.44962 124.08 2.64684C124.884 3.36205 125.603 4.16856 126.225 5.05044C126.383 5.27286 126.486 5.49528 126.237 5.68211C125.944 5.90304 125.797 5.63614 125.668 5.44486C124.934 4.32833 124.19 3.22068 123.208 2.202Z" fill="#0E0D0C"/>
<path d="M122.384 32.3413C122.481 30.9266 122.182 29.5594 121.912 28.1894C121.871 27.9803 121.861 27.7831 122.103 27.7164C122.345 27.6497 122.476 27.8068 122.516 28.013C122.797 29.4645 122.931 30.9177 122.384 32.3413Z" fill="#0E0D0C"/>
<path fill-rule="evenodd" clip-rule="evenodd" d="M95.7641 30.2868V30.2852C95.7631 29.903 95.7621 29.5149 95.7621 29.1191L95.184 29.4206L95.1823 29.4215C93.8949 30.0928 92.6605 30.7366 91.4237 31.3715C91.2318 31.4664 91.2318 31.6057 91.2318 31.7718C91.2318 31.9452 91.2303 32.1185 91.2288 32.2917C91.226 32.6381 91.223 32.9843 91.2318 33.3302C91.2392 33.5808 91.1731 33.6831 90.9021 33.6668C90.7828 33.6597 90.6622 33.6631 90.5418 33.6666C90.3889 33.6709 90.236 33.6753 90.086 33.658C89.6772 33.6119 89.5072 33.7306 89.541 34.1828C89.5697 34.5783 89.5632 34.9758 89.5568 35.3735C89.554 35.544 89.5512 35.7147 89.5512 35.8851C89.5512 37.0357 89.5512 37.0609 90.697 37.0253C91.1614 37.0045 91.2377 37.1751 91.2377 37.5977L91.2347 38.0953C91.226 39.5689 91.2171 41.0457 91.2817 42.5117C91.3665 44.4526 92.2018 45.4876 93.8413 45.7531C95.2962 45.9828 96.7453 45.8242 98.1841 45.5381C98.4151 45.4883 98.4013 45.3636 98.3853 45.2194L98.3819 45.1881C98.3497 44.8809 98.3159 44.574 98.2821 44.267C98.2218 43.7203 98.1615 43.1738 98.1109 42.6258C98.0947 42.3886 97.9863 42.359 97.8016 42.4123C97.5126 42.5072 97.2145 42.5713 96.9123 42.6036C96.0815 42.654 95.7929 42.4138 95.7797 41.5657C95.7651 40.7913 95.764 40.0165 95.7629 39.2415C95.762 38.6215 95.7612 38.0014 95.7534 37.3813C95.7504 37.1009 95.8398 37.0209 96.1094 37.0283C96.3745 37.0336 96.6397 37.0327 96.9048 37.0318C97.2331 37.0307 97.5613 37.0295 97.8896 37.0401C98.1592 37.0476 98.2515 36.9631 98.2515 36.6873C98.2398 35.7976 98.2398 34.908 98.2515 34.0182C98.2559 33.7394 98.1563 33.6519 97.8866 33.6609C97.6554 33.6664 97.4237 33.6641 97.192 33.6617C96.8628 33.6584 96.533 33.6551 96.2046 33.6742C95.8369 33.695 95.7534 33.569 95.7534 33.2101C95.7693 32.2492 95.7668 31.2875 95.7641 30.2868ZM79.5161 45.627C79.203 45.627 78.8898 45.6222 78.5768 45.6173C78.0108 45.6084 77.4448 45.5996 76.8788 45.6196C76.4788 45.6344 76.2927 45.4935 76.1345 45.1377C76.0701 44.9897 76.0371 44.8323 76.0044 44.6761C75.9716 44.5194 75.939 44.3639 75.8751 44.2199C75.7796 44.1889 75.7295 44.2432 75.6853 44.2909C75.6786 44.2981 75.6721 44.3052 75.6656 44.3118C74.3645 45.5884 72.7557 45.9058 71.0224 45.8465C70.1316 45.8168 69.2715 45.6685 68.5096 45.1689C67.8764 44.7765 67.4032 44.1673 67.1763 43.4517C67.1704 43.4323 67.1659 43.4111 67.1612 43.3894C67.1428 43.3035 67.1227 43.2097 67.0093 43.1849V41.6265C67.0201 41.6174 67.0333 41.609 67.0466 41.6005C67.0747 41.5826 67.1029 41.5646 67.1089 41.5405C67.4767 40.0458 68.6122 39.4557 69.9309 39.0924C70.5843 38.9132 71.248 38.7759 71.9115 38.6386C72.9558 38.4225 73.9999 38.2065 75.0033 37.8275C75.0592 37.8061 75.1257 37.7963 75.1935 37.786C75.38 37.7581 75.5765 37.7286 75.5894 37.4568C75.607 37.0372 75.5176 36.6368 75.1499 36.3833C74.2224 35.7427 72.3235 36.2276 71.8356 37.2403C71.8006 37.3448 71.7277 37.4318 71.6317 37.4839C71.5356 37.5359 71.4236 37.549 71.3184 37.5206C70.1277 37.3842 68.9326 37.2591 67.7331 37.1455C67.4474 37.1188 67.3756 37.0743 67.4488 36.7392C67.8708 34.8115 69.3257 33.8389 71.4048 33.5616C73.109 33.3457 74.8343 33.3661 76.533 33.6224C77.8018 33.8048 78.8363 34.3638 79.5029 35.5143C79.9424 36.5449 80.0026 37.6274 80.0421 38.738C80.0653 39.3958 80.0428 40.0573 80.0203 40.7199C79.9646 42.3633 79.9086 44.0136 80.5476 45.6315L79.5161 45.627ZM72.9535 43.305C73.3505 43.3263 73.747 43.2549 74.1125 43.0965C74.4779 42.9381 74.8025 42.6968 75.0612 42.3914C75.3199 42.0859 75.5057 41.7243 75.6044 41.3346C75.7031 40.9449 75.712 40.5374 75.6304 40.1436C75.5932 39.9483 75.5172 39.9733 75.4036 40.0106C75.3922 40.0143 75.3804 40.0183 75.3682 40.022C75.1249 40.0961 74.8803 40.1703 74.6356 40.2444C74.3909 40.3186 74.1462 40.3927 73.903 40.4669C73.7682 40.5091 73.6324 40.5486 73.4966 40.5882C73.0651 40.7138 72.6334 40.8394 72.2356 41.0526C71.4517 41.4723 71.3023 42.4449 71.9206 42.9921C72.2195 43.2531 72.5829 43.2886 72.9535 43.305ZM129.058 64.5282H127.007L129.086 61.438C129.764 60.4593 130.443 59.4813 131.124 58.5035C131.224 58.3552 131.278 58.25 131.151 58.0765C130.659 57.4066 130.174 56.7315 129.689 56.0564L129.688 56.0555L129.688 56.0544L129.687 56.0535L129.686 56.0526L129.686 56.0516L129.685 56.0507L129.684 56.0498C129.485 55.7723 129.286 55.4948 129.086 55.2177C128.551 54.4556 128.017 53.6934 127.483 52.9313L127.477 52.9223C127.426 52.8489 127.358 52.7505 127.375 52.6822C127.402 52.5698 127.494 52.5817 127.581 52.5927C127.609 52.5964 127.636 52.5998 127.661 52.5991C128.032 52.5899 128.404 52.5869 128.776 52.584L129.095 52.5813C129.443 52.5813 129.791 52.5827 130.138 52.5842C130.833 52.5873 131.529 52.5902 132.223 52.5813C132.34 52.5692 132.457 52.5952 132.558 52.6556C132.659 52.7159 132.738 52.8073 132.784 52.9164C133.167 53.6252 133.561 54.3271 133.969 55.0533C134.125 55.3313 134.283 55.6128 134.443 55.8998C134.709 55.5002 134.965 55.1144 135.219 54.7326L135.625 54.1205C135.729 53.9661 135.82 53.7927 135.911 53.6194C136.119 53.223 136.327 52.8266 136.683 52.6584C137.044 52.4878 137.475 52.5225 137.906 52.5572C138.086 52.5716 138.266 52.5861 138.441 52.5857H141.473C141.518 52.7397 141.442 52.8284 141.371 52.9117C141.352 52.9335 141.333 52.955 141.318 52.9772L140.893 53.5828C139.876 55.0332 138.858 56.4839 137.823 57.9208C137.624 58.1981 137.643 58.3657 137.823 58.6325C138.614 59.7619 139.399 60.8959 140.184 62.0296L140.185 62.0315L140.187 62.0334L140.188 62.0353C140.669 62.7303 141.15 63.4252 141.633 64.1189C141.678 64.1839 141.721 64.25 141.775 64.3334C141.808 64.3832 141.844 64.439 141.888 64.5044H140.26C139.977 64.5044 139.695 64.5038 139.413 64.503H139.411C138.604 64.501 137.795 64.499 136.988 64.5133C136.872 64.525 136.754 64.4989 136.654 64.4385C136.553 64.3783 136.474 64.2871 136.428 64.1782C135.954 63.3215 135.473 62.469 134.979 61.5951L134.978 61.5932C134.806 61.288 134.632 60.98 134.456 60.6684C134.25 60.9758 134.046 61.2797 133.843 61.5814C133.257 62.4511 132.685 63.3021 132.126 64.1619C132.063 64.2799 131.967 64.3761 131.849 64.4388C131.732 64.5013 131.599 64.5273 131.467 64.5133C130.913 64.5051 130.359 64.5124 129.807 64.5197H129.806C129.557 64.523 129.307 64.5263 129.058 64.5282ZM121.224 62.6603L121.264 62.6183C121.264 62.8902 121.267 63.1336 121.269 63.3605C121.273 63.6432 121.276 63.9002 121.273 64.1544C121.262 64.4288 121.349 64.5118 121.623 64.5118C122.795 64.495 123.967 64.495 125.139 64.5118C125.435 64.5163 125.517 64.4258 125.517 64.1292C125.505 60.4153 125.505 56.7005 125.517 52.9847C125.517 52.6643 125.426 52.5709 125.11 52.5709C123.876 52.5886 122.641 52.5947 121.407 52.5709C121.035 52.5635 120.956 52.6881 120.956 53.0424C120.964 54.1675 120.961 55.2925 120.959 56.4172C120.957 56.9793 120.956 57.5414 120.956 58.1032C120.955 58.7674 120.953 59.4348 120.72 60.0724C120.594 60.4357 120.35 60.7448 120.028 60.9491C119.705 61.1533 119.324 61.2406 118.946 61.1963C118.206 61.1384 117.788 60.704 117.62 59.8425C117.569 59.5219 117.549 59.1973 117.558 58.8727C117.558 58.2196 117.557 57.5661 117.555 56.9126V56.9113C117.552 55.6027 117.549 54.2935 117.558 52.9847C117.561 52.6688 117.479 52.5724 117.16 52.5724C115.909 52.5892 114.659 52.5892 113.409 52.5724C113.085 52.568 113.015 52.6822 113.015 52.9906C113.02 53.8506 113.02 54.7106 113.02 55.5705C113.02 56.4302 113.02 57.2899 113.025 58.1492C113.026 58.4126 113.022 58.676 113.019 58.9394C113.008 59.714 112.998 60.4885 113.107 61.2631C113.237 62.1913 113.51 63.0468 114.19 63.7467C115.457 65.0546 118.118 65.0071 119.506 64.1915C120.132 63.8128 120.625 63.2923 121.224 62.6603ZM102.478 54.0966C102.795 53.7683 103.079 53.4742 103.404 53.2248C105.053 51.9541 107.763 52.0178 109.193 53.3731C109.954 54.0952 110.26 55.056 110.283 56.0422C110.329 57.875 110.332 59.7085 110.335 61.5424C110.336 62.4306 110.337 63.3196 110.344 64.2078C110.344 64.4436 110.266 64.5044 110.04 64.5044C108.741 64.4955 107.441 64.4881 106.143 64.5044C105.804 64.5044 105.805 64.3407 105.807 64.1073L105.807 64.0833V58.1936C105.811 57.8535 105.79 57.5135 105.744 57.1765C105.649 56.5225 105.305 56.0703 104.634 55.9368C104.295 55.8557 103.94 55.8835 103.618 56.0164C103.295 56.1493 103.022 56.3807 102.836 56.6783C102.554 57.1732 102.416 57.7384 102.436 58.3093C102.42 60.2222 102.413 62.1364 102.429 64.0507C102.429 64.4184 102.335 64.5133 101.976 64.5059C100.757 64.4836 99.5378 64.4866 98.3129 64.5059C97.9906 64.5059 97.8734 64.4451 97.8734 64.0877C97.887 60.3877 97.887 56.6881 97.8734 52.9891C97.8734 52.6792 97.9481 52.5694 98.2704 52.5753C99.4089 52.5947 100.549 52.5961 101.686 52.5753C102.042 52.5753 102.125 52.7073 102.105 53.0276C102.101 53.2853 102.104 53.5401 102.107 53.8174C102.109 54.0201 102.112 54.2352 102.112 54.4718C102.241 54.3427 102.362 54.2171 102.478 54.0966ZM87.4119 37.3842C87.4119 38.0283 87.4113 38.6725 87.4106 39.3168C87.4087 41.25 87.4068 43.1846 87.4222 45.1184C87.4222 45.5306 87.3064 45.6256 86.9138 45.6166C85.6962 45.5899 84.4786 45.5974 83.2596 45.6166C82.9665 45.6166 82.8786 45.5425 82.8801 45.2385C82.8889 39.9993 82.8889 34.7601 82.8801 29.5209C82.8801 29.1873 82.9914 29.122 83.2904 29.125C84.5079 29.1399 85.7255 29.1458 86.9416 29.125C87.3109 29.125 87.4251 29.2095 87.4222 29.601C87.4077 31.5719 87.4093 33.5439 87.411 35.5159C87.4114 36.1386 87.4119 36.7615 87.4119 37.3842ZM82.8802 48.4888C82.8874 51.0836 82.8874 53.6785 82.8874 56.2734C82.8874 56.7718 82.8877 57.27 82.8879 57.7681C82.8888 59.8839 82.8897 61.9964 82.8743 64.1041C82.8728 64.414 82.9431 64.5133 83.267 64.5133C84.5172 64.4955 85.7676 64.4955 87.0178 64.5133C87.3387 64.5192 87.4135 64.4199 87.4135 64.1071C87.4007 58.8836 87.4007 53.6608 87.4135 48.4384C87.4135 48.0722 87.286 48.0276 86.9739 48.0276C85.7563 48.0469 84.5372 48.0543 83.3197 48.0276C82.9548 48.0202 82.8802 48.133 82.8802 48.4888ZM90.492 56.695V56.6903C90.4936 55.4691 90.4953 54.2478 90.4904 53.0261C90.4904 52.6955 90.5636 52.5813 90.9109 52.5813C92.1436 52.604 93.3772 52.604 94.6119 52.5813C94.9548 52.5813 95.0339 52.6866 95.0324 53.0188C95.0207 56.7158 95.0207 60.4119 95.0324 64.1071C95.0324 64.4199 94.9562 64.5192 94.6369 64.5133C93.3865 64.4955 92.1368 64.4955 90.8874 64.5133C90.571 64.5133 90.4889 64.4243 90.4904 64.1085C90.4953 62.8703 90.4936 61.6296 90.492 60.3878V60.3828C90.4912 59.763 90.4904 59.143 90.4904 58.5228C90.4904 57.9134 90.4912 57.3042 90.492 56.695ZM92.0962 51.1555C92.2993 51.1567 92.5023 51.1578 92.7055 51.1578C92.9197 51.1578 93.1337 51.1567 93.3474 51.1555C93.7741 51.1532 94.1998 51.1509 94.6235 51.1578C94.8915 51.1652 95.0293 51.1252 95.0205 50.796C94.9986 49.9864 95.0059 49.1753 95.0205 48.3642C95.0235 48.1151 94.9561 48.0306 94.6981 48.0306C93.4001 48.0425 92.1019 48.0425 90.8037 48.0306C90.5473 48.0276 90.4828 48.1122 90.4828 48.3642C90.4989 49.1739 90.5063 49.9864 90.4828 50.796C90.4726 51.1238 90.6088 51.1652 90.8785 51.1578C91.2847 51.1509 91.6904 51.1532 92.0962 51.1555Z" fill="#0E0D0C"/>
<path d="M129.086 55.2177C129.774 56.1711 130.455 57.129 131.151 58.0765C131.278 58.25 131.224 58.3613 131.124 58.5035C130.441 59.4792 129.761 60.4574 129.086 61.438C129.042 59.3651 129.042 57.2916 129.086 55.2177Z" fill="#FBFBFB"/>
<path d="M122.008 39.7892C121.794 39.6998 121.565 39.6559 121.334 39.6602C121.246 39.6692 121.12 39.6973 121.127 39.555C121.127 39.5031 121.228 39.4275 121.294 39.4141C121.565 39.3577 121.826 39.3533 122.008 39.7892Z" fill="#0E0D0C"/>
</g>
</svg>
