<svg width="208" height="66" viewBox="0 0 208 66" fill="none" xmlns="http://www.w3.org/2000/svg">
<g clip-path="url(#clip0_12_539)">
<mask id="mask0_12_539" style="mask-type:luminance" maskUnits="userSpaceOnUse" x="0" y="22" width="184" height="21">
<path d="M184 22.7099H0V42.8064H184V22.7099Z" fill="white"/>
</mask>
<g mask="url(#mask0_12_539)">
<path d="M179.235 41.1449H183.356C183.423 41.1449 183.478 41.0897 183.478 41.0234V39.9955C183.478 39.9292 183.423 39.8739 183.356 39.8739H182.384C182.318 39.8739 182.262 39.8187 182.262 39.7523V37.2655C182.262 36.5968 181.721 36.0553 181.052 36.0553H179.842C179.174 36.0553 178.632 36.5968 178.632 37.2655V40.5371C178.632 40.8742 178.903 41.1449 179.24 41.1449H179.235ZM181.052 37.4479V39.7523C181.052 39.8187 180.997 39.8739 180.931 39.8739H179.959C179.892 39.8739 179.837 39.8187 179.837 39.7523V37.4479C179.837 37.3816 179.892 37.3263 179.959 37.3263H180.931C180.997 37.3263 181.052 37.3816 181.052 37.4479ZM179.235 35.0992H183.356C183.423 35.0992 183.478 35.044 183.478 34.9776V33.9498C183.478 33.8834 183.423 33.8282 183.356 33.8282H182.384C182.318 33.8282 182.262 33.7729 182.262 33.7066V31.8885C182.262 31.5514 182.533 31.2806 182.87 31.2806H183.356C183.423 31.2806 183.478 31.2253 183.478 31.159V30.1311C183.478 30.0648 183.423 30.0095 183.356 30.0095H182.268C181.931 30.0095 181.66 30.2803 181.66 30.6174C181.66 30.2803 181.39 30.0095 181.052 30.0095H179.842C179.174 30.0095 178.632 30.5511 178.632 31.2198V34.4913C178.632 34.8284 178.903 35.0992 179.24 35.0992H179.235ZM181.052 31.4022V33.7066C181.052 33.7729 180.997 33.8282 180.931 33.8282H179.959C179.892 33.8282 179.837 33.7729 179.837 33.7066V31.4022C179.837 31.3358 179.892 31.2806 179.959 31.2806H180.931C180.997 31.2806 181.052 31.3358 181.052 31.4022ZM178.627 25.1741V27.8433C178.627 28.5119 179.169 29.0535 179.837 29.0535H182.262C182.931 29.0535 183.472 28.5119 183.472 27.8433V25.1741C183.472 24.5054 182.931 23.9638 182.262 23.9638H179.837C179.169 23.9638 178.627 24.5054 178.627 25.1741ZM181.655 25.2348C181.992 25.2348 182.262 25.5056 182.262 25.8427V27.1746C182.262 27.5117 181.992 27.7824 181.655 27.7824H180.445C180.108 27.7824 179.837 27.5117 179.837 27.1746V25.8427C179.837 25.5056 180.108 25.2348 180.445 25.2348H181.655Z" fill="#0E0D0C"/>
<path d="M31.3243 27.3957H23.7661C21.8655 27.3957 20.3296 28.932 20.3296 30.833V37.7077C20.3296 39.6087 21.8655 41.1451 23.7661 41.1451H31.3243C33.2249 41.1451 34.7608 39.6087 34.7608 37.7077V30.833C34.7608 28.932 33.2249 27.3957 31.3243 27.3957ZM31.1531 35.989C31.1531 36.9396 30.385 37.7077 29.4347 37.7077H25.6557C24.7054 37.7077 23.9374 36.9396 23.9374 35.989V32.5517C23.9374 31.6012 24.7054 30.833 25.6557 30.833H29.4347C30.385 30.833 31.1531 31.6012 31.1531 32.5517V35.989ZM113.053 27.7383V40.8024C113.053 40.9903 112.898 41.1451 112.71 41.1451H109.788C109.6 41.1451 109.445 40.9903 109.445 40.8024V27.7383C109.445 27.5505 109.6 27.3957 109.788 27.3957H112.71C112.898 27.3957 113.053 27.5505 113.053 27.7383ZM113.053 24.301V25.3344C113.053 25.5223 112.898 25.677 112.71 25.677H109.788C109.6 25.677 109.445 25.5223 109.445 25.3344V24.301C109.445 24.1131 109.6 23.9584 109.788 23.9584H112.71C112.898 23.9584 113.053 24.1131 113.053 24.301ZM87.8478 27.3957H90.7704C90.9583 27.3957 91.1131 27.5505 91.1131 27.7383V37.7077C91.1131 39.6087 89.5771 41.1451 87.6766 41.1451H80.1182C78.2177 41.1451 76.6818 39.6087 76.6818 37.7077V27.7439C76.6818 27.556 76.8365 27.4012 77.0244 27.4012H79.947C80.1349 27.4012 80.2895 27.556 80.2895 27.7439V35.9946C80.2895 36.9451 81.0576 37.7132 82.0078 37.7132H85.787C86.7373 37.7132 87.5051 36.9451 87.5051 35.9946V27.7439C87.5051 27.556 87.6599 27.4012 87.8478 27.4012V27.3957ZM120.327 37.7077H129.089C129.277 37.7077 129.432 37.553 129.432 37.3651V34.613C129.432 34.4251 129.277 34.2704 129.089 34.2704L126.498 34.2593C126.061 34.2593 125.642 34.088 125.321 33.7896L122.835 31.4299C122.608 31.2144 122.763 30.8386 123.072 30.8386H129.598C131.498 30.8386 133.034 32.3749 133.034 34.2759V37.7132C133.034 39.6143 131.498 41.1506 129.598 41.1506H118.431C116.531 41.1506 114.995 39.6143 114.995 37.7132V27.4012C114.995 25.5002 116.531 23.9639 118.431 23.9639H132.691C132.879 23.9639 133.034 24.1186 133.034 24.3065V27.0586C133.034 27.2465 132.879 27.4012 132.691 27.4012H120.321C119.371 27.4012 118.603 28.1694 118.603 29.1199V35.9946C118.603 36.9451 119.371 37.7132 120.321 37.7132L120.327 37.7077ZM158.239 30.8275H155.316C155.128 30.8275 154.974 30.9822 154.974 31.1701V35.9835C154.974 36.934 155.742 37.7022 156.692 37.7022H158.239C158.427 37.7022 158.582 37.8569 158.582 38.0448V40.7969C158.582 40.9848 158.427 41.1395 158.239 41.1395H154.802C152.902 41.1395 151.366 39.6032 151.366 37.7022V24.301C151.366 24.1131 151.521 23.9584 151.709 23.9584H154.631C154.819 23.9584 154.974 24.1131 154.974 24.301V27.0531C154.974 27.241 155.128 27.3957 155.316 27.3957H158.239C158.427 27.3957 158.582 27.5505 158.582 27.7383V30.4904C158.582 30.6783 158.427 30.833 158.239 30.833V30.8275ZM96.4971 27.3957H104.055C105.956 27.3957 107.492 28.932 107.492 30.833V40.8024C107.492 40.9903 107.337 41.1451 107.149 41.1451H104.227C104.039 41.1451 103.884 40.9903 103.884 40.8024V32.5517C103.884 31.6012 103.116 30.833 102.166 30.833H98.3867C97.4364 30.833 96.6683 31.6012 96.6683 32.5517V40.8024C96.6683 40.9903 96.5138 41.1451 96.3259 41.1451H93.4033C93.2154 41.1451 93.0606 40.9903 93.0606 40.8024V30.8386C93.0606 28.9375 94.5966 27.4012 96.4971 27.4012V27.3957ZM18.0339 27.3957H5.66347C4.71319 27.3957 3.94522 28.1639 3.94522 29.1144V35.989C3.94522 36.9396 4.71319 37.7077 5.66347 37.7077H18.0339C18.2217 37.7077 18.3764 37.8624 18.3764 38.0503V40.8024C18.3764 40.9903 18.2217 41.1451 18.0339 41.1451H3.77393C1.87334 41.1451 0.337402 39.6087 0.337402 37.7077V27.3957C0.337402 25.4947 1.87334 23.9584 3.77393 23.9584H18.0339C18.2217 23.9584 18.3764 24.1131 18.3764 24.301V27.0531C18.3764 27.241 18.2217 27.3957 18.0339 27.3957ZM54.7474 27.7383V40.8024C54.7474 40.9903 54.5929 41.1451 54.405 41.1451H51.4821C51.2945 41.1451 51.1397 40.9903 51.1397 40.8024V33.3585C51.1397 33.0546 50.7806 32.8999 50.5595 33.1099L46.9074 36.5748C46.2445 37.2048 45.2057 37.2048 44.5428 36.5748L40.8908 33.1099C40.6699 32.8999 40.3108 33.0601 40.3108 33.3585V40.8024C40.3108 40.9903 40.1561 41.1451 39.9681 41.1451H37.0455C36.8576 41.1451 36.7029 40.9903 36.7029 40.8024V27.7383C36.7029 27.5505 36.8576 27.3957 37.0455 27.3957H40.1725C40.261 27.3957 40.344 27.4289 40.4103 27.4896L45.4876 32.3141C45.6202 32.4412 45.8303 32.4412 45.9629 32.3141L51.0402 27.4896C51.1065 27.4289 51.1893 27.3957 51.2777 27.3957H54.405C54.5929 27.3957 54.7474 27.5505 54.7474 27.7383ZM135.33 27.3791H145.982C147.882 27.3791 149.418 28.9154 149.418 30.8165V37.6911C149.418 39.5922 147.882 41.1285 145.982 41.1285H138.424C136.523 41.1285 134.987 39.5922 134.987 37.6911V35.9725C134.987 34.0714 136.523 32.5351 138.424 32.5351H143.153C143.463 32.5351 143.617 32.9109 143.391 33.1264L140.904 35.5027C140.584 35.8122 140.153 35.9835 139.706 35.978H138.949C138.755 35.9725 138.6 36.1272 138.6 36.3151V37.343C138.6 37.5309 138.755 37.6856 138.943 37.6856H145.473C145.661 37.6856 145.816 37.5309 145.816 37.343V31.1536C145.816 30.9657 145.661 30.8109 145.473 30.8109H135.335C135.147 30.8109 134.993 30.6562 134.993 30.4683V27.7162C134.993 27.5283 135.147 27.3736 135.335 27.3736L135.33 27.3791ZM174.618 41.1395H163.966C162.065 41.1395 160.529 39.6032 160.529 37.7022V30.8275C160.529 28.9265 162.065 27.3902 163.966 27.3902H171.524C173.425 27.3902 174.96 28.9265 174.96 30.8275V32.5462C174.96 34.4472 173.425 35.9835 171.524 35.9835H166.795C166.485 35.9835 166.33 35.6077 166.557 35.3922L169.043 33.0159C169.364 32.7064 169.795 32.5351 170.242 32.5407H170.999C171.193 32.5462 171.347 32.3915 171.347 32.2036V31.1757C171.347 30.9878 171.193 30.833 171.005 30.833H164.474C164.286 30.833 164.132 30.9878 164.132 31.1757V37.3651C164.132 37.553 164.286 37.7077 164.474 37.7077H174.612C174.8 37.7077 174.955 37.8624 174.955 38.0503V40.8024C174.955 40.9903 174.8 41.1451 174.612 41.1451L174.618 41.1395ZM74.7397 27.7383V40.8024C74.7397 40.9903 74.5849 41.1451 74.397 41.1451H71.4744C71.2865 41.1451 71.1317 40.9903 71.1317 40.8024V33.3585C71.1317 33.0546 70.7726 32.8999 70.5518 33.1099L66.8997 36.5748C66.2368 37.2048 65.1981 37.2048 64.5351 36.5748L60.8831 33.1099C60.662 32.8999 60.3029 33.0601 60.3029 33.3585V40.8024C60.3029 40.9903 60.1481 41.1451 59.9605 41.1451H57.0376C56.8499 41.1451 56.6952 40.9903 56.6952 40.8024V27.7383C56.6952 27.5505 56.8499 27.3957 57.0376 27.3957H60.1648C60.2533 27.3957 60.336 27.4289 60.4023 27.4896L65.4799 32.3141C65.6125 32.4412 65.8224 32.4412 65.9549 32.3141L71.0323 27.4896C71.0986 27.4289 71.1816 27.3957 71.2701 27.3957H74.397C74.5849 27.3957 74.7397 27.5505 74.7397 27.7383Z" fill="#0E0D0C"/>
</g>
</g>
<defs>
<clipPath id="clip0_12_539">
<rect width="208" height="66" fill="white"/>
</clipPath>
</defs>
</svg>
