<svg width="208" height="66" viewBox="0 0 208 66" fill="none" xmlns="http://www.w3.org/2000/svg">
<g clip-path="url(#clip0_12_551)">
<path fill-rule="evenodd" clip-rule="evenodd" d="M160.942 41.9889L166.951 24.5712H170.526L176.459 41.9889H172.96L171.743 38.262H165.659L164.442 41.9889H160.942ZM168.625 28.6785L166.495 35.5239H170.831L168.701 28.6785H168.625ZM179.502 24.5712H183V41.9889H179.502V24.5712Z" fill="#0E0D0C"/>
<path fill-rule="evenodd" clip-rule="evenodd" d="M30.3479 21.9853L29.1309 21.3007L16.2768 28.7546L6.61718 23.2023L16.3528 17.5738L18.6346 18.9429L21.9052 17.0414L16.2768 13.8469L0.152083 23.1262L0.228142 23.2023L16.3528 32.4815L32.3255 23.1262L30.3479 21.9853ZM49.1347 24.3432C51.3405 24.3432 53.166 24.7995 54.3829 25.8644C55.5999 26.9291 56.1322 28.4504 56.1322 30.3519V30.4279H52.7095C52.7095 29.287 52.4054 28.3743 51.8729 27.7658C51.3405 27.1574 50.4278 26.8531 49.2869 26.8531C48.222 26.8531 47.3854 27.3094 46.7769 28.1461C46.1684 29.0589 45.8642 30.1237 45.8642 31.4167V34.9154C45.8642 36.2845 46.2445 37.3494 46.853 38.1861C47.4614 39.0227 48.3742 39.479 49.439 39.479C50.5799 39.479 51.3405 39.0987 51.8729 38.5664C52.4054 38.0339 52.6335 37.1212 52.6335 35.9803H55.9802V36.0563C55.9802 37.9578 55.3716 39.479 54.2307 40.5439C53.0898 41.6848 51.4165 42.2172 49.3629 42.2172C47.3093 42.2172 45.5599 41.5326 44.2669 40.1636C42.9739 38.8705 42.2894 37.1212 42.2894 34.9915V31.5688C42.2894 29.5152 42.8979 27.7658 44.1909 26.3968C45.4078 25.0276 47.0811 24.3432 49.1347 24.3432ZM60.3154 26.4728C61.6845 25.0276 63.4339 24.3432 65.5636 24.3432C67.7693 24.3432 69.4427 25.0276 70.8117 26.4728C72.1808 27.918 72.8653 29.6673 72.8653 31.797V34.9154C72.8653 37.0451 72.1808 38.7945 70.8117 40.2396C69.4427 41.6848 67.6932 42.3693 65.5636 42.3693C63.4339 42.3693 61.6085 41.6848 60.3154 40.2396C59.0224 38.7945 58.3379 37.0451 58.3379 34.9154V31.797C58.3379 29.6673 58.9464 27.8419 60.3154 26.4728ZM68.4538 38.2621C69.1384 37.4254 69.4427 36.2845 69.4427 34.9154V31.7209C69.4427 30.3519 69.1384 29.211 68.4538 28.3743C67.7693 27.5377 66.7805 27.0813 65.6396 27.0813C64.4987 27.0813 63.586 27.5377 62.9015 28.3743C62.2169 29.211 61.9127 30.3519 61.9127 31.7209V34.9154C61.9127 36.2845 62.293 37.4254 62.9015 38.2621C63.51 39.0987 64.4227 39.5551 65.6396 39.5551C66.8566 39.5551 67.7693 39.0987 68.4538 38.2621ZM86.7083 36.5128H86.6322L79.5587 24.5713H76.0599V41.989H79.5587V30.1237H79.6347L86.7083 41.989H90.1311V24.5713H86.7083V36.5128ZM97.5088 27.3094H92.5652V24.5713H105.952V27.3094H101.007V41.989H97.5088V27.3094ZM108.309 41.989H120.251V39.327H111.808V34.383H119.034V31.6449H111.808V27.3094H120.251V24.5713H108.309V41.989ZM133.409 36.5128H133.485V24.5713H136.908V41.989H133.485L126.411 30.1237H126.336V41.989H122.837V24.5713H126.336L133.409 36.5128ZM139.341 27.3094H144.286V41.989H147.784V27.3094H152.652V24.5713H139.341V27.3094ZM23.2742 33.6985L17.0373 37.3494V33.6224L32.7057 24.6473V28.1461L26.4687 31.797V42.1412L32.7057 38.6424V42.2172L17.0373 51.1923V47.6175L23.2742 44.0427V33.6985ZM2.89027 43.8905L0 42.2172V24.6473L15.7444 33.6224V51.1923L12.4739 49.3668V43.0539L2.96633 37.5015V43.9665L2.89027 43.8905ZM12.4739 35.5239L2.89027 29.8955V33.9267L12.4739 39.403V35.5239Z" fill="#0E0D0C"/>
</g>
<defs>
<clipPath id="clip0_12_551">
<rect width="208" height="66" fill="white"/>
</clipPath>
</defs>
</svg>
