<svg width="208" height="66" viewBox="0 0 208 66" fill="none" xmlns="http://www.w3.org/2000/svg">
<path fill-rule="evenodd" clip-rule="evenodd" d="M62.0553 19.7763C71.6756 19.7763 74.0222 26.542 74.0222 31.7792C74.0222 36.4995 72.0172 43.5753 62.0553 43.5753H49.005V19.7763H62.0553ZM58.1128 37.6233H59.9515C61.9879 37.6233 64.4379 37.0119 64.4379 31.6444C64.4379 26.1329 62.1587 25.3867 59.9515 25.3867H58.1128V37.6233ZM83.9572 25.7598V29.8058H84.0921C84.7709 27.5624 86.6095 25.3552 89.4641 25.3552C89.9047 25.3552 90.4126 25.4227 90.8577 25.5215V32.6603C90.2819 32.4991 89.6887 32.4085 89.0911 32.3906C86.5376 32.3906 84.5012 34.0225 84.5012 37.1109V43.5708H75.9328V25.7598H83.9572ZM90.8577 37.0299H98.2662V43.5933H90.8577V37.0299ZM108.466 35.007H108.601L112.377 19.8483H121.112L124.785 35.007H124.919L127.81 19.8483H135.933L130.225 43.5708H120.433L116.491 28.075H116.356L112.615 43.5708H102.622L97.0795 19.8483H105.612L108.466 35.007ZM158.105 19.7763V25.3867H146.453V28.8212H157.602V34.2607H146.453V37.9649H158.349V43.5753H137.345V19.7763H158.105ZM174.739 19.7763C182.179 19.7763 183.541 23.7593 183.541 25.9666C183.541 28.6818 181.67 30.8937 178.713 31.4376V31.5725C181.09 31.9141 184.085 33.4785 184.085 37.2142C184.085 43.2336 177.283 43.5753 174.257 43.5753H160.424V19.7763H174.739ZM169.061 29.1944H171.201C174.325 29.1944 174.631 27.5624 174.631 26.8836C174.631 25.8947 173.921 24.6045 171.407 24.6045H169.061V29.1944ZM169.061 38.7427H171.366C174.293 38.7427 174.771 37.1468 174.771 36.2972C174.771 33.8831 171.947 33.8831 171.165 33.8831H169.061V38.7427ZM185.285 25.6879C185.285 22.4376 187.905 19.8302 191.143 19.8302C194.379 19.8302 197 22.4376 197 25.6879C197 28.9381 194.379 31.5454 191.143 31.5454C187.905 31.5454 185.285 28.9381 185.285 25.6879ZM191.143 29.6574C193.197 29.6574 194.901 27.8592 194.901 25.6879C194.901 23.5211 193.197 21.7229 191.143 21.7229C189.084 21.7229 187.384 23.5211 187.384 25.6879C187.384 27.8592 189.084 29.6574 191.143 29.6574ZM191.682 23.067C192.401 23.067 193.592 23.1479 193.592 24.4156C193.612 24.7243 193.513 25.0286 193.317 25.2678C193.121 25.5069 192.843 25.6634 192.537 25.7059V25.7508C192.986 25.7867 193.318 26.1734 193.426 26.6454L193.75 28.1154H191.831L191.664 26.8567C191.601 26.4341 191.29 26.3532 191.08 26.3532H190.648V28.1154H188.827V23.067H191.682ZM190.576 25.2698H191.017C191.218 25.2698 191.772 25.2698 191.772 24.7169C191.772 24.1999 191.263 24.1999 191.066 24.1999H190.576V25.2698ZM22.6391 22.7389L29.6341 26.6454C29.8093 26.1704 29.8991 25.6682 29.8993 25.162C29.8993 22.096 26.6625 19.6101 22.6752 19.6101C18.6786 19.6101 15.4464 22.096 15.4464 25.1664C15.4464 25.6654 15.5363 26.1554 15.6937 26.6139L22.6391 22.7389ZM34.7903 34.0495L40.3872 37.421L29.8993 50.1431L34.7903 34.0495ZM35.0825 30.8037L34.4532 28.012L45.2378 31.1903L38.553 34.7687L39.4701 31.8602L35.0825 30.8037ZM33.8283 26.2048L32.4032 24.2358L41.9652 21.179L39.5825 28.7044L38.6025 25.2428L33.8283 26.2048ZM31.1985 22.7073L29.189 20.59L31.8234 17.8928L28.9418 16.0991H36.584L31.1985 22.7073ZM10.4475 34.0495L4.8506 37.421L15.3385 50.1431L10.4475 34.0495ZM10.1507 30.8037L10.7801 28.012L0 31.1903L6.68924 34.7687L5.76768 31.8602L10.1507 30.8037ZM11.4095 26.2048L12.8345 24.2358L3.2727 21.179L5.65528 28.7044L6.6353 25.2428L11.4095 26.2048ZM14.0438 22.7073L16.0487 20.59L13.4145 17.8928L16.3006 16.0991H8.64927L14.0438 22.7073ZM19.8835 30.6014L21.1782 26.7713H24.1497L25.5163 30.6014H25.5613L26.3569 27.0725L22.6212 24.9462L18.8991 27.059L19.8386 30.6014H19.8835ZM28.8519 28.4976L32.7495 30.7183C32.7495 30.7183 34.1116 35.7037 28.7351 39.8755C26.8469 41.3411 25.4354 42.2851 24.1631 42.7077L24.4059 41.9795H20.8275L21.0613 42.6987C19.789 42.2626 18.373 41.3231 16.476 39.8755C11.0544 35.7442 12.4749 30.7183 12.4749 30.7183L16.3725 28.4976L17.7796 32.7592H21.2771L22.5987 28.8482H22.6437L23.9653 32.7592H27.4448L28.8519 28.4976ZM20.4229 40.7522H24.8105L25.2825 39.3182H19.9464L20.4229 40.7522ZM19.5463 38.0908H25.6871L26.1636 36.6522H19.0698L19.5463 38.0908ZM18.6607 35.4295H26.5682L27.0402 33.9909H18.1842L18.6607 35.4295Z" fill="#0E0D0C"/>
</svg>
