<svg width="208" height="66" viewBox="0 0 208 66" fill="none" xmlns="http://www.w3.org/2000/svg">
<mask id="mask0_3_195" style="mask-type:luminance" maskUnits="userSpaceOnUse" x="0" y="4" width="186" height="58">
<path d="M186 4.85527H0V61.1447H186V4.85527Z" fill="white"/>
</mask>
<g mask="url(#mask0_3_195)">
<path fill-rule="evenodd" clip-rule="evenodd" d="M71.6047 16.1264C73.7233 16.0987 75.8395 16.1264 77.9553 16.1138C77.9553 17.8504 77.9732 19.5897 77.9553 21.3264C75.8395 21.3264 73.7233 21.3264 71.6077 21.3264C71.6301 19.5897 71.6324 17.853 71.6077 16.1162L71.6047 16.1264ZM98.4187 16.1264C100.527 16.1264 102.635 16.1264 104.742 16.1264C104.707 24.885 104.742 33.6464 104.742 42.4051C104.712 44.2121 104.958 46.1873 103.957 47.7985C103.242 48.9228 101.841 49.3042 100.58 49.3042C97.1455 49.3042 93.7112 49.3269 90.2768 49.3042C87.8812 49.2918 85.3728 48.4811 83.7881 46.6139C81.8377 44.3552 81.3044 41.2908 81.1207 38.4173C80.9773 34.9564 80.9296 31.2195 82.8017 28.1602C84.3311 25.5577 87.3457 24.1448 90.2969 24.0193C93.0069 23.9188 95.7192 24.0016 98.4315 23.9715C98.42 21.3581 98.42 18.7456 98.4315 16.1338L98.4187 16.1264ZM89.0162 30.3461C87.9371 31.5785 87.7333 33.28 87.6048 34.8485C87.5392 36.7809 87.5294 38.7335 87.8565 40.6458C87.9785 41.5703 88.4145 42.4252 89.0917 43.0677C90.2036 44.1343 91.8442 44.2473 93.3035 44.2372C94.9164 44.2071 96.5391 44.3325 98.1423 44.0866C98.5098 42.9799 98.394 41.8054 98.4164 40.661C98.4164 36.7709 98.4164 32.8818 98.4164 28.9934C96.3733 29.011 94.3301 28.9809 92.2899 29.0185C91.0922 29.0687 89.8189 29.4101 89.0064 30.3461H89.0162ZM71.6151 23.9615C73.7309 23.9489 75.8471 23.9615 77.9628 23.9615C77.9628 32.4066 77.9783 40.8542 77.9628 49.3093C75.8419 49.3093 73.7233 49.2942 71.6025 49.3093C71.6025 40.8617 71.6198 32.4141 71.6025 23.9615H71.6151ZM110.474 26.6896C112.866 24.2777 116.484 23.8887 119.713 23.8536C122.719 23.8762 125.956 23.8536 128.61 25.4674C130.843 26.7773 132.031 29.3397 132.241 31.8469C132.381 33.679 132.555 35.7269 131.486 37.3306C130.731 38.4624 129.334 38.8941 128.041 38.8966C123.467 38.8966 118.895 38.9116 114.323 38.8966C114.517 40.3372 114.366 42.0137 115.433 43.1631C116.482 44.2448 118.1 44.167 119.491 44.2473C123.517 44.2473 127.56 44.2473 131.593 44.2473C131.579 45.9337 131.593 47.6178 131.593 49.3042C127.386 49.2942 123.179 49.2942 118.97 49.3042C116.912 49.2766 114.764 49.3897 112.829 48.5664C110.703 47.7157 109.135 45.7706 108.526 43.5948C107.625 40.5329 107.849 37.2979 107.879 34.1457C107.982 31.5031 108.476 28.6094 110.486 26.7021L110.474 26.6896ZM115.254 30.454C114.431 31.3626 114.391 32.645 114.308 33.7994C118.082 33.7593 121.856 33.8923 125.63 33.7318C126.197 32.1305 125.289 30.2333 123.777 29.5179C122.266 28.8504 120.556 28.8629 118.93 28.9357C117.584 28.991 116.124 29.3498 115.249 30.4415L115.254 30.454ZM145.272 23.954C148.998 23.9264 152.722 23.954 156.448 23.939C156.448 25.6229 156.462 27.3045 156.448 28.9858C153.428 28.9858 150.409 28.9858 147.402 28.9858C145.827 29.0185 144.101 29.2896 142.932 30.4415C141.925 31.365 141.522 32.7479 141.422 34.0731C141.273 36.3493 141.188 38.6682 141.673 40.9119C141.783 41.4442 142.008 41.9464 142.331 42.3838C142.654 42.8214 143.068 43.184 143.545 43.4466C144.861 44.1995 146.421 44.1469 147.886 44.2147C150.925 44.2372 153.966 44.1995 157.007 44.2322C156.967 45.9137 157.007 47.5977 156.991 49.2792H144.843C142.403 49.3093 139.862 48.6568 137.99 47.0355C135.783 45.1607 134.924 42.2044 134.819 39.4061C134.716 36.0456 134.568 32.5196 135.922 29.3674C136.635 27.6406 137.911 26.2046 139.545 25.2917C141.275 24.323 143.288 23.9565 145.258 23.9591L145.272 23.954ZM168.562 23.8486C170.973 23.6282 173.397 23.6047 175.811 23.7783C178.801 24.0444 182.054 25.0332 183.813 27.6382C185.967 30.8356 186.131 34.8812 185.929 38.603C185.677 41.5895 184.904 44.812 182.593 46.9C180.132 49.0432 176.697 49.4874 173.55 49.5277C170.143 49.5803 166.487 49.5126 163.485 47.678C161.472 46.4834 160.231 44.3451 159.643 42.1366C158.951 39.627 158.961 36.9994 159.118 34.4269C159.369 31.5307 160.136 28.4764 162.28 26.3809C163.99 24.8198 166.306 24.1497 168.557 23.8486H168.562ZM169.648 29.011C168.261 29.3046 166.93 30.1328 166.346 31.4605C165.438 33.4682 165.541 35.7269 165.56 37.8752C165.604 39.7574 165.989 41.863 167.518 43.1279C169.408 44.6689 172.047 44.566 174.329 44.3828C176.566 44.2222 178.665 42.626 179.165 40.3948C179.625 38.2441 179.565 36.0105 179.38 33.8321C179.241 31.9423 178.189 30.0475 176.361 29.3297C174.234 28.5643 171.864 28.6044 169.655 29.0235L169.648 29.011Z" fill="#0E0D0C"/>
<path fill-rule="evenodd" clip-rule="evenodd" d="M43.8456 38.5175C44.2608 37.5137 44.5048 36.4496 44.9627 35.4608C45.554 39.0094 45.5741 42.7163 44.4595 46.1721C42.4591 53.0888 36.5514 58.6803 29.534 60.3492C26.6015 61.0876 23.5432 61.1817 20.5706 60.6253C17.598 60.0688 14.7821 58.8749 12.3176 57.1262C9.85302 55.3775 7.79872 53.1158 6.29667 50.4974C4.79465 47.8788 3.88074 44.9663 3.61816 41.9608C4.53402 42.9095 5.19576 44.069 6.10659 45.0252C8.93517 48.1246 12.5703 50.381 16.6075 51.5431C20.6448 52.7052 24.9261 52.7278 28.9754 51.6081C35.6079 49.8412 41.2112 44.8193 43.8456 38.5175Z" fill="#0E0D0C"/>
<path fill-rule="evenodd" clip-rule="evenodd" d="M23.7315 6.42367C26.2995 5.36824 29.0525 4.83333 31.8299 4.85005C34.6073 4.86678 37.3534 5.43481 39.9085 6.52095C42.4636 7.60722 44.7763 9.18993 46.7118 11.1767C48.6474 13.1637 50.167 15.5149 51.1822 18.0937C51.9898 20.0587 52.3145 22.1744 52.634 24.26C49.9669 19.6923 45.5411 16.2289 40.5441 14.5049C35.4186 12.7877 29.8483 12.9416 24.826 14.939C18.1483 17.5265 13.0155 23.507 11.2693 30.4162C10.5673 26.6868 10.6252 22.7592 11.8756 19.1478C12.8152 16.2997 14.3612 13.6878 16.4076 11.4916C18.454 9.29529 20.9524 7.56647 23.7315 6.42367Z" fill="#0E0D0C"/>
<path fill-rule="evenodd" clip-rule="evenodd" d="M33.7477 17.2359C32.7412 16.8217 31.6744 16.5783 30.6831 16.1215C34.2408 15.5318 37.9572 15.5116 41.4218 16.6235C48.3562 18.6187 53.962 24.5113 55.6352 31.5109C56.3755 34.4359 56.4698 37.4864 55.9119 40.4514C55.354 43.4164 54.1572 46.2251 52.404 48.6834C50.6508 51.1416 48.3832 53.1907 45.758 54.689C43.1329 56.1871 40.2129 57.0986 37.1998 57.3606C38.1509 56.447 39.3134 55.787 40.272 54.8785C43.3288 52.09 45.5704 48.5271 46.7585 44.5687C50.0847 33.5513 44.4385 21.673 33.7477 17.2359Z" fill="#0E0D0C"/>
<path fill-rule="evenodd" clip-rule="evenodd" d="M1.57221 37.298C0.514399 34.7359 -0.0214168 31.9894 -0.00398235 29.2186C0.0134521 26.4478 0.583789 23.7082 1.67376 21.1596C2.76374 18.6109 4.35154 16.3043 6.34457 14.3742C8.33758 12.4439 10.696 10.9289 13.2821 9.91741C15.2523 9.11173 17.3733 8.78795 19.4642 8.4693C14.8748 11.1295 11.3951 15.5541 9.67408 20.5282C8.67359 23.4871 8.29727 26.6203 8.56878 29.7311C8.84029 32.8419 9.75378 35.8631 11.2518 38.605C12.7498 41.3468 14.8 43.7501 17.2737 45.6639C19.7474 47.5778 22.591 48.9606 25.6262 49.7259C21.8872 50.426 17.9495 50.3684 14.3289 49.1211C11.4737 48.1841 8.85538 46.6425 6.65356 44.6018C4.45167 42.561 2.71828 40.0695 1.57221 37.298Z" fill="#0E0D0C"/>
</g>
</svg>
