<svg width="208" height="66" viewBox="0 0 208 66" fill="none" xmlns="http://www.w3.org/2000/svg">
<path d="M89.653 32.9271C89.653 40.3494 85.0506 43.8583 79.2904 43.8583H75.77V39.4047H79.0161C82.4905 39.4047 84.8066 37.5606 84.8066 32.9271C84.8066 28.3385 82.6161 26.044 78.913 26.044C75.347 26.044 72.7982 28.2036 72.7982 32.8371V51.4612H67.9979V22.1752H72.7982V24.6946H73.484C75.0843 22.5804 77.45 21.6353 79.9187 21.6353C85.2221 21.6353 89.653 25.4141 89.653 32.9271ZM58.1041 30.9924L54.9037 30.6775C52.3893 30.4526 51.0634 29.7777 51.0634 28.3382C51.0634 26.6287 52.7551 25.6391 55.178 25.6391C57.6926 25.6391 59.2926 26.8087 59.4298 28.4732H64.0473C63.8646 24.2445 60.5272 21.6353 55.2238 21.6353C49.8748 21.6353 46.263 24.4244 46.263 28.5182C46.263 31.9372 48.4575 34.1414 53.4409 34.6362L56.6867 34.9512C58.6527 35.131 59.9786 35.5359 59.9786 37.3803C59.9786 39.0449 58.744 40.2594 55.4982 40.2594C52.5091 40.2594 51.0363 38.9248 50.5194 37.1357H45.5239C46.0217 41.2251 49.5129 44.3982 55.4982 44.3982C61.1215 44.3982 64.7788 41.474 64.7788 37.1555C64.7788 33.3316 62.2187 31.3973 58.1041 30.9924ZM108.245 37.1357C107.492 38.8376 105.692 40.1246 103.139 40.1246C99.6187 40.1246 97.0126 37.8753 97.0126 33.0168C97.0126 28.3832 99.4359 25.819 103.184 25.819C106.522 25.819 108.442 27.7985 108.625 30.7674H99.9842V34.1867H113.334V31.9372C113.334 25.684 109.128 21.6353 103.139 21.6353C97.5609 21.6353 92.2125 25.3692 92.2125 33.0168C92.2125 40.6642 97.5609 44.3982 103.139 44.3982C108.241 44.3982 111.878 41.306 113.008 37.1357H108.245ZM32.5706 21.6353C27.3131 21.6353 23.3813 24.3348 22.9242 28.4732H28.0902C28.456 26.944 29.8732 25.8194 32.5706 25.8194C36.0453 25.8194 37.1882 27.619 37.1882 29.8231V37.2454C35.2224 39.45 32.9364 40.4843 30.6505 40.4843C28.2732 40.4843 26.6274 39.3598 26.6274 37.3358C26.6274 35.4009 27.9074 34.1867 30.3762 34.1867H34.2165V30.7674H30.239C24.7529 30.7674 21.6898 33.467 21.6898 37.6054C21.6898 41.474 24.6614 44.3982 29.5532 44.3982C32.2963 44.3982 34.7194 43.3188 36.5025 42.0138H37.1882V43.8583H41.9886V29.3729C41.9886 24.0196 38.2854 21.6353 32.5706 21.6353ZM0 43.8583H4.80043V14.1677H0V43.8583ZM20.1616 22.1752H14.3097L7.31491 31.2177V34.0517L14.4926 43.8583H20.4359L12.0239 32.6119L20.1616 22.1752ZM193.696 22.1752L189.764 30.7674C188.805 32.8371 187.891 34.8611 187.616 36.211H186.93C186.656 34.8611 185.696 32.8819 184.736 30.8127L180.804 22.1752H175.501L184.736 41.6541L180.164 51.4612H185.284L199 22.1752H193.696ZM174.439 22.1752H168.587L161.592 31.2177V34.0517L168.77 43.8583H174.714L166.301 32.6119L174.439 22.1752ZM144.384 30.9924L141.183 30.6775C138.669 30.4526 137.343 29.7777 137.343 28.3382C137.343 26.6287 139.035 25.6391 141.458 25.6391C143.972 25.6391 145.572 26.8087 145.71 28.4732H150.327C150.144 24.2445 146.806 21.6353 141.504 21.6353C136.154 21.6353 132.542 24.4244 132.542 28.5182C132.542 31.9372 134.737 34.1414 139.72 34.6362L142.967 34.9512C144.932 35.131 146.258 35.5359 146.258 37.3803C146.258 39.0449 145.023 40.2594 141.778 40.2594C138.788 40.2594 137.315 38.9248 136.798 37.1357H131.803C132.301 41.2251 135.792 44.3982 141.778 44.3982C147.401 44.3982 151.058 41.474 151.058 37.1555C151.058 33.3316 148.498 31.3973 144.384 30.9924ZM154.277 43.8583H159.078V14.1677H154.277V43.8583ZM122.622 24.6946H121.937V22.1752H117.136V43.8583H121.937V32.5219C121.937 28.6531 123.754 26.4038 127.331 26.4038H130.371V21.6353H128.611C125.291 21.6353 123.881 22.8674 122.622 24.6946Z" fill="#0E0D0C"/>
</svg>
