<svg width="208" height="66" viewBox="0 0 208 66" fill="none" xmlns="http://www.w3.org/2000/svg">
<path fill-rule="evenodd" clip-rule="evenodd" d="M104.5 2.5C121.342 2.5 135 16.1581 135 33C135 49.8419 121.342 63.5 104.5 63.5C87.6581 63.5 74 49.8419 74 33C74 16.1581 87.6581 2.5 104.5 2.5Z" fill="#0E0D0C"/>
<path fill-rule="evenodd" clip-rule="evenodd" d="M87.3654 16.4892L84.9371 18.9184L85.5908 19.6663C86.8514 21.0679 87.2721 23.077 86.6184 24.8525L83.3026 32.8887C80.9676 39.3833 82.9289 47.0458 88.1594 51.5313L88.8131 52.0452L91.2414 49.6154L90.3544 48.8678C86.2445 45.3171 84.6567 39.1961 86.5249 34.0566L89.8407 26.0669C90.9613 23.0302 90.2141 19.5727 88.0191 17.2367L87.3654 16.4892Z" fill="#FBFBFB"/>
<path fill-rule="evenodd" clip-rule="evenodd" d="M117.806 49.6153L120.234 52.0452L120.841 51.5312C126.072 47.0458 128.033 39.3832 125.698 32.8887L122.382 24.8525C121.728 23.0769 122.149 21.0678 123.41 19.6662L124.063 18.9184L121.682 16.4891L120.981 17.2367C118.786 19.5727 118.086 23.0302 119.16 26.0669L122.476 34.1034C124.344 39.1961 122.803 45.317 118.646 48.8678L117.806 49.6153Z" fill="#FBFBFB"/>
<path fill-rule="evenodd" clip-rule="evenodd" d="M114.586 12.553H111.13V54.3653H114.586V12.553Z" fill="#FBFBFB"/>
<path fill-rule="evenodd" clip-rule="evenodd" d="M106.228 9.79663H102.772V56.2035C103.94 56.2035 105.061 56.2035 106.228 56.2035V9.79663Z" fill="#FBFBFB"/>
<path fill-rule="evenodd" clip-rule="evenodd" d="M94.4619 12.553V54.3653H97.8711V12.553H94.4619Z" fill="#FBFBFB"/>
</svg>
