<svg width="262" height="78" viewBox="0 0 262 78" fill="none" xmlns="http://www.w3.org/2000/svg">
<rect x="1.5" y="1.5" width="259" height="75" rx="5.5" stroke="#0E0D0C" stroke-width="3"/>
<path d="M65.2312 43.268C65.2312 44.3253 64.9452 45.2093 64.3732 45.92C63.8185 46.6133 63.0645 47.1333 62.1112 47.48C61.1578 47.8267 60.1092 48 58.9652 48H49.9692V29.54H60.2392C61.1058 29.54 61.8512 29.774 62.4752 30.242C63.1165 30.6927 63.6018 31.282 63.9312 32.01C64.2778 32.738 64.4512 33.492 64.4512 34.272C64.4512 35.1387 64.2258 35.9707 63.7752 36.768C63.3245 37.548 62.6658 38.1373 61.7992 38.536C62.8565 38.848 63.6885 39.4027 64.2952 40.2C64.9192 40.9973 65.2312 42.02 65.2312 43.268ZM60.8892 42.41C60.8892 42.0113 60.8112 41.6647 60.6552 41.37C60.4992 41.058 60.2912 40.8153 60.0312 40.642C59.7885 40.4513 59.4938 40.356 59.1472 40.356H54.2332V44.386H58.9652C59.3292 44.386 59.6498 44.2993 59.9272 44.126C60.2218 43.9527 60.4558 43.7187 60.6292 43.424C60.8025 43.1293 60.8892 42.7913 60.8892 42.41ZM54.2332 33.18V37.002H58.4192C58.7312 37.002 59.0172 36.9327 59.2772 36.794C59.5545 36.6553 59.7798 36.4473 59.9532 36.17C60.1265 35.8753 60.2132 35.5113 60.2132 35.078C60.2132 34.662 60.1352 34.3153 59.9792 34.038C59.8405 33.7607 59.6498 33.5527 59.4072 33.414C59.1645 33.258 58.8872 33.18 58.5752 33.18H54.2332ZM66.5466 43.918C66.5466 43.0167 66.7979 42.228 67.3006 41.552C67.8033 40.876 68.4966 40.3473 69.3806 39.966C70.2646 39.5673 71.2786 39.368 72.4226 39.368C72.9773 39.368 73.5233 39.42 74.0606 39.524C74.5979 39.6107 75.0659 39.7407 75.4646 39.914V39.316C75.4646 38.5707 75.2393 37.9987 74.7886 37.6C74.3379 37.2013 73.6533 37.002 72.7346 37.002C71.9719 37.002 71.2526 37.132 70.5766 37.392C69.9179 37.652 69.2159 38.0247 68.4706 38.51L67.2226 35.858C68.1239 35.2687 69.0599 34.8267 70.0306 34.532C71.0186 34.2373 72.0586 34.09 73.1506 34.09C75.1959 34.09 76.7819 34.584 77.9086 35.572C79.0526 36.5427 79.6246 37.9553 79.6246 39.81V43.372C79.6246 43.788 79.6853 44.0827 79.8066 44.256C79.9453 44.412 80.1793 44.5073 80.5086 44.542V48C80.1619 48.0693 79.8326 48.1213 79.5206 48.156C79.2259 48.1907 78.9659 48.208 78.7406 48.208C77.9606 48.208 77.3626 48.052 76.9466 47.74C76.5479 47.428 76.2966 47.0033 76.1926 46.466L76.1146 45.868C75.5079 46.648 74.7799 47.246 73.9306 47.662C73.0986 48.0607 72.2233 48.26 71.3046 48.26C70.4033 48.26 69.5886 48.0693 68.8606 47.688C68.1499 47.3067 67.5866 46.7867 67.1706 46.128C66.7546 45.4693 66.5466 44.7327 66.5466 43.918ZM74.8146 44.438C75.0053 44.282 75.1613 44.1087 75.2826 43.918C75.4039 43.7273 75.4646 43.5453 75.4646 43.372V42.15C75.1179 42.0113 74.7279 41.9073 74.2946 41.838C73.8786 41.7513 73.4886 41.708 73.1246 41.708C72.3619 41.708 71.7293 41.8813 71.2266 42.228C70.7239 42.5573 70.4726 42.9993 70.4726 43.554C70.4726 43.866 70.5593 44.152 70.7326 44.412C70.9059 44.672 71.1399 44.88 71.4346 45.036C71.7466 45.192 72.1106 45.27 72.5266 45.27C72.9426 45.27 73.3586 45.192 73.7746 45.036C74.1906 44.88 74.5373 44.6807 74.8146 44.438ZM82.665 48V34.35H86.825V44.386H90.595V34.35H94.755V44.386H98.525V34.35H102.685V48H82.665ZM110.751 48.208V44.516C111.167 44.516 111.531 44.4293 111.843 44.256C112.155 44.0827 112.424 43.7967 112.649 43.398C112.892 42.9993 113.082 42.4273 113.221 41.682C113.36 40.9367 113.455 39.9833 113.507 38.822L113.689 34.35H124.479V48H120.319V37.99H117.381L117.329 39.264C117.242 40.9973 117.052 42.4447 116.757 43.606C116.48 44.75 116.072 45.66 115.535 46.336C114.998 46.9947 114.339 47.4713 113.559 47.766C112.779 48.0607 111.843 48.208 110.751 48.208ZM133.877 48.26C132.716 48.26 131.676 48.0693 130.757 47.688C129.856 47.3067 129.093 46.7867 128.469 46.128C127.845 45.4693 127.369 44.7153 127.039 43.866C126.727 43.0167 126.571 42.124 126.571 41.188C126.571 40.2347 126.727 39.3333 127.039 38.484C127.369 37.6347 127.845 36.8807 128.469 36.222C129.093 35.5633 129.856 35.0433 130.757 34.662C131.676 34.2807 132.716 34.09 133.877 34.09C135.039 34.09 136.07 34.2807 136.971 34.662C137.873 35.0433 138.635 35.5633 139.259 36.222C139.883 36.8807 140.36 37.6347 140.689 38.484C141.019 39.3333 141.183 40.2347 141.183 41.188C141.183 42.124 141.019 43.0167 140.689 43.866C140.36 44.7153 139.883 45.4693 139.259 46.128C138.635 46.7867 137.873 47.3067 136.971 47.688C136.07 48.0693 135.039 48.26 133.877 48.26ZM130.835 41.188C130.835 41.8987 130.965 42.5227 131.225 43.06C131.503 43.5973 131.867 44.0133 132.317 44.308C132.768 44.6027 133.288 44.75 133.877 44.75C134.449 44.75 134.961 44.6027 135.411 44.308C135.879 43.996 136.243 43.5713 136.503 43.034C136.763 42.4967 136.893 41.8813 136.893 41.188C136.893 40.4773 136.763 39.8533 136.503 39.316C136.243 38.7787 135.879 38.3627 135.411 38.068C134.961 37.7733 134.449 37.626 133.877 37.626C133.288 37.626 132.768 37.7733 132.317 38.068C131.867 38.3627 131.503 38.7787 131.225 39.316C130.965 39.8533 130.835 40.4773 130.835 41.188ZM143.272 48V34.35H152.658V37.99H147.432V48H143.272ZM160.944 48.26C159.782 48.26 158.742 48.0693 157.824 47.688C156.922 47.3067 156.16 46.7867 155.536 46.128C154.912 45.4693 154.435 44.7153 154.106 43.866C153.794 43.0167 153.638 42.124 153.638 41.188C153.638 40.2347 153.794 39.3333 154.106 38.484C154.435 37.6347 154.912 36.8807 155.536 36.222C156.16 35.5633 156.922 35.0433 157.824 34.662C158.742 34.2807 159.782 34.09 160.944 34.09C162.105 34.09 163.136 34.2807 164.038 34.662C164.939 35.0433 165.702 35.5633 166.326 36.222C166.95 36.8807 167.426 37.6347 167.756 38.484C168.085 39.3333 168.25 40.2347 168.25 41.188C168.25 42.124 168.085 43.0167 167.756 43.866C167.426 44.7153 166.95 45.4693 166.326 46.128C165.702 46.7867 164.939 47.3067 164.038 47.688C163.136 48.0693 162.105 48.26 160.944 48.26ZM157.902 41.188C157.902 41.8987 158.032 42.5227 158.292 43.06C158.569 43.5973 158.933 44.0133 159.384 44.308C159.834 44.6027 160.354 44.75 160.944 44.75C161.516 44.75 162.027 44.6027 162.478 44.308C162.946 43.996 163.31 43.5713 163.57 43.034C163.83 42.4967 163.96 41.8813 163.96 41.188C163.96 40.4773 163.83 39.8533 163.57 39.316C163.31 38.7787 162.946 38.3627 162.478 38.068C162.027 37.7733 161.516 37.626 160.944 37.626C160.354 37.626 159.834 37.7733 159.384 38.068C158.933 38.3627 158.569 38.7787 158.292 39.316C158.032 39.8533 157.902 40.4773 157.902 41.188ZM173.381 48V37.99H169.247V34.35H181.675V37.99H177.541V48H173.381ZM183.466 48V34.35H187.626V42.462L192.904 34.35H196.7V48H192.54V40.122L187.288 48H183.466ZM199.589 48V34.35H212.355V48H208.195V37.99H203.749V48H199.589Z" fill="#0E0D0C"/>
</svg>
