<svg width="371" height="110" viewBox="0 0 371 110" fill="none" xmlns="http://www.w3.org/2000/svg">
<rect width="371" height="110" rx="7" fill="url(#paint0_radial_742_8501)" fill-opacity="0.15"/>
<path d="M104.554 60.176C104.554 61.4773 104.202 62.5653 103.498 63.44C102.815 64.2933 101.887 64.9333 100.714 65.36C99.5404 65.7867 98.2498 66 96.8418 66H85.7698V43.28H98.4098C99.4764 43.28 100.394 43.568 101.162 44.144C101.951 44.6987 102.548 45.424 102.954 46.32C103.38 47.216 103.594 48.144 103.594 49.104C103.594 50.1707 103.316 51.1947 102.762 52.176C102.207 53.136 101.396 53.8613 100.33 54.352C101.631 54.736 102.655 55.4187 103.402 56.4C104.17 57.3813 104.554 58.64 104.554 60.176ZM99.2098 59.12C99.2098 58.6293 99.1138 58.2027 98.9218 57.84C98.7298 57.456 98.4738 57.1573 98.1538 56.944C97.8551 56.7093 97.4924 56.592 97.0658 56.592H91.0178V61.552H96.8418C97.2898 61.552 97.6844 61.4453 98.0258 61.232C98.3884 61.0187 98.6764 60.7307 98.8898 60.368C99.1031 60.0053 99.2098 59.5893 99.2098 59.12ZM91.0178 47.76V52.464H96.1698C96.5538 52.464 96.9058 52.3787 97.2258 52.208C97.5671 52.0373 97.8444 51.7813 98.0578 51.44C98.2711 51.0773 98.3778 50.6293 98.3778 50.096C98.3778 49.584 98.2818 49.1573 98.0898 48.816C97.9191 48.4747 97.6844 48.2187 97.3858 48.048C97.0871 47.856 96.7458 47.76 96.3618 47.76H91.0178ZM106.173 60.976C106.173 59.8667 106.482 58.896 107.101 58.064C107.719 57.232 108.573 56.5813 109.661 56.112C110.749 55.6213 111.997 55.376 113.405 55.376C114.087 55.376 114.759 55.44 115.421 55.568C116.082 55.6747 116.658 55.8347 117.149 56.048V55.312C117.149 54.3947 116.871 53.6907 116.317 53.2C115.762 52.7093 114.919 52.464 113.789 52.464C112.85 52.464 111.965 52.624 111.133 52.944C110.322 53.264 109.458 53.7227 108.541 54.32L107.005 51.056C108.114 50.3307 109.266 49.7867 110.461 49.424C111.677 49.0613 112.957 48.88 114.301 48.88C116.818 48.88 118.77 49.488 120.157 50.704C121.565 51.8987 122.269 53.6373 122.269 55.92V60.304C122.269 60.816 122.343 61.1787 122.493 61.392C122.663 61.584 122.951 61.7013 123.357 61.744V66C122.93 66.0853 122.525 66.1493 122.141 66.192C121.778 66.2347 121.458 66.256 121.181 66.256C120.221 66.256 119.485 66.064 118.973 65.68C118.482 65.296 118.173 64.7733 118.045 64.112L117.949 63.376C117.202 64.336 116.306 65.072 115.261 65.584C114.237 66.0747 113.159 66.32 112.029 66.32C110.919 66.32 109.917 66.0853 109.021 65.616C108.146 65.1467 107.453 64.5067 106.941 63.696C106.429 62.8853 106.173 61.9787 106.173 60.976ZM116.349 61.616C116.583 61.424 116.775 61.2107 116.925 60.976C117.074 60.7413 117.149 60.5173 117.149 60.304V58.8C116.722 58.6293 116.242 58.5013 115.709 58.416C115.197 58.3093 114.717 58.256 114.269 58.256C113.33 58.256 112.551 58.4693 111.933 58.896C111.314 59.3013 111.005 59.8453 111.005 60.528C111.005 60.912 111.111 61.264 111.325 61.584C111.538 61.904 111.826 62.16 112.189 62.352C112.573 62.544 113.021 62.64 113.533 62.64C114.045 62.64 114.557 62.544 115.069 62.352C115.581 62.16 116.007 61.9147 116.349 61.616ZM126.011 66V49.2H131.131V61.552H135.771V49.2H140.891V61.552H145.531V49.2H150.651V66H126.011ZM160.578 66.256V61.712C161.09 61.712 161.538 61.6053 161.922 61.392C162.306 61.1787 162.637 60.8267 162.914 60.336C163.213 59.8453 163.448 59.1413 163.618 58.224C163.789 57.3067 163.906 56.1333 163.97 54.704L164.194 49.2H177.474V66H172.354V53.68H168.738L168.674 55.248C168.568 57.3813 168.333 59.1627 167.97 60.592C167.629 62 167.128 63.12 166.466 63.952C165.805 64.7627 164.994 65.3493 164.034 65.712C163.074 66.0747 161.922 66.256 160.578 66.256ZM189.041 66.32C187.612 66.32 186.332 66.0853 185.201 65.616C184.092 65.1467 183.153 64.5067 182.385 63.696C181.617 62.8853 181.031 61.9573 180.625 60.912C180.241 59.8667 180.049 58.768 180.049 57.616C180.049 56.4427 180.241 55.3333 180.625 54.288C181.031 53.2427 181.617 52.3147 182.385 51.504C183.153 50.6933 184.092 50.0533 185.201 49.584C186.332 49.1147 187.612 48.88 189.041 48.88C190.471 48.88 191.74 49.1147 192.849 49.584C193.959 50.0533 194.897 50.6933 195.665 51.504C196.433 52.3147 197.02 53.2427 197.425 54.288C197.831 55.3333 198.033 56.4427 198.033 57.616C198.033 58.768 197.831 59.8667 197.425 60.912C197.02 61.9573 196.433 62.8853 195.665 63.696C194.897 64.5067 193.959 65.1467 192.849 65.616C191.74 66.0853 190.471 66.32 189.041 66.32ZM185.297 57.616C185.297 58.4907 185.457 59.2587 185.777 59.92C186.119 60.5813 186.567 61.0933 187.121 61.456C187.676 61.8187 188.316 62 189.041 62C189.745 62 190.375 61.8187 190.929 61.456C191.505 61.072 191.953 60.5493 192.273 59.888C192.593 59.2267 192.753 58.4693 192.753 57.616C192.753 56.7413 192.593 55.9733 192.273 55.312C191.953 54.6507 191.505 54.1387 190.929 53.776C190.375 53.4133 189.745 53.232 189.041 53.232C188.316 53.232 187.676 53.4133 187.121 53.776C186.567 54.1387 186.119 54.6507 185.777 55.312C185.457 55.9733 185.297 56.7413 185.297 57.616ZM200.605 66V49.2H212.157V53.68H205.725V66H200.605ZM222.354 66.32C220.924 66.32 219.644 66.0853 218.514 65.616C217.404 65.1467 216.466 64.5067 215.698 63.696C214.93 62.8853 214.343 61.9573 213.938 60.912C213.554 59.8667 213.362 58.768 213.362 57.616C213.362 56.4427 213.554 55.3333 213.938 54.288C214.343 53.2427 214.93 52.3147 215.698 51.504C216.466 50.6933 217.404 50.0533 218.514 49.584C219.644 49.1147 220.924 48.88 222.354 48.88C223.783 48.88 225.052 49.1147 226.162 49.584C227.271 50.0533 228.21 50.6933 228.978 51.504C229.746 52.3147 230.332 53.2427 230.738 54.288C231.143 55.3333 231.346 56.4427 231.346 57.616C231.346 58.768 231.143 59.8667 230.738 60.912C230.332 61.9573 229.746 62.8853 228.978 63.696C228.21 64.5067 227.271 65.1467 226.162 65.616C225.052 66.0853 223.783 66.32 222.354 66.32ZM218.61 57.616C218.61 58.4907 218.77 59.2587 219.09 59.92C219.431 60.5813 219.879 61.0933 220.434 61.456C220.988 61.8187 221.628 62 222.354 62C223.058 62 223.687 61.8187 224.242 61.456C224.818 61.072 225.266 60.5493 225.586 59.888C225.906 59.2267 226.066 58.4693 226.066 57.616C226.066 56.7413 225.906 55.9733 225.586 55.312C225.266 54.6507 224.818 54.1387 224.242 53.776C223.687 53.4133 223.058 53.232 222.354 53.232C221.628 53.232 220.988 53.4133 220.434 53.776C219.879 54.1387 219.431 54.6507 219.09 55.312C218.77 55.9733 218.61 56.7413 218.61 57.616ZM237.661 66V53.68H232.573V49.2H247.869V53.68H242.781V66H237.661ZM250.073 66V49.2H255.193V59.184L261.689 49.2H266.361V66H261.241V56.304L254.777 66H250.073ZM269.917 66V49.2H285.629V66H280.509V53.68H275.037V66H269.917Z" fill="#FBFBFB"/>
<defs>
<radialGradient id="paint0_radial_742_8501" cx="0" cy="0" r="1" gradientUnits="userSpaceOnUse" gradientTransform="translate(157.936 55.8209) rotate(48.073) scale(318.871 193.171)">
<stop stop-color="white"/>
<stop offset="1" stop-color="white"/>
</radialGradient>
</defs>
</svg>
