<svg width="208" height="66" viewBox="0 0 208 66" fill="none" xmlns="http://www.w3.org/2000/svg">
<path fill-rule="evenodd" clip-rule="evenodd" d="M18.3363 38.8759C22.0735 38.8759 25.1032 41.8918 25.1032 45.6122C25.1032 49.3325 22.0735 52.3485 18.3363 52.3485C14.5989 52.3485 11.5692 49.3325 11.5692 45.6122C11.5675 43.8251 12.2801 42.1107 13.5494 40.8471C14.8189 39.5835 16.5411 38.8743 18.3363 38.8759ZM142.76 22.9493C143.93 22.9479 145.093 23.1373 146.202 23.5098C147.226 23.8426 148.157 24.4077 148.924 25.1604V23.6033H154.523V44.6655H148.924V43.1301C148.193 43.8343 147.316 44.3696 146.355 44.6992L146.202 44.7495C143.579 45.626 140.722 45.4927 138.193 44.3758C136.9 43.796 135.739 42.9588 134.783 41.9154C133.856 40.8752 133.135 39.6708 132.655 38.3652C131.686 35.6454 131.686 32.6762 132.655 29.9565C133.129 28.639 133.851 27.4234 134.783 26.375C135.733 25.3174 136.895 24.4687 138.193 23.8835C139.624 23.232 141.187 22.9126 142.76 22.9493ZM100.932 23.8088C102.293 24.3438 103.536 25.137 104.593 26.1446C105.628 27.1539 106.448 28.3615 107.002 29.6948C107.56 31.0459 107.857 32.4894 107.877 33.9492L107.878 34.1484C107.902 35.6775 107.603 37.1948 107.002 38.6018C106.447 39.9257 105.627 41.1231 104.593 42.121C103.536 43.1285 102.293 43.9219 100.932 44.4567C98.002 45.5781 94.7584 45.5781 91.8282 44.4567C90.4675 43.9219 89.2244 43.1285 88.1679 42.121C87.1397 41.1175 86.321 39.9215 85.759 38.6018C85.1973 37.2516 84.9005 35.8076 84.8835 34.3476L84.8829 34.1484C84.8596 32.6857 85.1317 31.2339 85.6821 29.879L85.759 29.6948C86.3012 28.3554 87.1222 27.1455 88.1679 26.1446C89.2244 25.137 90.4675 24.3438 91.8282 23.8088C94.7584 22.6876 98.002 22.6876 100.932 23.8088ZM72.9633 23.2731C74.2216 23.314 75.4663 23.545 76.655 23.9583C78.8846 24.727 80.6592 26.4367 81.5041 28.6297C81.9818 29.8282 82.2157 31.109 82.1924 32.3981V44.9955H76.5923V33.4258C76.5923 31.8376 76.2169 30.6229 75.4661 29.7821C74.738 28.9667 73.6275 28.532 72.1345 28.5065L71.9935 28.5052C70.6265 28.4802 69.3192 29.0624 68.4269 30.0935C67.4571 31.1836 67.019 32.585 67.019 34.3601V44.9955H61.3877V33.3947C61.3877 31.8064 61.0123 30.5919 60.2615 29.751C59.5334 28.9355 58.4229 28.5009 56.9299 28.4753L56.7888 28.4741C55.4218 28.449 54.1147 29.0311 53.2224 30.0623C52.2525 31.1524 51.8145 32.5539 51.8145 34.329V44.9955H46.2145V23.9334H51.8145V25.4532C52.5267 24.7841 53.3674 24.2651 54.286 23.9271C55.4241 23.4918 56.6334 23.2701 57.8525 23.2731C59.3677 23.2373 60.8758 23.491 62.2951 24.0205C63.5577 24.5176 64.6456 25.3732 65.4236 26.4809C66.1801 25.5374 67.1462 24.7824 68.245 24.2751L68.3956 24.2074C69.827 23.5541 71.3891 23.2346 72.9633 23.2731ZM113.478 23.6033L119.797 37.1879L126.086 23.6033H132.061L122.297 44.6655H117.044L107.314 23.6033H113.478ZM162.58 23.6033L168.915 37.1879L175.204 23.6033H181.179L171.433 44.6655H166.161L156.417 23.6033H162.58ZM189 23.5814V44.6405H183.4V23.5814H189ZM29.8743 27.384C33.6115 27.384 36.6412 30.4 36.6412 34.1204C36.6412 37.8407 33.6115 40.8566 29.8743 40.8566C26.1369 40.8566 23.1072 37.8407 23.1072 34.1204C23.1055 32.3333 23.8179 30.6189 25.0874 29.3553C26.3569 28.0916 28.0791 27.3824 29.8743 27.384ZM6.76699 27.384C10.5043 27.384 13.5339 30.4 13.5339 34.1204C13.5339 37.8407 10.5043 40.8566 6.76699 40.8566C3.02969 40.8566 2.8764e-06 37.8407 2.8764e-06 34.1204C-0.00165193 32.3333 0.710764 30.6189 1.98018 29.3553C3.2496 28.0916 4.97176 27.3824 6.76699 27.384ZM94.0495 28.6049C93.3584 28.9129 92.7239 29.3341 92.1724 29.8506C91.6359 30.3974 91.211 31.0426 90.921 31.7503C90.6241 32.5376 90.4653 33.3698 90.4516 34.2107C90.4376 35.044 90.5974 35.8712 90.921 36.6398C91.2036 37.3422 91.6297 37.9785 92.1724 38.5084C94.4875 40.7841 98.2104 40.7841 100.525 38.5084C101.068 37.9785 101.494 37.3422 101.777 36.6398C102.074 35.8634 102.233 35.0414 102.246 34.2107C102.263 33.367 102.103 32.529 101.777 31.7503C101.189 30.2985 100.036 29.1452 98.5806 28.5528C97.1252 27.9603 95.4909 27.979 94.0495 28.6049ZM143.199 28.0879C142.409 28.0786 141.628 28.249 140.915 28.5861C140.223 28.9027 139.605 29.3587 139.101 29.9253C137.552 31.7234 137.109 34.2167 137.942 36.4343C138.218 37.1377 138.609 37.7904 139.101 38.3652C139.595 38.9217 140.203 39.3674 140.883 39.6732C141.604 39.9827 142.382 40.1417 143.167 40.1403C143.914 40.1403 144.654 40.0141 145.357 39.7666C146.015 39.5393 146.624 39.1921 147.154 38.7432L147.266 38.6454C147.862 38.1358 148.333 37.4965 148.642 36.7768C149.012 35.9446 149.182 35.0387 149.143 34.1297C149.164 33.2221 148.994 32.3201 148.642 31.4825C148.314 30.7739 147.846 30.1383 147.266 29.6139C146.713 29.108 146.064 28.7163 145.357 28.4617C144.664 28.217 143.934 28.0906 143.199 28.0879ZM18.3363 15.942C22.0735 15.942 25.1032 18.958 25.1032 22.6784C25.1032 26.3987 22.0735 29.4146 18.3363 29.4146C14.5989 29.4146 11.5692 26.3987 11.5692 22.6784C11.5675 20.8912 12.2801 19.1769 13.5494 17.9132C14.8189 16.6496 16.5411 15.9404 18.3363 15.942ZM189 14.0516V19.6263H183.4V14.0516H189Z" fill="#0E0D0C"/>
</svg>
