<svg width="208" height="66" viewBox="0 0 208 66" fill="none" xmlns="http://www.w3.org/2000/svg">
<path d="M45.8201 5.70593H15.0083L26.6206 17.3256C26.8817 17.3103 27.1445 17.3026 27.4091 17.3026C30.054 17.3014 32.6467 18.0384 34.8955 19.4306C37.1443 20.8229 38.96 22.8151 40.1382 25.1832C40.365 25.1683 40.5945 25.1603 40.8254 25.1603C42.7333 25.1606 44.6031 25.6946 46.2234 26.7019C47.8438 27.709 49.1502 29.1493 49.9951 30.86L53.6408 27.2141V13.9336C53.6057 11.8314 52.7823 9.81921 51.3339 8.29543C49.8855 6.77165 47.9176 5.84747 45.8201 5.70593Z" fill="#0E0D0C"/>
<path d="M50.0002 30.86L35.1797 45.6853L48.2462 58.7525C49.8166 58.1592 51.172 57.1065 52.1353 55.7316C53.0987 54.3567 53.6256 52.7235 53.6473 51.0448V27.2086L50.0002 30.86Z" fill="#0E0D0C"/>
<path d="M5.95295 40.8663C5.55801 39.8969 5.35575 38.8599 5.35748 37.8132C5.35748 33.4637 8.77771 29.938 12.9959 29.938C13.0945 29.938 13.1917 29.938 13.2889 29.9448C13.6591 26.603 15.2027 23.5009 17.6449 21.1902C20.0872 18.8796 23.2699 17.5103 26.6269 17.3259L15.0146 5.71295H7.87843C5.75585 5.84825 3.76455 6.78718 2.30967 8.33871C0.854802 9.89023 0.0456595 11.9378 0.0468764 14.0648V46.774L5.95295 40.8663Z" fill="#464645"/>
<path d="M35.1682 45.6853H12.9954C11.8426 45.6863 10.7052 45.4186 9.67382 44.9034C7.98519 44.0522 6.66288 42.6171 5.95246 40.8646L0.0463867 46.7736V50.9205C0.0463867 53.1409 0.928402 55.2703 2.49839 56.8405C3.27577 57.6179 4.19865 58.2346 5.21435 58.6553C6.23005 59.076 7.31867 59.2926 8.41805 59.2926H45.2763C46.2878 59.292 47.2909 59.1091 48.2375 58.7525L35.1682 45.6853Z" fill="#6F6F6F"/>
<path d="M50.034 30.8762C49.1892 29.1655 47.8828 27.7252 46.2624 26.718C44.642 25.7107 42.7723 25.1768 40.8644 25.1764C40.6335 25.1764 40.4053 25.1844 40.1784 25.1993C39 22.8313 37.184 20.839 34.935 19.4468C32.686 18.0546 30.0932 17.3176 27.4481 17.3187C27.1781 17.3187 26.9215 17.3269 26.6595 17.3417C23.3026 17.5262 20.1199 18.8955 17.6776 21.2061C15.2353 23.5167 13.6918 26.6189 13.3217 29.9606C13.2244 29.9606 13.1272 29.9539 13.0286 29.9539C8.81037 29.9539 5.39015 33.4796 5.39015 37.829C5.38841 38.8757 5.59068 39.9128 5.98561 40.8822C6.69603 42.6347 8.01834 44.0698 9.70695 44.921C10.7383 45.4362 11.8757 45.704 13.0286 45.7029H35.2135L50.0354 30.8775L50.034 30.8762Z" fill="#FBFBFB"/>
<path fill-rule="evenodd" clip-rule="evenodd" d="M45.4649 29.8514C47.0538 29.8284 48.626 30.1776 50.0558 30.871L35.2285 45.6963V39.6292H35.242C35.3605 36.997 36.4892 34.5118 38.3933 32.6907C40.2973 30.8695 42.8302 29.8526 45.4649 29.8514Z" fill="#464645"/>
<path fill-rule="evenodd" clip-rule="evenodd" d="M130.508 24.7591C129.727 23.8943 128.761 23.2147 127.684 22.77C126.479 22.2806 125.188 22.0395 123.888 22.0611C122.466 22.0611 121.199 22.2974 120.085 22.77C119.009 23.2169 118.045 23.8962 117.262 24.7591C116.47 25.6486 115.871 26.6909 115.498 27.8216C114.84 29.8584 114.713 32.0294 115.128 34.1291C115.282 34.9076 115.525 35.6657 115.853 36.3882C116.179 37.1024 116.593 37.7729 117.087 38.384C117.583 39.0023 118.168 39.5434 118.824 39.9895C119.519 40.4603 120.283 40.8202 121.09 41.0563C122.918 41.5676 124.851 41.5676 126.68 41.0563C127.485 40.8183 128.249 40.4585 128.945 39.9895C129.603 39.5455 130.189 39.0041 130.683 38.384C131.172 37.7716 131.583 37.1012 131.906 36.3882C132.235 35.6656 132.48 34.9076 132.635 34.1291C133.049 32.0292 132.922 29.8585 132.265 27.8216C131.893 26.6921 131.296 25.65 130.508 24.7591ZM130.012 34.8191C129.773 35.6863 129.36 36.4955 128.797 37.1971C128.249 37.8643 127.55 38.3915 126.758 38.7351C125.848 39.1141 124.869 39.2982 123.883 39.2753C122.779 39.2753 121.819 39.0952 121.003 38.7351C120.212 38.3898 119.514 37.8628 118.964 37.1971C118.4 36.4963 117.986 35.6869 117.749 34.8191C117.47 33.8202 117.334 32.7868 117.344 31.7498C117.334 30.7232 117.482 29.7012 117.783 28.7196C118.046 27.8488 118.479 27.0384 119.056 26.3349C119.617 25.6668 120.323 25.1346 121.119 24.778C121.995 24.4097 122.937 24.22 123.888 24.22C124.838 24.22 125.779 24.4097 126.656 24.778C127.448 25.1359 128.15 25.6681 128.708 26.3349C129.285 27.0384 129.718 27.8488 129.981 28.7196C130.282 29.7012 130.43 30.7232 130.42 31.7498C130.429 32.787 130.292 33.8203 130.012 34.8191ZM153.744 30.7964C153.573 30.2884 153.346 29.8004 153.069 29.3408C152.808 28.9019 152.477 28.508 152.091 28.1741C151.702 27.8421 151.257 27.5808 150.778 27.4017C150.247 27.2065 149.687 27.1108 149.121 27.1195C148.697 27.1123 148.276 27.1781 147.874 27.3139C147.529 27.4327 147.204 27.5995 146.906 27.8095C146.64 27.9984 146.396 28.2173 146.179 28.4617C145.974 28.6967 145.796 28.9186 145.645 29.1274H145.595V22.5256H143.286V29.1274H143.236C143.086 28.9186 142.906 28.6967 142.695 28.4617C142.478 28.2173 142.234 27.9984 141.967 27.8095C141.669 27.5992 141.342 27.4324 140.995 27.3139C140.595 27.1793 140.176 27.1135 139.753 27.1195C139.188 27.1108 138.626 27.2065 138.097 27.4017C137.617 27.5808 137.173 27.8421 136.784 28.1741C136.397 28.5076 136.066 28.9016 135.804 29.3408C135.528 29.8004 135.302 30.2884 135.13 30.7964C134.956 31.3301 134.832 31.8783 134.757 32.4345C134.674 33.0059 134.631 33.5826 134.631 34.1602C134.614 35.2183 134.761 36.2726 135.07 37.2848C135.319 38.1034 135.712 38.8708 136.231 39.5507C136.674 40.125 137.237 40.5944 137.881 40.9253C138.473 41.2277 139.126 41.3869 139.789 41.3899C140.111 41.3905 140.432 41.363 140.749 41.3074C141.064 41.2537 141.369 41.1521 141.653 41.0063C141.961 40.847 142.24 40.6395 142.482 40.3919C142.779 40.0818 143.035 39.7335 143.241 39.3563H143.291V46.2713H145.601V39.3563H145.651C145.85 39.736 146.104 40.0849 146.403 40.3919C146.649 40.6386 146.93 40.8459 147.239 41.0063C147.523 41.1521 147.828 41.2537 148.143 41.3074C148.46 41.363 148.78 41.3905 149.103 41.3899C149.766 41.3869 150.419 41.2277 151.011 40.9253C151.655 40.594 152.218 40.1246 152.661 39.5507C153.18 38.8708 153.573 38.1034 153.821 37.2848C154.13 36.2725 154.278 35.2182 154.26 34.1602C154.26 33.5826 154.218 33.0059 154.134 32.4345C154.055 31.8778 153.924 31.3295 153.744 30.7964ZM143.289 35.6036C143.289 36.8577 143.036 37.8263 142.531 38.5096C142.024 39.1928 141.291 39.5336 140.328 39.5318C139.921 39.5411 139.517 39.4619 139.143 39.2996C138.809 39.1488 138.508 38.9336 138.257 38.6662C138.001 38.3912 137.789 38.0777 137.63 37.7372C137.458 37.3793 137.322 37.0052 137.225 36.6204C137.125 36.2241 137.051 35.8211 137.006 35.4146C136.96 35.0232 136.937 34.6297 136.936 34.2358C136.933 33.5699 136.996 32.9054 137.126 32.2522C137.234 31.6819 137.437 31.1341 137.728 30.6317C137.988 30.1835 138.355 29.8061 138.794 29.5326C139.273 29.2521 139.821 29.1117 140.375 29.1274C140.76 29.1292 141.138 29.2218 141.48 29.3975C141.841 29.582 142.159 29.8433 142.409 30.1631C142.695 30.5336 142.912 30.9526 143.049 31.4C143.215 31.9469 143.296 32.5164 143.286 33.088L143.289 35.6036ZM151.886 35.4146C151.846 35.8213 151.775 36.2244 151.673 36.6204C151.575 37.0051 151.439 37.3792 151.268 37.7372C151.108 38.0787 150.893 38.3923 150.634 38.6662C150.376 38.9359 150.067 39.1512 149.724 39.2996C149.34 39.4608 148.926 39.5399 148.509 39.5318C147.573 39.5318 146.852 39.1911 146.349 38.5096C145.846 37.8281 145.595 36.8594 145.597 35.6036V33.0812C145.587 32.5096 145.667 31.94 145.835 31.3933C145.971 30.9458 146.189 30.5268 146.475 30.1564C146.724 29.8363 147.041 29.5749 147.404 29.3907C147.745 29.215 148.124 29.1224 148.509 29.1207C149.059 29.1061 149.602 29.2465 150.077 29.5258C150.517 29.7997 150.883 30.1771 151.144 30.6249C151.434 31.1283 151.64 31.6756 151.752 32.2453C151.886 32.8981 151.951 33.5629 151.947 34.229C151.947 34.6245 151.927 35.0198 151.886 35.4132V35.4146ZM159.062 37.8439H159.012V27.5327H156.703V40.9753H159.351L165.94 30.6709H165.99V40.9753H168.311V27.5327H165.663L159.062 37.8439ZM179.427 37.6441C179.245 38.0278 178.998 38.3777 178.699 38.6784C178.423 38.9539 178.095 39.1715 177.733 39.3184C177.37 39.4659 176.982 39.5406 176.592 39.5386C176.068 39.5474 175.548 39.4472 175.067 39.2441C174.614 39.0431 174.223 38.727 173.93 38.3273C173.592 37.851 173.349 37.3141 173.215 36.7461C173.035 35.9946 172.95 35.2232 172.964 34.4505C172.958 33.7237 173.036 32.9987 173.197 32.29C173.326 31.6915 173.565 31.1218 173.898 30.6088C174.205 30.14 174.626 29.758 175.123 29.4998C175.62 29.2414 176.175 29.1155 176.735 29.1342C177.663 29.1342 178.383 29.3934 178.895 29.912C179.406 30.4305 179.721 31.1462 179.84 32.0591H182C181.972 31.695 181.916 31.3339 181.831 30.9788C181.741 30.5962 181.61 30.2241 181.443 29.8688C181.263 29.4939 181.037 29.1436 180.768 28.8263C180.478 28.4831 180.134 28.1885 179.75 27.954C179.312 27.687 178.837 27.4842 178.34 27.3517C177.732 27.1931 177.105 27.1173 176.476 27.1263C175.705 27.1242 174.944 27.2959 174.248 27.6285C173.534 27.968 172.901 28.4554 172.39 29.0586C171.83 29.7292 171.399 30.4973 171.117 31.3244C170.786 32.2915 170.626 33.3084 170.64 34.3303C170.63 35.1385 170.713 35.9451 170.89 36.7339C171.037 37.3726 171.263 37.9902 171.565 38.5717C171.818 39.0632 172.148 39.5106 172.545 39.8964C172.898 40.2378 173.293 40.5311 173.723 40.7687C174.123 40.9891 174.552 41.1519 174.998 41.2521C175.405 41.3451 175.822 41.3936 176.24 41.3966C176.888 41.4058 177.535 41.323 178.16 41.1508C178.678 41.0081 179.17 40.7882 179.623 40.4986C180.019 40.2424 180.375 39.9274 180.677 39.5642C180.955 39.2266 181.193 38.8577 181.386 38.4651C181.565 38.0979 181.705 37.7133 181.806 37.3173C181.896 36.9666 181.96 36.6102 182 36.2505H179.84C179.771 36.7302 179.633 37.1974 179.43 37.6373L179.427 37.6441ZM75.668 39.7587H75.6153L68.6412 23.1252H67.0654V40.9834H68.1658V24.4755H68.2158L75.0927 40.982H76.1932L82.9959 24.4755H83.0418V40.9834H84.1423V23.1252H82.5705L75.668 39.7587ZM97.0667 29.8296C96.565 29.2112 95.9331 28.7114 95.2161 28.3658C94.4206 28.0115 93.5604 27.8284 92.6901 27.8284C91.8199 27.8284 90.9594 28.0115 90.1645 28.3658C89.4455 28.7114 88.8116 29.2111 88.3079 29.8296C87.7982 30.4645 87.4126 31.1897 87.171 31.9672C86.9078 32.8047 86.777 33.678 86.7834 34.5558C86.7776 35.4375 86.9084 36.3148 87.171 37.1566C87.4091 37.9359 87.7951 38.6621 88.3079 39.2955C88.8125 39.9074 89.4441 40.4023 90.159 40.7457C90.9539 41.1001 91.8145 41.2832 92.6845 41.2832C93.5549 41.2832 94.416 41.1001 95.2106 40.7457C95.9257 40.4029 96.5577 39.908 97.0612 39.2955C97.574 38.6619 97.9611 37.9357 98.1995 37.1566C98.4619 36.3147 98.5922 35.4374 98.5875 34.5558C98.5931 33.6781 98.4628 32.8048 98.1995 31.9672C97.9593 31.1903 97.5749 30.4653 97.0667 29.8296ZM97.3171 36.7636C97.1166 37.4448 96.796 38.085 96.3719 38.6541C95.9589 39.2011 95.4295 39.6494 94.8216 39.9666C94.1591 40.2874 93.432 40.4541 92.6956 40.4541C91.9591 40.4541 91.2324 40.2874 90.5695 39.9666C89.9602 39.6497 89.429 39.2013 89.014 38.6541C88.5899 38.0846 88.27 37.4446 88.0688 36.7636C87.6349 35.32 87.6349 33.7807 88.0688 32.3372C88.2695 31.656 88.5896 31.0159 89.014 30.4467C89.427 29.8993 89.9564 29.4505 90.5641 29.1329C91.2269 28.812 91.9538 28.6453 92.6901 28.6453C93.4264 28.6453 94.1536 28.812 94.816 29.1329C95.424 29.4502 95.9534 29.899 96.3664 30.4467C96.7914 31.0157 97.1111 31.6559 97.3116 32.3372C97.7449 33.7807 97.7449 35.32 97.3116 36.7636H97.3171ZM103.896 25.1844C104.527 25.7102 105.318 25.9727 106.272 25.9717C106.68 25.9739 107.084 25.8931 107.46 25.7341C107.83 25.5792 108.169 25.3593 108.461 25.0846C108.754 24.8062 108.999 24.4808 109.186 24.1217C109.374 23.7632 109.498 23.3734 109.549 22.9713H108.724C108.632 23.5779 108.337 24.1354 107.887 24.5525C107.437 24.9548 106.85 25.1688 106.248 25.1507C105.986 25.15 105.727 25.1205 105.473 25.0629C105.198 25.002 104.939 24.8873 104.71 24.7253C104.45 24.5415 104.225 24.3128 104.046 24.0501C103.828 23.7227 103.676 23.3558 103.597 22.9699H102.77C102.888 23.925 103.264 24.665 103.896 25.1899V25.1844ZM102.046 39.7344H102.021V28.1282H101.076V40.9834H102.252L110.279 29.4285H110.304V40.9834H111.249V28.1282H110.047L102.046 39.7344Z" fill="#0E0D0C"/>
</svg>
