<svg width="208" height="66" viewBox="0 0 208 66" fill="none" xmlns="http://www.w3.org/2000/svg">
<g clip-path="url(#clip0_12_753)">
<path fill-rule="evenodd" clip-rule="evenodd" d="M0 40.8954V12.9126H11.1396V40.8954C11.1396 42.7499 12.6359 44.2533 14.4817 44.2533H42.3307V55.4466H14.4817C6.4836 55.4466 0 48.9318 0 40.8954Z" fill="#0E0D0C"/>
<path fill-rule="evenodd" clip-rule="evenodd" d="M15.5962 30.8216V12.9126H26.7359V28.583H42.3315V39.7762H24.5079C19.5861 39.7762 15.5962 35.7671 15.5962 30.8216Z" fill="#0E0D0C"/>
<path d="M64.6185 52.3412C65.2377 52.3412 65.728 52.2116 66.0891 51.9523C66.4677 51.6931 66.7515 51.2782 66.9407 50.7079C67.1471 50.1375 67.2846 49.3943 67.3536 48.4782C67.4224 47.5623 67.4567 46.456 67.4567 45.1597V37.6411H82.9381V55.5301H79.3258V40.5967H70.811V45.1597C70.811 47.0782 70.7336 48.6943 70.5788 50.0079C70.424 51.3216 70.1402 52.3931 69.7273 53.2227C69.3145 54.0351 68.7382 54.6227 67.9985 54.9857C67.2589 55.3487 66.3042 55.5301 65.1344 55.5301H64.0767V52.3412H64.6185Z" fill="#0E0D0C"/>
<path d="M90.8644 55.5301H86.9683V37.6411H90.5805V51.0708L101.237 37.6411H105.107V55.5301H101.521V42.1004L90.8644 55.5301Z" fill="#0E0D0C"/>
<path d="M112.755 37.6411V44.8745H123.308V37.6411H126.92V55.5301H123.308V47.8301H112.755V55.5301H109.142V37.6411H112.755Z" fill="#0E0D0C"/>
<path d="M148.511 37.6411L140.228 46.2486L149 55.5301H144.356L137.054 47.8819H134.525V55.5301H130.913V37.6411H134.525V44.9264H137.183L144.227 37.6411H148.511Z" fill="#0E0D0C"/>
<path d="M68.9757 14.7483V29.604H65.6729V11.715H71.2977L76.7421 26.3632L82.238 11.715H87.6823V29.604H84.0958V14.6705L78.4709 29.604H74.5747L68.9757 14.7483Z" fill="#0E0D0C"/>
<path d="M90.1025 14.6705V11.715H108.267V14.6705H100.991V29.604H97.3788V14.6705H90.1025Z" fill="#0E0D0C"/>
<path d="M108.943 20.6855C108.943 18.9917 109.158 17.5571 109.588 16.3817C110.036 15.1891 110.681 14.2299 111.524 13.5039C112.367 12.7607 113.399 12.2249 114.62 11.8965C115.841 11.5681 117.243 11.4039 118.826 11.4039C121.664 11.4039 123.874 11.8792 125.457 12.8299C127.039 13.7632 127.96 15.3274 128.218 17.5225H124.58C124.339 16.2435 123.745 15.3793 122.799 14.9299C121.853 14.4632 120.529 14.2299 118.826 14.2299C117.88 14.2299 117.019 14.3163 116.245 14.4891C115.471 14.662 114.809 14.9644 114.259 15.3966C113.725 15.8114 113.313 16.3731 113.02 17.0818C112.728 17.7904 112.582 18.6719 112.582 19.7262V21.541C112.582 22.5781 112.728 23.451 113.02 24.1595C113.313 24.8682 113.725 25.4386 114.259 25.8707C114.809 26.3029 115.463 26.614 116.22 26.804C116.994 26.9942 117.862 27.0892 118.826 27.0892C119.651 27.0892 120.382 27.046 121.019 26.9596C121.672 26.8733 122.24 26.7177 122.722 26.4929C123.203 26.251 123.599 25.9312 123.909 25.5336C124.218 25.1362 124.451 24.6262 124.605 24.004H128.244C127.917 26.1127 126.962 27.6251 125.379 28.5411C123.814 29.4572 121.629 29.9151 118.826 29.9151C117.243 29.9151 115.841 29.7596 114.62 29.4485C113.399 29.1201 112.367 28.5929 111.524 27.867C110.681 27.1411 110.036 26.1905 109.588 25.0151C109.158 23.8399 108.943 22.3966 108.943 20.6855Z" fill="#0E0D0C"/>
</g>
<defs>
<clipPath id="clip0_12_753">
<rect width="208" height="66" fill="white"/>
</clipPath>
</defs>
</svg>
