<svg width="208" height="66" viewBox="0 0 208 66" fill="none" xmlns="http://www.w3.org/2000/svg">
<path d="M10.0778 7.72559H15.9565V13.6043H10.0778C7.67834 13.6043 5.87873 15.5239 5.87873 17.8034V25.2418H0V17.8034C0 12.2846 4.55901 7.72559 10.0778 7.72559Z" fill="#464645"/>
<path fill-rule="evenodd" clip-rule="evenodd" d="M75.8237 30.2807C75.8237 25.3618 79.7827 21.2827 84.8216 21.2827C89.8605 21.2827 93.8197 25.3618 93.8197 30.2807C93.8197 35.1997 89.8605 39.2788 84.8216 39.2788C79.9027 39.2788 75.8237 35.1997 75.8237 30.2807ZM79.4228 30.2807C79.4228 33.2801 81.8223 35.6796 84.8216 35.6796C87.821 35.6796 90.2205 33.2801 90.2205 30.2807C90.2205 27.2814 87.821 24.8819 84.8216 24.8819C81.8223 24.8819 79.4228 27.2814 79.4228 30.2807ZM112.776 30.2807C112.776 25.3618 116.735 21.2827 121.774 21.2827C126.693 21.2827 130.772 25.3618 130.772 30.2807C130.772 35.1997 126.813 39.2788 121.774 39.2788C116.855 39.2788 112.776 35.1997 112.776 30.2807ZM116.375 30.2807C116.375 33.2801 118.774 35.6796 121.774 35.6796C124.653 35.6796 127.172 33.2801 127.172 30.2807C127.172 27.2814 124.773 24.8819 121.774 24.8819C118.774 24.8819 116.375 27.2814 116.375 30.2807ZM146.968 21.2827H148.168C153.087 21.2827 157.166 25.3618 157.166 30.2807C157.166 35.1997 153.207 39.2788 148.168 39.2788H146.968V42.2781H143.369V39.2788H142.169C137.25 39.2788 133.171 35.1997 133.171 30.2807C133.171 25.3618 137.13 21.2827 142.169 21.2827H143.369V18.2833H146.968V21.2827ZM136.77 30.2807C136.77 33.2801 139.17 35.6796 142.169 35.6796H143.369V24.8819H142.169C139.17 24.8819 136.77 27.2814 136.77 30.2807ZM146.968 35.6796H148.168C151.167 35.6796 153.567 33.2801 153.567 30.2807C153.567 27.2814 151.167 24.8819 148.168 24.8819H146.968V35.6796ZM43.4307 21.2827C45.7102 21.2827 47.6298 22.2425 49.0695 23.8021V21.6426H52.7886V38.9189H49.0695V36.7593C47.6298 38.319 45.7102 39.2788 43.4307 39.2788C38.3917 39.2788 34.5525 35.1997 34.5525 30.2807C34.5525 25.3618 38.3917 21.2827 43.4307 21.2827ZM38.1517 30.2807C38.1517 33.2801 40.5512 35.6796 43.5506 35.6796C46.5499 35.6796 49.0695 33.2801 49.0695 30.2807C49.0695 27.2814 46.5499 24.8819 43.5506 24.8819C40.5512 24.8819 38.1517 27.2814 38.1517 30.2807ZM158.126 25.2418V21.6426H173.722V25.2418H167.844V38.7989H164.124V25.2418H158.126ZM19.6757 28.4811H27.8341V21.6426H31.5532V38.7989H27.8341V32.0803H19.6757V38.7989H15.9565V21.6426H19.6757V28.4811ZM60.827 28.4811H68.9851V21.6426H72.7043V38.7989H68.9851V32.0803H60.827V38.7989H57.1076V21.6426H60.827V28.4811ZM109.176 26.5615C108.097 25.4818 106.777 24.8819 105.217 24.8819C102.218 24.8819 99.8184 27.2814 99.8184 30.2807C99.8184 33.2801 102.218 35.6796 105.217 35.6796C106.777 35.6796 108.217 35.0797 109.176 33.9999L111.816 36.5194C110.136 38.1991 107.857 39.2788 105.337 39.2788C100.418 39.2788 96.3391 35.1997 96.3391 30.2807C96.3391 25.3618 100.298 21.2827 105.337 21.2827C107.857 21.2827 110.136 22.3626 111.816 24.0421L109.176 26.5615ZM169.043 53.3157H174.922C180.441 53.3157 185 48.7567 185 43.2379V35.7995H179.121V43.2379C179.121 45.5174 177.322 47.437 174.922 47.437H169.043V53.3157Z" fill="#0E0D0C"/>
<path fill-rule="evenodd" clip-rule="evenodd" d="M72.704 47.797C73.9037 47.797 74.9835 48.157 75.7033 48.8767C76.4232 49.5966 76.7831 50.6763 76.7831 51.8761C76.7831 53.0758 76.3032 54.1557 75.4634 54.8754C74.6236 55.5953 73.5438 56.0752 72.2241 56.0752C70.7844 56.0752 69.5847 55.5953 68.7448 54.6355C67.905 53.6757 67.5451 52.236 67.5451 50.4364C67.5451 46.9572 68.9848 45.0376 71.9841 44.3177L75.9433 43.4779L76.1832 45.2775L72.584 45.9974C71.5042 46.2373 70.7844 46.5972 70.3045 47.0771C69.8246 47.5571 69.4647 48.2769 69.4647 49.2367C70.3045 48.2769 71.3843 47.797 72.704 47.797ZM70.5445 53.7957C71.0244 54.2756 71.6242 54.5155 72.3441 54.5155C73.0639 54.5155 73.6638 54.2756 74.1437 53.7957C74.6236 53.3158 74.8635 52.7159 74.8635 51.9961C74.8635 51.2762 74.6236 50.6763 74.1437 50.1965C73.6638 49.7166 73.0639 49.4766 72.3441 49.4766C71.6242 49.4766 71.0244 49.7166 70.5445 50.1965C70.0646 50.6763 69.8246 51.2762 69.8246 51.9961C69.8246 52.7159 70.0646 53.3158 70.5445 53.7957ZM79.3026 54.8754C78.4627 54.0356 77.9828 52.9559 77.9828 51.7561C77.9828 50.4364 78.4627 49.4766 79.3026 48.6368C80.1424 47.797 81.2221 47.437 82.5419 47.437C83.8616 47.437 84.9413 47.797 85.7812 48.6368C86.621 49.4766 87.1009 50.5564 87.1009 51.7561C87.1009 53.0758 86.621 54.0356 85.7812 54.8754C84.9413 55.7153 83.8616 56.0752 82.5419 56.0752C81.2221 56.0752 80.1424 55.7153 79.3026 54.8754ZM80.7422 53.6757C81.2221 54.1557 81.822 54.3955 82.5419 54.3955C83.2617 54.3955 83.8616 54.1557 84.3415 53.6757C84.8214 53.1958 85.0613 52.5959 85.0613 51.7561C85.0613 50.9163 84.8214 50.3164 84.3415 49.8365C83.8616 49.3566 83.2617 49.1167 82.5419 49.1167C81.822 49.1167 81.2221 49.3566 80.7422 49.8365C80.2623 50.3164 80.0224 50.9163 80.0224 51.7561C80.0224 52.476 80.2623 53.1958 80.7422 53.6757ZM95.739 47.437V49.1167H92.7396V55.9552H90.7001V49.1167H87.7007V47.437H95.739ZM103.177 55.9552L100.538 52.5959H98.9783V56.0752H96.9387V47.557H98.9783V51.0363H100.538L103.057 47.557H105.217L102.098 51.6361L105.457 56.0752H103.177V55.9552ZM23.7546 48.5168C22.9149 47.677 21.9551 47.3171 20.6354 47.3171C19.4356 47.3171 18.4759 47.677 17.756 48.5168V47.437H15.8364V59.0745H17.876V54.8754C18.5958 55.7153 19.4356 56.0752 20.6354 56.0752C21.9551 56.0752 22.9149 55.7153 23.7546 54.8754C24.5945 54.0356 24.9543 52.9559 24.9543 51.6361C24.9543 50.4364 24.5945 49.3566 23.7546 48.5168ZM20.3954 54.3955C19.6756 54.3955 19.0757 54.1556 18.5958 53.6757C18.1159 53.1958 17.876 52.476 17.876 51.7561C17.876 50.9163 18.1159 50.3164 18.5958 49.8365C19.0757 49.3566 19.6756 49.1167 20.3954 49.1167C21.1153 49.1167 21.7152 49.3566 22.195 49.8365C22.6749 50.3164 22.9149 50.9163 22.9149 51.7561C22.9149 52.5959 22.6749 53.1958 22.195 53.6757C21.7152 54.1556 21.1153 54.3955 20.3954 54.3955ZM35.2721 47.437H33.2325V48.3968C32.5127 47.677 31.6729 47.3171 30.4731 47.3171C29.1534 47.3171 28.1936 47.677 27.3538 48.5168C26.514 49.2367 26.1541 50.3164 26.1541 51.6361C26.1541 52.9559 26.514 54.0356 27.3538 54.8754C28.1936 55.7153 29.1534 56.0752 30.4731 56.0752C31.7929 56.0752 32.6327 55.7153 33.3525 54.8754V55.9552H35.2721V47.437ZM30.7131 54.3955C29.9932 54.3955 29.3934 54.1556 28.9135 53.6757C28.4336 53.1958 28.1936 52.476 28.1936 51.7561C28.1936 50.9163 28.4336 50.1964 28.9135 49.8365C29.3934 49.3566 29.9932 49.1167 30.7131 49.1167C31.4329 49.1167 32.0328 49.3566 32.5127 49.8365C32.9926 50.3164 33.2325 50.9163 33.2325 51.7561C33.2325 52.5959 32.9926 53.1958 32.5127 53.6757C32.0328 54.1556 31.4329 54.3955 30.7131 54.3955ZM42.8305 51.5162C43.3104 51.6361 43.7903 51.8761 44.0302 52.236C44.2701 52.5959 44.5101 52.9559 44.5101 53.4357C44.5101 54.2756 44.1502 54.8754 43.3104 55.3553C42.5905 55.8352 41.5107 56.0752 40.311 56.0752C38.9913 56.0752 37.6716 55.8352 36.7118 55.2354L37.3117 53.7957C38.1515 54.2756 39.2312 54.5155 40.311 54.5155C41.0308 54.5155 41.5107 54.3955 41.8707 54.1556C42.2306 53.9156 42.4705 53.6757 42.4705 53.3158C42.4705 52.5959 41.8707 52.236 40.7909 52.236H39.1113V50.9163H40.6709C41.1508 50.9163 41.5107 50.7963 41.8707 50.6763C42.1106 50.5564 42.3506 50.3164 42.3506 49.9565C42.3506 49.5966 42.2306 49.3566 41.8707 49.2367C41.5107 48.9967 41.0308 48.9967 40.431 48.9967C39.5912 48.9967 38.6314 49.2367 37.6716 49.5966L37.1917 48.1569C38.2714 47.677 39.4712 47.3171 40.551 47.3171C41.6307 47.3171 42.5905 47.557 43.3104 47.9169C44.0302 48.3968 44.3901 48.8767 44.3901 49.5966C44.3901 49.9565 44.2701 50.4364 44.0302 50.6763C43.6703 51.0363 43.3104 51.3962 42.8305 51.5162ZM51.1087 47.3171C52.4284 47.3171 53.3882 47.677 54.228 48.5168C55.0678 49.3566 55.4277 50.4364 55.4277 51.6361C55.4277 52.9559 55.0678 54.0356 54.228 54.8754C53.3882 55.7153 52.4284 56.0752 51.1087 56.0752C49.9089 56.0752 49.0691 55.7153 48.3493 54.8754V59.0745H46.3097V47.437H48.2293V48.5168C48.9491 47.677 49.9089 47.3171 51.1087 47.3171ZM49.0691 53.6757C49.549 54.1556 50.1489 54.3955 50.8687 54.3955C51.5886 54.3955 52.1884 54.1556 52.6683 53.6757C53.1482 53.1958 53.3882 52.5959 53.3882 51.7561C53.3882 50.9163 53.1482 50.3164 52.6683 49.8365C52.1884 49.2367 51.5886 48.9967 50.8687 48.9967C50.1489 48.9967 49.549 49.2367 49.0691 49.7166C48.5892 50.1965 48.3493 50.7963 48.3493 51.6361C48.3493 52.476 48.5892 53.1958 49.0691 53.6757ZM65.7455 47.437H63.7059V48.3968C62.9862 47.677 62.1463 47.3171 60.9465 47.3171C59.6269 47.3171 58.6671 47.677 57.8273 48.5168C56.9875 49.2367 56.6276 50.3164 56.6276 51.6361C56.6276 52.9559 56.9875 54.0356 57.8273 54.8754C58.6671 55.7153 59.6269 56.0752 60.9465 56.0752C62.2663 56.0752 63.1062 55.7153 63.826 54.8754V55.9552H65.7455V47.437ZM61.0666 54.3955C60.3468 54.3955 59.7469 54.1556 59.267 53.6757C58.7871 53.1958 58.5471 52.476 58.5471 51.7561C58.5471 50.9163 58.7871 50.3164 59.267 49.8365C59.7469 49.3566 60.3468 49.1167 61.0666 49.1167C61.7865 49.1167 62.3863 49.3566 62.8662 49.8365C63.3461 50.3164 63.5861 50.9163 63.5861 51.7561C63.5861 52.5959 63.3461 53.1958 62.8662 53.6757C62.3863 54.1556 61.7865 54.3955 61.0666 54.3955ZM114.815 47.437H112.775V48.3968C112.055 47.677 111.216 47.3171 110.016 47.3171C108.696 47.3171 107.736 47.797 106.897 48.5168C106.057 49.2367 105.697 50.3164 105.697 51.6361C105.697 52.9559 106.057 54.0356 106.897 54.8754C107.736 55.7153 108.696 56.0752 110.016 56.0752C111.336 56.0752 112.175 55.7153 112.895 54.8754V55.9552H114.815V47.437ZM110.256 54.3955C109.536 54.3955 108.936 54.1556 108.456 53.6757C107.976 53.1958 107.736 52.476 107.736 51.6361C107.736 50.7963 107.976 50.1965 108.456 49.7166C108.936 49.2367 109.536 48.9967 110.256 48.9967C110.976 48.9967 111.576 49.2367 112.055 49.8365C112.535 50.3164 112.775 50.9163 112.775 51.7561C112.775 52.5959 112.535 53.1958 112.055 53.6757C111.576 54.1556 110.976 54.3955 110.256 54.3955Z" fill="#0E0D0C"/>
</svg>
