<svg width="208" height="66" viewBox="0 0 208 66" fill="none" xmlns="http://www.w3.org/2000/svg">
<path d="M0 45.0529V21.9472C0 21.4388 0.0462115 20.9459 0.154038 20.4376C0.246461 19.9447 0.385096 19.4671 0.585346 19.005C0.785595 18.5429 1.01665 18.0962 1.29392 17.6803C1.58659 17.249 1.89467 16.8639 2.24896 16.4942C2.61865 16.1399 3.00375 15.8318 3.41965 15.5392C3.83555 15.2465 4.28226 15.0154 4.74438 14.8306C5.20649 14.6457 5.69942 14.4917 6.19234 14.3993C6.68526 14.3069 7.19359 14.2452 7.70192 14.2452H30.8077C31.316 14.2452 31.8089 14.2915 32.3172 14.3993C32.8102 14.4917 33.2877 14.6457 33.7652 14.8306C34.2427 15.0154 34.674 15.2619 35.0899 15.5392C35.5058 15.8164 35.9063 16.1399 36.2606 16.4942C36.6149 16.8485 36.9384 17.2336 37.2157 17.6649C37.4929 18.0808 37.7394 18.5275 37.9242 18.9896C38.1245 19.4517 38.2631 19.9447 38.3555 20.4376C38.4634 20.9459 38.5096 21.4388 38.5096 21.9472V45.0529C38.5096 45.5612 38.4634 46.0541 38.3555 46.5625C38.2631 47.0554 38.1091 47.5329 37.9242 48.0104C37.7394 48.488 37.4929 48.9193 37.2157 49.3352C36.9384 49.7511 36.6149 50.1516 36.2606 50.5059C35.9063 50.8601 35.5212 51.1836 35.0899 51.4609C34.674 51.7382 34.2273 51.9846 33.7652 52.1695C33.3031 52.3697 32.8102 52.5084 32.3172 52.6008C31.8089 52.7086 31.316 52.7548 30.8077 52.7548H7.70192C7.19359 52.7548 6.70067 52.7086 6.19234 52.6008C5.68401 52.493 5.2219 52.3543 4.74438 52.1695C4.26686 51.9846 3.83555 51.7382 3.41965 51.4609C3.00375 51.1836 2.60325 50.8601 2.24896 50.5059C1.89467 50.1516 1.57119 49.7665 1.29392 49.3352C1.01665 48.9193 0.770192 48.4726 0.585346 48.0104C0.4005 47.5483 0.246461 47.0554 0.154038 46.5625C0.0462115 46.0541 0 45.5612 0 45.0529Z" fill="#0E0D0C"/>
<path d="M25.832 30.3422C24.8616 31.405 23.198 31.405 22.2275 30.3422C21.3957 29.4334 21.3957 28.0162 22.2275 27.1074C23.198 26.0445 24.8616 26.0445 25.832 27.1074C26.6638 28.0162 26.6638 29.4334 25.832 30.3422ZM27.8191 24.8584C24.8924 21.9933 20.2096 22.0087 17.2983 24.9046C14.9415 27.246 14.4948 30.7581 15.9274 33.5616C15.9736 33.6694 15.9582 33.808 15.8811 33.8851L8.56432 41.1865C8.51811 41.2327 8.4873 41.3097 8.4873 41.3867V44.0054C8.4873 44.1594 8.61054 44.2826 8.76457 44.2826H11.3986C11.4756 44.2826 11.5373 44.2518 11.5989 44.2056L13.817 42.0029C13.8632 41.9567 13.9403 41.9259 14.0173 41.9259H16.944C17.2521 41.9259 17.5139 41.6794 17.5139 41.3559V38.4292C17.5139 38.3522 17.5448 38.2906 17.591 38.2289L18.9311 36.8888C19.0235 36.7964 19.1468 36.781 19.2546 36.8426C22.0581 38.2443 25.5548 37.7822 27.8807 35.4562C30.7766 32.5295 30.7612 27.7389 27.8191 24.8584Z" fill="#FBFBFB"/>
<path d="M53.9136 22.7173H70.9348V43.7589H67.1301V25.9983H57.7337V43.7435H53.9136V22.7173Z" fill="#0E0D0C"/>
<path d="M79.4992 41.2327C81.5942 41.2327 82.9651 39.107 82.9651 37.2739V36.858H82.3181C80.4235 36.858 77.2195 37.1199 77.2195 39.2456C77.2195 40.2469 77.9743 41.2327 79.4992 41.2327ZM82.2719 34.2702H82.9189V34.0545C82.9189 32.0674 81.6404 31.3897 80.0846 31.3897C78.6058 31.3897 77.0962 32.0212 75.8793 32.8376L74.493 30.1419C75.7253 29.1407 78.1591 28.2781 80.4235 28.2781C84.3669 28.2781 86.6928 30.4808 86.6928 34.2856V43.7281H83.1962V42.4496C83.1962 41.818 83.2732 41.3559 83.2732 41.3559H83.2116C82.2873 42.9579 80.4851 44.0824 78.4364 44.0824C75.7099 44.0824 73.4609 42.2956 73.4609 39.5537C73.4917 35.0404 78.9293 34.2702 82.2719 34.2702Z" fill="#0E0D0C"/>
<path d="M97.1365 28.2781C99.1852 28.2781 101.496 28.9558 102.944 30.527L101.265 33.0995C100.325 32.1598 98.8309 31.4667 97.3522 31.4667C94.5641 31.4667 92.7618 33.5616 92.7618 36.134C92.7618 38.6757 94.5641 40.8784 97.4754 40.8784C99.0774 40.8784 100.787 40.0466 101.912 38.9529L103.36 41.6178C101.943 43.1274 99.5549 44.0824 97.1365 44.0824C92.1303 44.0824 88.9263 40.5703 88.9263 36.1648C88.9263 31.898 92.1303 28.2781 97.1365 28.2781Z" fill="#0E0D0C"/>
<path d="M112.279 28.2781C114.327 28.2781 116.638 28.9558 118.086 30.527L116.407 33.0995C115.467 32.1598 113.973 31.4667 112.494 31.4667C109.706 31.4667 107.904 33.5616 107.904 36.134C107.904 38.6757 109.706 40.8784 112.617 40.8784C114.219 40.8784 115.929 40.0466 117.054 38.9529L118.502 41.6178C117.085 43.1274 114.697 44.0824 112.279 44.0824C107.272 44.0824 104.068 40.5703 104.068 36.1648C104.068 31.898 107.272 28.2781 112.279 28.2781Z" fill="#0E0D0C"/>
<path d="M127.036 41.2635C128.715 41.2635 129.531 40.4009 129.531 39.2456C129.531 38.0287 128.668 37.1969 127.036 37.1969H124.278V41.2635H127.036ZM126.728 34.8555C128.145 34.8555 128.822 34.0237 128.822 32.8684C128.822 31.7747 128.145 31.0816 126.666 31.0816H124.278V34.8401L126.728 34.8555ZM120.504 28.6478H127.529C130.578 28.6478 132.627 30.0187 132.627 32.5603C132.627 33.9467 131.919 35.256 130.64 35.8722V35.903C132.442 36.3805 133.305 37.8593 133.305 39.3688C133.305 42.388 130.84 43.7435 127.667 43.7435H120.504V28.6478Z" fill="#0E0D0C"/>
<path d="M143.21 40.8938C145.674 40.8938 147.723 38.9991 147.723 36.1802C147.723 33.3921 145.674 31.4667 143.21 31.4667C140.745 31.4667 138.727 33.3921 138.727 36.1802C138.743 39.0145 140.745 40.8938 143.21 40.8938ZM143.179 28.2781C147.8 28.2781 151.497 31.5591 151.497 36.1956C151.497 40.8476 147.8 44.1132 143.21 44.1132C138.619 44.1132 134.922 40.863 134.922 36.1956C134.922 31.5591 138.619 28.2781 143.179 28.2781Z" fill="#0E0D0C"/>
<path d="M161.17 40.9246C163.25 40.9246 164.975 39.2456 164.975 36.2573C164.975 33.3768 163.435 31.5129 161.247 31.5129C159.26 31.5129 157.427 32.93 157.427 36.2881C157.412 38.6141 158.721 40.9246 161.17 40.9246ZM153.776 28.6478H157.211V29.7723C157.211 30.3268 157.15 30.8505 157.15 30.8505H157.211C158.182 29.2177 160.015 28.3089 162.064 28.3089C166.161 28.3089 168.749 31.5437 168.749 36.2265C168.749 41.0325 165.807 44.144 161.848 44.144C160.123 44.144 158.567 43.3738 157.489 42.0183H157.427C157.427 42.0183 157.504 42.542 157.504 43.3276V49.7202H153.746V28.6478H153.776Z" fill="#0E0D0C"/>
<path d="M170.967 28.6478H174.726V34.4242H176.559L180.225 28.6478H184.399L179.609 35.8414V35.8876L185 43.7435H180.656L176.682 37.5974H174.726V43.7435H170.967V28.6478Z" fill="#0E0D0C"/>
</svg>
