<svg width="208" height="66" viewBox="0 0 208 66" fill="none" xmlns="http://www.w3.org/2000/svg">
<mask id="mask0_12_575" style="mask-type:luminance" maskUnits="userSpaceOnUse" x="0" y="9" width="183" height="46">
<path d="M183 9.125H0V54.875H183V9.125Z" fill="white"/>
</mask>
<g mask="url(#mask0_12_575)">
<path d="M28.3025 35.9021L17.8454 25.445C16.8224 24.4219 16.8224 22.8307 17.8454 21.8077L28.3025 11.3505C29.3256 10.3276 30.9168 10.3276 31.9398 11.3505L42.3969 21.8077C43.4199 22.8307 43.4199 24.4219 42.3969 25.445L31.9398 35.9021C30.9168 36.925 29.3256 36.925 28.3025 35.9021Z" fill="#0E0D0C"/>
<path d="M11.2522 51.8151L0.795068 41.4716C-0.227913 40.4486 -0.227913 38.7436 0.795068 37.7206L11.2522 27.2635C12.2752 26.2405 13.8665 26.2405 14.8895 27.2635L25.3466 37.7206C26.3696 38.7436 26.3696 40.4486 25.3466 41.4716L14.8895 51.8151C13.8665 52.838 12.2752 52.838 11.2522 51.8151Z" fill="#0E0D0C"/>
<path d="M45.3528 51.8151L34.8957 41.4716C33.8727 40.4486 33.8727 38.7436 34.8957 37.7206L45.3528 27.2635C46.3758 26.2405 47.9671 26.2405 48.99 27.2635L59.4472 37.7206C60.4702 38.7436 60.4702 40.4486 59.4472 41.4716L48.99 51.8151C47.9671 52.838 46.3758 52.838 45.3528 51.8151Z" fill="#0E0D0C"/>
<path d="M85.7027 41.0168L92.4089 24.6491C92.5225 24.5355 92.4089 24.4218 92.2952 24.4218H86.3846C86.271 24.4218 86.271 24.4218 86.271 24.3081L84.1113 21.0118C84.1113 20.8982 84.1113 20.7845 84.225 20.7845H96.5008C96.6147 20.7845 96.6147 20.8982 96.6147 20.8982V23.5125L89.7946 41.2441C89.7946 41.3578 89.7946 41.3578 89.6809 41.3578H85.9299C85.7027 41.1305 85.7027 41.1305 85.7027 41.0168Z" fill="#0E0D0C"/>
<path d="M95.4795 34.1968L96.6158 31.0141C96.6158 30.9005 96.7297 30.9005 96.7297 30.9005H102.185C102.299 30.9005 102.299 31.0141 102.299 31.0141V34.1968C102.299 34.3105 102.299 34.3105 102.185 34.3105H95.5925C95.4795 34.3105 95.4795 34.3105 95.4795 34.1968Z" fill="#0E0D0C"/>
<path d="M133.898 41.2441V38.1751H133.67C132.193 38.2889 130.601 37.9479 129.238 37.3796C127.987 36.6975 126.965 35.6746 126.169 34.4243C125.487 33.2876 125.032 31.9236 125.146 30.5596C125.146 27.8317 126.624 25.4448 129.01 24.1944C130.374 23.5125 131.852 23.1715 133.33 23.2851H134.012V20.7845H137.877V23.2851H138.558C140.036 23.2851 141.513 23.6261 142.877 24.1944C145.265 25.4448 146.742 27.9454 146.629 30.5596C146.629 31.9236 146.287 33.2876 145.605 34.4243C144.924 35.6746 143.787 36.6975 142.536 37.3796C141.172 37.9479 139.581 38.2889 138.103 38.1751H137.763V41.2441H133.898ZM133.898 26.4677H133.33C132.193 26.4677 131.056 26.8087 130.147 27.6044C129.351 28.4001 129.01 29.423 129.01 30.5596C128.896 31.6963 129.351 32.8329 130.261 33.6286C131.17 34.4243 132.42 34.8789 133.784 34.7653H134.012L133.898 26.4677ZM137.649 34.7653H137.877C139.127 34.7653 140.377 34.4243 141.4 33.6286C142.31 32.8329 142.764 31.6963 142.65 30.5596C142.65 29.423 142.31 28.4001 141.513 27.6044C140.604 26.8087 139.581 26.4677 138.331 26.4677H137.649V34.7653Z" fill="#0E0D0C"/>
<path d="M122.757 30.9003C122.757 34.1966 122.075 36.9245 120.484 38.6295C118.665 40.4481 116.165 41.4712 113.664 41.2438C111.163 41.3574 108.663 40.4481 106.958 38.6295C105.48 36.9245 104.571 34.1966 104.571 30.9003C104.571 27.6041 105.367 25.1034 106.958 23.3985C108.663 21.5798 111.163 20.6705 113.664 20.7842C116.165 20.6705 118.551 21.5798 120.37 23.3985C122.075 25.5581 122.871 28.1724 122.757 30.9003ZM108.777 30.9003C108.663 32.719 109.117 34.5376 110.027 36.2426C110.822 37.3792 112.186 38.0612 113.664 38.0612C116.846 38.0612 118.551 35.4469 118.551 31.014C118.551 26.5811 116.96 23.9668 113.777 23.9668C112.3 23.9668 110.936 24.6488 110.141 25.8991C109.117 27.3767 108.663 29.1954 108.777 30.9003Z" fill="#0E0D0C"/>
<path d="M84.1109 27.0363C84.2245 28.9687 83.4288 30.901 81.9512 32.1513C80.1326 33.4016 77.9729 33.9699 75.8133 33.8563H73.881V41.2444H69.3345V20.7848H76.1543C78.2003 20.6712 80.3599 21.2395 82.0648 22.3761C83.4288 23.5127 84.2245 25.2177 84.1109 27.0363ZM73.881 30.3327H75.3586C76.4953 30.4463 77.5183 30.1053 78.5412 29.537C79.2233 28.9687 79.6779 28.173 79.5643 27.2637C79.6779 26.4681 79.3369 25.5587 78.7686 24.9904C77.9729 24.4221 77.0636 24.1948 76.0407 24.3084H73.881V30.3327Z" fill="#0E0D0C"/>
<path d="M149.013 20.7845H152.651V30.5596L152.537 33.1739L152.309 36.1292H152.423L161.175 20.7845H166.063V41.2441H162.539V31.3553C162.539 29.9913 162.653 28.1727 162.766 25.5584H162.539L153.787 41.2441H148.899L149.013 20.7845Z" fill="#0E0D0C"/>
<path d="M177.317 24.3083C175.839 24.1947 174.588 24.8767 173.793 26.127C172.883 27.6047 172.429 29.3096 172.429 31.0146C172.429 35.3338 174.021 38.0618 177.317 38.0618C179.021 37.9481 180.726 37.6071 182.318 37.0388V40.2214C180.612 40.9034 178.795 41.2444 176.976 41.2444C174.588 41.358 172.202 40.4487 170.61 38.7438C169.019 37.0388 168.337 34.3109 168.337 31.1282C168.337 29.3096 168.678 27.4909 169.474 25.7861C170.155 24.3083 171.292 23.058 172.657 22.2624C174.134 21.4668 175.726 21.0121 177.43 21.0121C179.362 21.0121 181.295 21.4668 183.114 22.3761L181.864 25.7861C181.181 25.445 180.386 25.104 179.704 24.8767C178.795 24.422 177.998 24.3083 177.317 24.3083Z" fill="#0E0D0C"/>
</g>
</svg>
