<svg width="208" height="66" viewBox="0 0 208 66" fill="none" xmlns="http://www.w3.org/2000/svg">
<mask id="mask0_3_231" style="mask-type:luminance" maskUnits="userSpaceOnUse" x="0" y="4" width="190" height="58">
<path d="M190 4.42857H0V61.5714H190V4.42857Z" fill="white"/>
</mask>
<g mask="url(#mask0_3_231)">
<path d="M190 -17.9804H0V61.5714H190V-17.9804Z" fill="#0E0D0C"/>
<path d="M44.8062 47.0056L47.8351 40.8319L38.8604 23.4762H45.8009L50.9756 34.647L55.2451 23.4762H61.5821L51.0204 47.0056H44.8062Z" fill="#0E0D0C"/>
<path d="M67.9753 47.0056V28.4622H61.5713L63.7059 23.4762H79.353V28.4622H73.6641V47.0056H67.9753Z" fill="#0E0D0C"/>
<path d="M124.595 47.0056L115.754 34.8376L124.327 23.4762H117.856L110.647 33.93V28.4062V23.4762H104.958V47.0056H110.647V42.9608V36.2829L117.599 47.0056H124.595Z" fill="#0E0D0C"/>
<path d="M161.847 47.0056V37.0225H153.318V47.0056H147.63V23.4762H153.318V32.7423H161.847V23.4762H167.536V47.0056H161.847Z" fill="#0E0D0C"/>
<path d="M91.0883 23.4762C88.7673 23.4762 86.4984 24.1662 84.5686 25.4589C82.6387 26.7516 81.1346 28.589 80.2463 30.7388C79.3581 32.8885 79.1257 35.254 79.5786 37.536C80.0313 39.8182 81.149 41.9145 82.7903 43.5599C84.4314 45.2052 86.5224 46.3256 88.7988 46.7796C91.0753 47.2335 93.4348 47.0006 95.5793 46.11C97.7236 45.2196 99.5564 43.7118 100.846 41.777C102.135 39.8423 102.824 37.5678 102.824 35.2409C102.824 32.1208 101.587 29.1283 99.3864 26.922C97.1857 24.7158 94.2007 23.4762 91.0883 23.4762ZM91.0883 41.6275C89.8283 41.6275 88.5967 41.2529 87.549 40.5512C86.5014 39.8493 85.6848 38.8519 85.2027 37.6849C84.7204 36.518 84.5943 35.2339 84.8401 33.995C85.086 32.756 85.6927 31.6182 86.5836 30.7249C87.4746 29.8318 88.6097 29.2235 89.8454 28.977C91.0813 28.7306 92.3621 28.8572 93.5263 29.3405C94.6903 29.8239 95.6853 30.6425 96.3853 31.6928C97.0853 32.743 97.4588 33.9778 97.4588 35.2409C97.456 36.9339 96.7838 38.5566 95.5897 39.7536C94.3957 40.9508 92.777 41.6245 91.0883 41.6275Z" fill="#0E0D0C"/>
<path d="M32.412 23.4762H22.4648V47.0056H28.1537V39.1625H32.412C34.4868 39.1625 36.4768 38.3362 37.944 36.8653C39.4113 35.3945 40.2356 33.3995 40.2356 31.3193C40.2356 29.2392 39.4113 27.2443 37.944 25.7735C36.4768 24.3026 34.4868 23.4762 32.412 23.4762ZM31.0037 34.8823H28.1537V27.7563H31.0037C31.9463 27.7563 32.8503 28.1318 33.5168 28.7999C34.1834 29.4682 34.5578 30.3743 34.5578 31.3193C34.5578 32.2643 34.1834 33.1706 33.5168 33.8388C32.8503 34.507 31.9463 34.8823 31.0037 34.8823Z" fill="#0E0D0C"/>
<path d="M146.043 33.3922C145.597 30.4559 144.059 27.7979 141.736 25.9527C139.415 24.1076 136.482 23.2122 133.529 23.4463C130.575 23.6806 127.82 25.027 125.816 27.2152C123.813 29.4033 122.71 32.2707 122.729 35.2409C122.736 35.921 122.799 36.5994 122.919 37.2689C123.334 39.6752 124.488 41.8917 126.218 43.6103C127.949 45.3287 130.171 46.4636 132.575 46.8569C134.979 47.25 137.445 46.8822 139.631 45.8043C141.817 44.7264 143.613 42.9923 144.769 40.8432L140.064 38.2662C139.576 39.1814 138.873 39.9634 138.015 40.5437C137.156 41.124 136.17 41.4852 135.14 41.5956C134.111 41.7062 133.071 41.5626 132.109 41.1776C131.148 40.7926 130.295 40.1777 129.625 39.3866L145.853 33.4706L146.043 33.3922ZM128.161 35.3866C128.161 35.3306 128.161 35.2857 128.161 35.2409C128.158 33.9174 128.565 32.6257 129.328 31.545C130.09 30.4643 131.168 29.6482 132.414 29.2097C133.659 28.7713 135.01 28.7324 136.279 29.0984C137.548 29.4643 138.671 30.217 139.494 31.2522L128.161 35.3866Z" fill="#0E0D0C"/>
<path d="M44.8062 45.8852L47.8351 39.7115L38.8604 22.3558H45.8009L50.9756 33.5266L55.2451 22.3558H61.5821L51.0204 45.8852H44.8062Z" fill="#FBFBFB"/>
<path d="M67.9753 45.8852V27.3418H61.5713L63.7059 22.3558H79.353V27.3418H73.6641V45.8852H67.9753Z" fill="#FBFBFB"/>
<path d="M124.595 45.8852L115.754 33.7172L124.327 22.3558H117.856L110.647 32.8096V27.2858V22.3558H104.958V45.8852H110.647V41.8403V35.1625L117.599 45.8852H124.595Z" fill="#FBFBFB"/>
<path d="M161.847 45.8852V35.902H153.318V45.8852H147.63V22.3558H153.318V31.6219H161.847V22.3558H167.536V45.8852H161.847Z" fill="#FBFBFB"/>
<path d="M91.0883 22.3558C88.7673 22.3558 86.4984 23.0458 84.5686 24.3385C82.6387 25.6312 81.1346 27.4686 80.2463 29.6183C79.3581 31.768 79.1257 34.1336 79.5786 36.4156C80.0313 38.6978 81.149 40.794 82.7903 42.4395C84.4314 44.0848 86.5224 45.2052 88.7988 45.6592C91.0753 46.113 93.4348 45.88 95.5793 44.9896C97.7236 44.0992 99.5564 42.5913 100.846 40.6566C102.135 38.7219 102.824 36.4473 102.824 34.1205C102.824 31.0003 101.587 28.0079 99.3864 25.8016C97.1857 23.5953 94.2007 22.3558 91.0883 22.3558ZM91.0883 40.507C89.8283 40.507 88.5967 40.1325 87.549 39.4308C86.5014 38.7289 85.6848 37.7315 85.2027 36.5645C84.7204 35.3975 84.5943 34.1135 84.8401 32.8746C85.086 31.6356 85.6927 30.4978 86.5836 29.6045C87.4746 28.7113 88.6097 28.103 89.8454 27.8566C91.0813 27.6102 92.3621 27.7368 93.5263 28.22C94.6903 28.7035 95.6853 29.522 96.3853 30.5723C97.0853 31.6226 97.4588 32.8573 97.4588 34.1205C97.456 35.8135 96.7838 37.4362 95.5897 38.6332C94.3957 39.8303 92.777 40.504 91.0883 40.507Z" fill="#FBFBFB"/>
<path d="M32.412 22.3558H22.4648V45.8852H28.1537V38.042H32.412C34.4868 38.042 36.4768 37.2158 37.944 35.7449C39.4113 34.274 40.2356 32.279 40.2356 30.1989C40.2356 28.1188 39.4113 26.1239 37.944 24.653C36.4768 23.1822 34.4868 22.3558 32.412 22.3558ZM31.0037 33.7619H28.1537V26.6359H31.0037C31.9463 26.6359 32.8503 27.0113 33.5168 27.6795C34.1834 28.3478 34.5578 29.2539 34.5578 30.1989C34.5578 31.1439 34.1834 32.0502 33.5168 32.7183C32.8503 33.3866 31.9463 33.7619 31.0037 33.7619Z" fill="#FBFBFB"/>
<path d="M146.043 32.2717C145.597 29.3354 144.059 26.6774 141.736 24.8323C139.415 22.9872 136.482 22.0916 133.529 22.3259C130.575 22.56 127.82 23.9066 125.816 26.0947C123.813 28.2829 122.71 31.1503 122.729 34.1204C122.736 34.8006 122.799 35.479 122.919 36.1484C123.334 38.5547 124.488 40.7713 126.218 42.4897C127.949 44.2083 130.171 45.3432 132.575 45.7363C134.979 46.1296 137.445 45.7617 139.631 44.6839C141.817 43.606 143.613 41.8719 144.769 39.7227L140.064 37.1457C139.576 38.061 138.873 38.8429 138.015 39.4233C137.156 40.0036 136.17 40.3647 135.14 40.4752C134.111 40.5857 133.071 40.4422 132.109 40.0572C131.148 39.672 130.295 39.0571 129.625 38.2662L145.853 32.3502L146.043 32.2717ZM128.161 34.2662C128.161 34.2102 128.161 34.1653 128.161 34.1204C128.158 32.797 128.565 31.5053 129.328 30.4246C130.09 29.3439 131.168 28.5277 132.414 28.0893C133.659 27.6509 135.01 27.612 136.279 27.9779C137.548 28.3439 138.671 29.0966 139.494 30.1317L128.161 34.2662Z" fill="#FBFBFB"/>
</g>
</svg>
