<svg width="208" height="66" viewBox="0 0 208 66" fill="none" xmlns="http://www.w3.org/2000/svg">
<g clip-path="url(#clip0_12_404)">
<path d="M82.89 28.4798H76.75V46.8998C76.75 53.6867 82.2432 59.1798 89.03 59.1798V53.0501C85.6315 53.0501 82.89 50.2984 82.89 46.9101V40.7701H89.03V34.63H82.89V28.4798Z" fill="#0E0D0C"/>
<path d="M104.37 34.6198C97.583 34.6198 92.0898 40.1129 92.0898 46.8998C92.0898 53.6867 97.5933 59.1798 104.37 59.1798C111.157 59.1798 116.65 53.6867 116.65 46.8998C116.65 40.1129 111.157 34.6198 104.37 34.6198ZM104.37 53.0398C100.982 53.0398 98.2299 50.2881 98.2299 46.8998C98.2299 43.5115 100.982 40.7598 104.37 40.7598C107.758 40.7598 110.51 43.5115 110.51 46.8998C110.51 50.2881 107.758 53.0398 104.37 53.0398Z" fill="#0E0D0C"/>
<path d="M119.72 46.8998V59.1798H125.86V46.8998C125.86 43.5115 128.602 40.7598 132 40.7598V34.6198C125.224 34.63 119.72 40.1232 119.72 46.8998Z" fill="#0E0D0C"/>
<path d="M33.7703 34.6198C26.9834 34.6198 21.4902 40.1129 21.4902 46.8998C21.4902 53.6867 26.9834 59.1798 33.7703 59.1798C36.0086 59.1798 38.1032 58.574 39.9103 57.5268V59.1798H46.0503V46.8998C46.0503 40.1232 40.5571 34.6198 33.7703 34.6198ZM33.7703 53.0398C30.382 53.0398 27.6302 50.2881 27.6302 46.8998C27.6302 43.5115 30.382 40.7598 33.7703 40.7598C37.1586 40.7598 39.9103 43.5115 39.9103 46.8998C39.9103 50.2881 37.1586 53.0398 33.7703 53.0398Z" fill="#0E0D0C"/>
<path d="M61.4001 34.63C54.6133 34.63 49.1201 40.1232 49.1201 46.9101V59.1798H55.2601V46.8998C55.2601 43.5115 58.0016 40.7598 61.4001 40.7598C64.7884 40.7598 67.5402 43.5115 67.5402 46.8998V59.1798H73.6802V46.8998C73.6802 40.1232 68.1767 34.63 61.4001 34.63Z" fill="#0E0D0C"/>
<path d="M9.21002 28.49H6.14001V34.63H0C0 36.3242 0.687928 37.8643 1.79683 38.9732C2.90572 40.0821 4.44586 40.77 6.14001 40.77V46.9101C6.14001 53.6969 11.6332 59.1901 18.42 59.1901V53.0501C15.0215 53.0501 12.28 50.2984 12.28 46.9101V40.77H18.42V37.7C13.3376 37.7 9.21002 33.5725 9.21002 28.49Z" fill="#0E0D0C"/>
<path d="M18.4201 25.3892C16.7157 25.3892 15.3296 26.7753 15.3296 28.4798C15.3296 30.1944 16.7157 31.5703 18.4201 31.5703C20.1245 31.5703 21.5107 30.1842 21.5107 28.4798C21.5209 26.7753 20.1348 25.3892 18.4201 25.3892Z" fill="#0E0D0C"/>
<path d="M55.2602 16.21V22.3911C55.2602 22.5657 55.25 22.7402 55.25 22.9147C55.2397 23.0585 55.2397 23.2125 55.2294 23.3665C55.2192 23.5924 55.1986 23.808 55.1781 24.0339C55.1678 24.1469 55.1576 24.2598 55.1473 24.3625C55.1268 24.5986 55.096 24.8348 55.0652 25.0709C55.0549 25.1531 55.0446 25.225 55.0241 25.3071C54.983 25.5638 54.9419 25.8205 54.8803 26.0772C54.8803 26.0874 54.8701 26.108 54.8701 26.1285C53.9255 30.7181 51.2764 34.6917 47.6109 37.3304C47.6109 37.3202 47.6006 37.3202 47.6006 37.3099C47.2002 37.5974 46.7792 37.8746 46.3582 38.1416C45.1056 36.3345 43.4833 34.8251 41.5838 33.706C45.6395 32.0118 48.5863 28.2026 49.0484 23.654C49.0484 23.6335 49.0586 23.6232 49.0586 23.6027C49.0997 23.2022 49.1202 22.7915 49.1202 22.3706C49.1202 21.9188 49.0997 16.21 49.0997 16.21C49.0997 14.5261 47.7341 13.1605 46.0502 13.1605H25.2789C25.207 13.1503 25.1454 13.1503 25.0838 13.1503C24.9093 13.14 24.7347 13.14 24.5602 13.14C17.7733 13.14 12.2801 18.6332 12.2801 25.42H6.14014C6.14014 15.2449 14.385 7 24.5602 7H46.0502C51.1327 7 55.2602 11.1276 55.2602 16.21Z" fill="#0E0D0C"/>
</g>
<defs>
<clipPath id="clip0_12_404">
<rect width="208" height="66" fill="white"/>
</clipPath>
</defs>
</svg>
