<svg width="208" height="66" viewBox="0 0 208 66" fill="none" xmlns="http://www.w3.org/2000/svg">
<mask id="mask0_12_777" style="mask-type:luminance" maskUnits="userSpaceOnUse" x="0" y="11" width="173" height="43">
<path d="M173 11.1725H0V53.875H173V11.1725Z" fill="white"/>
</mask>
<g mask="url(#mask0_12_777)">
<path fill-rule="evenodd" clip-rule="evenodd" d="M43.9824 28.6416L48.8199 32.4332C49.0359 32.6008 49.2002 32.8257 49.2938 33.082C49.3874 33.3384 49.4067 33.6157 49.3494 33.8824C48.1413 39.5018 45.0339 44.5385 40.5462 48.1517C36.0585 51.7648 30.462 53.7359 24.6909 53.7359C18.9197 53.7359 13.3231 51.7648 8.83544 48.1517C4.34775 44.5385 1.24045 39.5018 0.0322573 33.8824C-0.0250268 33.6157 -0.00573847 33.3384 0.0879144 33.082C0.181568 32.8257 0.345801 32.6008 0.561816 32.4332L5.39931 28.6416C4.54812 26.3512 3.00493 21.0523 5.07444 17.9079C5.77943 16.8403 7.17967 15.5721 10.0257 15.5721C12.8716 15.5721 14.3109 16.8499 15.0191 17.924C17.1015 21.0879 15.5032 26.3998 14.652 28.687L16.1529 29.926L19.7267 27.338C18.7 24.6108 16.5395 17.8107 19.0769 13.9579C19.8728 12.748 21.494 11.3083 24.6909 11.3083C27.8877 11.3083 29.5088 12.748 30.2918 13.9675C32.8421 17.8205 30.6817 24.6205 29.6421 27.3476L33.2157 29.9357L34.7297 28.674C33.8785 26.3868 32.2801 21.075 34.3626 17.911C35.0709 16.8532 36.5426 15.5592 39.356 15.5592C42.1696 15.5592 43.6023 16.8273 44.3072 17.8948C46.3768 21.0394 44.8238 26.3383 43.9824 28.6416ZM8.06335 30.2592L3.1024 34.1413C4.37733 39.0353 7.29488 43.3479 11.3707 46.3632V34.1413C11.3734 33.918 11.4276 33.6984 11.529 33.4993C11.6304 33.3003 11.7762 33.1269 11.9555 32.9928L13.7228 31.6988L11.9782 30.2592C11.7263 30.0564 11.5493 29.776 11.4752 29.4621C11.4012 29.148 11.434 28.8185 11.5688 28.5252C12.6377 26.0634 13.8625 21.434 12.5825 19.493C12.4136 19.2374 11.8678 18.4577 10.0386 18.4577C8.2149 18.4577 7.70248 19.2232 7.53204 19.4778L7.53054 19.4801C6.24727 21.4211 7.44608 26.0666 8.5052 28.5382C8.6315 28.8336 8.65666 29.1621 8.57681 29.4731C8.49696 29.7842 8.31653 30.0605 8.06335 30.2592ZM14.2946 34.8982V48.2267H14.2686C17.471 49.9319 21.0464 50.8242 24.6779 50.8242C28.3093 50.8242 31.8847 49.9319 35.0871 48.2267V34.8982L26.9975 29.0266C26.7282 28.8324 26.5334 28.5524 26.4455 28.233C26.3575 27.9137 26.3815 27.574 26.5134 27.27C27.4491 25.1187 29.7005 18.3543 27.8553 15.5559C27.2639 14.6566 26.2308 14.2231 24.6909 14.2231C23.1509 14.2231 22.1178 14.6566 21.5265 15.5559C19.6811 18.3543 21.9326 25.1187 22.8683 27.27C23.0003 27.574 23.0243 27.9137 22.9362 28.233C22.8482 28.5524 22.6535 28.8324 22.3842 29.0266L14.2946 34.8982ZM38.0402 46.3666C42.0995 43.354 45.0059 39.0531 46.2793 34.1736L41.3184 30.2916C41.0652 30.0928 40.8848 29.8165 40.8049 29.5055C40.725 29.1945 40.7502 28.8659 40.8765 28.5705C41.9356 26.0925 43.1506 21.4534 41.8512 19.5124C41.848 19.5077 41.8447 19.5026 41.8412 19.4976C41.6637 19.2313 41.1695 18.4902 39.3431 18.4902C37.4836 18.4902 36.9693 19.2681 36.7998 19.5245C35.3605 21.7082 37.0916 26.9077 37.8128 28.5575C37.9396 28.8469 37.9682 29.1696 37.8944 29.4766C37.8205 29.7837 37.6481 30.0584 37.4035 30.2592L35.6719 31.6697L37.4392 32.9637C37.6254 33.099 37.7768 33.2763 37.8813 33.4808C37.9857 33.6855 38.0401 33.9117 38.0402 34.1413V46.3666ZM58.1539 12.6282H72.4487C72.5349 12.6282 72.6175 12.6623 72.6785 12.723C72.7393 12.7837 72.7736 12.8659 72.7736 12.9517V16.1867C72.7736 16.2726 72.7393 16.3549 72.6785 16.4156C72.6175 16.4762 72.5349 16.5103 72.4487 16.5103H67.413V47.8902C67.413 47.9759 67.3787 48.0583 67.3179 48.1189C67.257 48.1796 67.1743 48.2136 67.0882 48.2136H63.5144C63.4283 48.2136 63.3457 48.1796 63.2847 48.1189C63.2238 48.0583 63.1895 47.9759 63.1895 47.8902V16.5103H58.1539C58.0677 16.5103 57.9851 16.4762 57.9242 16.4156C57.8632 16.3549 57.829 16.2726 57.829 16.1867V12.9517C57.829 12.8659 57.8632 12.7837 57.9242 12.723C57.9851 12.6623 58.0677 12.6282 58.1539 12.6282ZM73.0985 22.9804H79.1088C80.789 22.9804 82.4004 23.645 83.5885 24.8281C84.7765 26.0111 85.444 27.6156 85.444 29.2887V41.9054C85.444 43.5784 84.7765 45.183 83.5885 46.366C82.4004 47.549 80.789 48.2136 79.1088 48.2136H76.9971V52.0957C76.9971 52.1816 76.9628 52.2638 76.902 52.3245C76.841 52.3851 76.7583 52.4193 76.6722 52.4193H73.0985C73.0123 52.4193 72.9296 52.3851 72.8688 52.3245C72.8078 52.2638 72.7736 52.1816 72.7736 52.0957V23.3038C72.7736 23.2181 72.8078 23.1357 72.8688 23.0751C72.9296 23.0144 73.0123 22.9804 73.0985 22.9804ZM76.9971 44.0081H79.1088C79.6681 44.0056 80.2037 43.7832 80.5992 43.3894C80.9947 42.9956 81.218 42.4623 81.2205 41.9054V29.2887C81.218 28.7317 80.9947 28.1984 80.5992 27.8047C80.2037 27.4108 79.6681 27.1884 79.1088 27.1859H76.9971V44.0081ZM158.218 22.9804H166.664C168.345 22.9804 169.956 23.645 171.144 24.8281C172.333 26.0111 173 27.6156 173 29.2887V41.9054C173 43.5784 172.333 45.183 171.144 46.366C169.956 47.549 168.345 48.2136 166.664 48.2136H164.553V52.0957C164.553 52.1816 164.518 52.2638 164.458 52.3245C164.397 52.3851 164.315 52.4193 164.228 52.4193H160.654C160.568 52.4193 160.486 52.3851 160.424 52.3245C160.364 52.2638 160.329 52.1816 160.329 52.0957V48.2136H158.218C156.537 48.2136 154.926 47.549 153.738 46.366C152.55 45.183 151.883 43.5784 151.883 41.9054V29.2887C151.883 27.6156 152.55 26.0111 153.738 24.8281C154.926 23.645 156.537 22.9804 158.218 22.9804ZM158.218 44.0081H160.329V27.1859H158.218C157.659 27.1877 157.122 27.4097 156.727 27.8037C156.33 28.1976 156.108 28.7315 156.106 29.2887V41.9054C156.107 42.4628 156.329 42.9971 156.726 43.3913C157.121 43.7855 157.657 44.0073 158.218 44.0081ZM168.157 43.3913C168.553 42.9971 168.775 42.4628 168.777 41.9054V29.2887C168.774 28.7315 168.552 28.1976 168.156 27.8037C167.76 27.4097 167.224 27.1877 166.664 27.1859H164.553V44.0081H166.664C167.224 44.0073 167.762 43.7855 168.157 43.3913ZM97.1593 39.3497V23.3038C97.1593 23.2181 97.1935 23.1357 97.2544 23.0751C97.3154 23.0144 97.398 22.9804 97.4841 22.9804H101.058C101.144 22.9804 101.227 23.0144 101.288 23.0751C101.348 23.1357 101.383 23.2181 101.383 23.3038V46.1109C101.383 47.784 100.715 49.3885 99.5272 50.5716C98.3392 51.7545 96.7278 52.4193 95.0476 52.4193H90.9865C90.9004 52.4193 90.8177 52.3851 90.7567 52.3245C90.6959 52.2638 90.6616 52.1816 90.6616 52.0957V48.5372C90.6616 48.4513 90.6959 48.3691 90.7567 48.3085C90.8177 48.2478 90.9004 48.2136 90.9865 48.2136H95.0476C95.6069 48.2111 96.1424 47.9887 96.5379 47.595C96.9334 47.2011 97.1568 46.6678 97.1593 46.1109V45.3668C96.0986 45.746 94.9546 45.832 93.8487 45.6159C92.3847 45.3073 91.0732 44.5037 90.1368 43.3413C89.2005 42.179 88.6972 40.7296 88.7124 39.2396V23.3038C88.7124 23.2181 88.7465 23.1357 88.8075 23.0751C88.8684 23.0144 88.9511 22.9804 89.0372 22.9804H92.6109C92.6971 22.9804 92.7797 23.0144 92.8406 23.0751C92.9016 23.1357 92.9358 23.2181 92.9358 23.3038V39.424C92.936 39.7237 93.0004 40.0199 93.1248 40.2929C93.2491 40.5657 93.4305 40.809 93.6568 41.0065C93.8832 41.2041 94.1492 41.3512 94.4373 41.4382C94.7252 41.5251 95.0285 41.5498 95.327 41.5106C95.8425 41.4305 96.3117 41.1678 96.6483 40.7708C96.9848 40.3738 97.1663 39.8692 97.1593 39.3497ZM113.836 22.9804H117.409C117.495 22.9804 117.578 23.0144 117.639 23.0751C117.7 23.1357 117.734 23.2181 117.734 23.3038V30.4209C117.735 31.2467 117.573 32.0646 117.255 32.8279C116.939 33.5911 116.475 34.2847 115.889 34.8691C116.475 35.4536 116.939 36.1472 117.255 36.9104C117.573 37.6737 117.735 38.4915 117.734 39.3173V47.8902C117.734 47.9759 117.7 48.0583 117.639 48.1189C117.578 48.1796 117.495 48.2136 117.409 48.2136H113.836C113.749 48.2136 113.666 48.1796 113.606 48.1189C113.545 48.0583 113.511 47.9759 113.511 47.8902V39.3173C113.509 38.7604 113.285 38.227 112.889 37.8332C112.494 37.4395 111.958 37.2171 111.399 37.2146H109.287V47.8902C109.287 47.9759 109.253 48.0583 109.192 48.1189C109.131 48.1796 109.048 48.2136 108.962 48.2136H105.389C105.302 48.2136 105.22 48.1796 105.159 48.1189C105.098 48.0583 105.064 47.9759 105.064 47.8902V23.3038C105.064 23.2181 105.098 23.1357 105.159 23.0751C105.22 23.0144 105.302 22.9804 105.389 22.9804H108.962C109.048 22.9804 109.131 23.0144 109.192 23.0751C109.253 23.1357 109.287 23.2181 109.287 23.3038V32.5237H111.399C111.958 32.5212 112.494 32.2988 112.889 31.905C113.285 31.5112 113.509 30.9779 113.511 30.4209V23.3038C113.511 23.2181 113.545 23.1357 113.606 23.0751C113.666 23.0144 113.749 22.9804 113.836 22.9804ZM122.549 24.8281C123.737 23.645 125.349 22.9804 127.029 22.9804C128.71 22.9804 130.32 23.645 131.508 24.8281C132.696 26.0111 133.364 27.6156 133.364 29.2887V41.9054C133.364 43.5784 132.696 45.183 131.508 46.366C130.32 47.549 128.71 48.2136 127.029 48.2136C125.349 48.2136 123.737 47.549 122.549 46.366C121.361 45.183 120.694 43.5784 120.694 41.9054V29.2887C120.694 27.6156 121.361 26.0111 122.549 24.8281ZM125.536 43.3913C125.933 43.7855 126.469 44.0073 127.029 44.0081C127.588 44.0073 128.126 43.7855 128.521 43.3913C128.918 42.9971 129.14 42.4628 129.141 41.9054V29.2887C129.141 28.731 128.919 28.1961 128.522 27.8018C128.126 27.4074 127.589 27.1859 127.029 27.1859C126.469 27.1859 125.932 27.4074 125.535 27.8018C125.14 28.1961 124.918 28.731 124.918 29.2887V41.9054C124.918 42.4628 125.141 42.9971 125.536 43.3913ZM144.735 33.4943V23.3038C144.735 23.2181 144.769 23.1357 144.83 23.0751C144.892 23.0144 144.974 22.9804 145.06 22.9804H148.634C148.72 22.9804 148.803 23.0144 148.863 23.0751C148.924 23.1357 148.958 23.2181 148.958 23.3038V47.8902C148.958 47.9759 148.924 48.0583 148.863 48.1189C148.803 48.1796 148.72 48.2136 148.634 48.2136H145.06C144.974 48.2136 144.892 48.1796 144.83 48.1189C144.769 48.0583 144.735 47.9759 144.735 47.8902V37.6998H140.512V47.8902C140.512 47.9759 140.478 48.0583 140.417 48.1189C140.355 48.1796 140.273 48.2136 140.187 48.2136H136.613C136.527 48.2136 136.444 48.1796 136.383 48.1189C136.323 48.0583 136.288 47.9759 136.288 47.8902V23.3038C136.288 23.2181 136.323 23.1357 136.383 23.0751C136.444 23.0144 136.527 22.9804 136.613 22.9804H140.187C140.273 22.9804 140.355 23.0144 140.417 23.0751C140.478 23.1357 140.512 23.2181 140.512 23.3038V33.4943H144.735Z" fill="#0E0D0C"/>
</g>
</svg>
