<svg width="51" height="69" viewBox="0 0 51 69" fill="none" xmlns="http://www.w3.org/2000/svg">
    <path d="M50.4594 57.0368V69H2.94691V57.0368H20.6086V14.8634C19.8623 15.8301 18.7015 16.8371 17.126 17.8844C15.5506 18.9317 13.7678 19.9387 11.7778 20.9054C9.87063 21.7916 7.92204 22.5166 5.93199 23.0806C3.94194 23.6445 2.11773 23.9264 0.459351 23.9264V11.4799C2.11773 11.4799 4.02486 10.9965 6.18074 10.0298C8.33663 9.06305 10.4511 7.9352 12.524 6.64624C14.6799 5.27671 16.5041 3.98774 17.9967 2.77933C19.4892 1.49037 20.3598 0.563925 20.6086 0H34.6633V57.0368H50.4594Z"
          fill="#FF751B"/>
</svg>
