<svg width="51" height="69" viewBox="0 0 51 69" fill="none" xmlns="http://www.w3.org/2000/svg">
    <path d="M0.963867 69C0.963867 65.6747 1.21585 62.6265 1.71981 59.8554C2.22377 57.0052 3.0877 54.3133 4.3116 51.7797C5.6075 49.2461 7.37135 46.8709 9.60318 44.654C11.907 42.358 14.8228 40.1807 18.3505 38.1222C20.8703 36.5387 23.2461 35.1532 25.4779 33.9656C27.7097 32.6988 29.6896 31.4716 31.4174 30.284C33.1453 29.0172 34.4772 27.6713 35.4131 26.2461C36.421 24.821 36.925 23.1979 36.925 21.3769C36.925 19.6351 36.493 18.0121 35.6291 16.5077C34.7652 15.0034 33.4693 13.8158 31.7414 12.9449C30.0135 11.9948 27.9257 11.5198 25.4779 11.5198C23.5341 11.5198 21.7342 11.7969 20.0783 12.3511C18.4945 12.9053 17.0186 13.6575 15.6507 14.6076C14.3548 15.4785 13.1669 16.4682 12.087 17.5766C11.0071 18.6059 10.0711 19.6351 9.2792 20.6644L1.8278 11.2823C2.54774 10.3322 3.66365 9.26334 5.17553 8.07573C6.7594 6.80895 8.63125 5.58175 10.7911 4.39415C13.0229 3.12737 15.5427 2.09811 18.3505 1.30637C21.1583 0.435455 24.218 0 27.5297 0C32.2094 0 36.205 0.870913 39.5168 2.61274C42.8285 4.27539 45.3483 6.61102 47.0762 9.61963C48.876 12.5491 49.776 15.8744 49.776 19.5955C49.776 22.525 49.236 25.0981 48.1561 27.315C47.1482 29.5318 45.8163 31.5112 44.1604 33.253C42.5045 34.9157 40.7407 36.3804 38.8688 37.6472C37.069 38.8348 35.3771 39.9036 33.7932 40.8537C30.9855 42.358 28.5377 43.7435 26.4498 45.0103C24.434 46.2771 22.7061 47.5439 21.2662 48.8107C19.8264 49.9983 18.6385 51.2651 17.7025 52.611C16.7666 53.8778 15.9747 55.4217 15.3267 57.2427H50.9639V69H0.963867Z"
          fill="#F6A366"/>
</svg>
