<svg width="108" height="120" viewBox="0 0 108 120" fill="none" xmlns="http://www.w3.org/2000/svg">
<path d="M45.419 4.59257C40.6847 8.44442 39.0573 9.03701 34.3231 8.14812C27.6656 7.11109 25.8902 8.59257 24.4108 16.7407C23.5231 21.3333 22.1916 22.8148 17.6053 25.3333C11.2437 28.5926 10.356 31.5555 14.0546 38.5185C16.1258 42.5185 16.1258 43.4074 14.0546 47.4074C10.356 54.3704 11.2437 57.3333 17.6053 60.5926C22.1916 63.1111 23.5231 64.5926 24.4108 69.1852C25.8902 77.4815 27.5176 78.8148 35.0628 77.6297C40.8327 76.7408 42.1642 77.1852 47.3423 81.3334C50.4491 83.8519 53.7039 85.9259 54.2957 85.9259C55.0354 85.9259 57.9943 83.8519 61.1011 81.3334C66.1313 77.1852 67.4628 76.7408 72.7888 77.6297C80.1861 78.8148 82.5532 77.0371 83.7367 69.3334C84.6244 64.2963 85.5121 63.2593 90.3943 61.3333C97.6436 58.3704 98.3833 55.7037 94.0929 48.2963C90.8381 42.6667 90.6902 41.9259 92.7614 38.0741C96.0162 31.8518 94.6847 27.8518 88.6189 24.8889C84.1806 22.8148 82.997 21.3333 82.1093 16.7407C80.6299 8.44442 79.0025 7.11109 71.6052 8.29627C65.9833 9.03701 64.5039 8.59257 58.882 4.59257C55.4792 2.07404 52.2244 -3.05176e-05 51.7806 -3.05176e-05C51.3368 -3.05176e-05 48.5258 2.07404 45.419 4.59257Z" fill="url(#paint0_radial_4_1088)"/>
<path d="M9.02465 84.1481C3.99452 94.0741 0 102.963 0 103.852C0 104.593 1.18356 105.037 2.66301 104.593C3.99452 104.296 8.58082 103.556 12.8712 102.963L20.4164 101.926L25.4466 110.519C28.1096 115.259 31.0685 119.259 31.9561 119.556C33.2876 120 47.3424 91.4074 47.3424 88C47.3424 84.4444 39.9452 81.1852 34.0274 82.2222C28.9972 83.1111 27.6657 82.6667 24.4109 79.4074C22.3397 77.3333 20.7123 74.5185 20.7123 73.037C20.7123 71.5555 20.1205 69.4815 19.3808 68.2963C18.3452 66.8148 15.5342 71.1111 9.02465 84.1481Z" fill="url(#paint1_radial_4_1088)"/>
<path d="M85.9562 72.5925C83.737 80.2962 79.1507 83.4073 71.6055 82.074C66.7233 81.3333 65.2439 81.7777 62.285 84.8888L58.8822 88.7407L66.2795 104.296C70.422 112.889 74.4165 120 75.1562 120C75.748 120 78.7069 116 81.3699 111.111C85.8082 103.111 86.8439 102.222 90.2466 102.815C98.2356 104.444 108 105.481 108 104.741C108 103.852 88.6192 66.6666 88.1754 66.6666C87.8795 66.6666 86.9918 69.3333 85.9562 72.5925Z" fill="url(#paint2_radial_4_1088)"/>
<defs>
<radialGradient id="paint0_radial_4_1088" cx="0" cy="0" r="1" gradientUnits="userSpaceOnUse" gradientTransform="translate(5 111) rotate(-45.2761) scale(121.283 209.35)">
<stop stop-color="#0D0300"/>
<stop offset="0.10936" stop-color="#340C00"/>
<stop offset="0.264132" stop-color="#541400"/>
<stop offset="0.400953" stop-color="#831F00"/>
<stop offset="0.540236" stop-color="#AB2706"/>
<stop offset="0.622515" stop-color="#C82D0B"/>
<stop offset="0.707057" stop-color="#E5320F"/>
<stop offset="0.767093" stop-color="#E74F13"/>
<stop offset="0.849185" stop-color="#E97318"/>
<stop offset="0.922197" stop-color="#EA9924"/>
<stop offset="0.970352" stop-color="#FFCD84"/>
<stop offset="1" stop-color="#FFCD84"/>
</radialGradient>
<radialGradient id="paint1_radial_4_1088" cx="0" cy="0" r="1" gradientUnits="userSpaceOnUse" gradientTransform="translate(5 111) rotate(-45.2761) scale(121.283 209.35)">
<stop stop-color="#0D0300"/>
<stop offset="0.10936" stop-color="#340C00"/>
<stop offset="0.264132" stop-color="#541400"/>
<stop offset="0.400953" stop-color="#831F00"/>
<stop offset="0.540236" stop-color="#AB2706"/>
<stop offset="0.622515" stop-color="#C82D0B"/>
<stop offset="0.707057" stop-color="#E5320F"/>
<stop offset="0.767093" stop-color="#E74F13"/>
<stop offset="0.849185" stop-color="#E97318"/>
<stop offset="0.922197" stop-color="#EA9924"/>
<stop offset="0.970352" stop-color="#FFCD84"/>
<stop offset="1" stop-color="#FFCD84"/>
</radialGradient>
<radialGradient id="paint2_radial_4_1088" cx="0" cy="0" r="1" gradientUnits="userSpaceOnUse" gradientTransform="translate(5 111) rotate(-45.2761) scale(121.283 209.35)">
<stop stop-color="#0D0300"/>
<stop offset="0.10936" stop-color="#340C00"/>
<stop offset="0.264132" stop-color="#541400"/>
<stop offset="0.400953" stop-color="#831F00"/>
<stop offset="0.540236" stop-color="#AB2706"/>
<stop offset="0.622515" stop-color="#C82D0B"/>
<stop offset="0.707057" stop-color="#E5320F"/>
<stop offset="0.767093" stop-color="#E74F13"/>
<stop offset="0.849185" stop-color="#E97318"/>
<stop offset="0.922197" stop-color="#EA9924"/>
<stop offset="0.970352" stop-color="#FFCD84"/>
<stop offset="1" stop-color="#FFCD84"/>
</radialGradient>
</defs>
</svg>
